<svg id="Layer_1" data-name="Layer 1" xmlns="http://www.w3.org/2000/svg" xmlns:xlink="http://www.w3.org/1999/xlink" width="243" height="50" viewBox="0 0 327 -50"><defs><style>.cls-1{fill:url(#linear-gradient);}.cls-2{fill:#004fa5;}.cls-3{fill:none;}.cls-4{font-size:40px;font-family:MyriadPro-Regular, Myriad Pro;}</style><linearGradient id="linear-gradient" x1="-30.5" y1="62" x2="243.5" y2="62" gradientUnits="userSpaceOnUse"><stop offset="0" stop-color="#0233ce"/><stop offset="0.06" stop-color="#1345da"/><stop offset="0.15" stop-color="#275be8"/><stop offset="0.25" stop-color="#366af1"/><stop offset="0.37" stop-color="#3e73f7"/><stop offset="0.54" stop-color="#4176f9"/><stop offset="0.73" stop-color="#295de9"/><stop offset="1" stop-color="#0233ce"/></linearGradient></defs><title>icone-cliquer-ici</title><path class="cls-1" d="M243.5,85A13.49,13.49,0,0,1,230,98.5H-17A13.49,13.49,0,0,1-30.5,85V39A13.49,13.49,0,0,1-17,25.5H230A13.49,13.49,0,0,1,243.5,39Z" transform="translate(32.5 -23.5)"/><path class="cls-2" d="M230,26.5a11.34,11.34,0,0,1,11.5,11.7v46c0,6.62-4.88,12.3-11.5,12.3H-17A12.71,12.71,0,0,1-29.5,84.2v-46c0-6.62,5.88-11.7,12.5-11.7H229.5m.5-3H-17c-8.25,0-15.5,6.45-15.5,14.7v46c0,8.25,7.25,15.3,15.5,15.3H230c8.25,0,14.5-7,14.5-15.3v-46A14.37,14.37,0,0,0,230,23.5Z" transform="translate(32.5 -23.5)"/><path class="cls-3" d="M230,23.5H-17c-8.25,0-15.5,6.45-15.5,14.7v46c0,8.25,7.25,15.3,15.5,15.3H230c8.25,0,14.5-7,14.5-15.3v-46A14.37,14.37,0,0,0,230,23.5Z" transform="translate(32.5 -23.5)"/><text class="cls-4" transform="translate(58.5 49.5)">Cliquer ici</text></svg>