<?xml version="1.0" encoding="utf-8"?>
<!-- Generator: Adobe Illustrator 24.0.1, SVG Export Plug-In . SVG Version: 6.00 Build 0)  -->

	<svg xmlns="http://www.w3.org/2000/svg" xmlns:xlink="http://www.w3.org/1999/xlink" width="209" height="158.969" viewBox="0 0 209 158.969">
	<style type="text/css">
	.st0{fill:#E7EFF2;}
	.st1{fill:#007BFF;}
	.st2{fill:#1BA9B6;enable-background:new    ;}
	.st3{fill:url(#Tracé_913_1_);}
	.st4{fill:url(#Tracé_914_1_);}
	.st5{fill:url(#Tracé_916_1_);}
	.st6{fill:url(#Tracé_917_1_);}
	.st7{fill:url(#Tracé_918_1_);}
	.st8{fill:url(#Tracé_919_1_);}
	.st9{fill:url(#Tracé_920_1_);}
	.st10{fill:url(#Rectangle_32_1_);}
	.st11{fill:#1F9510;}
	.st12{fill:url(#Tracé_922_1_);enable-background:new    ;}
	.st13{fill:url(#Tracé_924_1_);}
	.st14{fill:#22B3BA;enable-background:new    ;}
	.st15{fill:#FFFFFF;}
	.st16{fill:url(#Rectangle_35_1_);enable-background:new    ;}
	.st17{fill:url(#Rectangle_36_1_);enable-background:new    ;}
	.st18{fill:url(#Rectangle_37_1_);enable-background:new    ;}
	.st19{fill:url(#Rectangle_38_1_);enable-background:new    ;}
	.st20{fill:url(#Rectangle_39_1_);enable-background:new    ;}
	.st21{fill:url(#Rectangle_41_3_);enable-background:new    ;}
	.st22{fill:url(#Rectangle_47_1_);enable-background:new    ;}
	.st23{fill:url(#Rectangle_48_1_);enable-background:new    ;}
	.st24{fill:url(#Rectangle_49_1_);enable-background:new    ;}
	.st25{fill:url(#Rectangle_50_1_);enable-background:new    ;}
	.st26{fill:url(#Rectangle_51_1_);enable-background:new    ;}
	.st27{fill:url(#Rectangle_52_4_);enable-background:new    ;}
	.st28{fill:url(#Rectangle_53_1_);enable-background:new    ;}
	.st29{fill:url(#Rectangle_54_1_);enable-background:new    ;}
	.st30{fill:url(#Tracé_926_1_);}
	.st31{fill:url(#Tracé_928_1_);}
	.st32{fill:url(#Tracé_929_1_);}
	.st33{fill:#0E6293;}
	.st34{fill:url(#Tracé_931_1_);enable-background:new    ;}
	.st35{fill:#3F3D56;}
	.st36{fill:url(#Tracé_933_1_);}
	.st37{fill:none;stroke:#3CB6D5;stroke-width:1.51;stroke-miterlimit:10;}
	.st38{fill:url(#Tracé_937_1_);}
	.st39{fill:#1D6D6D;enable-background:new    ;}
	.st40{fill:url(#Tracé_947_1_);}
	.st41{fill:url(#Tracé_951_1_);}
	.st42{fill:url(#Tracé_953_1_);}
	.st43{fill:url(#Tracé_954_1_);}
	.st44{fill:url(#Tracé_955_1_);}
	.st45{fill:url(#Tracé_960_1_);enable-background:new    ;}
	.st46{fill:url(#Tracé_961_1_);enable-background:new    ;}
	.st47{fill:url(#Tracé_964_1_);enable-background:new    ;}
	.st48{fill:#135957;}
	.st49{fill:url(#Tracé_971_1_);}
	.st50{fill:url(#Tracé_973_1_);}
	.st51{fill:url(#Rectangle_52_6_);enable-background:new    ;}
	.st52{fill:url(#Rectangle_52_7_);enable-background:new    ;}
	.st53{fill:url(#Rectangle_41_4_);enable-background:new    ;}
	.st54{fill:url(#Rectangle_52_8_);enable-background:new    ;}
	.st55{fill:url(#Rectangle_41_5_);enable-background:new    ;}
	.st56{fill:url(#Rectangle_52_9_);enable-background:new    ;}
</style>
<g>
	<path id="Tracé_909" class="st0" d="M193.9,45c-0.7,12.3-3.5,24.5-3,36.7c-12,0.3-23.9-0.1-35.9,2.4c-13.5,2.8-27.3,2.7-41.1,2.6
		C76.7,86.5,39.5,86,2.4,85.4c1.5-6.7,3.4-13.3,5.7-19.8c5.1-14.3-2.3-31.5,6.1-44.5C28.8-1.3,64.4,3.3,86.6,4.7
		c12.5,0.8,25.1,1.6,37.4-0.5C132,3,150,0,151.1,0C163.3,0.2,195.9,8.7,193.9,45z"/>
	<path id="Tracé_910" class="st1" d="M100.3,32.6v7.8h1v-3.2h5.9l-1.8-2.4l2.1-2.3L100.3,32.6z"/>
	<path id="Tracé_911" class="st2" d="M100.3,32.6v7.8h1v-3.2h5.9l-1.8-2.4l2.1-2.3L100.3,32.6z"/>
	<path id="Tracé_912" class="st0" d="M202.7,147.7c-2.8,2.6-6,4.7-9.6,6.2c-15.3,6.7-33,5.7-49.6,3.2s-33.2-6.3-50-4.7
		c-9.7,0.9-19.3,3.6-29,4.1c-1.2,0.1-2.3,0.1-3.5,0.1c-5.8-0.1-11.6-1-17.2-2.6c-2.9-0.8-5.8-1.7-8.7-2.7c-8.6-2.9-17.2-6.7-23-13.3
		c-3.4-3.9-17.7-15.8-9.7-52.6c37.2,0.6,74.4,1.1,111.5,1.3c13.7,0.1,27.6,0.1,41.1-2.6c12-2.4,23.9-2.1,35.9-2.4
		c0,1,0.1,1.9,0.2,2.9c0.6,6.9,2.4,10.4,6.1,16.2c3.4,5.4,6.9,10.7,9.2,16.7C210.3,127.5,210.4,139.9,202.7,147.7z"/>
	
		<linearGradient id="Tracé_913_1_" gradientUnits="userSpaceOnUse" x1="-81.9078" y1="-366.1594" x2="-80.9078" y2="-366.1594" gradientTransform="matrix(6.4272 0 0 7.842 684.918 2955.0981)">
		<stop  offset="0" style="stop-color:#ECC4D7"/>
		<stop  offset="0.42" style="stop-color:#EFD4D1"/>
		<stop  offset="1" style="stop-color:#F2EAC9"/>
	</linearGradient>
	<path id="Tracé_913" class="st3" d="M164.2,84c0.2-0.7,0.4-1.3,0.6-2c0.1-0.3,0.1-0.5,0-0.8c-0.1-0.2-0.3-0.4-0.5-0.5
		c-1.1-0.8-2.5-1.1-3.9-0.9c-0.4,0-0.7,0.2-1,0.3c-0.4,0.3-0.7,0.8-0.8,1.3s-0.1,1-0.2,1.5c-0.1,0.7-0.1,1.4,0,2
		c0.1,0.7,0.6,1.2,1.2,1.5c0.1,0,0.1,0,0.2,0.1c0.4,0.2,0.5,0.7,0.8,0.9c0.2,0.1,0.4,0.2,0.6,0.2c1,0.1,1.9-0.4,2.4-1.2
		c0.1-0.3,0.2-0.6,0.2-0.9C164,85.1,164.1,84.5,164.2,84z"/>
	
		<linearGradient id="Tracé_914_1_" gradientUnits="userSpaceOnUse" x1="-83.6503" y1="-374.9758" x2="-85.0993" y2="-374.4117" gradientTransform="matrix(8.1 0 0 10.863 760.1672 4167.9355)">
		<stop  offset="5.000000e-02" style="stop-color:#000000;stop-opacity:0"/>
		<stop  offset="0.89" style="stop-color:#000000;stop-opacity:0.749"/>
		<stop  offset="0.99" style="stop-color:#000000"/>
	</linearGradient>
	<path id="Tracé_914" class="st4" d="M79.6,94.6l-4.7,9.6l-3.4-3.5l2.8-7.4l4.6,0.6L79.6,94.6z"/>
	<path id="Tracé_915" class="st1" d="M78.9,93.9l-4.7,9.6l-3.4-3.5l2.8-7.4L78.9,93.9z"/>
	
		<linearGradient id="Tracé_916_1_" gradientUnits="userSpaceOnUse" x1="-84.9434" y1="-374.5974" x2="-83.9439" y2="-374.5974" gradientTransform="matrix(8.104 0 0 10.863 759.8457 4167.2012)">
		<stop  offset="0" style="stop-color:#FFFFFF;stop-opacity:0"/>
		<stop  offset="0.99" style="stop-color:#FFFFFF"/>
	</linearGradient>
	<path id="Tracé_916" class="st5" d="M79.6,93.8l-4.7,9.6l-3.4-3.5l2.8-7.4L79.6,93.8z"/>
	
		<linearGradient id="Tracé_917_1_" gradientUnits="userSpaceOnUse" x1="-93.1137" y1="-382.8261" x2="-92.2417" y2="-385.2431" gradientTransform="matrix(26.0102 0 0 18.9249 2469.7727 7412.8364)">
		<stop  offset="5.000000e-02" style="stop-color:#000000;stop-opacity:0"/>
		<stop  offset="0.89" style="stop-color:#000000;stop-opacity:0.749"/>
		<stop  offset="0.99" style="stop-color:#000000"/>
	</linearGradient>
	<path id="Tracé_917" class="st6" d="M69.3,140.3c-0.5,1.6-1,3.2-1.5,4.8c-0.9,3.2-1.8,6.4-2.5,9.6c-0.1,0.5-0.3,1-0.6,1.5
		c-0.1,0.1-0.2,0.2-0.3,0.3c-1.2,0.1-2.3,0.1-3.5,0.1c-5.8-0.1-11.6-1-17.2-2.6l0,0c0.6-0.8,1.2-1.6,2-2.2c2.4-2.3,7.4-3.7,9.9-6
		c1-1,2.1-1.8,3.3-2.5c2.1-1,2.1-1.9,4.4-1.8c0.3,0,0.5,0,0.8,0.2c0.5,0.4,0.3,1.1,0,1.7c-0.4,0.9-0.8,1.7-1.2,2.6
		c0.8,0,1.4-0.4,1.9-1s0.8-1.2,1.1-1.9l1.5-3.2c0.2-0.6,0.6-1.2,1.1-1.6C70.6,136.4,69.6,139.5,69.3,140.3z"/>
	
		<linearGradient id="Tracé_918_1_" gradientUnits="userSpaceOnUse" x1="-74.3207" y1="-384.1297" x2="-73.3177" y2="-384.1297" gradientTransform="matrix(4.2771 0 0 19.2414 384.5405 7519.3569)">
		<stop  offset="0" style="stop-color:#ECC4D7"/>
		<stop  offset="0.42" style="stop-color:#EFD4D1"/>
		<stop  offset="1" style="stop-color:#F2EAC9"/>
	</linearGradient>
	<path id="Tracé_918" class="st7" d="M69.9,130.1c-0.3,1.1-0.7,2.1-1,3.2c-0.3,1.1-0.3,2.2,0,3.3c0.1,0.3,0.2,0.6,0.1,0.8
		s-0.3,0.4-0.6,0.4c-0.3,0-0.5-0.1-0.7-0.3c-0.6-0.5-0.9-1.2-0.9-1.9s0-1.5,0.1-2.2c0.2-2-0.2-4-0.2-5.9c0-0.7,0-1.5,0.1-2.2
		c0.1-1.7,0.2-3.3,0.4-5c0-0.5,0-0.9,0-1.4c0.1-0.2,0.6-0.1,0.8-0.2c0.7-0.4,1.4,0,2.3,0.2s0.8,0.9,0.8,1.6c0,2.1-0.1,4.1-0.4,6.2
		C70.4,127.8,70.2,129,69.9,130.1L69.9,130.1z"/>
	
		<linearGradient id="Tracé_919_1_" gradientUnits="userSpaceOnUse" x1="-75.2113" y1="-382.008" x2="-74.2082" y2="-382.008" gradientTransform="matrix(4.4518 0 0 16.4219 397.1319 6399.2441)">
		<stop  offset="0" style="stop-color:#ECC4D7"/>
		<stop  offset="0.42" style="stop-color:#EFD4D1"/>
		<stop  offset="1" style="stop-color:#F2EAC9"/>
	</linearGradient>
	<path id="Tracé_919" class="st8" d="M62.8,122.7c-0.1,0.9-0.3,1.8-0.4,2.7c-0.3,2.6,0.2,5.2,0.4,7.8c0,0.3,0.1,0.6,0.2,0.8
		c0.1,0.1,0.3,0.2,0.4,0.2c0.6,0.1,1.2-0.2,1.5-0.8c0.3-0.5,0.4-1.1,0.5-1.7c0.2-1.6,0.2-3.1,0.2-4.7c0-0.3,0-0.6-0.1-1
		c-0.1-0.3-0.2-0.5-0.3-0.8c0-0.8,0.2-1.6,0.6-2.3c0.4-0.9,0.7-1.8,0.8-2.8c0.1-1,0.2-2-0.9-2.3c-1.1-0.4-2.3,0.2-2.6,1.3
		c0,0.1-0.1,0.3-0.1,0.4C62.8,120.5,62.9,121.6,62.8,122.7z"/>
	
		<linearGradient id="Tracé_920_1_" gradientUnits="userSpaceOnUse" x1="-79.2864" y1="-377.0361" x2="-78.2844" y2="-377.0361" gradientTransform="matrix(5.4756 0 0 12.226 505.6723 4707.0488)">
		<stop  offset="0" style="stop-color:#ECC4D7"/>
		<stop  offset="0.42" style="stop-color:#EFD4D1"/>
		<stop  offset="1" style="stop-color:#F2EAC9"/>
	</linearGradient>
	<path id="Tracé_920" class="st9" d="M75,92.4c0.7,1,1.1,2.2,1.2,3.4c0.3,1.8,0.5,3.5,0.7,5.3c0.2,0.7,0.1,1.4-0.3,2.1
		c-0.1,0.2-0.2,0.3-0.4,0.3c-0.4,0.1-0.8-0.1-1-0.4c-1.2-1.2-1.6-2.9-2.1-4.5c-0.4-1.1-0.9-2.2-1.2-3.4c-0.2-0.8-0.7-2.9,0.1-3.6
		C72.8,90.8,74.4,91.7,75,92.4z"/>
	<rect id="Rectangle_31" x="58.2" y="57.3" class="st2" width="85.8" height="29.4"/>
	
		<linearGradient id="Rectangle_32_1_" gradientUnits="userSpaceOnUse" x1="-95.3682" y1="-389.6257" x2="-95.3682" y2="-387.4676" gradientTransform="matrix(85.795 0 0 29.423 8283.3125 11500.1836)">
		<stop  offset="0" style="stop-color:#FFFFFF;stop-opacity:0"/>
		<stop  offset="0.99" style="stop-color:#FFFFFF"/>
	</linearGradient>
	<rect id="Rectangle_32" x="58.3" y="57.9" class="st10" width="85.8" height="29.4"/>
	<path id="Tracé_921" class="st11" d="M59.3,48.2l-5.4,9.9h94l-5.9-9.6L59.3,48.2z"/>
	
		<linearGradient id="Tracé_922_1_" gradientUnits="userSpaceOnUse" x1="100.9" y1="108.85" x2="100.9" y2="98.92" gradientTransform="matrix(1 0 0 -1 0 157)">
		<stop  offset="0" style="stop-color:#1BA9B6"/>
		<stop  offset="0.205" style="stop-color:#1BA4B0"/>
		<stop  offset="0.486" style="stop-color:#1C959E"/>
		<stop  offset="0.8094" style="stop-color:#1C7E81"/>
		<stop  offset="1" style="stop-color:#1D6D6D"/>
	</linearGradient>
	<path id="Tracé_922" class="st12" d="M59.3,48.2l-5.4,9.9h94l-5.9-9.6L59.3,48.2z"/>
	<path id="Tracé_923" class="st2" d="M113.2,86.8h-25V53.5l12.6-11.8l12.4,11.8V86.8z"/>
	
		<linearGradient id="Tracé_924_1_" gradientUnits="userSpaceOnUse" x1="-92.8416" y1="-392.0649" x2="-92.4652" y2="-390.2776" gradientTransform="matrix(25.013 0 0 45.058 2417.4951 17691.7402)">
		<stop  offset="0" style="stop-color:#FFFFFF;stop-opacity:0"/>
		<stop  offset="0.99" style="stop-color:#FFFFFF"/>
	</linearGradient>
	<path id="Tracé_924" class="st13" d="M112.8,87.6H88.2V54.4l12.4-11.8l12.2,11.8V87.6z"/>
	<path id="Tracé_925" class="st14" d="M85.3,54l1.1,1.3l14.4-13.6l14.1,13.5l1.3-1.1l-15.4-15.5L85.3,54z"/>
	<rect id="Rectangle_33" x="94" y="67.8" class="st15" width="13.2" height="19"/>
	<rect id="Rectangle_34" x="95" y="61.1" class="st2" width="11.7" height="3.9"/>
	<circle id="Ellipse_20" class="st2" cx="100.9" cy="52.6" r="4.6"/>
	<linearGradient id="Rectangle_35_1_" gradientUnits="userSpaceOnUse" x1="66.55" y1="63.6" x2="66.55" y2="60.8">
		<stop  offset="0" style="stop-color:#1BA9B6"/>
		<stop  offset="0.205" style="stop-color:#1BA4B0"/>
		<stop  offset="0.486" style="stop-color:#1C959E"/>
		<stop  offset="0.8094" style="stop-color:#1C7E81"/>
		<stop  offset="1" style="stop-color:#1D6D6D"/>
	</linearGradient>
	<rect id="Rectangle_35" x="61.7" y="60.8" class="st16" width="9.7" height="2.8"/>
	<linearGradient id="Rectangle_36_1_" gradientUnits="userSpaceOnUse" x1="79.45" y1="63.6" x2="79.45" y2="60.8">
		<stop  offset="0" style="stop-color:#1BA9B6"/>
		<stop  offset="0.205" style="stop-color:#1BA4B0"/>
		<stop  offset="0.486" style="stop-color:#1C959E"/>
		<stop  offset="0.8094" style="stop-color:#1C7E81"/>
		<stop  offset="1" style="stop-color:#1D6D6D"/>
	</linearGradient>
	<rect id="Rectangle_36" x="74.6" y="60.8" class="st17" width="9.7" height="2.8"/>
	<linearGradient id="Rectangle_37_1_" gradientUnits="userSpaceOnUse" x1="122.65" y1="63.6" x2="122.65" y2="60.8">
		<stop  offset="0" style="stop-color:#1BA9B6"/>
		<stop  offset="0.205" style="stop-color:#1BA4B0"/>
		<stop  offset="0.486" style="stop-color:#1C959E"/>
		<stop  offset="0.8094" style="stop-color:#1C7E81"/>
		<stop  offset="1" style="stop-color:#1D6D6D"/>
	</linearGradient>
	<rect id="Rectangle_37" x="117.8" y="60.8" class="st18" width="9.7" height="2.8"/>
	<linearGradient id="Rectangle_38_1_" gradientUnits="userSpaceOnUse" x1="135.55" y1="63.6" x2="135.55" y2="60.8">
		<stop  offset="0" style="stop-color:#1BA9B6"/>
		<stop  offset="0.205" style="stop-color:#1BA4B0"/>
		<stop  offset="0.486" style="stop-color:#1C959E"/>
		<stop  offset="0.8094" style="stop-color:#1C7E81"/>
		<stop  offset="1" style="stop-color:#1D6D6D"/>
	</linearGradient>
	<rect id="Rectangle_38" x="130.7" y="60.8" class="st19" width="9.7" height="2.8"/>
	
		<linearGradient id="Rectangle_39_1_" gradientUnits="userSpaceOnUse" x1="66.55" y1="86.044" x2="66.55" y2="91.928" gradientTransform="matrix(1 0 0 -1 0 157)">
		<stop  offset="0" style="stop-color:#1BA9B6"/>
		<stop  offset="0.205" style="stop-color:#1BA4B0"/>
		<stop  offset="0.486" style="stop-color:#1C959E"/>
		<stop  offset="0.8094" style="stop-color:#1C7E81"/>
		<stop  offset="1" style="stop-color:#1D6D6D"/>
	</linearGradient>
	<rect id="Rectangle_39" x="61.8" y="65.1" class="st20" width="9.5" height="5.9"/>
	
		<linearGradient id="Rectangle_41_3_" gradientUnits="userSpaceOnUse" x1="79.45" y1="86.044" x2="79.45" y2="91.928" gradientTransform="matrix(1 0 0 -1 0 157)">
		<stop  offset="0" style="stop-color:#1BA9B6"/>
		<stop  offset="0.205" style="stop-color:#1BA4B0"/>
		<stop  offset="0.486" style="stop-color:#1C959E"/>
		<stop  offset="0.8094" style="stop-color:#1C7E81"/>
		<stop  offset="1" style="stop-color:#1D6D6D"/>
	</linearGradient>
	<rect id="Rectangle_41" x="74.7" y="65.1" class="st21" width="9.5" height="5.9"/>
	
		<linearGradient id="Rectangle_47_1_" gradientUnits="userSpaceOnUse" x1="135.75" y1="76.3" x2="135.75" y2="82.184" gradientTransform="matrix(1 0 0 -1 0 157)">
		<stop  offset="0" style="stop-color:#1BA9B6"/>
		<stop  offset="0.205" style="stop-color:#1BA4B0"/>
		<stop  offset="0.486" style="stop-color:#1C959E"/>
		<stop  offset="0.8094" style="stop-color:#1C7E81"/>
		<stop  offset="1" style="stop-color:#1D6D6D"/>
	</linearGradient>
	<rect id="Rectangle_47" x="131" y="74.8" class="st22" width="9.5" height="5.9"/>
	
		<linearGradient id="Rectangle_48_1_" gradientUnits="userSpaceOnUse" x1="135.75" y1="76.1" x2="135.75" y2="82.138" gradientTransform="matrix(1 0 0 -1 0 157)">
		<stop  offset="0" style="stop-color:#1BA9B6"/>
		<stop  offset="0.205" style="stop-color:#1BA4B0"/>
		<stop  offset="0.486" style="stop-color:#1C959E"/>
		<stop  offset="0.8094" style="stop-color:#1C7E81"/>
		<stop  offset="1" style="stop-color:#1D6D6D"/>
	</linearGradient>
	<rect id="Rectangle_48" x="133.9" y="74.9" class="st23" width="3.7" height="6"/>
	
		<linearGradient id="Rectangle_49_1_" gradientUnits="userSpaceOnUse" x1="122.65" y1="76.3" x2="122.65" y2="82.184" gradientTransform="matrix(1 0 0 -1 0 157)">
		<stop  offset="0" style="stop-color:#1BA9B6"/>
		<stop  offset="0.205" style="stop-color:#1BA4B0"/>
		<stop  offset="0.486" style="stop-color:#1C959E"/>
		<stop  offset="0.8094" style="stop-color:#1C7E81"/>
		<stop  offset="1" style="stop-color:#1D6D6D"/>
	</linearGradient>
	<rect id="Rectangle_49" x="117.9" y="74.8" class="st24" width="9.5" height="5.9"/>
	
		<linearGradient id="Rectangle_50_1_" gradientUnits="userSpaceOnUse" x1="122.65" y1="76.1" x2="122.65" y2="82.138" gradientTransform="matrix(1 0 0 -1 0 157)">
		<stop  offset="0" style="stop-color:#1BA9B6"/>
		<stop  offset="0.205" style="stop-color:#1BA4B0"/>
		<stop  offset="0.486" style="stop-color:#1C959E"/>
		<stop  offset="0.8094" style="stop-color:#1C7E81"/>
		<stop  offset="1" style="stop-color:#1D6D6D"/>
	</linearGradient>
	<rect id="Rectangle_50" x="120.8" y="74.9" class="st25" width="3.7" height="6"/>
	
		<linearGradient id="Rectangle_51_1_" gradientUnits="userSpaceOnUse" x1="135.75" y1="86.231" x2="135.75" y2="92.115" gradientTransform="matrix(1 0 0 -1 0 157)">
		<stop  offset="0" style="stop-color:#1BA9B6"/>
		<stop  offset="0.205" style="stop-color:#1BA4B0"/>
		<stop  offset="0.486" style="stop-color:#1C959E"/>
		<stop  offset="0.8094" style="stop-color:#1C7E81"/>
		<stop  offset="1" style="stop-color:#1D6D6D"/>
	</linearGradient>
	<rect id="Rectangle_51" x="131" y="64.9" class="st26" width="9.5" height="5.9"/>
	
		<linearGradient id="Rectangle_52_4_" gradientUnits="userSpaceOnUse" x1="135.75" y1="86.028" x2="135.75" y2="92.066" gradientTransform="matrix(1 0 0 -1 0 157)">
		<stop  offset="0" style="stop-color:#1BA9B6"/>
		<stop  offset="0.205" style="stop-color:#1BA4B0"/>
		<stop  offset="0.486" style="stop-color:#1C959E"/>
		<stop  offset="0.8094" style="stop-color:#1C7E81"/>
		<stop  offset="1" style="stop-color:#1D6D6D"/>
	</linearGradient>
	<rect id="Rectangle_52" x="133.9" y="64.9" class="st27" width="3.7" height="6"/>
	
		<linearGradient id="Rectangle_53_1_" gradientUnits="userSpaceOnUse" x1="122.65" y1="86.231" x2="122.65" y2="92.115" gradientTransform="matrix(1 0 0 -1 0 157)">
		<stop  offset="0" style="stop-color:#1BA9B6"/>
		<stop  offset="0.205" style="stop-color:#1BA4B0"/>
		<stop  offset="0.486" style="stop-color:#1C959E"/>
		<stop  offset="0.8094" style="stop-color:#1C7E81"/>
		<stop  offset="1" style="stop-color:#1D6D6D"/>
	</linearGradient>
	<rect id="Rectangle_53" x="117.9" y="64.9" class="st28" width="9.5" height="5.9"/>
	
		<linearGradient id="Rectangle_54_1_" gradientUnits="userSpaceOnUse" x1="122.65" y1="86.028" x2="122.65" y2="92.066" gradientTransform="matrix(1 0 0 -1 0 157)">
		<stop  offset="0" style="stop-color:#1BA9B6"/>
		<stop  offset="0.205" style="stop-color:#1BA4B0"/>
		<stop  offset="0.486" style="stop-color:#1C959E"/>
		<stop  offset="0.8094" style="stop-color:#1C7E81"/>
		<stop  offset="1" style="stop-color:#1D6D6D"/>
	</linearGradient>
	<rect id="Rectangle_54" x="120.8" y="64.9" class="st29" width="3.7" height="6"/>
	
		<linearGradient id="Tracé_926_1_" gradientUnits="userSpaceOnUse" x1="-79.934" y1="-361.337" x2="-78.928" y2="-361.337" gradientTransform="matrix(5.6838 0 0 6.7726 521.6071 2534.8914)">
		<stop  offset="0" style="stop-color:#ECC4D7"/>
		<stop  offset="0.42" style="stop-color:#EFD4D1"/>
		<stop  offset="1" style="stop-color:#F2EAC9"/>
	</linearGradient>
	<path id="Tracé_926" class="st30" d="M72.5,88.2c-0.1,0.4-0.3,0.8-0.7,0.9c-0.2,0-0.5,0-0.7-0.1s-0.5-0.1-0.7,0.1
		c-0.1,0.1-0.2,0.2-0.2,0.4c-0.2,0.3-0.9,1.6-1.3,1.6c-0.3,0-0.7-0.1-1-0.3c-0.3-0.2-0.5-0.4-0.6-0.8c0.1-0.8,0.2-1.5,0.4-2.3
		c0.1-0.4,0.2-0.7,0.3-1.1c0.2-0.4,0.4-0.7,0.7-0.9c0.7-0.8,1.7-1.3,2.8-1.4c0.2,0,0.4,0,0.6,0.1s0.3,0.3,0.4,0.4
		c0.2,0.2,0.3,0.5,0.4,0.7c0,0.3,0,0.5-0.1,0.8C72.8,86.9,72.6,87.6,72.5,88.2z"/>
	<path id="Tracé_927" class="st1" d="M65.4,89.7c2.7-0.4,5.6,0.1,8,1.4c0.2,0.1,0.3,0.2,0.4,0.3c0.1,0.1,0.1,0.3,0.1,0.4
		c0,1.4-0.3,2.9-0.7,4.2c-0.2,1.2-0.4,2.4-0.4,3.6l-0.4,5.3c0,0.7-0.2,1.3-0.5,1.9c-0.5,0.6-1.3,0.9-2.1,0.9
		c-1.3,0.1-2.6-0.1-3.9-0.5c-0.9-0.2-1.6-0.7-2.3-1.2c-0.8-0.9-1.3-2-1.3-3.2s0.2-2.4,0.5-3.5c0.7-2.1,1.1-4.3,1.2-6.5
		C64.1,91.6,63.8,90,65.4,89.7z"/>
	
		<linearGradient id="Tracé_928_1_" gradientUnits="userSpaceOnUse" x1="-88.5966" y1="-383.5482" x2="-87.5946" y2="-383.5482" gradientTransform="matrix(11.5415 0 0 18.3672 1084.9147 7143.3525)">
		<stop  offset="0" style="stop-color:#FFFFFF;stop-opacity:0"/>
		<stop  offset="0.99" style="stop-color:#FFFFFF"/>
	</linearGradient>
	<path id="Tracé_928" class="st31" d="M65.4,89.7c2.7-0.4,5.6,0.1,8,1.4c0.2,0.1,0.3,0.2,0.4,0.3c0.1,0.1,0.1,0.3,0.1,0.4
		c0,1.4-0.3,2.9-0.7,4.2c-0.2,1.2-0.4,2.4-0.4,3.6l-0.4,5.3c0,0.7-0.2,1.3-0.5,1.9c-0.5,0.6-1.3,0.9-2.1,0.9
		c-1.3,0.1-2.6-0.1-3.9-0.5c-0.9-0.2-1.6-0.7-2.3-1.2c-0.8-0.9-1.3-2-1.3-3.2s0.2-2.4,0.5-3.5c0.7-2.1,1.1-4.3,1.2-6.5
		C64.1,91.6,63.8,90,65.4,89.7z"/>
	
		<linearGradient id="Tracé_929_1_" gradientUnits="userSpaceOnUse" x1="-86.6573" y1="-373.5893" x2="-85.6573" y2="-373.5893" gradientTransform="matrix(9.3786 0 0 10.391 868.4242 3977.6555)">
		<stop  offset="0" style="stop-color:#ECC4D7"/>
		<stop  offset="0.42" style="stop-color:#EFD4D1"/>
		<stop  offset="1" style="stop-color:#F2EAC9"/>
	</linearGradient>
	<path id="Tracé_929" class="st32" d="M61.5,92.6c-0.5,0.5-1,1.1-1.5,1.6c-0.7,0.7-1.6,1.3-2.4,2c-0.8,0.6-1.4,1.5-1.8,2.4
		c-0.3,0.6-0.2,1.3,0.2,1.8c0.5,0.4,1.1,0.6,1.7,0.4c0.4,0,0.7-0.1,1.1-0.2c0.3-0.1,0.5-0.3,0.7-0.5c1.6-1.3,3.1-2.7,4.5-4.2
		c0.3-0.3,0.6-0.6,0.7-1c0.2-0.4,0.2-0.9,0.2-1.4c0-0.6,0-3-0.9-3c-0.4,0-1,0.7-1.3,1C62.5,91.8,62,92.2,61.5,92.6z"/>
	<path id="Tracé_930" class="st33" d="M72.3,109.6c0.8,3.5,0.9,7.1,0.4,10.6c-1.1-0.9-2.6-1.3-4.1-1.1c-1.4,0.3-2.9,0.4-4.3,0.4
		c-1.3-0.2-2.6-0.8-4-0.6c-0.4,0.1-0.7,0.2-1.1,0.3c-1.2,0.1-2.4-0.2-3.4-0.9c-0.2-0.1-0.3-0.2-0.4-0.4c0-0.1,0-0.2,0.1-0.3
		c0.6-1,1.4-1.9,2.3-2.5c0.4-0.2,0.8-0.5,1.1-0.9c0.2-0.3,0.4-0.5,0.5-0.9c0.3-0.6,0.6-1.3,0.8-1.9c0.3-1.1,0.3-2.2,0.6-3.2
		c0.2-1.1,0.8-2.1,1.7-2.7c0.9-0.5,2-0.5,3-0.2c1.7,0.4,3.3,1.1,5,1.5C72,107.2,72,108.3,72.3,109.6z"/>
	
		<linearGradient id="Tracé_931_1_" gradientUnits="userSpaceOnUse" x1="-92.3143" y1="-381.1658" x2="-90.3583" y2="-380.4988" gradientTransform="matrix(17.4988 0 0 15.0753 1655.9109 5852.0122)">
		<stop  offset="0" style="stop-color:#1BA9B6"/>
		<stop  offset="0.205" style="stop-color:#1BA4B0"/>
		<stop  offset="0.486" style="stop-color:#1C959E"/>
		<stop  offset="0.8094" style="stop-color:#1C7E81"/>
		<stop  offset="1" style="stop-color:#1D6D6D"/>
	</linearGradient>
	<path id="Tracé_931" class="st34" d="M72.6,109.5c0.8,3.5,0.9,7.1,0.4,10.6c-1.1-0.9-2.6-1.3-4.1-1.1c-1.4,0.3-2.9,0.4-4.3,0.4
		c-1.3-0.2-2.6-0.8-4-0.6c-0.4,0.1-0.7,0.2-1.1,0.3c-1.2,0.1-2.4-0.2-3.4-0.9c-0.2-0.1-0.3-0.2-0.4-0.4c0-0.1,0-0.2,0.1-0.3
		c0.6-1,1.4-1.9,2.3-2.5c0.4-0.2,0.8-0.5,1.1-0.9c0.2-0.3,0.4-0.5,0.5-0.9c0.3-0.6,0.6-1.3,0.8-1.9c0.3-1.1,0.3-2.2,0.6-3.2
		c0.2-1.1,0.8-2.1,1.7-2.7c0.9-0.5,2-0.5,3-0.2c1.7,0.4,3.3,1.1,5,1.5C72.2,107.1,72.3,108.2,72.6,109.5z"/>
	<path id="Tracé_932" class="st35" d="M63.2,132.5c0.6-0.4,1.4-0.2,1.8,0.3s0.6,1.2,0.6,1.9c0,0.5,0.1,0.9,0.1,1.4
		c0.2,0.7,0.6,1.3,1.1,1.7s0.8,1,0.8,1.6c-0.2,0.6-0.7,1.1-1.3,1.1c-1,0.2-2-0.2-2.6-1c-0.7-1.1-1-2.5-0.7-3.8
		C63,134.8,62.2,133.3,63.2,132.5z"/>
	
		<linearGradient id="Tracé_933_1_" gradientUnits="userSpaceOnUse" x1="-67.5295" y1="-356.2488" x2="-67.9355" y2="-349.2017" gradientTransform="matrix(3.3625 0 0 5.6783 292.7019 2150.8169)">
		<stop  offset="0" style="stop-color:#FFFFFF;stop-opacity:0"/>
		<stop  offset="0.99" style="stop-color:#FFFFFF"/>
	</linearGradient>
	<path id="Tracé_933" class="st36" d="M63.6,136c0-0.3,0-0.7,0.2-1s0.5-0.5,0.9-0.4c0.3,0.2,0.5,0.5,0.5,0.9s0,0.7,0,1.1
		c0.1,0.6,0.5,1.1,0.9,1.4c0.3,0.3,0.6,0.6,0.8,1c0.2,0.4,0.1,0.9-0.2,1.2c-0.2,0.2-0.5,0.2-0.8,0.2c-0.3-0.1-0.5-0.2-0.7-0.3
		c-0.6-0.4-1.1-1-1.3-1.7c-0.1-0.3-0.1-0.6-0.1-0.9C63.7,136.8,63.6,136.4,63.6,136z"/>
	<path id="Tracé_934" class="st35" d="M69.2,138.5c-0.3,0.1-0.7,0.1-1,0s-0.6-0.3-0.9-0.4c-0.2-0.1-0.3-0.3-0.4-0.5
		c-0.2-0.3-0.3-0.7-0.3-1c0-0.2-0.1-1,0.2-1.1s0.9,0.6,1.1,0.7s0.5,0.3,0.7,0.1s0-0.5,0.1-0.8c0.5-0.1,0.9,0,1.4,0.1
		c0.2,0,0.3,0.1,0.5,0.2c0.1,0.1,0.2,0.3,0.2,0.4c0,0.5-0.2,1-0.5,1.4C70,138,69.7,138.3,69.2,138.5L69.2,138.5z"/>
	<path id="Tracé_935" class="st37" d="M68.9,82.9c0.3,0.2,0.5,0.6,0.4,0.9c0,0.1,0,0.2-0.1,0.2c-0.1,0.1-0.3,0.1-0.4,0
		s-0.2-0.2-0.3-0.4c-0.1-0.2-0.6-0.6-0.5-0.7C68.1,82.6,68.7,82.8,68.9,82.9z"/>
	<path id="Tracé_936" class="st35" d="M66.8,81.3c0.3-0.3,0.7-0.6,1.1-0.8c0.2-0.1,0.4-0.2,0.6-0.3c0.2-0.1,0.5-0.1,0.7-0.1
		c0.9,0,1.8,0.4,2.5,1s1.2,1.4,1.4,2.3c0.1,0.3,0.1,0.5,0.1,0.8c0,0.6-0.3,1.2-0.7,1.6c-0.1,0.1-0.3,0.3-0.4,0.5
		c-0.2,0.3-0.3,0.6-0.4,0.9s-0.2,0.5-0.5,0.8c-0.2,0.2-0.5,0.3-0.8,0.3c-0.1,0-0.1,0-0.2,0s-0.1,0.1-0.2,0.1
		c-0.2,0.2-0.5,0.2-0.8,0.1s-0.5-0.2-0.8-0.3c-0.1,0-0.1-0.1-0.2-0.1c-0.2,0-0.3,0.2-0.5,0.2s-0.4,0-0.5-0.1s-0.3-0.2-0.4-0.3
		c-0.1,0-0.2-0.1-0.3-0.1c-0.1-0.1-0.1-0.1-0.1-0.2c-0.4-1.1,0.1-2.3-0.3-3.3c-0.1-0.3-0.2-0.5-0.2-0.8c0-0.2,0.2-0.5,0.2-0.7
		C66.3,82.2,66.5,81.7,66.8,81.3L66.8,81.3z"/>
	
		<linearGradient id="Tracé_937_1_" gradientUnits="userSpaceOnUse" x1="-82.7689" y1="-368.0965" x2="-83.1009" y2="-368.0885" gradientTransform="matrix(7.1428 0 0 8.3786 661.9412 3168.4265)">
		<stop  offset="5.000000e-02" style="stop-color:#000000;stop-opacity:0"/>
		<stop  offset="0.89" style="stop-color:#000000;stop-opacity:0.749"/>
		<stop  offset="0.99" style="stop-color:#000000"/>
	</linearGradient>
	<path id="Tracé_937" class="st38" d="M66.8,81.3c0.3-0.3,0.7-0.6,1.1-0.8c0.2-0.1,0.4-0.2,0.6-0.3c0.2-0.1,0.5-0.1,0.7-0.1
		c0.9,0,1.8,0.4,2.5,1s1.2,1.4,1.4,2.3c0.1,0.3,0.1,0.5,0.1,0.8c0,0.6-0.3,1.2-0.7,1.6c-0.1,0.1-0.3,0.3-0.4,0.5
		c-0.2,0.3-0.3,0.6-0.4,0.9s-0.2,0.5-0.5,0.8c-0.2,0.2-0.5,0.3-0.8,0.3c-0.1,0-0.1,0-0.2,0s-0.1,0.1-0.2,0.1
		c-0.2,0.2-0.5,0.2-0.8,0.1s-0.5-0.2-0.8-0.3c-0.1,0-0.1-0.1-0.2-0.1c-0.2,0-0.3,0.2-0.5,0.2s-0.4,0-0.5-0.1s-0.3-0.2-0.4-0.3
		c-0.1,0-0.2-0.1-0.3-0.1c-0.1-0.1-0.1-0.1-0.1-0.2c-0.4-1.1,0.1-2.3-0.3-3.3c-0.1-0.3-0.2-0.5-0.2-0.8c0-0.2,0.2-0.5,0.2-0.7
		C66.3,82.2,66.5,81.7,66.8,81.3L66.8,81.3z"/>
	<path id="Tracé_938" class="st1" d="M156.2,90.4l1.2-1.1c0.7-0.7,1.4-1.2,2.3-1.6c0.9-0.3,1.8-0.4,2.7-0.4c1.3,0,2.7,0.2,4,0.3
		c1.7,0.3,3.4,1,4.8,2c-0.3,4-0.4,8.1-0.2,12.1c0.3,3.4,0.4,6.9,0.3,10.4c0.1,0.5-0.3,1-0.8,1c-0.1,0-0.3,0-0.4,0
		c-2.1,0-4.2-0.4-6.4-0.4c-2,0-4,0.4-5.9,1.1c-0.1,0.1-0.2,0.1-0.4,0.1c-0.1-0.1-0.2-0.1-0.3-0.3c-0.4-0.7-0.8-1.4-1-2.2
		c-0.1-0.8-0.1-1.7,0-2.6l0.2-1.8c0-0.5,0.1-0.9,0.3-1.4c0.2-0.6,0.5-1.1,0.8-1.6c0.5-1.2,0.8-2.4,0.8-3.7c0.2-2,0.2-4.1,0.1-6.1
		c0-0.9-0.2-1.9-0.7-2.7C157.3,91,156.7,90.6,156.2,90.4z"/>
	<path id="Tracé_939" class="st1" d="M176.2,95.9c0,0.1,0.1,0.2,0,0.3c0,0.1-0.1,0.2-0.2,0.3c-0.8,0.5-1.6,1-2.5,1.4
		c-0.2,0.1-0.5,0.2-0.8,0.1c-0.2-0.1-0.3-0.2-0.4-0.4c-0.7-0.8-1.4-1.7-2.1-2.5c-0.2-0.2-0.4-0.5-0.5-0.8s-0.2-0.5-0.2-0.8
		c-0.1-0.9-0.4-2.7,0.3-3.4s1.9,0.3,2.5,0.8C174.1,92.1,175.4,93.9,176.2,95.9z"/>
	<path id="Tracé_940" class="st1" d="M155.7,90.9c-0.5,0.6-0.9,1.3-1.2,2.1c-0.4,0.9-0.8,1.7-1.1,2.6c-0.5,1-0.7,2.1-0.6,3.1
		c0.5,0,0.9-0.5,1.2-0.9s0.7-0.8,1.2-0.8s0.8,0.6,0.9,1c0.1,0.3,0.3,0.6,0.5,0.5c0.1,0,0.2-0.1,0.2-0.2l1.2-2
		c0.2-0.4,0.4-0.7,0.6-1.2c0.3-1.2-0.4-2.4-0.8-3.5c-0.1-0.4-0.1-1.8-0.5-1.9C156.9,89.6,155.9,90.6,155.7,90.9z"/>
	<path id="Tracé_941" class="st39" d="M156,90.4l1.2-1.1c0.7-0.7,1.4-1.2,2.3-1.6c0.9-0.3,1.8-0.4,2.7-0.4c1.3,0,2.7,0.2,4,0.3
		c1.7,0.3,3.4,1,4.8,2c-0.3,4-0.4,8.1-0.2,12.1c0.3,3.4,0.4,6.9,0.3,10.4c0.1,0.5-0.3,1-0.8,1c-0.1,0-0.3,0-0.4,0
		c-2.1,0-4.2-0.4-6.4-0.4c-2,0-4,0.4-5.9,1.1c-0.1,0.1-0.2,0.1-0.4,0.1c-0.1-0.1-0.2-0.1-0.3-0.3c-0.4-0.7-0.8-1.4-1-2.2
		c-0.1-0.8-0.1-1.7,0-2.6l0.2-1.8c0-0.5,0.1-0.9,0.3-1.4c0.2-0.6,0.5-1.1,0.8-1.6c0.5-1.2,0.8-2.4,0.8-3.7c0.2-2,0.2-4.1,0.1-6.1
		c0-0.9-0.2-1.9-0.7-2.7C157.1,91,156.6,90.6,156,90.4z"/>
	<path id="Tracé_942" class="st2" d="M176.3,95.6c0,0.1,0.1,0.2,0,0.3c0,0.1-0.1,0.2-0.2,0.3c-0.8,0.5-1.6,1-2.5,1.4
		c-0.2,0.1-0.5,0.2-0.8,0.1c-0.2-0.1-0.3-0.2-0.4-0.4c-0.7-0.8-1.4-1.7-2.1-2.5c-0.2-0.2-0.4-0.5-0.5-0.8s-0.2-0.5-0.2-0.8
		c-0.1-0.9-0.4-2.7,0.3-3.4s1.9,0.3,2.5,0.8C174.1,91.9,175.5,93.6,176.3,95.6z"/>
	<path id="Tracé_943" class="st2" d="M155.8,90.3c-0.5,0.6-0.9,1.3-1.2,2.1c-0.4,0.9-0.8,1.7-1.1,2.6c-0.5,1-0.7,2.1-0.6,3.1
		c0.5,0,0.9-0.5,1.2-0.9s0.7-0.8,1.2-0.8s0.8,0.6,0.9,1c0.1,0.3,0.3,0.6,0.5,0.5c0.1,0,0.2-0.1,0.2-0.2l1.2-2
		c0.2-0.4,0.4-0.7,0.6-1.2c0.3-1.2-0.4-2.4-0.8-3.5c-0.1-0.4-0.1-1.8-0.5-1.9C157.1,89,156.1,90,155.8,90.3z"/>
	<path id="Tracé_944" class="st11" d="M160.2,88.2c0.1,0.5-0.2,1-0.5,1.5c-0.2,0.4-0.4,0.9-0.5,1.3c-0.9,3.7-0.7,7.7,0.5,11.3
		c0.3,1,0.7,1.9,1.4,2.7c1,1.1,2.4,1.8,3.8,1.8c0.6,0,1.2-0.1,1.7-0.2c1.2-0.1,2.5-0.1,3.7,0.1c0.6,0.2,1.2,0.1,1.8-0.1
		c0.3-0.2,0.5-0.4,0.8-0.7c0.7-0.6,1.2-1.5,1.5-2.3c0.1-0.6,0.1-1.1,0-1.7c-0.2-2.3-0.5-4.6-0.8-6.9c-0.2-1.3-0.5-2.7-1-3.9
		c-0.5-1.3-1.4-2.4-2.5-3.1c-0.9-0.4-1.7-0.8-2.5-1.3c-0.2-0.2-0.5-0.4-0.8-0.6s-0.7-0.1-0.9,0.2c-1.1-0.9-2.7-0.8-3.6,0.2
		c-0.1,0.1-0.2,0.2-0.2,0.3c-0.5-0.1-1.1-0.1-1.6-0.2c-0.6,0-1.1,0.2-1.5,0.5C159.4,87.6,160,87.6,160.2,88.2z"/>
	<path id="Tracé_945" class="st39" d="M160.2,88.2c0.1,0.5-0.2,1-0.5,1.5c-0.2,0.4-0.4,0.9-0.5,1.3c-0.9,3.7-0.7,7.7,0.5,11.3
		c0.3,1,0.7,1.9,1.4,2.7c1,1.1,2.4,1.8,3.8,1.8c0.6,0,1.2-0.1,1.7-0.2c1.2-0.1,2.5-0.1,3.7,0.1c0.6,0.2,1.2,0.1,1.8-0.1
		c0.3-0.2,0.5-0.4,0.8-0.7c0.7-0.6,1.2-1.5,1.5-2.3c0.1-0.6,0.1-1.1,0-1.7c-0.2-2.3-0.5-4.6-0.8-6.9c-0.2-1.3-0.5-2.7-1-3.9
		c-0.5-1.3-1.4-2.4-2.5-3.1c-0.9-0.4-1.7-0.8-2.5-1.3c-0.2-0.2-0.5-0.4-0.8-0.6s-0.7-0.1-0.9,0.2c-1.1-0.9-2.7-0.8-3.6,0.2
		c-0.1,0.1-0.2,0.2-0.2,0.3c-0.5-0.1-1.1-0.1-1.6-0.2c-0.6,0-1.1,0.2-1.5,0.5C159.4,87.6,160,87.6,160.2,88.2z"/>
	<path id="Tracé_946" class="st2" d="M161.6,95.9c-0.3-1.6,0.1-3.2,1.1-4.5c0.8-0.8,1.8-1.4,3-1.5c1.1-0.1,2.3,0,3.4,0.2
		c0.7,0,1.3,0.3,1.9,0.7c0.4,0.5,0.6,1,0.7,1.6c0.6,2.5,1.2,5.1,1.7,7.6c0.2,0.6,0.2,1.2,0,1.8c-0.4,0.7-1,1.2-1.8,1.4
		c-2.3,1-5.4,1.9-7.6,0.1C162,101.8,161.7,98,161.6,95.9z"/>
	
		<linearGradient id="Tracé_947_1_" gradientUnits="userSpaceOnUse" x1="-89.2301" y1="-380.7547" x2="-86.3801" y2="-378.6057" gradientTransform="matrix(11.8845 0 0 14.4766 1217.2897 5599.0103)">
		<stop  offset="0" style="stop-color:#FFFFFF;stop-opacity:0"/>
		<stop  offset="0.99" style="stop-color:#FFFFFF"/>
	</linearGradient>
	<path id="Tracé_947" class="st40" d="M161.9,95.9c-0.3-1.6,0.1-3.2,1.1-4.5c0.8-0.8,1.8-1.4,3-1.5c1.1-0.1,2.3,0,3.4,0.2
		c0.7,0,1.3,0.3,1.9,0.7c0.4,0.5,0.6,1,0.7,1.6c0.6,2.5,1.2,5.1,1.7,7.6c0.2,0.6,0.2,1.2,0,1.8c-0.4,0.7-1,1.2-1.8,1.4
		c-2.3,1-5.4,1.9-7.6,0.1C162.3,101.9,162,98.1,161.9,95.9z"/>
	<path id="Tracé_948" class="st33" d="M156.9,122.6c-0.2,0.8-0.2,1.6,0,2.3c0.5,0.9,1.5,1.4,2.5,1.4c1.1,0.2,2.2,0.2,3.3,0.2
		c0.2,0,0.3,0,0.5-0.1c0.2-0.2,0.3-0.4,0.3-0.7l0.1-1.8v0.5c1.8-2.2,5.1-2.7,7.4-1c-0.2-1.7-0.3-3.4-0.1-5.1
		c0.1-0.7,0.2-1.4,0.3-2.1c0-1-0.3-1.9-0.7-2.8c-0.1-0.2-0.2-0.4-0.3-0.5s-0.3-0.1-0.5-0.2c-2-0.4-4.1-0.5-6.2-0.4
		c-1.5,0.1-4,0-5.3,0.9c-1,0.7-1,1.9-1,3C157.2,118.3,157.1,120.5,156.9,122.6z"/>
	<path id="Tracé_949" class="st39" d="M156.5,122.7c-0.2,0.8-0.2,1.6,0,2.3c0.5,0.9,1.5,1.4,2.5,1.4c1.1,0.2,2.2,0.2,3.3,0.2
		c0.2,0,0.3,0,0.5-0.1c0.2-0.2,0.3-0.4,0.3-0.7l0.1-1.8c0,0.2,0.8,1.5,0.8,1.7c1.7-2.2,4.4-3.9,6.5-2.2c-0.2-1.7-0.3-3.4-0.1-5.1
		c0.1-0.7,0.2-1.4,0.3-2.1c0-1-0.3-1.9-0.7-2.8c-0.1-0.2-0.2-0.4-0.3-0.5s-0.3-0.1-0.5-0.2c-2-0.4-4.1-0.5-6.2-0.4
		c-1.5,0.1-4,0-5.3,0.9c-1,0.7-1,1.9-1,3C156.8,118.5,156.7,120.6,156.5,122.7z"/>
	
		<linearGradient id="Tracé_951_1_" gradientUnits="userSpaceOnUse" x1="-77.7479" y1="-379.1321" x2="-76.7479" y2="-379.1321" gradientTransform="matrix(5.0382 0 0 13.7066 557.4681 5325.7422)">
		<stop  offset="0" style="stop-color:#ECC4D7"/>
		<stop  offset="0.42" style="stop-color:#EFD4D1"/>
		<stop  offset="1" style="stop-color:#F2EAC9"/>
	</linearGradient>
	<path id="Tracé_951" class="st41" d="M167.7,133.5c0,0.7,0,1.4,0,2.1c0,0.2,0.1,0.3,0.2,0.4c0.1,0,0.1,0,0.2,0
		c0.8-0.2,1.5-0.5,2.1-1c0.2-0.1,0.4-0.3,0.5-0.5c0-0.2,0.1-0.4,0-0.6c-0.1-0.7-0.2-1.4-0.2-2s0-1.1,0-1.7l0.1-3.2
		c0.2-1.3,0-2.7-0.6-3.9c-0.2-0.3-0.4-0.5-0.7-0.7c-0.3-0.1-0.6-0.2-1-0.1c-0.7,0-1.3,0.1-1.9,0.5c-1.5,1.2-0.7,3.3-0.3,4.8
		C167.1,129.4,167.5,131.5,167.7,133.5z"/>
	<path id="Tracé_952" class="st35" d="M167.9,134.2c-0.3,1.7,0.8,3.4,0.5,5.1c-0.1,0.5-0.3,0.9-0.3,1.4c-0.1,0.5,0.1,1,0.4,1.4
		c0.3,0.4,0.8,0.6,1.3,0.6c0.3,0,0.5-0.1,0.7-0.3c1.6-1,2.5-3,2.2-4.9c-0.1-0.5-0.2-1.1-0.4-1.6c-0.3-0.9-0.5-1.7-0.8-2.6
		c-0.2-0.6-0.3-1.4-0.9-1.7C169.3,131.3,168.1,133.2,167.9,134.2z"/>
	
		<linearGradient id="Tracé_953_1_" gradientUnits="userSpaceOnUse" x1="-69.8393" y1="-369.4359" x2="-74.3263" y2="-365.2649" gradientTransform="matrix(3.8064 0 0 8.4384 440.7612 3246.1316)">
		<stop  offset="0" style="stop-color:#FFFFFF;stop-opacity:0"/>
		<stop  offset="0.99" style="stop-color:#FFFFFF"/>
	</linearGradient>
	<path id="Tracé_953" class="st42" d="M169.6,138.4c-0.2,0.4-0.4,0.9-0.6,1.3c-0.3,0.5-0.4,1.2-0.4,1.8c0,0.5,0.3,0.9,0.7,1.1
		c0.4,0.1,0.7,0,1-0.2s0.5-0.4,0.7-0.7c0.6-0.6,1-1.3,1.2-2c0.1-0.4,0.1-0.7,0.1-1.1c0-0.8-0.2-1.5-0.4-2.2
		c-0.1-0.7-0.4-1.4-0.9-1.9c-0.4-0.4-1.1-0.3-1.5,0.1l0,0c-0.5,0.5-0.7,1.1-0.5,1.8C169.5,136.9,169.6,137.6,169.6,138.4z"/>
	
		<linearGradient id="Tracé_954_1_" gradientUnits="userSpaceOnUse" x1="-74.885" y1="-367.7446" x2="-73.888" y2="-367.7446" gradientTransform="matrix(4.3868 0 0 8.28 481.6026 3146.425)">
		<stop  offset="0" style="stop-color:#ECC4D7"/>
		<stop  offset="0.42" style="stop-color:#EFD4D1"/>
		<stop  offset="1" style="stop-color:#F2EAC9"/>
	</linearGradient>
	<path id="Tracé_954" class="st43" d="M153.7,102.2c0.2,0.4,0.5,0.7,0.8,1.1l1.9,2.3c0.6-0.5,1.2-1.1,1.1-1.8
		c-0.1-0.2-0.1-0.5-0.3-0.7c-0.3-0.6-0.5-1.3-0.7-1.9c-0.1-0.5-0.2-1-0.1-1.5c0.1-0.2,0.1-0.5,0.2-0.7c-0.1-0.5-0.3-0.9-0.7-1.2
		c-0.2-0.2-0.4-0.4-0.7-0.4c-0.2,0-0.4,0.1-0.6,0.2c-0.8,0.3-1.3,1-1.4,1.9C153,100.3,153.2,101.3,153.7,102.2z"/>
	
		<linearGradient id="Tracé_955_1_" gradientUnits="userSpaceOnUse" x1="-65.0053" y1="-345.5428" x2="-64.0053" y2="-345.5428" gradientTransform="matrix(3.0319 0 0 4.6702 371.0167 1712.571)">
		<stop  offset="0" style="stop-color:#ECC4D7"/>
		<stop  offset="0.42" style="stop-color:#EFD4D1"/>
		<stop  offset="1" style="stop-color:#F2EAC9"/>
	</linearGradient>
	<path id="Tracé_955" class="st44" d="M176.9,98.5c-0.1,0.6-0.5,1.2-1,1.6c-0.4,0.4-1,0.8-1.5,1c-0.2-0.5-0.3-0.9-0.3-1.4l-0.2-2
		c0-0.1,0-0.1,0-0.2s0.1-0.1,0.1-0.1c0.4-0.3,1.4-1.1,2-0.8c0.2,0.1,0.4,0.6,0.6,0.9C176.8,97.8,176.9,98.1,176.9,98.5z"/>
	<path id="Tracé_956" class="st33" d="M70,95c-0.1,1.8,0.1,3.6,0.5,5.4c0.6,2.3,0.6,4.6,0.2,6.9c-0.5,2.3-2.1,4.2-4.3,5.1
		c-1.3,0.3-2.6,0.3-3.8,0c-1.1-0.1-2.1-0.5-3-1.2c-1.8-1.4-2.2-4.1-1.6-6.3s2-4.1,3.1-6.1s2.1-4.2,1.8-6.5c-0.1-0.4-0.1-0.8-0.1-1.2
		c0.2-1.1,1.2-1.9,2.3-1.7c0.2,0,0.3,0.1,0.5,0.1l0.9,2.1c0.1,0.3,0.4,0.6,0.7,0.5c0.1,0,0.2-0.1,0.3-0.1c1-0.5,1.8-1.1,2.8-1.6
		c0.8-0.4,1.8-0.4,2.6,0C72.4,92,70.3,93,70,95z"/>
	<path id="Tracé_957" class="st39" d="M70,95c-0.1,1.8,0.1,3.6,0.5,5.4c0.6,2.3,0.6,4.6,0.2,6.9c-0.5,2.3-2.1,4.2-4.3,5.1
		c-1.3,0.3-2.6,0.3-3.8,0c-1.1-0.1-2.1-0.5-3-1.2c-1.8-1.4-2.2-4.1-1.6-6.3s2-4.1,3.1-6.1s2.1-4.2,1.8-6.5c-0.1-0.4-0.1-0.8-0.1-1.2
		c0.2-1.1,1.2-1.9,2.3-1.7c0.2,0,0.3,0.1,0.5,0.1l0.9,2.1c0.1,0.3,0.4,0.6,0.7,0.5c0.1,0,0.2-0.1,0.3-0.1c1-0.5,1.8-1.1,2.8-1.6
		c0.8-0.4,1.8-0.4,2.6,0C72.4,92,70.3,93,70,95z"/>
	<path id="Tracé_958" class="st11" d="M28.4,44.9c-0.2,2.1,0.9,4.1,1.9,6c-3.3,0.5-5.6,3.6-5,6.9c0,0.1,0,0.2,0.1,0.4
		c0.2,0.5,0.3,1,0.1,1.5c-0.2,0.3-0.5,0.5-0.9,0.6c-3.2,1.5-5.8,4.1-7,7.4c-1.2,3.4-0.5,7.1,1.9,9.8c2.1,2.1,5.3,2.9,8.3,3
		s6-0.4,9.1-0.3c2.1,0,4.3,0.3,6.4-0.2s4.1-2.1,4.3-4.2c0.2-2.6-2.2-4.6-4.4-6.1c2.4-2,3.1-5.5,1.5-8.2c-1.3-2.1-3.6-3.2-5.7-4.3
		c1.6-1,2.3-3,1.5-4.7s-2.3-2.9-4.1-3.3c1.1-0.5,2.1-1.3,2.8-2.2c0.7-1,0.6-2.4-0.4-3.3c-0.5-0.4-1.3-0.5-1.7-1
		c-0.2-0.3-0.3-0.7-0.4-1C35,38,28.6,42.1,28.4,44.9z"/>
	<path id="Tracé_959" class="st11" d="M162,61.3c-1.9,2.2-2.1,5.8,0,7.8c-1.1,1.1-2.2,2.3-2.3,3.8c-0.2,2.6,2.9,4.4,5.5,4
		s4.6-2.4,6.4-4.2c2,2.3,5.2,3.2,8.2,2.4c0.9-0.2,1.6-0.7,2.2-1.4c0.8-1.4,0.7-3.1-0.4-4.3c-1-1.2-2.3-2.1-3.7-2.8
		c2.2-0.8,3.7-2.8,3.8-5.2c0-2.3-2.1-4.5-4.3-4.1c2.3-1.6,2.7-5.2,1.2-7.5c-1.7-2.3-4.6-3.5-7.4-3.1c-3.2,0.4-6.4,3.4-5.6,6.5
		c-1.8-1.1-4.2-0.7-5.4,1c-1.1,1.7-0.5,4,1.2,5.1c0.1,0,0.2,0.1,0.2,0.1C163.8,60.2,163.6,59.5,162,61.3z"/>
	
		<linearGradient id="Tracé_960_1_" gradientUnits="userSpaceOnUse" x1="46.0055" y1="110.4293" x2="25.7323" y2="75.3152" gradientTransform="matrix(1 0 0 -1 0 157)">
		<stop  offset="0" style="stop-color:#1BA9B6"/>
		<stop  offset="0.205" style="stop-color:#1BA4B0"/>
		<stop  offset="0.486" style="stop-color:#1C959E"/>
		<stop  offset="0.8094" style="stop-color:#1C7E81"/>
		<stop  offset="1" style="stop-color:#1D6D6D"/>
	</linearGradient>
	<path id="Tracé_960" class="st45" d="M28.4,44.9c-0.2,2.1,0.9,4.1,1.9,6c-3.3,0.5-5.6,3.6-5,6.9c0,0.1,0,0.2,0.1,0.4
		c0.2,0.5,0.3,1,0.1,1.5c-0.2,0.3-0.5,0.5-0.9,0.6c-3.2,1.5-5.8,4.1-7,7.4c-1.2,3.4-0.5,7.1,1.9,9.8c2.1,2.1,5.3,2.9,8.3,3
		s6-0.4,9.1-0.3c2.1,0,4.3,0.3,6.4-0.2s4.1-2.1,4.3-4.2c0.2-2.6-2.2-4.6-4.4-6.1c2.4-2,3.1-5.5,1.5-8.2c-1.3-2.1-3.6-3.2-5.7-4.3
		c1.6-1,2.3-3,1.5-4.7s-2.3-2.9-4.1-3.3c1.1-0.5,2.1-1.3,2.8-2.2c0.7-1,0.6-2.4-0.4-3.3c-0.5-0.4-1.3-0.5-1.7-1
		c-0.2-0.3-0.3-0.7-0.4-1C35,38,28.6,42.1,28.4,44.9z"/>
	
		<linearGradient id="Tracé_961_1_" gradientUnits="userSpaceOnUse" x1="171.0844" y1="110.5851" x2="171.0844" y2="80.1993" gradientTransform="matrix(1 0 0 -1 0 157)">
		<stop  offset="0" style="stop-color:#1BA9B6"/>
		<stop  offset="0.205" style="stop-color:#1BA4B0"/>
		<stop  offset="0.486" style="stop-color:#1C959E"/>
		<stop  offset="0.8094" style="stop-color:#1C7E81"/>
		<stop  offset="1" style="stop-color:#1D6D6D"/>
	</linearGradient>
	<path id="Tracé_961" class="st46" d="M162,61.3c-1.9,2.2-2.1,5.8,0,7.8c-1.1,1.1-2.2,2.3-2.3,3.8c-0.2,2.6,2.9,4.4,5.5,4
		s4.6-2.4,6.4-4.2c2,2.3,5.2,3.2,8.2,2.4c0.9-0.2,1.6-0.7,2.2-1.4c0.8-1.4,0.7-3.1-0.4-4.3c-1-1.2-2.3-2.1-3.7-2.8
		c2.2-0.8,3.7-2.8,3.8-5.2c0-2.3-2.1-4.5-4.3-4.1c2.3-1.6,2.7-5.2,1.2-7.5c-1.7-2.3-4.6-3.5-7.4-3.1c-3.2,0.4-6.4,3.4-5.6,6.5
		c-1.8-1.1-4.2-0.7-5.4,1c-1.1,1.7-0.5,4,1.2,5.1c0.1,0,0.2,0.1,0.2,0.1C163.8,60.2,163.6,59.5,162,61.3z"/>
	<path id="Tracé_962" class="st2" d="M168.2,69.7c-1-1.4-2.2-2.8-3.6-3.9l3.6,2.4c0.2,0.2,0.4,0.2,0.7,0.3c0.7,0,0.7-1.1,0.4-1.8
		l-3.5-7.9c2.2,2,3.8,4.6,4.6,7.4c0.9-1.1,1.7-2.3,2.3-3.5c0.5,1.8-1,3.5-1.3,5.4c-0.1,0.9-0.1,1.8,0.1,2.7c0.6,3.9,1.6,7.7,3,11.4
		c-3.7,0.2-4.3-0.1-4.3-3.8C170.2,75.4,169.8,72.3,168.2,69.7z"/>
	<path id="Tracé_963" class="st11" d="M101.2,93.5c-0.1,1.4-0.6,2.8-1.4,3.9c-3.9,6.5-10.8,11.1-13.3,18.3
		c-2.1,6.1-0.6,12.9,2.1,18.8s4.2,11.9,7,17.7c12.1-0.2,39.6,2.6,51.5,4.9c-6.1-4-34.5-27.6-38.4-40.9c-1.7-5.9,3.8-8.9,2.8-14.9
		c-0.8-4.5-3.1-8.7-6.7-11.6c-1-0.8-4.1-3.6-5.4-2.4C98,88.5,101.2,91.6,101.2,93.5z"/>
	
		<linearGradient id="Tracé_964_1_" gradientUnits="userSpaceOnUse" x1="85.5108" y1="34.9474" x2="147.1" y2="34.9474" gradientTransform="matrix(1 0 0 -1 0 157)">
		<stop  offset="0" style="stop-color:#1BA9B6"/>
		<stop  offset="0.1679" style="stop-color:#1BA5B1"/>
		<stop  offset="0.3681" style="stop-color:#1C99A2"/>
		<stop  offset="0.5841" style="stop-color:#1C858B"/>
		<stop  offset="0.7626" style="stop-color:#1D7071"/>
		<stop  offset="0.9798" style="stop-color:#1D6E6E"/>
		<stop  offset="1" style="stop-color:#1D6D6D"/>
	</linearGradient>
	<path id="Tracé_964" class="st47" d="M101.2,93.5c-0.1,1.4-0.6,2.8-1.4,3.9c-3.9,6.5-10.8,11.1-13.3,18.3
		c-2.1,6.1-0.6,12.9,2.1,18.8s4.2,11.9,7,17.7c12.1-0.2,39.6,2.6,51.5,4.9c-6.1-4-34.5-27.6-38.4-40.9c-1.7-5.9,3.8-8.9,2.8-14.9
		c-0.8-4.5-3.1-8.7-6.7-11.6c-1-0.8-4.1-3.6-5.4-2.4C98,88.5,101.2,91.6,101.2,93.5z"/>
	<path id="Tracé_965" class="st2" d="M28.3,84.2c-0.2,0.3-0.2,0.8-0.1,1.1c0.2,0.5,0.9,0.5,1.4,0.5h3.8c-0.6-1.5-0.8-3.2-0.5-4.8
		c0.2-2.4,0.5-5,2.1-6.8c1.2-1.3,3-2,4.2-3.2c-0.1-0.4-0.7-0.3-1-0.2l-4.7,1.9c-1.2-1.8-0.9-4.1-0.5-6.2s1-4.3,0.4-6.3
		c-0.6,2.6-1.3,5.1-2.2,7.6l-2-1.5c0.1,0.5,0.3,1.1,0.5,1.6c0.3,0.5,0.5,1.1,0.6,1.6c0.2,1.7,0.3,3.3,0.2,5
		C30.1,77.8,29.5,81.1,28.3,84.2z"/>
	<path id="Tracé_966" class="st15" d="M159.4,9.8c-2.2,1.5-3.7,3.9-4.1,6.5c0,0.4-0.2,0.9-0.4,1.3c-0.6,0.7-1.6,0.4-2.5,0.1
		c-4.3-1-8.7,1.5-10.1,5.7C138,23.6,133,24.2,131,28c-0.4,0.6-0.5,1.3-0.5,2c0.3,1.9,2.6,2.6,4.5,2.8c4.4,0.4,8.8,0.5,13.2,0.4
		c14-0.1,28-0.2,42-1.3c0.6,0,1.3-0.2,1.6-0.7c0.2-0.3,0.2-0.7,0.1-1.1c-0.7-5.6-3.9-10.6-7.6-14.9c-2.9-3.3-6.9-6.6-11.3-6
		c-2.8,0.4-3.9,0.6-6.4-0.3C164.3,8.1,161.6,8.4,159.4,9.8z"/>
	<path id="Tracé_967" class="st15" d="M47.3,23.9c0.6,0.4,1.3,0.8,2,1c1.8,0.4,3.4-1.1,5.1-2c4.4-2.3,9.7-0.1,14,2.3
		c0.8,0.5,1.6,0.9,2.5,1.1c1,0.1,2.1,0.1,3.1-0.1c4-0.3,7.9,0.8,11.8,2c0.7,0.1,1.3,0.5,1.7,1c0.3,0.7,0.3,1.6-0.2,2.3
		c-1.7,2.7-5.4,2.9-8.5,2.9l-56.5-0.9c-1.1,0.1-2.2-0.1-3.2-0.5c-2.1-0.9-3.1-3.4-2.2-5.5s3.4-3.1,5.5-2.2c0.2,0.1,0.3,0.2,0.5,0.2
		C26.7,17.4,41,19.9,47.3,23.9z"/>
	<path id="Tracé_968" class="st35" d="M65.1,82.9c-1,0.4-1.8,1.1-2.4,2c-0.2,0.3-0.4,0.6-0.6,0.9c-0.5,1.1-0.4,2.4-1.3,3.2
		c0.5,0,1-0.2,1.3-0.6c-0.6,0.7-1.3,1.2-2.1,1.6c0.1,0.3,0.4,0.4,0.7,0.4s0.6-0.1,0.8-0.2c1.5-0.4,2.7-1.6,3.2-3.1
		c-0.2,0.4-0.3,0.8-0.5,1.2c-0.1,0.1-0.1,0.3,0,0.4c0.1,0.2,0.4,0,0.6-0.2c0.7-1,1.5-2,2.3-2.8c0.4-0.3,1-0.6,1-1.2
		C68.5,83,66.1,82.5,65.1,82.9z"/>
	<path id="Tracé_969" class="st48" d="M162.8,116.4c0-0.3-0.1-0.6-0.4-0.7c-0.3,0.7-0.5,1.4-0.6,2.2l-0.4,2.1
		c-0.2,0.9-0.3,1.7-0.3,2.6c0,0.7,0.2,1.4,0.6,2c0.3,0.4,1.1,1.3,1.6,0.7c0.2-0.8,0.4-1.6,0.3-2.4
		C163.6,122.2,162.9,117.8,162.8,116.4z"/>
	<path id="Tracé_970" class="st35" d="M158.4,124.5c0.4-0.2,0.9-0.3,1.3-0.4c0.5,0,0.9,0.1,1.3,0.4l1.4,0.6
		c0.2,0.1,0.4,0.2,0.5,0.3c0.1,0.1,0.2,0.4,0.1,0.5c-0.1,0.2-0.3,0.3-0.5,0.3c-0.8,0.1-1.6,0.1-2.4-0.1c-0.6-0.1-1.2-0.3-1.8-0.6
		c-0.3-0.1-1-0.3-1-0.7S158.1,124.5,158.4,124.5z"/>
	
		<linearGradient id="Tracé_971_1_" gradientUnits="userSpaceOnUse" x1="-68.0984" y1="-380.4383" x2="-67.1025" y2="-380.4383" gradientTransform="matrix(3.3563 0 0 14.8234 386.8678 5771.0596)">
		<stop  offset="0" style="stop-color:#ECC4D7"/>
		<stop  offset="0.42" style="stop-color:#EFD4D1"/>
		<stop  offset="1" style="stop-color:#F2EAC9"/>
	</linearGradient>
	<path id="Tracé_971" class="st49" d="M158.3,138.4c0,0.1,0,0.2,0.1,0.3s0.2,0.2,0.3,0.2c0.7,0.3,1.4,0.1,1.9-0.4
		c0.3-0.5,0.3-1.1,0.2-1.6c-0.2-2.9,0.5-5.8,0.8-8.7c0.1-0.9,0.1-1.7-0.2-2.5c-0.2-0.7-0.8-1.4-1.6-1.4c-1.4,0.1-1.4,1.3-1.4,2.3v4
		C158.4,133.1,158.3,135.7,158.3,138.4z"/>
	<path id="Tracé_972" class="st35" d="M158.2,141l0.3,1.2c0,0.1,0,0.2,0.1,0.2c0.1,0.1,0.2,0.1,0.4,0.1c0.9,0,1.8-0.2,2.6-0.5
		c0.1,0,0.1-0.1,0.2-0.1c0.1-0.1,0.1-0.2,0.1-0.3c0.1-1,0.1-1.9,0-2.9c0-0.4-0.1-0.8-0.4-1.1c-0.1-0.1-0.1-0.1-0.2-0.1
		c-0.2,0-0.3,0.1-0.4,0.2c-0.4,0.3-0.9,0.5-1.5,0.5c-0.3,0-0.5,0-0.8-0.1c-0.1,0-0.4-0.3-0.5-0.3C157.2,137.9,158,140.6,158.2,141z"
		/>
	
		<linearGradient id="Tracé_973_1_" gradientUnits="userSpaceOnUse" x1="-92.9652" y1="-380.3249" x2="-94.7222" y2="-383.7749" gradientTransform="matrix(34.7056 0 0 16.0323 3428.8069 6268.7417)">
		<stop  offset="5.000000e-02" style="stop-color:#000000;stop-opacity:0"/>
		<stop  offset="0.89" style="stop-color:#000000;stop-opacity:0.749"/>
		<stop  offset="0.99" style="stop-color:#000000"/>
	</linearGradient>
	<path id="Tracé_973" class="st50" d="M175.1,157c0.6,0.5,1.4,0.9,2.2,1c1.2,0.1,2.2-0.8,3.3-1.3c1.3-0.4,2.7-0.6,4-0.6
		c3.4-0.4,6.5-2.3,9.4-4.1c-4-3.7-9.9-3.9-15-5.8c-1.2-0.4-2.3-0.9-3.5-1.4c-2.1-0.9-4.3-1.7-6.6-2.3c-0.5,0.3-0.2,1.1,0.2,1.5
		c2.2,2.9,4.8,5.5,7.7,7.7c-0.9,0.7-2.2,0.2-3.2-0.4c-3.3-1.9-6.4-4.2-9.3-6.7c-0.7-0.7-4.1-3.8-4.9-2.1c-0.7,1.3,3.1,4.1,3.8,4.8
		C167,150.8,170.9,154,175.1,157z"/>
	<path id="Tracé_974" class="st48" d="M65.6,95c0.9,0.2,1.8,0.7,2.4,1.4c0.6,0.8,1,1.7,1,2.7c0.1,1,0.1,2,0.2,3
		c0.1,0.9,0.3,1.7,0.3,2.6c0.1,0.9-0.1,1.7-0.6,2.5c-0.9-1.1-1-2.6-1.2-4c-0.2-1.5-0.7-3-1.5-4.3c-0.4-0.8-1.1-1.4-1.9-1.7
		c-0.5-0.1-0.9-0.1-1.4-0.1c-0.3,0-0.6-0.2-0.7-0.4c0-0.1,0-0.3,0.1-0.4c0.2-0.5,0.3-1.3,0.9-1.5C64,94.6,64.8,94.7,65.6,95z"/>
	<path id="Tracé_975" class="st48" d="M64.5,103.8c-0.2-0.6-0.5-1.1-1-1.5c-0.9-0.6-2.1-0.2-3.1,0.3c-0.4,0.2-0.8,0.4-1.1,0.8
		c-0.4,0.5-0.7,1.2-0.8,1.8c-0.1,0.7-0.2,1.4-0.2,2.2c0,0.4,0.1,0.9,0.2,1.3c0.3,0.5,0.8,0.9,1.3,1.1c1.5,0.7,3.1,0.8,4.7,0.3
		c0.5-0.1,0.9-0.4,1.2-0.7c0.6-0.7,0-1.7-0.2-2.4C65.2,105.9,64.9,104.8,64.5,103.8z"/>
	<path id="Tracé_976" class="st35" d="M158,78.4c0,0.6,0,1.2-0.1,1.7c-0.2,0.4-0.2,0.9-0.2,1.3c0.1,0.3,0.3,0.6,0.6,0.8
		c0.3,0.2,0.6,0.4,0.8,0.6c0.3,0.3,0.5,0.7,0.7,1.2c0.1,0.3,0.2,0.6,0.4,0.8c0.2,0.3,0.6,0.4,0.9,0.5c0.4,0,0.7,0,1.1,0l1.2-0.1
		c0.2,0,0.5-0.1,0.7-0.2c0.2-0.2,0.2-0.5,0.3-0.7c0.1-0.1,0.2-0.2,0.2-0.3c0.1-0.1,0.1-0.3,0.1-0.4c0.2-0.7,0.8-1.1,1-1.7
		c0.1-0.3,0.1-0.6,0.2-0.9c0.2-0.5,0.7-0.8,1-1.3c-0.4,0-0.8-0.2-1.1-0.5c-0.1-0.1-0.1-0.2,0-0.2c0.2,0,0.3,0.1,0.5,0.1l-1-1.2
		c-0.3-0.3-0.6-0.6-0.9-0.9c-0.7-0.3-1.4-0.4-2.1-0.3c-0.1,0-0.1,0-0.2,0l-0.1-0.1c-0.1-0.1-0.3-0.2-0.4-0.1c-0.8,0-1.7,0.2-2.4,0.6
		C158.4,77,158,77.7,158,78.4z"/>
	
		<linearGradient id="Rectangle_52_6_" gradientUnits="userSpaceOnUse" x1="79.45" y1="85.846" x2="79.45" y2="91.884" gradientTransform="matrix(1 0 0 -1 0 157)">
		<stop  offset="0" style="stop-color:#1BA9B6"/>
		<stop  offset="0.205" style="stop-color:#1BA4B0"/>
		<stop  offset="0.486" style="stop-color:#1C959E"/>
		<stop  offset="0.8094" style="stop-color:#1C7E81"/>
		<stop  offset="1" style="stop-color:#1D6D6D"/>
	</linearGradient>
	<rect id="Rectangle_52_1_" x="77.6" y="65.1" class="st51" width="3.7" height="6"/>
	
		<linearGradient id="Rectangle_52_7_" gradientUnits="userSpaceOnUse" x1="66.55" y1="85.846" x2="66.55" y2="91.884" gradientTransform="matrix(1 0 0 -1 0 157)">
		<stop  offset="0" style="stop-color:#1BA9B6"/>
		<stop  offset="0.205" style="stop-color:#1BA4B0"/>
		<stop  offset="0.486" style="stop-color:#1C959E"/>
		<stop  offset="0.8094" style="stop-color:#1C7E81"/>
		<stop  offset="1" style="stop-color:#1D6D6D"/>
	</linearGradient>
	<rect id="Rectangle_52_2_" x="64.7" y="65.1" class="st52" width="3.7" height="6"/>
	
		<linearGradient id="Rectangle_41_4_" gradientUnits="userSpaceOnUse" x1="79.45" y1="76.275" x2="79.45" y2="82.159" gradientTransform="matrix(1 0 0 -1 0 157)">
		<stop  offset="0" style="stop-color:#1BA9B6"/>
		<stop  offset="0.205" style="stop-color:#1BA4B0"/>
		<stop  offset="0.486" style="stop-color:#1C959E"/>
		<stop  offset="0.8094" style="stop-color:#1C7E81"/>
		<stop  offset="1" style="stop-color:#1D6D6D"/>
	</linearGradient>
	<rect id="Rectangle_41_1_" x="74.7" y="74.8" class="st53" width="9.5" height="5.9"/>
	
		<linearGradient id="Rectangle_52_8_" gradientUnits="userSpaceOnUse" x1="79.45" y1="76.077" x2="79.45" y2="82.115" gradientTransform="matrix(1 0 0 -1 0 157)">
		<stop  offset="0" style="stop-color:#1BA9B6"/>
		<stop  offset="0.205" style="stop-color:#1BA4B0"/>
		<stop  offset="0.486" style="stop-color:#1C959E"/>
		<stop  offset="0.8094" style="stop-color:#1C7E81"/>
		<stop  offset="1" style="stop-color:#1D6D6D"/>
	</linearGradient>
	<rect id="Rectangle_52_3_" x="77.6" y="74.9" class="st54" width="3.7" height="6"/>
	
		<linearGradient id="Rectangle_41_5_" gradientUnits="userSpaceOnUse" x1="65.95" y1="76.7905" x2="65.95" y2="82.6745" gradientTransform="matrix(1 0 0 -1 0 157)">
		<stop  offset="0" style="stop-color:#1BA9B6"/>
		<stop  offset="0.205" style="stop-color:#1BA4B0"/>
		<stop  offset="0.486" style="stop-color:#1C959E"/>
		<stop  offset="0.8094" style="stop-color:#1C7E81"/>
		<stop  offset="1" style="stop-color:#1D6D6D"/>
	</linearGradient>
	<rect id="Rectangle_41_2_" x="61.2" y="74.3" class="st55" width="9.5" height="5.9"/>
	
		<linearGradient id="Rectangle_52_9_" gradientUnits="userSpaceOnUse" x1="65.95" y1="76.7135" x2="65.95" y2="82.7515" gradientTransform="matrix(1 0 0 -1 0 157)">
		<stop  offset="0" style="stop-color:#1BA9B6"/>
		<stop  offset="0.205" style="stop-color:#1BA4B0"/>
		<stop  offset="0.486" style="stop-color:#1C959E"/>
		<stop  offset="0.8094" style="stop-color:#1C7E81"/>
		<stop  offset="1" style="stop-color:#1D6D6D"/>
	</linearGradient>
	<rect id="Rectangle_52_5_" x="64.1" y="74.2" class="st56" width="3.7" height="6"/>
</g>
</svg>
