<?xml version="1.0" encoding="utf-8"?>
<!-- Generator: Adobe Illustrator 24.0.1, SVG Export Plug-In . SVG Version: 6.00 Build 0)  -->
<svg xmlns="http://www.w3.org/2000/svg" xmlns:xlink="http://www.w3.org/1999/xlink" width="183.668" height="194.951" viewBox="0 0 183.668 194.951">
<style type="text/css">
	.st0{enable-background:new    ;}
	.st1{fill:#1BA9B6;}
	.st2{fill:none;}
	.st3{fill:#E7EFF2;}
	.st4{fill:#FFFFFF;}
	.st5{fill:#1BA9B6;enable-background:new    ;}
	.st6{fill:none;stroke:#FFFFFF;stroke-width:4;}
</style>
<title>qualité</title>
<g>
	<g id="Groupe_77" class="st0">
		<path id="Tracé_823" class="st1" d="M55.3,133.2c0,0,3.5-2.5,7.1-1c0,0-1,2.2-5.5,2.1L55.3,133.2z"/>
		<path id="Tracé_824" class="st1" d="M54.9,133.4c0,0-0.9,4.2,1.9,6.9c0,0,1.6-1.8-0.2-5.9L54.9,133.4z"/>
		<path id="Tracé_825" class="st1" d="M50.2,129.5c0,0,0.1-3.6,8.2-2.7c-0.1,1.6-1.1,3-2.6,3.5C53,131.5,51.7,130.7,50.2,129.5z"/>
		<path id="Tracé_826" class="st1" d="M49.8,129.5c0,0-3.3,1.2,0,8.6c1.5-0.5,2.5-2,2.5-3.6C52.5,131.6,51.3,130.6,49.8,129.5z"/>
		<path id="Tracé_827" class="st1" d="M45,124.7c0,0-0.7-5.8,7.5-5.5c0,0,0.8,5.3-6,6.9L45,124.7z"/>
		<path id="Tracé_828" class="st1" d="M39.4,118.3c0,0,0.9-6.7,9.1-5c0,0,0.3,5.7-7.7,6.5L39.4,118.3z"/>
		<path id="Tracé_829" class="st1" d="M35.2,111.7c0,0,1.6-6.5,9.8-4.9c0,0-1.7,5.9-9.2,6L35.2,111.7z"/>
		<path id="Tracé_830" class="st1" d="M31.2,105.2c0,0,1.6-6.8,9.5-5c0,0-2.4,6.4-8.9,6.2L31.2,105.2z"/>
		<path id="Tracé_831" class="st1" d="M28.5,98.9c0,0,1.1-8.2,8.5-6.7c0,0-1.8,7.5-7.9,7.9L28.5,98.9z"/>
		<path id="Tracé_832" class="st1" d="M25.9,91.4c0,0,1.4-8.3,8.8-6.2c0,0-2.6,7.9-8.3,7.3L25.9,91.4z"/>
		<path id="Tracé_833" class="st1" d="M24.3,84.4c0,0,2.4-8.4,8.1-8.4c0,0-2.4,8.8-7.6,10L24.3,84.4z"/>
		<path id="Tracé_834" class="st1" d="M23.1,77.5c0,0,2.5-10,7.2-9.5c0,0-1.7,7.7-7,11L23.1,77.5z"/>
		<path id="Tracé_835" class="st1" d="M22.3,69.2c0,0,2.4-8.4,7-8.9c0,0-1.5,8.2-6.8,11L22.3,69.2z"/>
		<path id="Tracé_836" class="st1" d="M21.4,61.5c0,0,3.1-8.4,6.1-8.7c0,0-1.2,8.2-5.8,10L21.4,61.5z"/>
		<path id="Tracé_837" class="st1" d="M20.8,54.4c0,0,1.8-9.1,4.8-9.9c0,0-0.1,7.4-4.4,10.6L20.8,54.4z"/>
		<path id="Tracé_838" class="st1" d="M19.3,45c0,0,1.9-7.3,4.3-8.4c0,0-0.2,8.5-3.7,10.2L19.3,45z"/>
		<path id="Tracé_839" class="st1" d="M18.1,38.9l-0.9-12.6c0,0,4.9,9.3,1.3,14.8L18.1,38.9z"/>
		<path id="Tracé_840" class="st1" d="M14.1,26.5c0,0-3.7-9.1-4.4-9.6c0,0,6.7,5.7,6.4,13.4L14.1,26.5z"/>
		<path id="Tracé_841" class="st1" d="M44.8,124.7c0,0-5.8-0.5-5.3,7.7c0,0,5.3,0.6,6.7-6.2L44.8,124.7z"/>
		<path id="Tracé_842" class="st1" d="M39.1,118.1c0,0-6.7,0.2-5.8,8.6c0,0,5.7,0.8,7.2-7.1L39.1,118.1z"/>
		<path id="Tracé_843" class="st1" d="M35.1,112.2c0,0-6.2-2.6-9.8,4.9c0,0,5.7,2.2,10.4-3.7L35.1,112.2z"/>
		<path id="Tracé_844" class="st1" d="M31,105.2c0,0-6.3-2.8-9.7,4.5c0,0,6.6,2,10.3-3.4L31,105.2z"/>
		<path id="Tracé_845" class="st1" d="M28.6,99.1c0,0-6.2-5.5-10.8,0.5c0,0,6.3,4.5,11.1,0.8L28.6,99.1z"/>
		<path id="Tracé_846" class="st1" d="M26.3,91.2c0,0-6.3-5.6-10.8,0.7c0,0,7,4.5,11,0.5L26.3,91.2z"/>
		<path id="Tracé_847" class="st1" d="M24.9,84.1c0,0-4.9-7.1-10.3-5.3c0,0,5.1,7.6,10.3,7L24.9,84.1z"/>
		<path id="Tracé_848" class="st1" d="M23.2,77.4c0,0-5-9-9.4-7.3c0,0,3.6,7,9.6,8.8L23.2,77.4z"/>
		<path id="Tracé_849" class="st1" d="M22.6,68.7c0,0-5.1-7.1-9.6-6c0,0,4.2,7.2,10.1,8.1L22.6,68.7z"/>
		<path id="Tracé_850" class="st1" d="M21.9,61.3c0,0-4-8-7.1-8c0,0,2.1,8,6.9,9.3L21.9,61.3z"/>
		<path id="Tracé_851" class="st1" d="M20.9,54.2c0,0-4.5-8.1-7.6-8c0,0,2.4,7,7.5,8.7L20.9,54.2z"/>
		<path id="Tracé_852" class="st1" d="M20,45.5c0,0-3.4-6.7-5.9-7.4c0,0,1.9,8.3,5.7,9.2L20,45.5z"/>
		<path id="Tracé_853" class="st1" d="M17.7,38.7l-7.3-10.3c0,0,2.2,10.3,8.4,12.3L17.7,38.7z"/>
		<path id="Tracé_854" class="st1" d="M12.5,27.4c0,0-8.3-5.3-8.6-6.1c0,0,4.4,7.6,12,8.7L12.5,27.4z"/>
		<path id="Tracé_855" class="st1" d="M11.9,24.9c0,0-9.6-8.5-12-8.4c5.2,0.4,9.7,3.4,12.1,8L11.9,24.9z"/>
		<path id="Tracé_856" class="st1" d="M19.9,46.8l-0.3,0.1c-2.3-13.5-5.1-21.5-8-22.4l0.1-0.3C14.8,25.1,17.6,33,19.9,46.8z"/>
		<path id="Tracé_857" class="st1" d="M23.7,79.3l-0.5,0.1c-0.2-1.3-0.3-2.6-0.4-3.9c-0.9-11.2-2.1-21.5-3.4-29.3l0.3-0.4
			c1.3,7.7,2.7,18.3,3.6,29.6C23.4,76.7,23.6,78,23.7,79.3z"/>
		<path id="Tracé_858" class="st1" d="M65.1,139.3c-7-3.2-13.4-7.5-18.9-12.9c-5.7-5.4-10.4-11.6-14.1-18.5
			c-4.6-8.6-7.7-19.3-9-29.7l0.5,0.2c2.9,23.4,14.2,39,23,47.4c5.4,5.3,11.8,9.6,18.7,12.8L65.1,139.3z"/>
	</g>
	<g id="Groupe_78" class="st0">
		<path id="Tracé_823-2" class="st1" d="M128.3,133.2c0,0-3.5-2.5-7.1-1c0,0,1,2.2,5.5,2.1L128.3,133.2z"/>
		<path id="Tracé_824-2" class="st1" d="M128.8,133.4c0,0,0.9,4.2-1.9,6.9c0,0-1.6-1.8,0.2-5.9L128.8,133.4z"/>
		<path id="Tracé_825-2" class="st1" d="M133.4,129.5c0,0-0.1-3.6-8.2-2.7c0.1,1.6,1.1,3,2.6,3.5
			C130.6,131.5,132,130.7,133.4,129.5z"/>
		<path id="Tracé_826-2" class="st1" d="M133.9,129.5c0,0,3.3,1.2,0,8.6c-1.5-0.5-2.5-2-2.5-3.6
			C131.2,131.6,132.4,130.6,133.9,129.5z"/>
		<path id="Tracé_827-2" class="st1" d="M138.6,124.7c0,0,0.7-5.8-7.5-5.5c0,0-0.8,5.3,6,6.9L138.6,124.7z"/>
		<path id="Tracé_828-2" class="st1" d="M144.3,118.3c0,0-0.9-6.7-9.1-5c0,0-0.3,5.7,7.7,6.5L144.3,118.3z"/>
		<path id="Tracé_829-2" class="st1" d="M148.5,111.7c0,0-1.6-6.5-9.8-4.9c0,0,1.7,5.9,9.2,6L148.5,111.7z"/>
		<path id="Tracé_830-2" class="st1" d="M152.5,105.2c0,0-1.6-6.8-9.5-5c0,0,2.4,6.4,8.9,6.2L152.5,105.2z"/>
		<path id="Tracé_831-2" class="st1" d="M155.2,98.9c0,0-1.1-8.2-8.5-6.7c0,0,1.8,7.5,7.9,7.9L155.2,98.9z"/>
		<path id="Tracé_832-2" class="st1" d="M157.7,91.4c0,0-1.4-8.3-8.8-6.2c0,0,2.6,7.9,8.3,7.3L157.7,91.4z"/>
		<path id="Tracé_833-2" class="st1" d="M159.4,84.4c0,0-2.4-8.4-8.1-8.4c0,0,2.4,8.8,7.5,10L159.4,84.4z"/>
		<path id="Tracé_834-2" class="st1" d="M160.6,77.5c0,0-2.6-10-7.2-9.4c0,0,1.7,7.7,7,11L160.6,77.5z"/>
		<path id="Tracé_835-2" class="st1" d="M161.4,69.2c0,0-2.4-8.4-7-8.9c0,0,1.6,8.2,6.8,11L161.4,69.2z"/>
		<path id="Tracé_836-2" class="st1" d="M162.2,61.5c0,0-3.1-8.4-6.1-8.7c0,0,1.2,8.2,5.8,10L162.2,61.5z"/>
		<path id="Tracé_837-2" class="st1" d="M162.9,54.4c0,0-1.8-9.1-4.8-9.9c0,0,0.1,7.4,4.4,10.6L162.9,54.4z"/>
		<path id="Tracé_838-2" class="st1" d="M164.4,45c0,0-1.9-7.3-4.3-8.4c0,0,0.2,8.5,3.7,10.2L164.4,45z"/>
		<path id="Tracé_839-2" class="st1" d="M165.6,38.9l0.9-12.6c0,0-4.9,9.3-1.3,14.8L165.6,38.9z"/>
		<path id="Tracé_840-2" class="st1" d="M169.6,26.5c0,0,3.6-9.1,4.5-9.6c0,0-6.7,5.7-6.4,13.4L169.6,26.5z"/>
		<path id="Tracé_841-2" class="st1" d="M138.9,124.7c0,0,5.8-0.5,5.3,7.7c0,0-5.3,0.6-6.7-6.2L138.9,124.7z"/>
		<path id="Tracé_842-2" class="st1" d="M144.6,118.1c0,0,6.7,0.2,5.8,8.6c0,0-5.7,0.8-7.2-7.1L144.6,118.1z"/>
		<path id="Tracé_843-2" class="st1" d="M148.5,112.2c0,0,6.2-2.6,9.8,4.9c0,0-5.7,2.2-10.4-3.7L148.5,112.2z"/>
		<path id="Tracé_844-2" class="st1" d="M152.6,105.2c0,0,6.4-2.8,9.7,4.5c0,0-6.6,2-10.3-3.4L152.6,105.2z"/>
		<path id="Tracé_845-2" class="st1" d="M155.1,99.1c0,0,6.2-5.5,10.8,0.5c0,0-6.3,4.5-11.1,0.8L155.1,99.1z"/>
		<path id="Tracé_846-2" class="st1" d="M157.4,91.2c0,0,6.3-5.6,10.8,0.7c0,0-6.9,4.5-11,0.5L157.4,91.2z"/>
		<path id="Tracé_847-2" class="st1" d="M158.8,84.1c0,0,4.9-7.1,10.3-5.3c0,0-5.1,7.6-10.3,7L158.8,84.1z"/>
		<path id="Tracé_848-2" class="st1" d="M160.4,77.4c0,0,5-9,9.4-7.3c0,0-3.6,7-9.6,8.8L160.4,77.4z"/>
		<path id="Tracé_849-2" class="st1" d="M161.1,68.7c0,0,5.1-7.1,9.6-6c0,0-4.2,7.2-10.1,8.1L161.1,68.7z"/>
		<path id="Tracé_850-2" class="st1" d="M161.7,61.3c0,0,4-8,7.1-8c0,0-2.1,8-6.9,9.3L161.7,61.3z"/>
		<path id="Tracé_851-2" class="st1" d="M162.7,54.2c0,0,4.5-8.1,7.6-8c0,0-2.4,7-7.5,8.7L162.7,54.2z"/>
		<path id="Tracé_852-2" class="st1" d="M163.7,45.5c0,0,3.4-6.7,6-7.4c0,0-1.9,8.3-5.7,9.2L163.7,45.5z"/>
		<path id="Tracé_853-2" class="st1" d="M165.9,38.7l7.3-10.3c0,0-2.2,10.3-8.4,12.3L165.9,38.7z"/>
		<path id="Tracé_854-2" class="st1" d="M171.1,27.4c0,0,8.3-5.3,8.6-6.1c0,0-4.4,7.6-12.1,8.7L171.1,27.4z"/>
		<path id="Tracé_855-2" class="st1" d="M171.7,24.9c0,0,9.6-8.5,12-8.4c-5.2,0.4-9.7,3.4-12.2,8L171.7,24.9z"/>
		<path id="Tracé_856-2" class="st1" d="M163.7,46.8l0.3,0.1c2.3-13.5,5.1-21.5,8-22.4l-0.1-0.3C168.9,25.1,166,33,163.7,46.8z"/>
		<path id="Tracé_857-2" class="st1" d="M159.9,79.3l0.5,0.1c0.1-1.3,0.3-2.6,0.4-3.9c0.9-11.2,2.1-21.5,3.4-29.3l-0.3-0.4
			c-1.3,7.7-2.7,18.3-3.6,29.6C160.2,76.7,160.1,78,159.9,79.3z"/>
		<path id="Tracé_858-2" class="st1" d="M118.7,139.3c7-3.2,13.4-7.5,18.9-12.9c5.7-5.4,10.4-11.6,14.1-18.5
			c4.6-8.6,7.7-19.3,8.9-29.7l-0.5,0.2c-2.9,23.4-14.2,39-23,47.4c-5.4,5.3-11.8,9.6-18.7,12.8L118.7,139.3z"/>
	</g>
	<path id="Tracé_744" class="st2" d="M14.3,39h154v154h-154V39z"/>
	<path class="st3" d="M138.3,176.7l-2.8-1.2l-44.1-18.9l-44.1,18.9l-2.8,1.2V71.1c0-2,0.4-3.9,1.2-5.8c1.5-3.6,4.3-6.4,7.9-7.9
		c1.8-0.8,3.8-1.2,5.8-1.2h64.2c2,0,3.9,0.4,5.8,1.2c3.6,1.5,6.4,4.3,7.9,7.9c0.8,1.8,1.2,3.8,1.2,5.8L138.3,176.7L138.3,176.7z"/>
	<path class="st4" d="M59.3,58.2c-7.1,0-12.8,5.8-12.8,12.8v102.6l44.9-19.3l44.9,19.3V71.1c0-7.1-5.8-12.8-12.8-12.8H59.3
		 M59.3,54.2h64.2c9.3,0,16.8,7.5,16.8,16.8v102.6c0,1.3-0.7,2.6-1.8,3.3c-0.7,0.4-1.4,0.7-2.2,0.7c-0.5,0-1.1-0.1-1.6-0.3
		l-43.3-18.6L48,177.4c-0.5,0.2-1,0.3-1.6,0.3c-0.8,0-1.5-0.2-2.2-0.7c-1.1-0.7-1.8-2-1.8-3.3V71.1C42.4,61.8,50,54.2,59.3,54.2z"/>
	<path id="Tracé_746" class="st5" d="M115.2,71.4c3,0,5.5,2.5,5.5,5.5v77.2c0,3-28.1-14-28.1-14V71.4H115.2z"/>
	<circle class="st3" cx="91.3" cy="70.8" r="70.8"/>
	<circle class="st6" cx="91.3" cy="70.8" r="68.8"/>
	<path id="Tracé_750" class="st5" d="M93.2,23.5c24.8-0.4,45.2,19.4,45.6,44.2s-19.4,45.2-44.2,45.6c-0.4,0-0.9,0-1.3,0
		C93.3,23.9,93.2,113.4,93.2,23.5z"/>
</g>
</svg>
