<?xml version="1.0" encoding="utf-8"?>
<!-- Generator: Adobe Illustrator 24.0.1, SVG Export Plug-In . SVG Version: 6.00 Build 0)  -->
<svg xmlns="http://www.w3.org/2000/svg" xmlns:xlink="http://www.w3.org/1999/xlink" width="257.833" height="165.328" viewBox="0 0 257.833 165.328">
 
<style type="text/css">
	.st0{opacity:0.1;fill:#1F9510;enable-background:new    ;}
	.st1{opacity:0.1;}
	.st2{fill:#1F9510;}
	.st3{opacity:0.1;fill:#007BFF;}
	.st4{fill:#FFFFFF;}
	.st5{fill:#3F3D56;}
	.st6{opacity:0.8;fill:#FA5959;enable-background:new    ;}
	.st7{opacity:0.8;fill:#FED253;enable-background:new    ;}
	.st8{fill:#007BFF;}
	.st9{opacity:0.2;fill:#007BFF;}
	.st10{fill:none;stroke:#3F3D56;stroke-miterlimit:10;}
	.st11{opacity:0.1;enable-background:new    ;}
	.st12{fill:#46455B;}
	.st13{fill:#A8A8A8;}
	.st14{opacity:0.2;enable-background:new    ;}
	.st15{fill:url(#Tracé_873_1_);}
	.st16{fill:#65617D;}
	.st17{opacity:5.000000e-02;enable-background:new    ;}
	.st18{fill:#EE8E9E;}
	.st19{fill:#E3E8F4;}
	.st20{fill:#E6E8EC;}
	.st21{fill:#565387;}
</style>
<g>
	<ellipse id="Ellipse_13" class="st0" cx="197" cy="155.3" rx="44.8" ry="10"/>
	<g id="Groupe_83" transform="translate(145.965 6.258)" class="st1">
		<path id="Tracé_859" class="st2" d="M0,0c0,36.5,22.9,66,51.2,66"/>
	</g>
	<path id="Tracé_860" class="st3" d="M146.6,30.4c-16.5,0.1-32.4-3.6-47.6-7.8s-30.2-8.8-46.4-10.8c-10.4-1.2-22.3-1-30.5,3.7
		c-7.9,4.6-10.2,12.1-11.4,19.1c-0.9,5.2-1.3,10.7,1.8,15.5c2.1,3.3,5.7,6,8.3,9.2c8.9,10.9,3.4,25-5.5,36.3
		c-4.2,5.3-9,10.4-12.2,16s-4.5,11.9-1.4,17.4c3.1,5.4,10.2,9.3,17.8,12c15.4,5.4,33.5,6.5,51,6.8c38.8,0.8,77.7-1.5,116.5-3.9
		c14.4-0.9,28.8-1.7,42.9-4c7.8-1.3,15.9-3.1,21.4-7.1c7.1-5.1,8.6-13.3,3.5-19.2c-8.5-9.9-31.1-11.6-37.1-22.3
		c-3.3-5.9-0.4-12.7,4-18.4c9.3-12.3,25.3-23.4,25.7-37.1c0.3-9.4-7.9-18.5-20.2-22.5c-12.9-4.2-30.6-3-39.7,5
		C178.1,26.6,161.2,30.3,146.6,30.4z"/>
	<path id="Tracé_861" class="st4" d="M221.2,7.3v121.1c0,3.6-3.5,6.5-7.8,6.5H49.1c-4.3,0-7.8-2.9-7.8-6.5V7.3
		c0-3.6,3.5-7.3,7.8-7.3l164.3,0.4C217.7,0.4,221.2,3.7,221.2,7.3z"/>
	<path id="Tracé_862" class="st5" d="M221.2,7.3v5.6H41.4V7.3c0-4,3.3-7.3,7.3-7.3h165.2C217.9,0,221.2,3.3,221.2,7.3
		C221.2,7.3,221.2,7.3,221.2,7.3z"/>
	<circle id="Ellipse_14" class="st6" cx="50.1" cy="6.5" r="2.6"/>
	<circle id="Ellipse_15" class="st7" cx="57.6" cy="6.5" r="2.6"/>
	<circle id="Ellipse_16" class="st8" cx="65.1" cy="6.5" r="2.6"/>
	<path id="Rectangle_10" class="st9" d="M110.6,39.9h8.6c2.1,0,3.9,1.7,3.9,3.9l0,0c0,2.1-1.7,3.9-3.9,3.9h-8.6
		c-2.1,0-3.9-1.7-3.9-3.9l0,0C106.8,41.6,108.5,39.9,110.6,39.9z"/>
	<path id="Rectangle_11" class="st9" d="M143.8,39.9h8.6c2.1,0,3.9,1.7,3.9,3.9l0,0c0,2.1-1.7,3.9-3.9,3.9h-8.6
		c-2.1,0-3.9-1.7-3.9-3.9l0,0C139.9,41.6,141.6,39.9,143.8,39.9z"/>
	<path id="Tracé_863" class="st10" d="M114.9,47.5l16.4,21.4l16.9-21.5"/>
	<path id="Rectangle_12" class="st11" d="M124.7,68.1h13.1c3.3,0,5.9,2.7,5.9,5.9l0,0c0,3.3-2.7,5.9-5.9,5.9h-13.1
		c-3.3,0-5.9-2.7-5.9-5.9l0,0C118.8,70.8,121.4,68.1,124.7,68.1z"/>
	<path id="Rectangle_13" class="st8" d="M125,68.4h12.6c3.1,0,5.7,2.5,5.7,5.7l0,0c0,3.1-2.5,5.7-5.7,5.7H125
		c-3.1,0-5.7-2.5-5.7-5.7l0,0C119.3,70.9,121.8,68.4,125,68.4z"/>
	<line id="Ligne_1" class="st10" x1="115" y1="39.9" x2="114.8" y2="32.3"/>
	<path id="Tracé_864" class="st10" d="M157.7,32.7l-9.6,7.2L138,32.7"/>
	<path id="Rectangle_14" class="st9" d="M110.5,24.9h8.6c2.1,0,3.9,1.7,3.9,3.9l0,0c0,2.1-1.7,3.9-3.9,3.9h-8.6
		c-2.1,0-3.9-1.7-3.9-3.9l0,0C106.7,26.7,108.4,24.9,110.5,24.9z"/>
	<path id="Rectangle_15" class="st9" d="M153.4,24.9h8.6c2.1,0,3.9,1.7,3.9,3.9l0,0c0,2.1-1.7,3.9-3.9,3.9h-8.6
		c-2.1,0-3.9-1.7-3.9-3.9l0,0C149.5,26.7,151.3,24.9,153.4,24.9z"/>
	<path id="Rectangle_16" class="st9" d="M133.7,24.9h8.6c2.1,0,3.9,1.7,3.9,3.9l0,0c0,2.1-1.7,3.9-3.9,3.9h-8.6
		c-2.1,0-3.9-1.7-3.9-3.9l0,0C129.8,26.7,131.6,24.9,133.7,24.9z"/>
	<line id="Ligne_2" class="st10" x1="131.3" y1="79.8" x2="131.2" y2="100.4"/>
	<path id="Tracé_865" class="st10" d="M131.1,108"/>
	<path id="Tracé_866" class="st10" d="M108,115.2l23.1-7.2l23.2,7.1"/>
	<path id="Rectangle_17" class="st9" d="M126.9,100.4h8.6c2.1,0,3.9,1.7,3.9,3.9l0,0c0,2.1-1.7,3.9-3.9,3.9h-8.6
		c-2.1,0-3.9-1.7-3.9-3.9l0,0C123,102.2,124.8,100.4,126.9,100.4z"/>
	<path id="Rectangle_18" class="st9" d="M202.1,57.8v8.6c0,2.1-1.7,3.9-3.9,3.9l0,0c-2.1,0-3.9-1.7-3.9-3.9v-8.6
		c0-2.1,1.7-3.9,3.9-3.9l0,0C200.4,53.9,202.1,55.6,202.1,57.8z"/>
	<path id="Rectangle_19" class="st9" d="M194.4,92v-8.6c0-2.1,1.7-3.9,3.9-3.9l0,0c2.1,0,3.9,1.7,3.9,3.9V92c0,2.1-1.7,3.9-3.9,3.9
		l0,0C196.1,95.8,194.4,94.1,194.4,92z"/>
	<path id="Rectangle_20" class="st9" d="M150.1,115.1h8.6c2.1,0,3.9,1.7,3.9,3.9l0,0c0,2.1-1.7,3.9-3.9,3.9h-8.6
		c-2.1,0-3.9-1.7-3.9-3.9l0,0C146.2,116.8,147.9,115.1,150.1,115.1z"/>
	<path id="Rectangle_21" class="st9" d="M112.3,122.8h-8.6c-2.1,0-3.9-1.7-3.9-3.9l0,0c0-2.1,1.7-3.9,3.9-3.9h8.6
		c2.1,0,3.9,1.7,3.9,3.9l0,0C116.2,121.1,114.5,122.8,112.3,122.8z"/>
	<path id="Rectangle_22" class="st9" d="M135.9,122.8h-8.6c-2.1,0-3.9-1.7-3.9-3.9l0,0c0-2.1,1.7-3.9,3.9-3.9h8.6
		c2.1,0,3.9,1.7,3.9,3.9l0,0C139.8,121.1,138,122.8,135.9,122.8z"/>
	<line id="Ligne_3" class="st10" x1="187.1" y1="74.9" x2="194.4" y2="87.6"/>
	<line id="Ligne_4" class="st10" x1="171.7" y1="74.7" x2="179.4" y2="74.7"/>
	<line id="Ligne_5" class="st10" x1="143.2" y1="74.1" x2="164.1" y2="74.7"/>
	<line id="Ligne_6" class="st10" x1="194.4" y1="62" x2="187.1" y2="74.8"/>
	<path id="Rectangle_23" class="st9" d="M171.9,70.3v8.6c0,2.1-1.7,3.9-3.9,3.9l0,0c-2.1,0-3.9-1.7-3.9-3.9v-8.6
		c0-2.1,1.7-3.9,3.9-3.9l0,0C170.1,66.5,171.9,68.2,171.9,70.3z"/>
	<path id="Rectangle_24" class="st9" d="M187.1,70.6v8.6c0,2.1-1.7,3.9-3.9,3.9l0,0c-2.1,0-3.9-1.7-3.9-3.9v-8.6
		c0-2.1,1.7-3.9,3.9-3.9l0,0C185.4,66.7,187.1,68.4,187.1,70.6z"/>
	<path id="Rectangle_25" class="st9" d="M68.1,57.7v8.6c0,2.1-1.7,3.9-3.9,3.9l0,0c-2.1,0-3.9-1.7-3.9-3.9v-8.6
		c0-2.1,1.7-3.9,3.9-3.9l0,0C66.4,53.9,68.1,55.6,68.1,57.7z"/>
	<path id="Rectangle_26" class="st9" d="M60.4,92v-8.6c0-2.1,1.7-3.9,3.9-3.9l0,0c2.1,0,3.9,1.7,3.9,3.9V92c0,2.1-1.7,3.9-3.9,3.9
		l0,0C62.1,95.8,60.4,94.1,60.4,92z"/>
	<line id="Ligne_7" class="st10" x1="75.4" y1="74.9" x2="68.1" y2="87.6"/>
	<line id="Ligne_8" class="st10" x1="90.8" y1="74.7" x2="83.2" y2="74.7"/>
	<line id="Ligne_9" class="st10" x1="119.3" y1="74.1" x2="98.4" y2="74.7"/>
	<line id="Ligne_10" class="st10" x1="68.1" y1="62" x2="75.4" y2="74.8"/>
	<path id="Rectangle_27" class="st9" d="M98.4,70.4v8.6c0,2.1-1.7,3.9-3.9,3.9l0,0c-2.1,0-3.9-1.7-3.9-3.9v-8.6
		c0-2.1,1.7-3.9,3.9-3.9l0,0C96.7,66.5,98.4,68.2,98.4,70.4z"/>
	<path id="Rectangle_28" class="st9" d="M83.2,70.6v8.6c0,2.1-1.7,3.9-3.9,3.9l0,0c-2.1,0-3.9-1.7-3.9-3.9v-8.6
		c0-2.1,1.7-3.9,3.9-3.9l0,0C81.4,66.7,83.2,68.4,83.2,70.6z"/>
	<path id="Tracé_867" class="st12" d="M25.2,117.2c0,11.7,7.4,21.2,16.5,21.2"/>
	<path id="Tracé_868" class="st8" d="M41.7,138.5c0-11.9,8.2-21.5,18.4-21.5"/>
	<path id="Tracé_869" class="st8" d="M31.2,118.3c0,11.1,4.7,20.2,10.5,20.2"/>
	<path id="Tracé_870" class="st12" d="M41.7,138.5c0-15.2,9.5-27.4,21.2-27.4"/>
	<ellipse id="Ellipse_17" class="st0" cx="41" cy="141.8" rx="4.1" ry="0.7"/>
	<path id="Tracé_871" class="st13" d="M38.2,138.6c1,0,2.1-0.2,3-0.6c0.7-0.5,3.6-1.1,3.8-0.3s3.5,4,0.9,4s-6.1-0.4-6.8-0.8
		S38.2,138.6,38.2,138.6z"/>
	<path id="Tracé_872" class="st14" d="M46,141.5c-2.6,0-6.1-0.4-6.8-0.8c-0.5-0.3-0.7-1.5-0.8-2h-0.1c0,0,0.1,1.9,0.9,2.3
		s4.2,0.9,6.8,0.8c0.8,0,1-0.3,1-0.7C46.8,141.3,46.5,141.5,46,141.5z"/>
	
		<linearGradient id="Tracé_873_1_" gradientUnits="userSpaceOnUse" x1="-172.1521" y1="474.0153" x2="-172.1521" y2="475.0153" gradientTransform="matrix(52.5695 0 0 -62.5916 9247.0283 29831.625)">
		<stop  offset="0" style="stop-color:#808080;stop-opacity:0.251"/>
		<stop  offset="0.54" style="stop-color:#808080;stop-opacity:0.122"/>
		<stop  offset="1" style="stop-color:#808080;stop-opacity:0.102"/>
	</linearGradient>
	<path id="Tracé_873" class="st15" d="M223.4,151.5l-6.5-9.4c0-1-0.2-1.9-0.5-2.9c-0.4-0.5-0.1-1.7-0.1-1.7s0.5-0.7,0.1-0.7
		s-0.1-1.5-0.1-1.5l0-2.4c0.2-0.9,0.2-1.9,0.1-2.8c-0.2-0.3-0.2-0.7,0-1c0,0,0.4-1.3,0-1.6s-0.3-2.3-0.2-3.9c0-1-0.2-1.9-0.6-2.7
		c0-0.2-2.4-2.6-2.4-2.8c-0.7-0.6-1.5-1.1-2.4-1.3c-0.9-0.2-1.4-0.4-1.3-0.5s-1.4-0.6-1.4-0.6c-0.6,0-1.3-0.3-1.8-0.7
		c-0.5-0.6-2-0.8-2-0.8c0,0,0-0.1,0-0.1l0-0.1c0.1-0.2,0.2-0.4,0.3-0.6l0.1-0.2c0.5,0,1.1-0.2,1.5-0.5c0.4-0.4,0.7-0.9,0.7-1.4
		c0-0.6-0.1-1.1-0.4-1.6c-0.4-0.5-0.5-1.1-0.5-1.7c0.1-0.3,0.2-0.5,0.3-0.7c0.1-0.5,0-1-0.2-1.4c-0.2-0.4-0.5-0.8-0.8-1.2
		c-0.3-0.5-0.5-1.1-0.6-1.8c0-0.3-0.1-0.7-0.2-1c-0.1-0.2-0.3-0.4-0.5-0.5c-0.9-0.7-2.1-1-3.2-1c-0.8,0.1-1.6,0.2-2.5,0.2
		c-0.5-0.1-1-0.2-1.4-0.4c-1-0.4-2.1-0.3-3.1,0.2c-0.9,0.6-1.2,1.7-1.8,2.6c-0.6,0.7-1.2,1.5-1.7,2.3c0,0,0,0,0,0
		c-0.1,0.2-0.2,0.4-0.2,0.6c-0.1,0.7-0.1,1.4,0.1,2c0,0.3,0.2,0.7,0.5,0.9c0.3,0.1,0.7,0.2,1.1,0.2c0,0.1,0,0.1,0,0.2
		c-0.8,3.5,1.3,7,4.8,8v0.2c0,0.2,0,0.3,0,0.5l0,0c0,0-3-0.6-3.9-0.2s-2.4,0.8-2.7,1s-0.8,0.1-1.4,1.5s-0.6,2.9-1.3,3.5
		s-1.1,1.1-1.1,1.6s0.1,0.6-0.2,0.8s-0.7,0.8-0.5,1c0.1,0.3,0,0.7-0.3,0.9c-0.3,0.2-0.5,0.5-0.4,0.9c0,0-0.2,0.7-0.6,0.8
		s-0.7,1.1-0.7,1.1l-1.4,1.6l-2.7-3c-0.4-0.5-1.1-0.5-1.6-0.1l-1.3,1.2c-0.5,0.1-1,0.4-1.3,0.8c-0.3,0.3-0.5,0.6-0.7,1l-0.7,0.7
		c-0.2,0.2-0.4,0.5-0.4,0.8c-0.2,0.4-0.1,0.9,0.2,1.2l1.7,1.9v0c-0.6,0.1-1.2,0.3-1.7,0.7c-2.6,2.3-2.6,4.4-2.2,5.4
		c1.1,1.6,2.3,3.2,3.7,4.7c1.3,1.6,2.9,2.9,4.7,3.8l0,0l0,0c-0.1,0.1-0.1,0.1-0.2,0.2l0,0.1l0,0.1l0,0.1l0,0.1l-0.1,0.1
		c0,0,0,0,0,0.1c0,0,0,0.1-0.1,0.1l0,0c0,0.1,0,0.1-0.1,0.2c0,0,0,0,0,0.1c0,0,0,0.1,0,0.1l0,0.1c0,0,0,0.1,0,0.1s0,0.1,0,0.1l0,0.1
		l0,0.1c0,0.1,0,0.1,0,0.2l0,0.1c0,0.1,0,0.1,0,0.2c0,0.1,0,0.1,0,0.1c0,0.1,0,0.1,0,0.1c0,0.1,0,0.1,0,0.1c0,0.1,0,0.1,0,0.2v0.1
		c0,0.1,0,0.2,0,0.3c-0.1,1.3-0.1,2.7,0.1,4c0.3,0.7,0.9,1.1,1.6,1.2c0.2,0,0.3,0,0.5,0c1.6-0.3,5.3-0.9,6.6-0.7
		c1.1,0.1,2.2,0,3.3-0.3l0.3-0.1l0.2,0.6l0.6-0.2l0.5,0.3l0.3,0.2c0.6,2,3,1.3,3,1.3l0.6,0.3l5.8,0.2c0.7,0.4,1.3,0.7,2.1,1
		c0.1,0,0.2,0,0.3,0.1c0.5,0,1.1,0.1,1.6,0c0.4,0,0.8,0,0.8,0s-0.1-1.6-0.1-3.4c1.8,0,3.6-0.2,5.4-0.4c3.1-0.5,4.4-3.4,4.9-4.9
		c0.1,0.6,0.2,1.2,0.3,1.9c0.1,0.6,0.3,1.1,0.5,1.6c0.2,0.4,0.4,0.8,0.7,1.2c2.3-0.8,0.9-2,0.4-2.5s0.3-0.9,0.3-0.9s0.6-0.4,0.6-0.8
		s-0.1-0.8,2-0.8S223.4,151.5,223.4,151.5z M191.5,132.3c0.1,0.9,0.3,1.7,0.6,2.5c0.1,0.3,0.1,0.7,0.1,1c-1.2-0.1-2.5-0.1-2.5-0.1
		c0,0,0.1,0.1,0.1,0.2l-0.2,0c-0.1,0-0.2,0-0.3-0.1L191.5,132.3L191.5,132.3z M187,139.4l2.1,0.3l0.2,0c-0.1,0.3-0.1,0.7-0.1,1
		c0,0,0,0.1,0.1,0.1c0,0.2,0,0.3,0,0.5c0.7,0.4,1.4,0.7,2.1,0.8c0,0.1,0,0.1,0,0.2l0,0c-1-0.5-2.6-0.8-2.8-1.2s-5.5-2.2-5.5-2.2
		s-0.2-0.1-0.5-0.3l1.4,0.3l0.4,0C185.2,139.1,186.1,139.3,187,139.4L187,139.4z"/>
	<path id="Tracé_874" class="st16" d="M216.5,152.9c0,0-0.8,5.1-5.1,5.8s-18.4,0.6-18.4,0.6s-8.1-1.2-11-8s-4.8-9.6-2.3-9.7
		s16.1,4.6,16.9,4.6S217.2,135.8,216.5,152.9z"/>
	<path id="Tracé_875" class="st17" d="M216.5,152.9c0,0-0.8,5.1-5.1,5.8s-18.4,0.6-18.4,0.6s-8.1-1.2-11-8s-4.8-9.6-2.3-9.7
		s16.1,4.6,16.9,4.6S217.2,135.8,216.5,152.9z"/>
	<path id="Tracé_876" class="st5" d="M178.4,158.5c0.3,0.7,0.9,1.1,1.6,1.2c0.2,0,0.3,0,0.5,0c1.6-0.3,5.2-0.9,6.5-0.7
		c1.1,0.1,2.2,0,3.2-0.3c0.7-0.1,1.2-0.2,1.2-0.2s-1.2-4-1.3-4.1s-5.4-3.3-5.4-3.3l-4.2-0.3l0,0c-0.6,0.1-1.1,0.4-1.4,0.8
		c-0.6,0.8-0.9,1.8-0.8,2.8C178.2,155.8,178.2,157.2,178.4,158.5z"/>
	<path id="Tracé_877" class="st17" d="M178.4,158.5c0.3,0.7,0.9,1.1,1.6,1.2c-0.4-0.5-0.8-1.1-1.1-1.6l0-2.9
		c-0.2-1.6,0.4-3.2,1.6-4.3h0c0,0-2.2,0.1-2.2,3.7C178.2,155.8,178.2,157.2,178.4,158.5z"/>
	<path id="Tracé_878" class="st11" d="M196.4,152.1l3.9-3l6.1-6c0,0-0.7,0-1.6-0.1c-0.2,0.2-0.9,0.6-1,1.3c0,0.7-1.6,0.1-2.5,0.5
		s-4.9,5.7-5.6,5.6s-1.3-0.4-1.6,0.1l0,0L196.4,152.1z"/>
	<path id="Tracé_879" class="st11" d="M179.1,151.6c0.1,0.1,0.3,0.1,0.4,0.2c2.5,1.1,4.8,2.6,6.8,4.4c1.2,0.9,2.5,1.8,3.9,2.5
		c0.7-0.1,1.2-0.2,1.2-0.2s-1.2-4-1.3-4.1s-5.4-3.3-5.4-3.3l-4.2-0.3l0,0C180,150.9,179.5,151.2,179.1,151.6z"/>
	<path id="Tracé_880" class="st16" d="M171,143.1c1.1,1.6,2.3,3.2,3.7,4.6c1.3,1.7,3.1,3,5,4c2.5,1.1,4.8,2.6,6.8,4.4
		c1.3,1,2.7,1.9,4.2,2.7l0.4,0.2l0.8,0.5l0.4,0.3c0,0,1-0.8,2-1.6s2-1.6,2-1.6c0-0.1,0.4-1.1,0.3-1.2c0,0-0.3-0.4-0.6-0.9
		c-0.4-0.5-0.9-1-1.5-1.3c-0.9-0.4-1.6-1.2-2-2.1c0,0-0.1-0.1-0.3-0.2c-0.4-0.3-0.9-0.5-1.3-0.6c-0.7-0.1-1.9-1.4-1.9-1.4
		c-0.5-0.3-0.9-0.7-1.2-1.2c-0.3-0.7-5-3.8-5.4-4.1l11.3,7.2l2.7,1.7l3.9-3l6.1-6c0,0-0.8,0-2-0.1c-3-0.1-8.2-0.3-8.9-0.2
		c-0.5,0.1-1.1,0.2-1.6,0.1c-0.9,0-1.7-0.1-2.5-0.5c-1-0.5-2.5-0.8-2.7-1.2s-5.5-2.2-5.5-2.2s-7.2-3.8-9.8-1.6
		S170.6,142.1,171,143.1z"/>
	<path id="Tracé_881" class="st18" d="M194.2,121.1l0.9,3.1l1.2,6.9l4.4,0.3l1.3-2.1l1.3-2.1c0,0,0.8-2.8,1.4-5.5
		c0.5-2.4,0.8-4.7,0.3-5c-0.5-0.2-0.8-1-1-1.9c0-0.1-0.1-0.2-0.1-0.3c-0.1-0.7-0.2-1.5-0.3-2.2c0,0-9.2-0.5-7.9,3.3
		c0.2,0.6,0.3,1.3,0.3,2c0,0.2,0,0.3,0,0.5C195.8,119.3,195.2,120.4,194.2,121.1z"/>
	<path id="Tracé_882" class="st19" d="M192.3,120.6l0.3,5.2l0.7,4.5l0.8,2.1l0.7,11.3c0,0,7.2,0.8,9,0c0.1-0.1,0.2-0.1,0.3-0.3
		c2.1-3.2,1.4-12.5,1.4-12.5l0.8-6l-0.5-3.1l-1.3-0.1l-1-0.1c0,0-0.2,0.3-0.6,0.7c-0.9,1.2-2.5,3.5-2.4,4.4c0.1,1.3-0.2,2.7-0.7,2.9
		s-0.9,0.6-1,0.2c-0.1-0.3-0.2-0.6-0.1-1c0-0.7-0.2-1.4-0.4-2.1c-0.4-0.8-0.6-1.7-0.7-2.6c0.1-0.6,0-1.3-0.3-1.9
		c-0.2-0.2-0.6-0.4-0.3-1.4s-1.2-2.8-1.2-2.8L192.3,120.6z"/>
	<path id="Tracé_883" class="st11" d="M201.9,133.7l0.3,9l1.7,1c0.1-0.1,0.2-0.1,0.3-0.2c2.1-3.2,1.4-12.5,1.4-12.5l0.8-6l-0.5-3.1
		l-1.3-0.1c0.5-2.4,0.8-4.7,0.3-5c-0.5-0.2-0.8-1-1-1.9l0,0l-0.9,6.3c0,0,0.1,0.6,0.1,1.2c0,0.4,0,0.7-0.1,1.1
		c-0.1,0.5-0.1,1-0.1,1.5c-0.6,1.4-0.9,2.9-0.9,4.4C201.8,131.5,201.9,133.7,201.9,133.7z"/>
	<path id="Tracé_884" class="st5" d="M203.9,114.6c0,0,1.5,0.2,2,0.8c0.5,0.4,1.1,0.7,1.7,0.7c0,0,1.4,0.5,1.4,0.6s0.4,0.3,1.3,0.5
		c0.9,0.2,1.7,0.7,2.4,1.3c0,0.2,2.4,2.5,2.4,2.8c0.4,0.8,0.6,1.8,0.6,2.7c-0.1,1.6-0.2,3.6,0.2,3.9s0,1.6,0,1.6
		c-0.2,0.3-0.2,0.7,0,1c0.1,0.9,0.1,1.9-0.1,2.8l0,2.3c0,0-0.3,1.5,0.1,1.5s-0.1,0.7-0.1,0.7s-0.3,1.2,0.1,1.7
		c0.3,0.9,0.5,1.9,0.5,2.8l6.4,9.3c0,0,0.1,1.7-1.9,1.7s-2,0.4-1.9,0.8s-0.6,0.8-0.6,0.8s-0.8,0.4-0.3,0.9s1.9,1.7-0.4,2.5
		c-0.3-0.4-0.5-0.8-0.7-1.2c-0.2-0.5-0.4-1.1-0.5-1.6c0,0-0.2-2.3-0.6-2.6s-0.4-1.7-0.4-1.7s0.6-1.2-0.2-1.6s-13-7.2-13-7.2l-0.3-9
		c0,0-0.2-6.6,1-8.8c-0.1-0.5-0.1-1,0.1-1.5c0.1-0.8,0.1-1.5,0-2.3L203.9,114.6z"/>
	<path id="Tracé_885" class="st11" d="M196.1,118.2c0,0-3-0.6-3.8-0.2s-2.4,0.7-2.6,1s-0.8,0.1-1.4,1.5s-0.6,2.8-1.3,3.5
		s-1,1.1-1.1,1.6s0.1,0.6-0.2,0.8s-0.7,0.8-0.5,1s6.2,5.5,6.2,5.5c0.1,0.9,0.3,1.7,0.6,2.5c0.3,0.5-0.3,7.5-0.9,8s4,0.4,4,0.4
		s0.2-4.6,0.4-4.8c0.1-1.7,0-3.4-0.1-5.1c0-1.8,0.1-3.5,0.4-5.3c0.3-1.6,0.4-3.2,0.3-4.8c0.1-0.9,0.4-1.9,0.8-2.7
		C197.2,120.4,196.1,118.2,196.1,118.2z"/>
	<path id="Tracé_886" class="st5" d="M196,118.1c0,0-3-0.6-3.8-0.2s-2.4,0.7-2.6,1s-0.8,0.1-1.4,1.5s-0.6,2.8-1.3,3.5
		s-1,1.1-1.1,1.6s0.1,0.6-0.2,0.7s-0.7,0.8-0.5,1s6.2,5.5,6.2,5.5c0.1,0.9,0.3,1.7,0.6,2.5c0.3,0.5-0.3,7.5-0.9,8s4,0.4,4,0.4
		s0.2-4.6,0.4-4.8c0.1-1.7,0-3.4-0.1-5.1c0-1.8,0.1-3.5,0.4-5.3c0.3-1.6,0.4-3.2,0.3-4.8c0.1-0.9,0.4-1.9,0.8-2.7
		C197.1,120.3,196,118.1,196,118.1z"/>
	<path id="Tracé_887" class="st11" d="M195.7,115.6c0.2,0.6,0.3,1.3,0.3,2c3,0.9,6.3-0.4,7.9-3.1c-0.1-0.7-0.2-1.5-0.3-2.2
		C203.6,112.2,194.4,111.8,195.7,115.6z"/>
	<path id="Tracé_888" class="st18" d="M191.1,110.8c0,3.8,3.1,6.9,6.9,6.9c3.8,0,6.9-3.1,6.9-6.9c0-3.8-3.1-6.9-6.9-6.9
		c-3.2,0-6,2.3-6.7,5.4C191.2,109.9,191.1,110.3,191.1,110.8z"/>
	<path id="Tracé_889" class="st5" d="M186.7,126.7l-1.6,0.5c0.1,0.3,0,0.7-0.3,0.9c-0.3,0.2-0.4,0.5-0.4,0.9c0,0-0.2,0.7-0.6,0.8
		s-0.7,1.1-0.7,1.1l-1.4,1.6c0,0-0.5,0.4-0.4,0.6s-0.5,0.3-0.5,0.3l0.3,5.3l2.8,0.5l1.8-0.2l1.4-0.5l1.3-0.8l0.6-1.5l2.5-3.8
		L186.7,126.7z"/>
	<path id="Tracé_890" class="st18" d="M181.1,133.8c0,0-3.7-5.3-6.4-2.4s1.1,7.5,2,7.3s5.2-0.4,5.2-0.4L181.1,133.8z"/>
	<path id="Rectangle_29" class="st5" d="M174.5,123.8l14.3,7.3c0.8,0.4,1.1,1.3,0.7,2.1l-5.3,10.5c-0.4,0.8-1.3,1.1-2.1,0.7
		l-14.3-7.3c-0.8-0.4-1.1-1.3-0.7-2.1l5.3-10.5C172.8,123.7,173.7,123.4,174.5,123.8z"/>
	
		<rect id="Rectangle_30" x="172.2" y="126" transform="matrix(0.4546 -0.8907 0.8907 0.4546 -22.1565 231.906)" class="st8" width="12.1" height="16.1"/>
	<circle id="Ellipse_18" class="st20" cx="170.6" cy="130.1" r="0.3"/>
	<circle id="Ellipse_19" class="st20" cx="186.1" cy="138" r="0.4"/>
	<path id="Tracé_891" class="st18" d="M178.7,135c0,4,8.1,4.8,8.1,4.8l2.1,0.3l0.9,0.1l0.4-3.9c0,0-0.4-0.1-1-0.2
		c-0.8-0.2-1.8-0.5-2-1C186.9,134.5,178.8,131,178.7,135z"/>
	<path id="Tracé_892" class="st11" d="M191.3,109.4c0.2,0,0.4,0.1,0.5,0.2c0.2,0.2,0.2,0.7,0.5,0.8c0.1,0.1,0.2,0.1,0.4,0
		c0.8-0.1,1.3-1,2-1.3c0.4-0.1,0.9-0.1,1.3,0.1c0.2,0.1,0.3,0.1,0.4,0.3c0.3,0.3,0.1,0.8,0.2,1.2c0.2,0.6,0.8,0.8,1.4,0.8
		c0.6,0,1.2,0.2,1.6,0.5c0.3,0.3,0.4,0.8,0.3,1.2c0,0.1,0,0.3,0,0.4c0.2,0.5,0.9,0.4,1.1,0c0.1-0.3,0.1-0.5,0.5-0.5
		c0.3,0,0.5,0,0.7,0.1c0.6,0.2,1.3,0.3,1.9,0.3c1.6-3.4,0.1-7.5-3.3-9.1c-3.4-1.6-7.5-0.1-9.1,3.3
		C191.5,108.4,191.4,108.9,191.3,109.4L191.3,109.4z"/>
	<path id="Tracé_893" class="st5" d="M199.9,113.7c0-0.1,0-0.3,0-0.4c0.1-0.4,0-0.8-0.3-1.2c-0.5-0.4-1-0.6-1.6-0.5
		c-0.6-0.1-1.2-0.3-1.4-0.8c-0.1-0.4,0.1-0.9-0.2-1.2c-0.1-0.1-0.3-0.2-0.4-0.3c-0.4-0.2-0.9-0.2-1.3-0.1c-0.8,0.2-1.2,1.1-2,1.3
		c-0.1,0-0.2,0-0.4,0c-0.3-0.2-0.3-0.6-0.5-0.8c-0.4-0.4-1.1-0.1-1.5-0.4c-0.3-0.2-0.4-0.5-0.5-0.9c-0.2-0.6-0.2-1.3-0.1-2
		c0.3-1.1,1.3-1.9,1.9-2.8c0.6-0.9,0.9-2,1.8-2.6c0.9-0.5,2.1-0.6,3-0.2c0.5,0.2,0.9,0.3,1.4,0.4c0.8,0,1.6,0,2.4-0.1
		c1.2,0,2.3,0.3,3.2,1c0.2,0.1,0.4,0.3,0.5,0.5c0.1,0.3,0.2,0.6,0.2,1c0.1,0.6,0.3,1.2,0.6,1.8c0.3,0.4,0.6,0.8,0.8,1.2
		c0.3,0.4,0.3,0.9,0.2,1.4c-0.1,0.2-0.2,0.5-0.3,0.7c0,0.6,0.2,1.2,0.5,1.7c0.3,0.5,0.4,1,0.3,1.6c0,0.6-0.3,1.1-0.7,1.4
		c-0.4,0.3-1,0.5-1.5,0.5c-0.7,0-1.3-0.1-1.9-0.3c-0.2-0.1-0.5-0.1-0.7-0.1c-0.3,0.1-0.3,0.3-0.5,0.5
		C200.9,114,200.1,114.1,199.9,113.7z"/>
	<path id="Tracé_894" class="st11" d="M196.3,152.3l3.9-3l6.1-6c0,0-0.8,0-2-0.1c-0.2,0.2-0.4,0.5-0.4,0.8c0,0.7-1.6,0.1-2.5,0.5
		s-4.9,5.7-5.7,5.6s-1.3-0.4-1.6,0.1l0,0c-0.1,0.1-0.3,0.2-0.5,0.3L196.3,152.3z"/>
	<path id="Tracé_895" class="st16" d="M188.5,152.1l1.9,6.2l0.3,1l0.9-0.3l2-0.6l9.1-2.5c1.1,0,2.3-0.3,3.3-0.9
		c1.7-1,3.7-1.4,5.6-1.2c1.2,0.1,2.5-0.4,3.6-2.5c0,0,2.5-7.4-3.8-9.5s-6.6,1.1-6.6,1.1l-0.1,0.1c-0.2,0.2-0.9,0.6-1,1.3
		c0,0.7-1.6,0.1-2.5,0.5s-5,5.7-5.7,5.6s-1.3-0.4-1.6,0.1l0,0c-0.2,0.3-0.9,0.4-1.3,0.4h-0.4l-0.1,0l-0.5,0.1L188.5,152.1z"/>
	<path id="Tracé_896" class="st11" d="M189,140.1l0.9,0.2l0.4-3.9c0,0-0.4-0.1-1-0.2C189.3,137.5,189.2,138.8,189,140.1z"/>
	<path id="Tracé_897" class="st11" d="M213.4,122c0,0,2.8-0.8,2.1,7.1c-0.5,4.8-2.5,9.4-5.8,12.9c0,0-5.9,2.6-8.6,2.2
		c-1.5-0.2-3.1-0.4-4.6-0.5c-0.8-0.4-1.8-0.7-2.7-0.7c-1.5-0.1-4.6-1-4.7-1.3s0.8-4.7,0.4-5c0,0,4.2,0.2,4.6,0.5s1,0.1,1.5,0
		c1.4-0.8,3.1-0.9,4.5-0.2c0.4,0.1,0.9,0,1.3-0.1c0.3-0.1,0.6-0.2,0.9-0.1c0.2-0.1,0.5-0.2,0.7-0.3c0.1-0.1,0.8,0,0.8,0
		c0.2,0.1,0.3,0,0.4-0.1c0,0,0,0,0-0.1c0.1-0.2,0.2-0.5,0.4-0.7c0,0,0.8-4.5,2.3-6.3c0.2-0.2,0.4-0.5,0.3-0.9
		C207.3,127.9,209.9,121.1,213.4,122z"/>
	<path id="Tracé_898" class="st5" d="M213.4,121.4c0,0,2.8-0.8,2.1,7.1c-0.5,4.8-2.5,9.4-5.8,12.9c0,0-5.9,2.6-8.6,2.2
		s-4.6-0.5-4.6-0.5c-0.8-0.4-1.8-0.7-2.7-0.7c-1.5-0.1-4.6-1-4.7-1.3s0.8-4.7,0.4-5c0,0,4.2,0.2,4.6,0.5s1,0.1,1.5,0
		c1.4-0.8,3.1-0.9,4.5-0.2c0.4,0.1,0.9,0,1.3-0.1c0.3-0.1,0.6-0.2,0.9-0.1c0.2-0.1,0.4-0.2,0.6-0.3c0.1-0.1,0.8,0,0.8,0
		c0.2,0.1,0.3,0,0.4-0.1c0,0,0,0,0-0.1c0.1-0.2,0.2-0.5,0.4-0.7c0,0,0.8-4.5,2.3-6.3c0.3-0.2,0.4-0.5,0.3-0.9
		C207.2,127.3,209.8,120.5,213.4,121.4z"/>
	<path id="Tracé_899" class="st11" d="M191.8,151.1l4,4.8c0,0,0,0,0,0c0-0.1,0.4-1.1,0.3-1.2c-0.5-0.9-1.2-1.7-2.2-2.2
		c-0.7-0.3-1.3-0.9-1.7-1.5L191.8,151.1z"/>
	<path id="Tracé_900" class="st11" d="M191.8,159.4l0.4,0.3c0,0,1-0.8,2-1.6s2-1.6,2-1.6c0-0.1,0.4-1.1,0.3-1.2
		c0,0-0.3-0.4-0.6-0.9c-2.7-0.8-1,1.1-0.7,1.2c-1.5-0.4-3,0.5-3.4,1.9c-0.1,0.3-0.1,0.6-0.1,0.9C191.7,158.7,191.7,159,191.8,159.4z
		"/>
	<path id="Tracé_901" class="st5" d="M195.1,160.9l0.6,0.3l5.8,0.2c0.6,0.4,1.3,0.7,2,1c0.1,0,0.2,0.1,0.3,0.1c0.5,0,1.1,0.1,1.6,0
		c0.4,0,0.8,0,0.8,0s-0.3-7.3-0.5-8.1c-0.1-0.4-0.6-0.3-1.1-0.1c-0.4,0.1-0.7,0.3-1,0.5c-1,0.1-1.9,0.2-2.8,0.5
		c-0.4,0.2-1.5-0.1-2.2,0s-1.9-0.8-1.9-0.8c-3.4-1.1-1.5,1-1.2,1c-1.5-0.4-3,0.5-3.3,1.9c-0.1,0.3-0.1,0.6-0.1,0.9
		c-0.3,1.2,0.5,2.5,1.8,2.7C194.2,161.1,194.7,161.1,195.1,160.9z"/>
	<path id="Tracé_902" class="st21" d="M203.5,158.1c0.3,1.6,0.9,3.1,1.9,4.4c0.4,0,0.8,0,0.8,0s-0.3-7.3-0.5-8.1
		c-0.1-0.4-0.6-0.3-1.1-0.1C204,155.4,203.5,156.7,203.5,158.1z"/>
	<path id="Tracé_903" class="st11" d="M203.5,158.1c0.3,1.6,0.9,3.1,1.9,4.4c0.4,0,0.8,0,0.8,0s-0.3-7.3-0.5-8.1
		c-0.1-0.4-0.6-0.3-1.1-0.1C204,155.4,203.5,156.7,203.5,158.1z"/>
	<path id="Tracé_904" class="st17" d="M202.5,158.3c0.4,1.5,0.4,3.1,1,4.1c0.1,0,0.2,0.1,0.3,0.1c0.5,0,1.1,0.1,1.6,0
		c0.4,0,0.8,0,0.8,0s-0.3-7.3-0.5-8.1c-0.1-0.4-0.6-0.3-1.1-0.1c-0.4,0.1-0.7,0.3-1,0.5C203.6,154.8,202,156.4,202.5,158.3z"/>
	<path id="Tracé_905" class="st11" d="M182.5,143.5c2.1,0.9,4,2.3,5.3,4.2L182.5,143.5z"/>
	<g id="Groupe_84" transform="translate(189.525 105.548)" class="st1">
		<path id="Tracé_906" d="M16.3,2.1C16.3,2.1,16.3,2.1,16.3,2.1c0,0.2-0.1,0.2-0.1,0.3C16.3,2.3,16.3,2.2,16.3,2.1z"/>
		<path id="Tracé_907" d="M0.1,0.6C0.2,0.4,0.2,0.2,0.3,0c0,0.1,0,0.1,0,0.2c-0.1,0.7-0.1,1.3,0.1,2c0,0.3,0.2,0.7,0.5,0.9
			c0.4,0.3,1.1,0,1.5,0.4C2.6,3.7,2.6,4.1,3,4.3c0.1,0.1,0.2,0.1,0.4,0c0.8-0.1,1.3-1,2-1.3C5.8,2.9,6.3,3,6.7,3.2
			C6.8,3.2,7,3.3,7.1,3.5c0.3,0.3,0.1,0.8,0.2,1.2c0.2,0.6,0.8,0.8,1.4,0.8c0.6,0,1.2,0.2,1.6,0.5c0.3,0.3,0.4,0.8,0.3,1.2
			c0,0.1,0,0.3,0,0.4c0.2,0.4,0.9,0.4,1.1,0c0.2-0.3,0.1-0.5,0.5-0.5c0.3,0,0.5,0,0.7,0.1c0.6,0.2,1.3,0.3,1.9,0.3
			c0.5,0,1.1-0.2,1.5-0.5c0.2-0.2,0.4-0.3,0.5-0.6c-0.1,0.4-0.3,0.8-0.6,1c-0.4,0.3-1,0.5-1.5,0.5c-0.7,0-1.3-0.1-1.9-0.3
			c-0.2-0.1-0.5-0.1-0.7-0.1c-0.3,0.1-0.3,0.3-0.5,0.5c-0.2,0.4-1,0.4-1.1,0c0-0.1,0-0.3,0-0.4c0.1-0.4,0-0.8-0.3-1.2
			C9.7,6.1,9.1,6,8.5,6C7.9,5.9,7.3,5.7,7.1,5.1C7,4.7,7.2,4.2,6.9,3.9C6.8,3.8,6.7,3.7,6.5,3.6C6.1,3.4,5.6,3.4,5.1,3.5
			c-0.8,0.2-1.2,1.1-2,1.3c-0.1,0-0.2,0-0.4,0C2.5,4.6,2.4,4.1,2.2,3.9C1.9,3.5,1.2,3.7,0.7,3.5C0.5,3.2,0.3,2.9,0.2,2.6
			C0,1.9,0,1.3,0.1,0.6z"/>
	</g>
	<path id="Tracé_908" class="st11" d="M206.3,130.1c-0.5,0.7-1.2,1.4-1.7,2.2c-0.5,0.8-0.8,1.7-0.7,2.6c0.4-0.6,0.8-1.2,1-1.9
		c0.6-1.1,1.3-2.1,2-3c0.1-0.2,1-1.3,0.5-1.4C207.2,128.6,206.5,129.9,206.3,130.1z"/>
</g>
</svg>
