<?xml version="1.0" encoding="utf-8"?>
<!-- Generator: Adobe Illustrator 24.0.1, SVG Export Plug-In . SVG Version: 6.00 Build 0)  -->
<svg version="1.1" id="Layer_1" xmlns="http://www.w3.org/2000/svg" xmlns:xlink="http://www.w3.org/1999/xlink" x="0px" y="0px"
	 viewBox="0 0 200 160" style="enable-background:new 0 0 200 160;" xml:space="preserve">
<style type="text/css">
	.st0{fill:#007BFF;}
	.st1{fill:none;}
	.st2{fill:#E7EFF2;}
	.st3{fill:#FFFFFF;}
	.st4{fill:none;stroke:#FFFFFF;stroke-width:4;}
</style>
<g>
	<g id="Groupe_77" transform="translate(114.991 252.467)">
		<path id="Tracé_823" class="st0" d="M-44.9-143.33c0,0,2.82-2.02,5.75-0.77c0,0-0.82,1.74-4.46,1.71L-44.9-143.33z"/>
		<path id="Tracé_824" class="st0" d="M-45.25-143.21c0,0-0.75,3.39,1.54,5.59c0,0,1.28-1.44-0.17-4.78L-45.25-143.21z"/>
		<path id="Tracé_825" class="st0" d="M-48.98-146.3c0,0,0.1-2.86,6.59-2.16c-0.05,1.29-0.9,2.41-2.13,2.8
			C-46.75-144.7-47.82-145.4-48.98-146.3z"/>
		<path id="Tracé_826" class="st0" d="M-49.38-146.31c0,0-2.69,0.98-0.03,6.93c1.21-0.44,2.01-1.6,2.01-2.89
			C-47.19-144.69-48.17-145.47-49.38-146.31z"/>
		<path id="Tracé_827" class="st0" d="M-53.19-150.21c0,0-0.55-4.68,6.06-4.46c0,0,0.63,4.23-4.85,5.54L-53.19-150.21z"/>
		<path id="Tracé_828" class="st0" d="M-57.74-155.35c0,0,0.7-5.36,7.35-4.02c0,0,0.2,4.61-6.22,5.25L-57.74-155.35z"/>
		<path id="Tracé_829" class="st0" d="M-61.13-160.71c0,0,1.31-5.25,7.9-3.94c0,0-1.37,4.72-7.43,4.87L-61.13-160.71z"/>
		<path id="Tracé_830" class="st0" d="M-64.36-165.95c0,0,1.28-5.44,7.63-4.06c0,0-1.91,5.19-7.18,4.97L-64.36-165.95z"/>
		<path id="Tracé_831" class="st0" d="M-66.51-170.96c0,0,0.89-6.62,6.82-5.4c0,0-1.48,6.05-6.35,6.34L-66.51-170.96z"/>
		<path id="Tracé_832" class="st0" d="M-68.57-177.04c0,0,1.11-6.69,7.12-4.99c0,0-2.09,6.36-6.66,5.9L-68.57-177.04z"/>
		<path id="Tracé_833" class="st0" d="M-69.92-182.71c0,0,1.91-6.72,6.52-6.72c0,0-1.95,7.09-6.08,8.03L-69.92-182.71z"/>
		<path id="Tracé_834" class="st0" d="M-70.85-188.27c0,0,2.05-8.08,5.81-7.61c0,0-1.4,6.17-5.64,8.84L-70.85-188.27z"/>
		<path id="Tracé_835" class="st0" d="M-71.51-194.93c0,0,1.95-6.74,5.64-7.15c0,0-1.25,6.61-5.49,8.87L-71.51-194.93z"/>
		<path id="Tracé_836" class="st0" d="M-72.2-201.12c0,0,2.5-6.77,4.93-7.01c0,0-0.95,6.61-4.65,8.1L-72.2-201.12z"/>
		<path id="Tracé_837" class="st0" d="M-72.73-206.88c0,0,1.42-7.3,3.83-8c0,0-0.1,5.93-3.56,8.53L-72.73-206.88z"/>
		<path id="Tracé_838" class="st0" d="M-73.93-214.41c0,0,1.56-5.84,3.5-6.79c0,0-0.13,6.81-2.99,8.18L-73.93-214.41z"/>
		<path id="Tracé_839" class="st0" d="M-74.88-219.35l-0.75-10.16c0,0,3.98,7.54,1.08,11.94L-74.88-219.35z"/>
		<path id="Tracé_840" class="st0" d="M-78.12-229.35c0,0-2.94-7.32-3.59-7.71c0,0,5.38,4.61,5.13,10.84L-78.12-229.35z"/>
		<path id="Tracé_841" class="st0" d="M-53.37-150.24c0,0-4.7-0.43-4.3,6.17c0,0,4.25,0.51,5.42-4.99L-53.37-150.24z"/>
		<path id="Tracé_842" class="st0" d="M-57.97-155.52c0,0-5.4,0.19-4.7,6.92c0,0,4.56,0.64,5.82-5.7L-57.97-155.52z"/>
		<path id="Tracé_843" class="st0" d="M-61.17-160.27c0,0-4.99-2.11-7.9,3.94c0,0,4.6,1.74,8.37-3L-61.17-160.27z"/>
		<path id="Tracé_844" class="st0" d="M-64.47-165.9c0,0-5.11-2.26-7.84,3.66c0,0,5.3,1.6,8.29-2.75L-64.47-165.9z"/>
		<path id="Tracé_845" class="st0" d="M-66.44-170.82c0,0-5.01-4.43-8.68,0.38c0,0,5.08,3.61,8.94,0.63L-66.44-170.82z"/>
		<path id="Tracé_846" class="st0" d="M-68.3-177.21c0,0-5.04-4.54-8.68,0.55c0,0,5.6,3.66,8.89,0.43L-68.3-177.21z"/>
		<path id="Tracé_847" class="st0" d="M-69.43-182.93c0,0-3.97-5.75-8.33-4.27c0,0,4.12,6.09,8.34,5.64L-69.43-182.93z"/>
		<path id="Tracé_848" class="st0" d="M-70.74-188.31c0,0-4.06-7.28-7.57-5.85c0,0,2.94,5.6,7.72,7.1L-70.74-188.31z"/>
		<path id="Tracé_849" class="st0" d="M-71.27-195.31c0,0-4.1-5.69-7.71-4.84c0,0,3.39,5.8,8.15,6.52L-71.27-195.31z"/>
		<path id="Tracé_850" class="st0" d="M-71.79-201.26c0,0-3.26-6.44-5.7-6.41c0,0,1.69,6.45,5.54,7.51L-71.79-201.26z"/>
		<path id="Tracé_851" class="st0" d="M-72.61-207.03c0,0-3.59-6.51-6.11-6.43c0,0,1.93,5.61,6.02,7.02L-72.61-207.03z"/>
		<path id="Tracé_852" class="st0" d="M-73.38-214.03c0,0-2.71-5.4-4.8-5.94c0,0,1.5,6.65,4.58,7.41L-73.38-214.03z"/>
		<path id="Tracé_853" class="st0" d="M-75.19-219.53l-5.91-8.29c0,0,1.75,8.34,6.79,9.88L-75.19-219.53z"/>
		<path id="Tracé_854" class="st0" d="M-79.38-228.62c0,0-6.66-4.23-6.92-4.95c0,0,3.55,6.15,9.72,7.02L-79.38-228.62z"/>
		<path id="Tracé_855" class="st0" d="M-79.84-230.62c0,0-7.73-6.88-9.63-6.8c4.14,0.33,7.84,2.74,9.79,6.41L-79.84-230.62z"/>
		<path id="Tracé_856" class="st0" d="M-73.41-212.96l-0.27,0.05c-1.82-10.91-4.1-17.31-6.45-18.02l0.08-0.26
			C-77.57-230.44-75.28-224.13-73.41-212.96z"/>
		<path id="Tracé_857" class="st0" d="M-70.35-186.83l-0.41,0.05c-0.13-1.02-0.23-2.07-0.32-3.11c-0.74-9.06-1.66-17.37-2.7-23.58
			l0.23-0.3c1.02,6.23,2.15,14.78,2.89,23.84C-70.58-188.88-70.48-187.84-70.35-186.83z"/>
		<path id="Tracé_858" class="st0" d="M-37.04-138.4c-5.63-2.55-10.78-6.07-15.21-10.38c-4.56-4.33-8.41-9.36-11.39-14.9
			c-3.73-6.92-6.18-15.51-7.21-23.91l0.44,0.18c2.31,18.85,11.42,31.44,18.53,38.21c4.38,4.27,9.48,7.75,15.05,10.29L-37.04-138.4z"
			/>
	</g>
	<g id="Groupe_78" transform="translate(233.346 252.467)">
		<path id="Tracé_823-2" class="st0" d="M-104.4-143.33c0,0-2.82-2.02-5.75-0.77c0,0,0.82,1.74,4.46,1.71L-104.4-143.33z"/>
		<path id="Tracé_824-2" class="st0" d="M-104.05-143.21c0,0,0.75,3.39-1.54,5.59c0,0-1.28-1.44,0.17-4.78L-104.05-143.21z"/>
		<path id="Tracé_825-2" class="st0" d="M-100.31-146.3c0,0-0.1-2.86-6.59-2.16c0.05,1.29,0.9,2.41,2.13,2.8
			C-102.54-144.7-101.48-145.4-100.31-146.3z"/>
		<path id="Tracé_826-2" class="st0" d="M-99.91-146.31c0,0,2.69,0.98,0.03,6.93c-1.21-0.44-2.01-1.6-2.01-2.89
			C-102.11-144.69-101.13-145.47-99.91-146.31z"/>
		<path id="Tracé_827-2" class="st0" d="M-96.11-150.21c0,0,0.55-4.68-6.06-4.46c0,0-0.63,4.23,4.85,5.54L-96.11-150.21z"/>
		<path id="Tracé_828-2" class="st0" d="M-91.55-155.35c0,0-0.7-5.36-7.35-4.02c0,0-0.2,4.61,6.22,5.25L-91.55-155.35z"/>
		<path id="Tracé_829-2" class="st0" d="M-88.16-160.71c0,0-1.31-5.25-7.9-3.94c0,0,1.37,4.72,7.43,4.87L-88.16-160.71z"/>
		<path id="Tracé_830-2" class="st0" d="M-84.93-165.95c0,0-1.28-5.44-7.63-4.06c0,0,1.91,5.19,7.18,4.97L-84.93-165.95z"/>
		<path id="Tracé_831-2" class="st0" d="M-82.79-170.96c0,0-0.89-6.62-6.82-5.4c0,0,1.48,6.05,6.35,6.34L-82.79-170.96z"/>
		<path id="Tracé_832-2" class="st0" d="M-80.73-177.04c0,0-1.11-6.69-7.12-4.99c0,0,2.09,6.36,6.66,5.9L-80.73-177.04z"/>
		<path id="Tracé_833-2" class="st0" d="M-79.38-182.71c0,0-1.91-6.72-6.52-6.72c0,0,1.95,7.09,6.08,8.03L-79.38-182.71z"/>
		<path id="Tracé_834-2" class="st0" d="M-78.45-188.27c0,0-2.05-8.08-5.81-7.61c0,0,1.4,6.17,5.64,8.84L-78.45-188.27z"/>
		<path id="Tracé_835-2" class="st0" d="M-77.78-194.93c0,0-1.95-6.74-5.64-7.15c0,0,1.25,6.61,5.49,8.87L-77.78-194.93z"/>
		<path id="Tracé_836-2" class="st0" d="M-77.1-201.12c0,0-2.5-6.77-4.93-7.01c0,0,0.95,6.61,4.65,8.1L-77.1-201.12z"/>
		<path id="Tracé_837-2" class="st0" d="M-76.57-206.88c0,0-1.42-7.3-3.83-8c0,0,0.1,5.93,3.56,8.53L-76.57-206.88z"/>
		<path id="Tracé_838-2" class="st0" d="M-75.36-214.41c0,0-1.56-5.84-3.5-6.79c0,0,0.13,6.81,2.99,8.18L-75.36-214.41z"/>
		<path id="Tracé_839-2" class="st0" d="M-74.41-219.35l0.75-10.16c0,0-3.98,7.54-1.08,11.94L-74.41-219.35z"/>
		<path id="Tracé_840-2" class="st0" d="M-71.17-229.35c0,0,2.94-7.32,3.59-7.71c0,0-5.38,4.61-5.13,10.84L-71.17-229.35z"/>
		<path id="Tracé_841-2" class="st0" d="M-95.93-150.24c0,0,4.7-0.43,4.3,6.17c0,0-4.25,0.51-5.42-4.99L-95.93-150.24z"/>
		<path id="Tracé_842-2" class="st0" d="M-91.32-155.52c0,0,5.4,0.19,4.7,6.92c0,0-4.56,0.64-5.82-5.7L-91.32-155.52z"/>
		<path id="Tracé_843-2" class="st0" d="M-88.13-160.27c0,0,4.99-2.11,7.9,3.94c0,0-4.6,1.74-8.37-3L-88.13-160.27z"/>
		<path id="Tracé_844-2" class="st0" d="M-84.83-165.9c0,0,5.11-2.26,7.84,3.66c0,0-5.3,1.6-8.29-2.75L-84.83-165.9z"/>
		<path id="Tracé_845-2" class="st0" d="M-82.86-170.82c0,0,5.01-4.43,8.68,0.38c0,0-5.08,3.61-8.94,0.63L-82.86-170.82z"/>
		<path id="Tracé_846-2" class="st0" d="M-81-177.21c0,0,5.04-4.54,8.68,0.55c0,0-5.6,3.66-8.89,0.43L-81-177.21z"/>
		<path id="Tracé_847-2" class="st0" d="M-79.87-182.93c0,0,3.97-5.75,8.33-4.27c0,0-4.12,6.09-8.34,5.64L-79.87-182.93z"/>
		<path id="Tracé_848-2" class="st0" d="M-78.56-188.31c0,0,4.06-7.28,7.57-5.85c0,0-2.94,5.6-7.72,7.1L-78.56-188.31z"/>
		<path id="Tracé_849-2" class="st0" d="M-78.02-195.31c0,0,4.1-5.69,7.71-4.84c0,0-3.39,5.8-8.15,6.52L-78.02-195.31z"/>
		<path id="Tracé_850-2" class="st0" d="M-77.5-201.26c0,0,3.26-6.44,5.7-6.41c0,0-1.69,6.45-5.54,7.51L-77.5-201.26z"/>
		<path id="Tracé_851-2" class="st0" d="M-76.69-207.03c0,0,3.59-6.51,6.11-6.43c0,0-1.93,5.61-6.02,7.02L-76.69-207.03z"/>
		<path id="Tracé_852-2" class="st0" d="M-75.91-214.03c0,0,2.71-5.4,4.8-5.94c0,0-1.5,6.65-4.58,7.41L-75.91-214.03z"/>
		<path id="Tracé_853-2" class="st0" d="M-74.11-219.53l5.91-8.29c0,0-1.75,8.34-6.79,9.88L-74.11-219.53z"/>
		<path id="Tracé_854-2" class="st0" d="M-69.92-228.62c0,0,6.66-4.23,6.92-4.95c0,0-3.55,6.15-9.72,7.02L-69.92-228.62z"/>
		<path id="Tracé_855-2" class="st0" d="M-69.45-230.62c0,0,7.73-6.88,9.63-6.8c-4.14,0.33-7.84,2.74-9.79,6.41L-69.45-230.62z"/>
		<path id="Tracé_856-2" class="st0" d="M-75.88-212.96l0.27,0.05c1.82-10.91,4.1-17.31,6.45-18.02l-0.08-0.26
			C-71.73-230.44-74.02-224.13-75.88-212.96z"/>
		<path id="Tracé_857-2" class="st0" d="M-78.94-186.83l0.41,0.05c0.13-1.02,0.23-2.07,0.32-3.11c0.74-9.06,1.66-17.37,2.7-23.58
			l-0.23-0.3c-1.02,6.23-2.15,14.78-2.89,23.84C-78.71-188.88-78.82-187.84-78.94-186.83z"/>
		<path id="Tracé_858-2" class="st0" d="M-112.26-138.4c5.63-2.55,10.78-6.07,15.21-10.38c4.56-4.33,8.41-9.36,11.39-14.9
			c3.73-6.92,6.18-15.51,7.21-23.91l-0.44,0.18c-2.31,18.85-11.42,31.44-18.53,38.21c-4.38,4.27-9.48,7.75-15.05,10.29
			L-112.26-138.4z"/>
	</g>
	<path id="Tracé_744" class="st1" d="M37.08,33.19h124.07v124.07H37.08V33.19z"/>
	<path class="st2" d="M136.92,144.19l-2.25-0.96l-35.55-15.24l-35.55,15.24l-2.25,0.96v-2.44V59.03c0-1.61,0.32-3.17,0.94-4.64
		c0.6-1.42,1.47-2.7,2.57-3.8c1.1-1.1,2.38-1.96,3.8-2.57c1.47-0.63,3.04-0.94,4.64-0.94h51.7c1.61,0,3.17,0.32,4.64,0.94
		c1.42,0.6,2.7,1.47,3.8,2.57c1.1,1.1,1.96,2.38,2.57,3.8c0.63,1.47,0.94,3.04,0.94,4.64v82.71V144.19z"/>
	<path class="st3" d="M73.27,48.69c-5.69,0-10.34,4.65-10.34,10.34v82.71l36.19-15.51l36.19,15.51V59.03
		c0-5.69-4.65-10.34-10.34-10.34H73.27 M73.27,45.47h51.7c1.83,0,3.6,0.36,5.27,1.07c1.61,0.69,3.06,1.66,4.31,2.91
		c1.25,1.25,2.22,2.69,2.91,4.31c0.71,1.68,1.07,3.45,1.07,5.27v82.71c0,1.08-0.54,2.09-1.45,2.69c-0.53,0.35-1.15,0.53-1.77,0.53
		c-0.43,0-0.86-0.09-1.27-0.26l-34.92-14.96L64.2,144.71c-0.41,0.17-0.84,0.26-1.27,0.26c-0.62,0-1.24-0.18-1.77-0.53
		c-0.9-0.6-1.45-1.61-1.45-2.69V59.03c0-1.83,0.36-3.6,1.07-5.27c0.69-1.61,1.66-3.06,2.91-4.31c1.25-1.25,2.69-2.22,4.31-2.91
		C69.67,45.83,71.45,45.47,73.27,45.47z"/>
	<path id="Tracé_746" class="st0" d="M118.35,59.33c2.45,0,4.44,1.99,4.44,4.44v62.22c0,2.45-22.64-11.27-22.64-11.27V59.33H118.35
		z"/>
	<circle class="st2" cx="99.06" cy="58.82" r="57.04"/>
	<circle class="st4" cx="99.06" cy="58.82" r="55.43"/>
	<path id="Tracé_750" class="st0" d="M100.63,20.71c19.98,0,36.18,16.2,36.18,36.18s-16.2,36.18-36.18,36.18
		C100.71,21.06,100.63,93.19,100.63,20.71z"/>
</g>
</svg>
