<svg xmlns="http://www.w3.org/2000/svg" xmlns:xlink="http://www.w3.org/1999/xlink" width="209" height="158.969" viewBox="0 0 209 158.969">
  <defs>
    <linearGradient id="linear-gradient" x1="-0.302" y1="-1.411" x2="1.08" y2="1.883" gradientUnits="objectBoundingBox">
      <stop offset="0" stop-color="#fff" stop-opacity="0"/>
      <stop offset="0.99" stop-color="#fff"/>
    </linearGradient>
    <linearGradient id="linear-gradient-2" x1="0.001" y1="0.499" x2="1" y2="0.499" gradientUnits="objectBoundingBox">
      <stop offset="0" stop-color="#ecc4d7"/>
      <stop offset="0.42" stop-color="#efd4d1"/>
      <stop offset="1" stop-color="#f2eac9"/>
    </linearGradient>
    <linearGradient id="linear-gradient-3" x1="1.374" y1="0.114" x2="-0.075" y2="0.678" gradientUnits="objectBoundingBox">
      <stop offset="0.05" stop-opacity="0"/>
      <stop offset="0.89" stop-opacity="0.749"/>
      <stop offset="0.99"/>
    </linearGradient>
    <linearGradient id="linear-gradient-4" x1="0" y1="0.5" x2="1" y2="0.5" xlink:href="#linear-gradient"/>
    <linearGradient id="linear-gradient-5" x1="0.16" y1="1.599" x2="1.032" y2="-0.818" xlink:href="#linear-gradient-3"/>
    <linearGradient id="linear-gradient-6" x1="-0.001" y1="0.5" x2="1.002" y2="0.5" xlink:href="#linear-gradient-2"/>
    <linearGradient id="linear-gradient-7" x1="0" y1="0.5" x2="1.003" y2="0.5" xlink:href="#linear-gradient-2"/>
    <linearGradient id="linear-gradient-8" x1="-0.001" y1="0.501" x2="1.001" y2="0.501" xlink:href="#linear-gradient-2"/>
    <linearGradient id="linear-gradient-9" x1="0.506" y1="1.742" x2="0.495" y2="-0.427" xlink:href="#linear-gradient"/>
    <linearGradient id="linear-gradient-10" x1="0.491" y1="-0.378" x2="0.555" y2="9.435" gradientUnits="objectBoundingBox">
      <stop offset="0" stop-opacity="0"/>
      <stop offset="0.99"/>
    </linearGradient>
    <linearGradient id="linear-gradient-11" x1="0.29" y1="-0.366" x2="0.667" y2="1.424" xlink:href="#linear-gradient"/>
    <linearGradient id="linear-gradient-12" x1="0" y1="0.502" x2="1.006" y2="0.502" xlink:href="#linear-gradient-2"/>
    <linearGradient id="linear-gradient-13" x1="-0.001" y1="0.5" x2="1.001" y2="0.5" xlink:href="#linear-gradient"/>
    <linearGradient id="linear-gradient-14" x1="0" y1="0.501" x2="0.999" y2="0.501" xlink:href="#linear-gradient-2"/>
    <linearGradient id="linear-gradient-15" x1="-0.871" y1="0.05" x2="1.085" y2="0.717" xlink:href="#linear-gradient-3"/>
    <linearGradient id="linear-gradient-16" x1="0.597" y1="-1.164" x2="0.191" y2="5.883" xlink:href="#linear-gradient"/>
    <linearGradient id="linear-gradient-17" x1="0.651" y1="0.492" x2="0.319" y2="0.5" xlink:href="#linear-gradient-3"/>
    <linearGradient id="linear-gradient-18" x1="0.861" y1="-0.709" x2="0.503" y2="0.514" xlink:href="#linear-gradient"/>
    <linearGradient id="linear-gradient-19" x1="0.156" y1="4.246" x2="0.763" y2="-2.393" xlink:href="#linear-gradient"/>
    <linearGradient id="linear-gradient-20" x1="-0.021" y1="5.248" x2="0.672" y2="-0.732" xlink:href="#linear-gradient"/>
    <linearGradient id="linear-gradient-21" x1="0.085" y1="-0.28" x2="1.624" y2="2.883" xlink:href="#linear-gradient-10"/>
    <linearGradient id="linear-gradient-22" x1="-0.427" y1="-0.192" x2="2.423" y2="1.957" xlink:href="#linear-gradient"/>
    <linearGradient id="linear-gradient-23" x1="-0.037" y1="-1.947" x2="0.728" y2="1.592" xlink:href="#linear-gradient-3"/>
    <linearGradient id="linear-gradient-24" x1="-0.001" y1="0.499" x2="0.999" y2="0.499" xlink:href="#linear-gradient-2"/>
    <linearGradient id="linear-gradient-25" x1="1.682" y1="-0.635" x2="-2.805" y2="3.536" xlink:href="#linear-gradient"/>
    <linearGradient id="linear-gradient-26" x1="0.003" y1="0.5" x2="1" y2="0.5" xlink:href="#linear-gradient-2"/>
    <linearGradient id="linear-gradient-27" x1="0.002" y1="0.5" x2="1.001" y2="0.5" xlink:href="#linear-gradient-2"/>
    <linearGradient id="linear-gradient-28" x1="-1.306" y1="1.297" x2="2.492" y2="-0.373" xlink:href="#linear-gradient-3"/>
    <linearGradient id="linear-gradient-29" x1="0.506" y1="0.329" x2="0.465" y2="3.75" xlink:href="#linear-gradient-10"/>
    <linearGradient id="linear-gradient-30" x1="0.22" y1="0.076" x2="1.673" y2="3.107" xlink:href="#linear-gradient-10"/>
    <linearGradient id="linear-gradient-31" x1="-1.612" y1="0.393" x2="2.624" y2="0.596" xlink:href="#linear-gradient-3"/>
    <linearGradient id="linear-gradient-32" x1="0.001" y1="0.499" x2="0.997" y2="0.499" xlink:href="#linear-gradient-2"/>
    <linearGradient id="linear-gradient-33" x1="1.242" y1="1.829" x2="-0.515" y2="-1.621" xlink:href="#linear-gradient-3"/>
    <linearGradient id="linear-gradient-34" x1="1.975" y1="-0.525" x2="-1.173" y2="1.691" xlink:href="#linear-gradient-3"/>
    <linearGradient id="linear-gradient-35" x1="1.059" y1="-1.579" x2="-0.188" y2="3.377" xlink:href="#linear-gradient-3"/>
  </defs>
  <g id="school" transform="translate(-0.001 0)">
    <path id="Tracé_909" data-name="Tracé 909" d="M200.436,93.657c-.653,12.271-3.465,24.453-3.023,36.728-12.044.317-23.941-.053-35.9,2.406-13.464,2.759-27.322,2.711-41.065,2.625q-55.767-.361-111.534-1.323a162.977,162.977,0,0,1,5.718-19.75c5.052-14.292-2.321-31.517,6.087-44.462C35.278,47.414,70.93,52.028,93.143,53.415c12.478.787,25.082,1.57,37.417-.45,7.945-1.3,25.922-4.3,27-4.285C169.8,48.9,202.392,57.331,200.436,93.657Z" transform="translate(-6.507 -48.68)" fill="#e8f4e6" style="isolation: isolate"/>
    <path id="Tracé_910" data-name="Tracé 910" d="M247.21,79.983v7.771h1.01V84.58H254.1l-1.838-2.435,2.07-2.345Z" transform="translate(-146.895 -47.418)" fill="#1f9510"/>
    <path id="Tracé_911" data-name="Tracé 911" d="M247.21,79.893v7.771h1.01V84.49H254.1l-1.838-2.435,2.07-2.345Z" transform="translate(-146.895 -47.365)" fill="url(#linear-gradient)"/>
    <path id="Tracé_912" data-name="Tracé 912" d="M205.644,316.045a30.463,30.463,0,0,1-9.568,6.188c-15.3,6.667-33.007,5.653-49.587,3.177s-33.23-6.273-49.972-4.715c-9.739.909-19.271,3.616-28.989,4.115q-1.753.089-3.518.077A68.842,68.842,0,0,1,46.771,322.3c-2.918-.779-5.8-1.7-8.651-2.674-8.578-2.946-17.222-6.712-23.049-13.3C11.65,302.459-2.6,290.562,5.393,253.745q55.763.966,111.534,1.323c13.744.085,27.593.134,41.065-2.629,11.975-2.435,23.86-2.086,35.9-2.4.036.966.089,1.936.17,2.905.556,6.927,2.382,10.445,6.062,16.2,3.429,5.356,6.9,10.749,9.228,16.69C213.289,295.8,213.407,308.193,205.644,316.045Z" transform="translate(-2.99 -168.331)" fill="#e8f4e6"/>
    <path id="Tracé_913" data-name="Tracé 913" d="M399.279,249.607c.174-.67.438-1.315.621-1.984a1.217,1.217,0,0,0,.02-.787,1.157,1.157,0,0,0-.463-.475,5.632,5.632,0,0,0-3.892-.889,2.4,2.4,0,0,0-1.01.345,2.082,2.082,0,0,0-.779,1.25,8.755,8.755,0,0,0-.158,1.5,7.452,7.452,0,0,0,0,2.029,1.9,1.9,0,0,0,1.217,1.485,1.656,1.656,0,0,1,.2.057c.406.158.45.7.787.945a1.111,1.111,0,0,0,.625.166,2.569,2.569,0,0,0,2.435-1.217,1.814,1.814,0,0,0,.17-.864A7.061,7.061,0,0,1,399.279,249.607Z" transform="translate(-235.065 -165.585)" fill="url(#linear-gradient-2)"/>
    <path id="Tracé_914" data-name="Tracé 914" d="M184.219,231.27l-4.679,9.572-3.421-3.494,2.755-7.369,4.638.584Z" transform="translate(-104.652 -136.658)" fill="url(#linear-gradient-3)"/>
    <path id="Tracé_915" data-name="Tracé 915" d="M182.474,229.53l-4.679,9.572-3.425-3.494,2.759-7.369Z" transform="translate(-103.612 -135.624)" fill="#1f9510"/>
    <path id="Tracé_916" data-name="Tracé 916" d="M182.474,229.464l-4.679,9.568-3.425-3.49,2.759-7.373Z" transform="translate(-103.612 -135.582)" fill="url(#linear-gradient-4)"/>
    <path id="Tracé_917" data-name="Tracé 917" d="M136.408,390.5c-.507,1.595-.99,3.189-1.453,4.8q-1.376,4.764-2.5,9.605a4.273,4.273,0,0,1-.552,1.493,1.956,1.956,0,0,1-.264.313q-1.753.089-3.518.077a68.841,68.841,0,0,1-17.238-2.589l.049-.045a12.359,12.359,0,0,1,1.98-2.24c2.435-2.333,7.353-3.749,9.869-6a14.771,14.771,0,0,1,3.348-2.459c2.09-1,2.069-1.854,4.387-1.814a1.323,1.323,0,0,1,.763.166c.491.353.3,1.116.045,1.672q-.584,1.3-1.177,2.609a2.666,2.666,0,0,0,1.923-.982,7.678,7.678,0,0,0,1.128-1.9l1.485-3.161a4.967,4.967,0,0,1,1.063-1.643C137.658,386.638,136.66,389.714,136.408,390.5Z" transform="translate(-67.099 -250.226)" fill="url(#linear-gradient-5)"/>
    <path id="Tracé_918" data-name="Tracé 918" d="M170.46,352.337c-.325,1.063-.743,2.1-1,3.177a6.164,6.164,0,0,0,0,3.291,1.258,1.258,0,0,1,.1.836.678.678,0,0,1-.617.406,1.153,1.153,0,0,1-.722-.264,2.63,2.63,0,0,1-.917-1.932,13.773,13.773,0,0,1,.134-2.2c.17-1.98-.158-3.965-.162-5.949,0-.734.037-1.469.081-2.2q.158-2.492.373-4.971a11.207,11.207,0,0,1,0-1.384c.093-.183.588-.057.763-.158.739-.442,1.436.036,2.289.179.917.154.763.852.759,1.623a46.085,46.085,0,0,1-.357,6.168,22.321,22.321,0,0,1-.718,3.376Z" transform="translate(-100.607 -222.267)" fill="url(#linear-gradient-6)"/>
    <path id="Tracé_919" data-name="Tracé 919" d="M157,343.814c-.11.889-.288,1.765-.377,2.654-.264,2.593.219,5.194.406,7.791a1.278,1.278,0,0,0,.248.812.788.788,0,0,0,.434.215,1.518,1.518,0,0,0,1.473-.779,4.017,4.017,0,0,0,.454-1.7c.162-1.554.2-3.117.239-4.679a3.678,3.678,0,0,0-.061-.966c-.069-.272-.2-.523-.264-.812a3.809,3.809,0,0,1,.625-2.3,8.874,8.874,0,0,0,.759-2.808c.1-1.006.227-1.992-.941-2.256a2.067,2.067,0,0,0-2.727,1.676C157.061,341.688,157.138,342.776,157,343.814Z" transform="translate(-94.237 -221.138)" fill="url(#linear-gradient-7)"/>
    <path id="Tracé_920" data-name="Tracé 920" d="M182.723,274.829a6.826,6.826,0,0,1,1.217,3.384q.438,2.65.73,5.316a2.978,2.978,0,0,1-.292,2.086.84.84,0,0,1-.406.329,1.055,1.055,0,0,1-1-.385c-1.217-1.173-1.583-2.93-2.134-4.521-.406-1.136-.909-2.236-1.217-3.4-.231-.848-.69-2.885.053-3.6C180.5,273.254,182.159,274.147,182.723,274.829Z" transform="translate(-107.737 -182.412)" fill="url(#linear-gradient-8)"/>
    <rect id="Rectangle_31" data-name="Rectangle 31" width="85.795" height="29.423" transform="translate(58.199 57.252)" fill="#1f9510"/>
    <rect id="Rectangle_32" data-name="Rectangle 32" width="85.795" height="29.423" transform="translate(58.199 57.252)" fill="url(#linear-gradient-9)"/>
    <path id="Tracé_921" data-name="Tracé 921" d="M138.237,118.66l-5.4,9.93h94.041L221,119.029Z" transform="translate(-78.935 -70.51)" fill="#1f9510"/>
    <path id="Tracé_922" data-name="Tracé 922" d="M138.237,118.66l-5.4,9.93h94.041L221,119.029Z" transform="translate(-78.935 -70.51)" fill="url(#linear-gradient-10)"/>
    <path id="Tracé_923" data-name="Tracé 923" d="M242.453,147.858H217.44v-33.23L230.068,102.8l12.385,11.829Z" transform="translate(-129.205 -61.085)" fill="#1f9510"/>
    <path id="Tracé_924" data-name="Tracé 924" d="M242.453,147.858H217.44v-33.23L230.068,102.8l12.385,11.829Z" transform="translate(-129.205 -61.085)" fill="url(#linear-gradient-11)"/>
    <path id="Tracé_925" data-name="Tracé 925" d="M210.27,110.538l1.1,1.29,14.434-13.61,14.073,13.517,1.286-1.1L225.718,95.09Z" transform="translate(-124.945 -56.504)" fill="#1f9510"/>
    <rect id="Rectangle_33" data-name="Rectangle 33" width="13.241" height="19.003" transform="translate(94.001 67.766)" fill="#fff"/>
    <rect id="Rectangle_34" data-name="Rectangle 34" width="11.723" height="3.908" transform="translate(95.028 61.115)" fill="#1f9510"/>
    <circle id="Ellipse_20" data-name="Ellipse 20" cx="4.573" cy="4.573" r="4.573" transform="translate(96.363 48.061)" fill="#1f9510"/>
    <rect id="Rectangle_35" data-name="Rectangle 35" width="9.747" height="2.804" transform="translate(61.692 60.839)" fill="#1f9510"/>
    <rect id="Rectangle_36" data-name="Rectangle 36" width="9.747" height="2.804" transform="translate(74.568 60.839)" fill="#1f9510"/>
    <rect id="Rectangle_37" data-name="Rectangle 37" width="9.747" height="2.804" transform="translate(117.784 60.839)" fill="#1f9510"/>
    <rect id="Rectangle_38" data-name="Rectangle 38" width="9.747" height="2.804" transform="translate(130.66 60.839)" fill="#1f9510"/>
    <rect id="Rectangle_39" data-name="Rectangle 39" width="9.471" height="5.884" transform="translate(61.786 65.072)" fill="#1f9510"/>
    <rect id="Rectangle_40" data-name="Rectangle 40" width="3.676" height="6.038" transform="translate(64.667 65.116)" fill="#1f9510"/>
    <rect id="Rectangle_41" data-name="Rectangle 41" width="9.471" height="5.884" transform="translate(74.706 65.072)" fill="#1f9510"/>
    <rect id="Rectangle_42" data-name="Rectangle 42" width="3.676" height="6.038" transform="translate(77.587 65.116)" fill="#1f9510"/>
    <rect id="Rectangle_43" data-name="Rectangle 43" width="9.471" height="5.884" transform="translate(74.706 74.819)" fill="#1f9510"/>
    <rect id="Rectangle_44" data-name="Rectangle 44" width="3.676" height="6.038" transform="translate(77.587 74.863)" fill="#1f9510"/>
    <rect id="Rectangle_45" data-name="Rectangle 45" width="9.471" height="5.884" transform="translate(61.648 74.819)" fill="#1f9510"/>
    <rect id="Rectangle_46" data-name="Rectangle 46" width="3.676" height="6.038" transform="translate(64.529 74.863)" fill="#1f9510"/>
    <rect id="Rectangle_47" data-name="Rectangle 47" width="9.471" height="5.884" transform="translate(130.98 74.819)" fill="#1f9510"/>
    <rect id="Rectangle_48" data-name="Rectangle 48" width="3.676" height="6.038" transform="translate(133.861 74.863)" fill="#1f9510"/>
    <rect id="Rectangle_49" data-name="Rectangle 49" width="9.471" height="5.884" transform="translate(117.922 74.819)" fill="#1f9510"/>
    <rect id="Rectangle_50" data-name="Rectangle 50" width="3.676" height="6.038" transform="translate(120.803 74.863)" fill="#1f9510"/>
    <rect id="Rectangle_51" data-name="Rectangle 51" width="9.471" height="5.884" transform="translate(130.98 64.885)" fill="#1f9510"/>
    <rect id="Rectangle_52" data-name="Rectangle 52" width="3.676" height="6.038" transform="translate(133.861 64.934)" fill="#1f9510"/>
    <rect id="Rectangle_53" data-name="Rectangle 53" width="9.471" height="5.884" transform="translate(117.922 64.885)" fill="#1f9510"/>
    <rect id="Rectangle_54" data-name="Rectangle 54" width="3.676" height="6.038" transform="translate(120.803 64.934)" fill="#1f9510"/>
    <path id="Tracé_926" data-name="Tracé 926" d="M173.955,260.151c-.122.373-.333.787-.718.856a1.566,1.566,0,0,1-.722-.142.678.678,0,0,0-.7.089,2.158,2.158,0,0,0-.207.381c-.2.329-.893,1.623-1.278,1.595a2.333,2.333,0,0,1-.966-.264,1.148,1.148,0,0,1-.584-.779,12.689,12.689,0,0,1,.406-2.28,8.066,8.066,0,0,1,.3-1.071,3.286,3.286,0,0,1,.714-.941,4.2,4.2,0,0,1,2.8-1.436,1.217,1.217,0,0,1,.609.134,1.36,1.36,0,0,1,.434.438,2.91,2.91,0,0,1,.406.706,1.883,1.883,0,0,1-.069.791A13.1,13.1,0,0,1,173.955,260.151Z" transform="translate(-101.502 -171.966)" fill="url(#linear-gradient-12)"/>
    <path id="Tracé_927" data-name="Tracé 927" d="M159.748,269.522a12.547,12.547,0,0,1,8.006,1.392,1.043,1.043,0,0,1,.406.341.982.982,0,0,1,.114.442,14.347,14.347,0,0,1-.718,4.22,25.328,25.328,0,0,0-.406,3.632l-.357,5.308a3.535,3.535,0,0,1-.5,1.907,2.847,2.847,0,0,1-2.053.941,9.618,9.618,0,0,1-3.887-.5,5.828,5.828,0,0,1-2.309-1.242,4.776,4.776,0,0,1-1.311-3.246,12.089,12.089,0,0,1,.491-3.522,28.279,28.279,0,0,0,1.238-6.529C158.462,271.4,158.162,269.778,159.748,269.522Z" transform="translate(-94.343 -179.815)" fill="#1f9510"/>
    <path id="Tracé_928" data-name="Tracé 928" d="M159.748,269.522a12.547,12.547,0,0,1,8.006,1.392,1.043,1.043,0,0,1,.406.341.982.982,0,0,1,.114.442,14.347,14.347,0,0,1-.718,4.22,25.328,25.328,0,0,0-.406,3.632l-.357,5.308a3.535,3.535,0,0,1-.5,1.907,2.847,2.847,0,0,1-2.053.941,9.618,9.618,0,0,1-3.887-.5,5.828,5.828,0,0,1-2.309-1.242,4.776,4.776,0,0,1-1.311-3.246,12.089,12.089,0,0,1,.491-3.522,28.279,28.279,0,0,0,1.238-6.529C158.462,271.4,158.162,269.778,159.748,269.522Z" transform="translate(-94.343 -179.815)" fill="url(#linear-gradient-13)"/>
    <path id="Tracé_929" data-name="Tracé 929" d="M146.1,273.735c-.519.5-.97,1.055-1.481,1.558-.734.718-1.583,1.307-2.354,1.984a6.022,6.022,0,0,0-1.822,2.435,1.763,1.763,0,0,0,.195,1.781,2.185,2.185,0,0,0,1.745.442,3.144,3.144,0,0,0,1.1-.195,3.078,3.078,0,0,0,.694-.471,45.557,45.557,0,0,0,4.516-4.245,3.745,3.745,0,0,0,.747-1.019,3.311,3.311,0,0,0,.219-1.408c0-.58-.028-3-.893-3.019-.406,0-.966.722-1.266.966C147.031,272.939,146.544,273.309,146.1,273.735Z" transform="translate(-84.58 -181.131)" fill="url(#linear-gradient-14)"/>
    <path id="Tracé_930" data-name="Tracé 930" d="M156.627,312.293a28.973,28.973,0,0,1,.406,10.575,4.933,4.933,0,0,0-4.058-1.088,21.262,21.262,0,0,1-4.305.353c-1.335-.158-2.642-.791-3.965-.556-.373.069-.734.2-1.112.264a5.821,5.821,0,0,1-3.388-.868c-.158-.077-.341-.183-.365-.361a.515.515,0,0,1,.1-.329,7.734,7.734,0,0,1,2.325-2.524,4.9,4.9,0,0,0,1.1-.868,3.916,3.916,0,0,0,.483-.852,14.07,14.07,0,0,0,.759-1.936c.288-1.051.321-2.155.556-3.214a4.005,4.005,0,0,1,1.684-2.686,4.138,4.138,0,0,1,3.027-.223c1.688.373,3.283,1.079,4.951,1.522C156.3,309.882,156.318,310.917,156.627,312.293Z" transform="translate(-84.307 -202.654)" fill="#1f9510"/>
    <path id="Tracé_931" data-name="Tracé 931" d="M156.627,312.293a28.973,28.973,0,0,1,.406,10.575,4.933,4.933,0,0,0-4.058-1.088,21.262,21.262,0,0,1-4.305.353c-1.335-.158-2.642-.791-3.965-.556-.373.069-.734.2-1.112.264a5.821,5.821,0,0,1-3.388-.868c-.158-.077-.341-.183-.365-.361a.515.515,0,0,1,.1-.329,7.734,7.734,0,0,1,2.325-2.524,4.9,4.9,0,0,0,1.1-.868,3.916,3.916,0,0,0,.483-.852,14.07,14.07,0,0,0,.759-1.936c.288-1.051.321-2.155.556-3.214a4.005,4.005,0,0,1,1.684-2.686,4.138,4.138,0,0,1,3.027-.223c1.688.373,3.283,1.079,4.951,1.522C156.3,309.882,156.318,310.917,156.627,312.293Z" transform="translate(-84.307 -202.654)" fill="url(#linear-gradient-15)"/>
    <path id="Tracé_932" data-name="Tracé 932" d="M157.945,374.877a1.376,1.376,0,0,1,1.8.292,3.055,3.055,0,0,1,.621,1.879,6.636,6.636,0,0,0,.15,1.4,4.463,4.463,0,0,0,1.075,1.744,2.232,2.232,0,0,1,.787,1.623,1.541,1.541,0,0,1-1.319,1.144,2.8,2.8,0,0,1-2.65-.954,5.058,5.058,0,0,1-.7-3.754C157.783,377.235,156.959,375.66,157.945,374.877Z" transform="translate(-94.775 -242.385)" fill="#3f3d56"/>
    <path id="Tracé_933" data-name="Tracé 933" d="M159.609,381.631a1.879,1.879,0,0,1,.154-1.006.755.755,0,0,1,.856-.406.9.9,0,0,1,.5.86,9.256,9.256,0,0,0-.024,1.059,2.605,2.605,0,0,0,.937,1.428,3.245,3.245,0,0,1,.812.962,1,1,0,0,1-.17,1.16.945.945,0,0,1-.771.166,2,2,0,0,1-.734-.345,3.3,3.3,0,0,1-1.315-1.672,3.376,3.376,0,0,1-.085-.9C159.76,382.5,159.634,382.07,159.609,381.631Z" transform="translate(-96.046 -245.673)" fill="url(#linear-gradient-16)"/>
    <path id="Tracé_934" data-name="Tracé 934" d="M169.712,385.543a1.74,1.74,0,0,1-1.027-.024,4.362,4.362,0,0,1-.864-.446,1.27,1.27,0,0,1-.442-.5,1.477,1.477,0,0,1-.264-1.031c0-.247-.057-.954.243-1.067s.893.56,1.108.73.471.312.657.15.049-.5.11-.759a3.791,3.791,0,0,1,1.367.089.979.979,0,0,1,.458.215.71.71,0,0,1,.187.406,1.919,1.919,0,0,1-.483,1.355,2.285,2.285,0,0,1-.954.868Z" transform="translate(-100.509 -247.016)" fill="#3f3d56"/>
    <path id="Tracé_935" data-name="Tracé 935" d="M171.345,252.676a.917.917,0,0,1,.406.913.406.406,0,0,1-.1.215.337.337,0,0,1-.43-.028,1.4,1.4,0,0,1-.268-.381c-.1-.166-.6-.6-.523-.739C170.57,252.408,171.171,252.563,171.345,252.676Z" transform="translate(-102.479 -169.807)" fill="none" stroke="#3cb6d5" stroke-miterlimit="10" stroke-width="1.51"/>
    <path id="Tracé_936" data-name="Tracé 936" d="M166.613,247.327a3.68,3.68,0,0,1,1.051-.812,2.73,2.73,0,0,1,.6-.264,2.435,2.435,0,0,1,.747-.061,4.289,4.289,0,0,1,2.487.962,4.139,4.139,0,0,1,1.408,2.26,2.869,2.869,0,0,1,.081.787,2.7,2.7,0,0,1-.71,1.623,5.224,5.224,0,0,0-.406.459,4.313,4.313,0,0,0-.369.909,1.875,1.875,0,0,1-.459.755.994.994,0,0,1-.812.3.52.52,0,0,0-.223,0,.666.666,0,0,0-.2.142.9.9,0,0,1-.775.142,3.22,3.22,0,0,1-.751-.321.483.483,0,0,0-.207-.069c-.179,0-.3.187-.475.239a.56.56,0,0,1-.491-.142,2.434,2.434,0,0,0-.406-.321.962.962,0,0,1-.26-.126.5.5,0,0,1-.122-.2c-.406-1.055.053-2.272-.284-3.348a2.081,2.081,0,0,1-.191-.812c.024-.248.154-.479.2-.722a2.65,2.65,0,0,1,.564-1.376Z" transform="translate(-99.763 -166.04)" fill="#3f3d56"/>
    <path id="Tracé_937" data-name="Tracé 937" d="M166.613,247.327a3.68,3.68,0,0,1,1.051-.812,2.73,2.73,0,0,1,.6-.264,2.435,2.435,0,0,1,.747-.061,4.289,4.289,0,0,1,2.487.962,4.139,4.139,0,0,1,1.408,2.26,2.869,2.869,0,0,1,.081.787,2.7,2.7,0,0,1-.71,1.623,5.224,5.224,0,0,0-.406.459,4.313,4.313,0,0,0-.369.909,1.875,1.875,0,0,1-.459.755.994.994,0,0,1-.812.3.52.52,0,0,0-.223,0,.666.666,0,0,0-.2.142.9.9,0,0,1-.775.142,3.22,3.22,0,0,1-.751-.321.483.483,0,0,0-.207-.069c-.179,0-.3.187-.475.239a.56.56,0,0,1-.491-.142,2.434,2.434,0,0,0-.406-.321.962.962,0,0,1-.26-.126.5.5,0,0,1-.122-.2c-.406-1.055.053-2.272-.284-3.348a2.081,2.081,0,0,1-.191-.812c.024-.248.154-.479.2-.722a2.65,2.65,0,0,1,.564-1.376Z" transform="translate(-99.763 -166.04)" fill="url(#linear-gradient-17)"/>
    <path id="Tracé_938" data-name="Tracé 938" d="M387.817,266.744l1.217-1.136a7.926,7.926,0,0,1,2.276-1.648,6.744,6.744,0,0,1,2.715-.365c1.343.032,2.678.187,4.013.341a11.956,11.956,0,0,1,4.8,1.96,91.625,91.625,0,0,0-.2,12.08,92.839,92.839,0,0,1,.333,10.352.929.929,0,0,1-1.181,1.019c-2.13,0-4.249-.406-6.379-.406a15.89,15.89,0,0,0-5.888,1.128.54.54,0,0,1-.377.053.547.547,0,0,1-.252-.264,8.084,8.084,0,0,1-.994-2.232,7.945,7.945,0,0,1,0-2.556l.187-1.769a6.3,6.3,0,0,1,.256-1.4,14.835,14.835,0,0,1,.812-1.623,9.737,9.737,0,0,0,.812-3.652,47.757,47.757,0,0,0,.069-6.144,4.626,4.626,0,0,0-.739-2.674A3.733,3.733,0,0,0,387.817,266.744Z" transform="translate(-231.646 -176.376)" fill="#1f9510"/>
    <path id="Tracé_939" data-name="Tracé 939" d="M427.224,276.032a.52.52,0,0,1,.049.28.5.5,0,0,1-.235.264,15.554,15.554,0,0,1-2.528,1.38,1.092,1.092,0,0,1-.775.118,1.133,1.133,0,0,1-.446-.386c-.69-.84-1.376-1.684-2.065-2.528a3.306,3.306,0,0,1-.515-.775,2.976,2.976,0,0,1-.17-.812c-.089-.852-.446-2.719.28-3.376s1.915.321,2.532.787A12.025,12.025,0,0,1,427.224,276.032Z" transform="translate(-251.002 -180.178)" fill="#1f9510"/>
    <path id="Tracé_940" data-name="Tracé 940" d="M382.309,270.935a8.469,8.469,0,0,0-1.217,2.1c-.385.864-.751,1.741-1.087,2.625a6.37,6.37,0,0,0-.58,3.137c.507-.041.86-.5,1.169-.909s.738-.832,1.242-.751.759.58.925,1.035c.093.252.284.564.536.479a.515.515,0,0,0,.243-.239l1.242-1.98a4.188,4.188,0,0,0,.572-1.152c.312-1.189-.406-2.362-.812-3.53-.126-.385-.146-1.818-.5-1.948C383.567,269.62,382.577,270.619,382.309,270.935Z" transform="translate(-226.649 -180.06)" fill="#1f9510"/>
    <path id="Tracé_941" data-name="Tracé 941" d="M387.817,266.744l1.217-1.136a7.926,7.926,0,0,1,2.276-1.648,6.744,6.744,0,0,1,2.715-.365c1.343.032,2.678.187,4.013.341a11.956,11.956,0,0,1,4.8,1.96,91.625,91.625,0,0,0-.2,12.08,92.839,92.839,0,0,1,.333,10.352.929.929,0,0,1-1.181,1.019c-2.13,0-4.249-.406-6.379-.406a15.89,15.89,0,0,0-5.888,1.128.54.54,0,0,1-.377.053.547.547,0,0,1-.252-.264,8.084,8.084,0,0,1-.994-2.232,7.945,7.945,0,0,1,0-2.556l.187-1.769a6.3,6.3,0,0,1,.256-1.4,14.835,14.835,0,0,1,.812-1.623,9.737,9.737,0,0,0,.812-3.652,47.757,47.757,0,0,0,.069-6.144,4.626,4.626,0,0,0-.739-2.674A3.733,3.733,0,0,0,387.817,266.744Z" transform="translate(-231.646 -176.376)" fill="url(#linear-gradient-18)"/>
    <path id="Tracé_942" data-name="Tracé 942" d="M427.224,276.032a.52.52,0,0,1,.049.28.5.5,0,0,1-.235.264,15.554,15.554,0,0,1-2.528,1.38,1.092,1.092,0,0,1-.775.118,1.133,1.133,0,0,1-.446-.386c-.69-.84-1.376-1.684-2.065-2.528a3.306,3.306,0,0,1-.515-.775,2.976,2.976,0,0,1-.17-.812c-.089-.852-.446-2.719.28-3.376s1.915.321,2.532.787A12.025,12.025,0,0,1,427.224,276.032Z" transform="translate(-251.002 -180.178)" fill="url(#linear-gradient-19)"/>
    <path id="Tracé_943" data-name="Tracé 943" d="M382.309,270.935a8.469,8.469,0,0,0-1.217,2.1c-.385.864-.751,1.741-1.087,2.625a6.37,6.37,0,0,0-.58,3.137c.507-.041.86-.5,1.169-.909s.738-.832,1.242-.751.759.58.925,1.035c.093.252.284.564.536.479a.515.515,0,0,0,.243-.239l1.242-1.98a4.188,4.188,0,0,0,.572-1.152c.312-1.189-.406-2.362-.812-3.53-.126-.385-.146-1.818-.5-1.948C383.567,269.62,382.577,270.619,382.309,270.935Z" transform="translate(-226.649 -180.06)" fill="url(#linear-gradient-20)"/>
    <path id="Tracé_944" data-name="Tracé 944" d="M395.6,262.619c.15.519-.243,1.019-.5,1.493a5.374,5.374,0,0,0-.463,1.343,20.7,20.7,0,0,0,.519,11.309,8.117,8.117,0,0,0,1.359,2.658,5.08,5.08,0,0,0,3.835,1.79,15.489,15.489,0,0,0,1.729-.162,14.508,14.508,0,0,1,3.68.053,3.073,3.073,0,0,0,1.818-.069,2.713,2.713,0,0,0,.759-.653,5.441,5.441,0,0,0,1.465-2.349,5.5,5.5,0,0,0,.02-1.692q-.325-3.445-.848-6.866a16.635,16.635,0,0,0-.966-3.928,6.164,6.164,0,0,0-2.54-3.068,19.279,19.279,0,0,1-2.508-1.254,3.579,3.579,0,0,0-.787-.572.694.694,0,0,0-.868.2,2.581,2.581,0,0,0-3.875.552,12.835,12.835,0,0,0-1.623-.158,2.7,2.7,0,0,0-1.542.536C394.762,261.949,395.427,262.014,395.6,262.619Z" transform="translate(-235.389 -174.377)" fill="#1f9510"/>
    <path id="Tracé_945" data-name="Tracé 945" d="M395.6,262.619c.15.519-.243,1.019-.5,1.493a5.374,5.374,0,0,0-.463,1.343,20.7,20.7,0,0,0,.519,11.309,8.117,8.117,0,0,0,1.359,2.658,5.08,5.08,0,0,0,3.835,1.79,15.489,15.489,0,0,0,1.729-.162,14.508,14.508,0,0,1,3.68.053,3.073,3.073,0,0,0,1.818-.069,2.713,2.713,0,0,0,.759-.653,5.441,5.441,0,0,0,1.465-2.349,5.5,5.5,0,0,0,.02-1.692q-.325-3.445-.848-6.866a16.635,16.635,0,0,0-.966-3.928,6.164,6.164,0,0,0-2.54-3.068,19.279,19.279,0,0,1-2.508-1.254,3.579,3.579,0,0,0-.787-.572.694.694,0,0,0-.868.2,2.581,2.581,0,0,0-3.875.552,12.835,12.835,0,0,0-1.623-.158,2.7,2.7,0,0,0-1.542.536C394.762,261.949,395.427,262.014,395.6,262.619Z" transform="translate(-235.389 -174.377)" fill="url(#linear-gradient-21)"/>
    <path id="Tracé_946" data-name="Tracé 946" d="M401.1,276.068a6.125,6.125,0,0,1,1.055-4.524,4.7,4.7,0,0,1,2.978-1.469,11.54,11.54,0,0,1,3.38.179,3.275,3.275,0,0,1,1.859.743,3.361,3.361,0,0,1,.73,1.623q.925,3.8,1.672,7.637a3.007,3.007,0,0,1,0,1.765,3.054,3.054,0,0,1-1.8,1.363c-2.3.958-5.421,1.9-7.617.081C401.559,282,401.247,278.182,401.1,276.068Z" transform="translate(-239.532 -180.206)" fill="#1f9510"/>
    <path id="Tracé_947" data-name="Tracé 947" d="M401.1,276.068a6.125,6.125,0,0,1,1.055-4.524,4.7,4.7,0,0,1,2.978-1.469,11.54,11.54,0,0,1,3.38.179,3.275,3.275,0,0,1,1.859.743,3.361,3.361,0,0,1,.73,1.623q.925,3.8,1.672,7.637a3.007,3.007,0,0,1,0,1.765,3.054,3.054,0,0,1-1.8,1.363c-2.3.958-5.421,1.9-7.617.081C401.559,282,401.247,278.182,401.1,276.068Z" transform="translate(-239.532 -180.206)" fill="url(#linear-gradient-22)"/>
    <path id="Tracé_948" data-name="Tracé 948" d="M389.367,335.7a4.056,4.056,0,0,0-.024,2.325,3.113,3.113,0,0,0,2.516,1.449,15.526,15.526,0,0,0,3.331.179.811.811,0,0,0,.45-.114.86.86,0,0,0,.252-.661l.134-1.8-.028.483a5.47,5.47,0,0,1,7.406-.994,20.813,20.813,0,0,1-.085-5.145,15.182,15.182,0,0,0,.292-2.086,6.988,6.988,0,0,0-.674-2.759,1.18,1.18,0,0,0-.345-.515,1.218,1.218,0,0,0-.487-.17,27.538,27.538,0,0,0-6.164-.442c-1.55.061-3.977,0-5.308.9-.978.674-.966,1.927-1.014,3A52.6,52.6,0,0,1,389.367,335.7Z" transform="translate(-232.466 -213.125)" fill="#1f9510"/>
    <path id="Tracé_949" data-name="Tracé 949" d="M389.367,335.7a4.056,4.056,0,0,0-.024,2.325,3.113,3.113,0,0,0,2.516,1.449,15.526,15.526,0,0,0,3.331.179.811.811,0,0,0,.45-.114.86.86,0,0,0,.252-.661l.134-1.8c0,.162.84,1.493.832,1.656,1.672-2.207,4.35-3.855,6.545-2.167a20.813,20.813,0,0,1-.085-5.145,15.182,15.182,0,0,0,.292-2.086,6.988,6.988,0,0,0-.674-2.759,1.18,1.18,0,0,0-.345-.515,1.218,1.218,0,0,0-.487-.17,27.538,27.538,0,0,0-6.164-.442c-1.55.061-3.977,0-5.308.9-.978.674-.966,1.927-1.014,3A52.6,52.6,0,0,1,389.367,335.7Z" transform="translate(-232.466 -213.125)" fill="url(#linear-gradient-23)"/>
    <path id="Tracé_950" data-name="Tracé 950" d="M408.358,353.355a.126.126,0,0,0-.028.085c0,.049.073.065.126.073a9.241,9.241,0,0,0,4.736-1.185l1.217-.572c.187-.089.406-.227.385-.434a.454.454,0,0,0-.1-.219,2.228,2.228,0,0,0-1.266-.812,4.36,4.36,0,0,0-1.522-.073,2.8,2.8,0,0,0-1.948.9A19.315,19.315,0,0,0,408.358,353.355Z" transform="translate(-243.848 -227.837)" fill="#3f3d56"/>
    <path id="Tracé_951" data-name="Tracé 951" d="M413.475,361.154c.02.69-.037,1.384,0,2.07a.3.3,0,0,0,.406.353,4.734,4.734,0,0,0,2.126-1.023,1.216,1.216,0,0,0,.463-.5,1.289,1.289,0,0,0,.02-.572c-.089-.678-.179-1.359-.2-2.029-.02-.568,0-1.136.032-1.7l.146-3.161a6.7,6.7,0,0,0-.609-3.9,1.664,1.664,0,0,0-.686-.665,2.119,2.119,0,0,0-.958-.122,3.162,3.162,0,0,0-1.859.5c-1.493,1.165-.665,3.3-.26,4.768A25.68,25.68,0,0,1,413.475,361.154Z" transform="translate(-245.731 -227.659)" fill="url(#linear-gradient-24)"/>
    <path id="Tracé_952" data-name="Tracé 952" d="M416.653,375.657c-.316,1.692.755,3.4.475,5.1-.077.463-.256.9-.3,1.372a1.992,1.992,0,0,0,.381,1.4,1.473,1.473,0,0,0,1.294.576,1.9,1.9,0,0,0,.71-.256,4.836,4.836,0,0,0,2.171-4.869,12.152,12.152,0,0,0-.373-1.562q-.381-1.307-.759-2.617c-.162-.564-.28-1.42-.921-1.652C418.1,372.7,416.836,374.671,416.653,375.657Z" transform="translate(-248.759 -241.444)" fill="#3f3d56"/>
    <path id="Tracé_953" data-name="Tracé 953" d="M419.363,383.358a5.79,5.79,0,0,1-.637,1.266,3.316,3.316,0,0,0-.385,1.777,1.092,1.092,0,0,0,.722,1.071,1.372,1.372,0,0,0,1.019-.207,3.249,3.249,0,0,0,.747-.7,5.368,5.368,0,0,0,1.217-2.029,3.776,3.776,0,0,0,.085-1.108,9.358,9.358,0,0,0-.361-2.224,4.086,4.086,0,0,0-.889-1.911,1.042,1.042,0,0,0-1.481.166,1.741,1.741,0,0,0-.459,1.781A4.336,4.336,0,0,1,419.363,383.358Z" transform="translate(-249.792 -244.993)" fill="url(#linear-gradient-25)"/>
    <path id="Tracé_954" data-name="Tracé 954" d="M380.827,293.274a7.257,7.257,0,0,0,.812,1.083l1.923,2.264c.556-.463,1.173-1.063,1.063-1.781a2.321,2.321,0,0,0-.276-.694,9.025,9.025,0,0,1-.706-1.932,3.194,3.194,0,0,1-.073-1.5,3.181,3.181,0,0,0,.166-.718,1.849,1.849,0,0,0-.714-1.217,1.29,1.29,0,0,0-.726-.438,1.128,1.128,0,0,0-.609.174,2.355,2.355,0,0,0-1.408,1.85A5.174,5.174,0,0,0,380.827,293.274Z" transform="translate(-227.163 -191.09)" fill="url(#linear-gradient-26)"/>
    <path id="Tracé_955" data-name="Tracé 955" d="M434.623,288.519a2.392,2.392,0,0,1-1,1.579,5.753,5.753,0,0,1-1.505,1.035,3.794,3.794,0,0,1-.329-1.441l-.187-2.049a.407.407,0,0,1,0-.187.373.373,0,0,1,.134-.142c.406-.292,1.42-1.108,1.964-.771.243.15.406.625.552.868A2.13,2.13,0,0,1,434.623,288.519Z" transform="translate(-257.672 -189.974)" fill="url(#linear-gradient-27)"/>
    <path id="Tracé_956" data-name="Tracé 956" d="M157.5,274.592a16.974,16.974,0,0,0,.5,5.352,16.444,16.444,0,0,1,.2,6.9,6.8,6.8,0,0,1-4.326,5.056,8.217,8.217,0,0,1-3.847,0,7.023,7.023,0,0,1-3.011-1.161c-1.818-1.392-2.187-4.058-1.591-6.277s1.96-4.123,3.1-6.111,2.106-4.24,1.777-6.493a5.926,5.926,0,0,1-.13-1.217,2.029,2.029,0,0,1,2.8-1.566l.856,2.094a.613.613,0,0,0,.994.377c.982-.454,1.838-1.148,2.84-1.554a2.938,2.938,0,0,1,2.561,0C159.919,271.557,157.772,272.531,157.5,274.592Z" transform="translate(-87.469 -179.545)" fill="#1f9510"/>
    <path id="Tracé_957" data-name="Tracé 957" d="M157.5,274.592a16.974,16.974,0,0,0,.5,5.352,16.444,16.444,0,0,1,.2,6.9,6.8,6.8,0,0,1-4.326,5.056,8.217,8.217,0,0,1-3.847,0,7.023,7.023,0,0,1-3.011-1.161c-1.818-1.392-2.187-4.058-1.591-6.277s1.96-4.123,3.1-6.111,2.106-4.24,1.777-6.493a5.926,5.926,0,0,1-.13-1.217,2.029,2.029,0,0,1,2.8-1.566l.856,2.094a.613.613,0,0,0,.994.377c.982-.454,1.838-1.148,2.84-1.554a2.938,2.938,0,0,1,2.561,0C159.919,271.557,157.772,272.531,157.5,274.592Z" transform="translate(-87.469 -179.545)" fill="url(#linear-gradient-28)"/>
    <path id="Tracé_958" data-name="Tracé 958" d="M56.15,152.523c-.174,2.126.86,4.147,1.867,6.034a6.066,6.066,0,0,0-4.971,7.3,2.087,2.087,0,0,1,.081,1.542,1.818,1.818,0,0,1-.86.645,13.692,13.692,0,0,0-7.048,7.45,9.568,9.568,0,0,0,1.911,9.788c2.134,2.138,5.3,2.918,8.319,3.015s6.034-.385,9.057-.349c2.138.024,4.318.308,6.4-.2s4.107-2.078,4.3-4.212c.235-2.625-2.224-4.618-4.435-6.062a6.517,6.517,0,0,0,1.5-8.233c-1.254-2.07-3.555-3.222-5.734-4.273a3.711,3.711,0,0,0,1.526-4.715,6.378,6.378,0,0,0-4.115-3.348,7.211,7.211,0,0,0,2.8-2.248,2.5,2.5,0,0,0-.369-3.279c-.548-.406-1.319-.471-1.712-1.014a4.236,4.236,0,0,1-.406-1.043C62.784,145.564,56.377,149.735,56.15,152.523Z" transform="translate(-27.74 -107.594)" fill="#1f9510"/>
    <path id="Tracé_959" data-name="Tracé 959" d="M398.575,177.943c-1.927,2.155-2.053,5.847.045,7.836-1.071,1.063-2.2,2.268-2.321,3.774-.2,2.589,2.893,4.431,5.45,3.981s4.557-2.378,6.371-4.236a7.97,7.97,0,0,0,8.16,2.362,4.135,4.135,0,0,0,2.2-1.412,3.793,3.793,0,0,0-.357-4.346,11.327,11.327,0,0,0-3.7-2.8,5.938,5.938,0,0,0,3.818-5.166c0-2.268-2.094-4.464-4.342-4.143,2.325-1.595,2.743-5.182,1.217-7.539a7.687,7.687,0,0,0-7.406-3.072c-3.222.43-6.4,3.384-5.648,6.549a4.06,4.06,0,0,0-5.446,1.019,3.679,3.679,0,0,0,1.481,5.194C400.332,176.9,400.15,176.178,398.575,177.943Z" transform="translate(-236.573 -116.678)" fill="#1f9510"/>
    <path id="Tracé_960" data-name="Tracé 960" d="M56.15,152.523c-.174,2.126.86,4.147,1.867,6.034a6.066,6.066,0,0,0-4.971,7.3,2.087,2.087,0,0,1,.081,1.542,1.818,1.818,0,0,1-.86.645,13.692,13.692,0,0,0-7.048,7.45,9.568,9.568,0,0,0,1.911,9.788c2.134,2.138,5.3,2.918,8.319,3.015s6.034-.385,9.057-.349c2.138.024,4.318.308,6.4-.2s4.107-2.078,4.3-4.212c.235-2.625-2.224-4.618-4.435-6.062a6.517,6.517,0,0,0,1.5-8.233c-1.254-2.07-3.555-3.222-5.734-4.273a3.711,3.711,0,0,0,1.526-4.715,6.378,6.378,0,0,0-4.115-3.348,7.211,7.211,0,0,0,2.8-2.248,2.5,2.5,0,0,0-.369-3.279c-.548-.406-1.319-.471-1.712-1.014a4.236,4.236,0,0,1-.406-1.043C62.784,145.564,56.377,149.735,56.15,152.523Z" transform="translate(-27.74 -107.594)" fill="url(#linear-gradient-29)"/>
    <path id="Tracé_961" data-name="Tracé 961" d="M398.575,177.943c-1.927,2.155-2.053,5.847.045,7.836-1.071,1.063-2.2,2.268-2.321,3.774-.2,2.589,2.893,4.431,5.45,3.981s4.557-2.378,6.371-4.236a7.97,7.97,0,0,0,8.16,2.362,4.135,4.135,0,0,0,2.2-1.412,3.793,3.793,0,0,0-.357-4.346,11.327,11.327,0,0,0-3.7-2.8,5.938,5.938,0,0,0,3.818-5.166c0-2.268-2.094-4.464-4.342-4.143,2.325-1.595,2.743-5.182,1.217-7.539a7.687,7.687,0,0,0-7.406-3.072c-3.222.43-6.4,3.384-5.648,6.549a4.06,4.06,0,0,0-5.446,1.019,3.679,3.679,0,0,0,1.481,5.194C400.332,176.9,400.15,176.178,398.575,177.943Z" transform="translate(-236.573 -116.678)" fill="url(#linear-gradient-30)"/>
    <path id="Tracé_962" data-name="Tracé 962" d="M412.291,204.493a20.27,20.27,0,0,0-3.551-3.887l3.559,2.435a1.1,1.1,0,0,0,.653.26c.71-.036.657-1.108.373-1.761l-3.478-7.909a16.032,16.032,0,0,1,4.642,7.438,16.84,16.84,0,0,0,2.325-3.518c.467,1.822-1.014,3.538-1.335,5.393a8.412,8.412,0,0,0,.1,2.666,58.206,58.206,0,0,0,2.958,11.4c-3.693.2-4.3-.13-4.293-3.827C414.247,210.182,413.926,207.078,412.291,204.493Z" transform="translate(-244.092 -134.812)" fill="#1f9510"/>
    <path id="Tracé_963" data-name="Tracé 963" d="M229.356,269.456a8.188,8.188,0,0,1-1.408,3.912c-3.932,6.472-10.774,11.143-13.253,18.3-2.114,6.087-.592,12.908,2.1,18.776s4.159,11.877,6.955,17.7c12.1-.187,39.609,2.569,51.49,4.869-6.131-4-34.492-27.593-38.367-40.891-1.712-5.88,3.762-8.871,2.84-14.929a19.165,19.165,0,0,0-6.675-11.618c-.962-.812-4.086-3.6-5.421-2.41C226.219,264.42,229.4,267.581,229.356,269.456Z" transform="translate(-128.197 -175.955)" fill="#1f9510"/>
    <path id="Tracé_964" data-name="Tracé 964" d="M229.356,269.456a8.188,8.188,0,0,1-1.408,3.912c-3.932,6.472-10.774,11.143-13.253,18.3-2.114,6.087-.592,12.908,2.1,18.776s4.159,11.877,6.955,17.7c12.1-.187,39.609,2.569,51.49,4.869-6.131-4-34.492-27.593-38.367-40.891-1.712-5.88,3.762-8.871,2.84-14.929a19.165,19.165,0,0,0-6.675-11.618c-.962-.812-4.086-3.6-5.421-2.41C226.219,264.42,229.4,267.581,229.356,269.456Z" transform="translate(-128.197 -175.955)" fill="#1f9510"/>
    <path id="Tracé_965" data-name="Tracé 965" d="M72.38,221a1.473,1.473,0,0,0-.122,1.14c.227.475.864.544,1.392.548h3.766a8.647,8.647,0,0,1-.511-4.776c.2-2.435.479-5.028,2.114-6.813,1.2-1.307,2.962-1.976,4.184-3.246-.093-.385-.653-.329-1.023-.183l-4.687,1.867c-1.152-1.8-.941-4.127-.528-6.221s.99-4.269.426-6.318a55.48,55.48,0,0,1-2.22,7.633l-2.029-1.546a15.018,15.018,0,0,0,.459,1.623,5.831,5.831,0,0,1,.592,1.623,26.642,26.642,0,0,1,.195,5.024A30.162,30.162,0,0,1,72.38,221Z" transform="translate(-44.112 -136.814)" fill="#1f9510"/>
    <path id="Tracé_966" data-name="Tracé 966" d="M353.727,70.869a9.516,9.516,0,0,0-4.058,6.545,2.35,2.35,0,0,1-.406,1.25c-.58.653-1.623.353-2.471.13a8.624,8.624,0,0,0-10.084,5.718c-4.253.2-9.252.812-11.3,4.565a3.336,3.336,0,0,0-.479,2.029c.264,1.891,2.593,2.609,4.5,2.816a112.731,112.731,0,0,0,13.2.406c14.008-.114,28.028-.227,41.991-1.307.621-.049,1.347-.158,1.647-.706a1.809,1.809,0,0,0,.11-1.1c-.657-5.624-3.9-10.623-7.625-14.884-2.926-3.344-6.9-6.606-11.285-5.965-2.792.406-3.9.613-6.411-.321A8.144,8.144,0,0,0,353.727,70.869Z" transform="translate(-194.285 -61.07)" fill="#fff"/>
    <path id="Tracé_967" data-name="Tracé 967" d="M74.387,102.07a6.306,6.306,0,0,0,2.029.99c1.822.357,3.429-1.112,5.084-1.96,4.407-2.256,9.739-.105,14.044,2.309a8.615,8.615,0,0,0,2.532,1.088,11.6,11.6,0,0,0,3.088-.081c3.989-.341,7.933.812,11.768,1.98a2.853,2.853,0,0,1,1.725,1.019,2.245,2.245,0,0,1-.223,2.252c-1.656,2.678-5.385,2.934-8.521,2.885L49.366,111.7a8.132,8.132,0,0,1-3.218-.471,4.2,4.2,0,1,1,3.786-7.479C53.8,95.638,68.11,98.138,74.387,102.07Z" transform="translate(-27.12 -78.218)" fill="#fff"/>
    <path id="Tracé_968" data-name="Tracé 968" d="M156.107,252.756a4.938,4.938,0,0,0-2.354,1.952,5.076,5.076,0,0,0-.58.937c-.483,1.067-.406,2.435-1.3,3.2a2.029,2.029,0,0,0,1.307-.552,6.594,6.594,0,0,1-2.078,1.623.73.73,0,0,0,.686.406,2.09,2.09,0,0,0,.812-.211,4.7,4.7,0,0,0,3.218-3.064,6.929,6.929,0,0,0-.459,1.156.434.434,0,0,0,0,.406c.15.183.446,0,.6-.162a20.041,20.041,0,0,1,2.325-2.816c.406-.325.966-.633,1.035-1.165C159.524,252.906,157.146,252.428,156.107,252.756Z" transform="translate(-90.998 -169.887)" fill="#3f3d56"/>
    <path id="Tracé_969" data-name="Tracé 969" d="M401.507,337.078c-.028-.28-.122-.629-.406-.678a11.143,11.143,0,0,0-.6,2.175l-.43,2.126a11.214,11.214,0,0,0-.321,2.617,3.4,3.4,0,0,0,.613,1.956c.276.357,1.116,1.274,1.6.69a7.736,7.736,0,0,0,.349-2.362C402.359,342.807,401.657,338.461,401.507,337.078Z" transform="translate(-238.75 -219.648)" fill="url(#linear-gradient-31)"/>
    <path id="Tracé_970" data-name="Tracé 970" d="M391.636,354.915a10.087,10.087,0,0,1,1.319-.365,2.743,2.743,0,0,1,1.294.353l1.351.617a1.412,1.412,0,0,1,.491.312.487.487,0,0,1,.093.54.686.686,0,0,1-.54.256,7.017,7.017,0,0,1-2.382-.11,13.4,13.4,0,0,1-1.757-.56c-.284-.106-1.023-.325-.97-.726S391.344,354.972,391.636,354.915Z" transform="translate(-233.273 -230.433)" fill="#3f3d56"/>
    <path id="Tracé_971" data-name="Tracé 971" d="M393.136,368.894a.6.6,0,0,0,.057.317.535.535,0,0,0,.317.207,1.693,1.693,0,0,0,1.915-.442,2.5,2.5,0,0,0,.235-1.623c-.179-2.909.54-5.791.775-8.7a6.545,6.545,0,0,0-.17-2.544c-.231-.714-.812-1.424-1.566-1.384-1.392.077-1.436,1.307-1.445,2.349l-.041,3.993Q393.177,364.982,393.136,368.894Z" transform="translate(-234.818 -230.537)" fill="url(#linear-gradient-32)"/>
    <path id="Tracé_972" data-name="Tracé 972" d="M392.114,391.244l.329,1.193a.475.475,0,0,0,.1.219.487.487,0,0,0,.361.1,8.793,8.793,0,0,0,2.65-.467.433.433,0,0,0,.191-.1.446.446,0,0,0,.089-.272,16.612,16.612,0,0,0,.028-2.877,1.7,1.7,0,0,0-.369-1.1.406.406,0,0,0-.191-.122.552.552,0,0,0-.406.158,2.724,2.724,0,0,1-1.457.5,2.2,2.2,0,0,1-.812-.085c-.142-.049-.369-.276-.511-.28C391.177,388.1,391.976,390.753,392.114,391.244Z" transform="translate(-233.946 -250.202)" fill="#3f3d56"/>
    <path id="Tracé_973" data-name="Tracé 973" d="M411.485,413.434a4.434,4.434,0,0,0,2.232.986c1.185.053,2.187-.812,3.291-1.254a15.765,15.765,0,0,1,4.013-.6c3.425-.406,6.493-2.285,9.406-4.111-4-3.652-9.946-3.908-15.042-5.754-1.181-.426-2.325-.945-3.482-1.428a62.007,62.007,0,0,0-6.578-2.321c-.479.317-.187,1.059.154,1.522a35.781,35.781,0,0,0,7.71,7.669c-.917.714-2.248.187-3.246-.406a53.346,53.346,0,0,1-9.276-6.748c-.739-.674-4.058-3.79-4.869-2.106-.653,1.343,3.064,4.127,3.8,4.833A101.351,101.351,0,0,0,411.485,413.434Z" transform="translate(-236.356 -256.48)" fill="url(#linear-gradient-33)"/>
    <path id="Tracé_974" data-name="Tracé 974" d="M159.7,282.267a4.621,4.621,0,0,1,2.41,1.4,5.138,5.138,0,0,1,1.039,2.727c.122.978.1,1.972.211,2.95.1.864.3,1.712.345,2.577a3.835,3.835,0,0,1-.613,2.475c-.925-1.055-.982-2.581-1.217-3.964a11.768,11.768,0,0,0-1.51-4.273,3.481,3.481,0,0,0-1.936-1.716,10.035,10.035,0,0,0-1.4-.122c-.288-.032-.633-.158-.674-.446a.726.726,0,0,1,.081-.365c.211-.523.345-1.319.945-1.505A5.493,5.493,0,0,1,159.7,282.267Z" transform="translate(-94.123 -187.289)" fill="url(#linear-gradient-34)"/>
    <path id="Tracé_975" data-name="Tracé 975" d="M152.857,301.89a3.182,3.182,0,0,0-.966-1.514c-.9-.633-2.134-.179-3.112.321a3.96,3.96,0,0,0-1.144.767,3.555,3.555,0,0,0-.775,1.822,11.28,11.28,0,0,0-.183,2.155,2.962,2.962,0,0,0,.243,1.29,2.678,2.678,0,0,0,1.3,1.108,6.363,6.363,0,0,0,4.683.284,2.435,2.435,0,0,0,1.181-.722c.556-.7-.024-1.684-.2-2.435A22.081,22.081,0,0,0,152.857,301.89Z" transform="translate(-88.369 -198.058)" fill="url(#linear-gradient-35)"/>
    <path id="Tracé_976" data-name="Tracé 976" d="M391.913,238.548a11.9,11.9,0,0,1-.118,1.745,2.782,2.782,0,0,0-.187,1.311,1.477,1.477,0,0,0,.649.783,5.9,5.9,0,0,1,.848.6,2.861,2.861,0,0,1,.67,1.152,2.5,2.5,0,0,0,.361.812,1.477,1.477,0,0,0,.929.491,4.307,4.307,0,0,0,1.071,0l1.189-.1a.962.962,0,0,0,.661-.231c.17-.187.166-.471.292-.69.069-.114.17-.207.231-.325a1.86,1.86,0,0,0,.118-.406c.162-.653.812-1.1.99-1.749.085-.3.073-.621.183-.913.191-.515.714-.836.962-1.327a1.708,1.708,0,0,1-1.124-.548c-.057-.065-.089-.2,0-.215a1.42,1.42,0,0,0,.471.065l-.986-1.189a3.517,3.517,0,0,0-.925-.876,4.677,4.677,0,0,0-2.142-.317.256.256,0,0,1-.158-.041.537.537,0,0,1-.081-.13.471.471,0,0,0-.406-.134,6.542,6.542,0,0,0-2.435.572A1.721,1.721,0,0,0,391.913,238.548Z" transform="translate(-233.891 -160.171)" fill="#3f3d56"/>
  </g>
</svg>
