<svg xmlns="http://www.w3.org/2000/svg" xmlns:xlink="http://www.w3.org/1999/xlink" width="183.668" height="194.951" viewBox="0 0 183.668 194.951">
  <defs>
    <filter id="Tracé_745" x="39.429" y="54.225" width="103.817" height="129.479" filterUnits="userSpaceOnUse">
      <feOffset dy="1" input="SourceAlpha"/>
      <feGaussianBlur stdDeviation="1" result="blur"/>
      <feFlood flood-opacity="0.161"/>
      <feComposite operator="in" in2="blur"/>
      <feComposite in="SourceGraphic"/>
    </filter>
    <filter id="Ellipse_12" x="17.478" y="0" width="147.581" height="147.581" filterUnits="userSpaceOnUse">
      <feOffset dy="1" input="SourceAlpha"/>
      <feGaussianBlur stdDeviation="1" result="blur-2"/>
      <feFlood flood-opacity="0.122"/>
      <feComposite operator="in" in2="blur-2"/>
      <feComposite in="SourceGraphic"/>
    </filter>
  </defs>
  <g id="Groupe_79" data-name="Groupe 79" transform="translate(-114.991 -234)">
    <g id="Groupe_77" data-name="Groupe 77" transform="translate(114.991 252.467)">
      <path id="Tracé_823" data-name="Tracé 823" d="M497.7,584.494s3.5-2.51,7.135-.954c0,0-1.018,2.157-5.535,2.128Z" transform="translate(-442.382 -467.734)" fill="#1f9510"/>
      <path id="Tracé_824" data-name="Tracé 824" d="M496.014,588.09s-.935,4.209,1.909,6.938c0,0,1.591-1.782-.213-5.927Z" transform="translate(-441.133 -471.184)" fill="#1f9510"/>
      <path id="Tracé_825" data-name="Tracé 825" d="M481.75,570s.13-3.553,8.176-2.685a3.819,3.819,0,0,1-2.64,3.477C484.518,571.984,483.2,571.122,481.75,570Z" transform="translate(-431.506 -456.926)" fill="#1f9510"/>
      <path id="Tracé_826" data-name="Tracé 826" d="M476.994,576s-3.34,1.215-.038,8.605a3.807,3.807,0,0,0,2.494-3.585C479.717,578.02,478.5,577.044,476.994,576Z" transform="translate(-427.243 -462.94)" fill="#1f9510"/>
      <path id="Tracé_827" data-name="Tracé 827" d="M465.33,548.907s-.681-5.812,7.52-5.529c0,0,.783,5.255-6.022,6.874Z" transform="translate(-420.301 -440.689)" fill="#1f9510"/>
      <path id="Tracé_828" data-name="Tracé 828" d="M447.58,529.466s.868-6.652,9.117-4.994c0,0,.248,5.726-7.724,6.518Z" transform="translate(-408.206 -427.623)" fill="#1f9510"/>
      <path id="Tracé_829" data-name="Tracé 829" d="M434.35,508.778s1.629-6.521,9.8-4.889c0,0-1.705,5.86-9.225,6.044Z" transform="translate(-399.185 -413.589)" fill="#1f9510"/>
      <path id="Tracé_830" data-name="Tracé 830" d="M421.76,487.978s1.591-6.75,9.47-5.042c0,0-2.367,6.445-8.907,6.162Z" transform="translate(-390.6 -399.292)" fill="#1f9510"/>
      <path id="Tracé_831" data-name="Tracé 831" d="M413.39,465.074s1.1-8.217,8.465-6.7c0,0-1.832,7.514-7.877,7.864Z" transform="translate(-384.893 -382.607)" fill="#1f9510"/>
      <path id="Tracé_832" data-name="Tracé 832" d="M405.35,442.12s1.377-8.3,8.837-6.187c0,0-2.593,7.893-8.271,7.317Z" transform="translate(-379.411 -367.195)" fill="#1f9510"/>
      <path id="Tracé_833" data-name="Tracé 833" d="M400.08,416.135s2.373-8.338,8.087-8.335c0,0-2.418,8.8-7.546,9.967Z" transform="translate(-375.817 -348.247)" fill="#1f9510"/>
      <path id="Tracé_834" data-name="Tracé 834" d="M396.45,392.026s2.545-10.024,7.215-9.439c0,0-1.734,7.654-7,10.975Z" transform="translate(-373.342 -331.038)" fill="#1f9510"/>
      <path id="Tracé_835" data-name="Tracé 835" d="M393.86,367.349s2.424-8.367,7-8.869c0,0-1.556,8.2-6.811,11.01Z" transform="translate(-371.576 -314.617)" fill="#1f9510"/>
      <path id="Tracé_836" data-name="Tracé 836" d="M391.19,343.561s3.1-8.4,6.124-8.7c0,0-1.174,8.2-5.771,10.046Z" transform="translate(-369.755 -298.511)" fill="#1f9510"/>
      <path id="Tracé_837" data-name="Tracé 837" d="M389.13,318.442s1.759-9.063,4.753-9.922c0,0-.13,7.361-4.422,10.581Z" transform="translate(-368.35 -280.55)" fill="#1f9510"/>
      <path id="Tracé_838" data-name="Tracé 838" d="M384.42,292.277s1.937-7.244,4.346-8.427c0,0-.162,8.456-3.709,10.154Z" transform="translate(-365.139 -263.728)" fill="#1f9510"/>
      <path id="Tracé_839" data-name="Tracé 839" d="M378.719,264.047l-.929-12.607s4.934,9.353,1.339,14.812Z" transform="translate(-360.618 -241.628)" fill="#1f9510"/>
      <path id="Tracé_840" data-name="Tracé 840" d="M358.534,231.542s-3.646-9.089-4.454-9.572c0,0,6.681,5.726,6.362,13.447Z" transform="translate(-344.451 -221.533)" fill="#1f9510"/>
      <path id="Tracé_841" data-name="Tracé 841" d="M453.139,560.655s-5.828-.534-5.341,7.654c0,0,5.274.636,6.725-6.191Z" transform="translate(-408.336 -452.471)" fill="#1f9510"/>
      <path id="Tracé_842" data-name="Tracé 842" d="M434.018,540.08s-6.7.235-5.834,8.589c0,0,5.663.789,7.218-7.068Z" transform="translate(-394.927 -438.447)" fill="#1f9510"/>
      <path id="Tracé_843" data-name="Tracé 843" d="M413.194,520.591s-6.194-2.621-9.8,4.889c0,0,5.71,2.163,10.387-3.722Z" transform="translate(-378.074 -424.855)" fill="#1f9510"/>
      <path id="Tracé_844" data-name="Tracé 844" d="M400.488,498.468s-6.346-2.8-9.728,4.536c0,0,6.576,1.985,10.285-3.417Z" transform="translate(-369.462 -409.715)" fill="#1f9510"/>
      <path id="Tracé_845" data-name="Tracé 845" d="M390.565,475.434s-6.213-5.5-10.775.477c0,0,6.305,4.476,11.1.786Z" transform="translate(-361.982 -392.792)" fill="#1f9510"/>
      <path id="Tracé_846" data-name="Tracé 846" d="M383.318,450.516s-6.257-5.628-10.768.681c0,0,6.954,4.546,11.029.538Z" transform="translate(-357.045 -375.799)" fill="#1f9510"/>
      <path id="Tracé_847" data-name="Tracé 847" d="M379.853,421.174s-4.928-7.132-10.332-5.293c0,0,5.115,7.559,10.345,7Z" transform="translate(-354.979 -353.551)" fill="#1f9510"/>
      <path id="Tracé_848" data-name="Tracé 848" d="M376.72,396.084s-5.036-9.035-9.4-7.266c0,0,3.646,6.951,9.582,8.809Z" transform="translate(-353.479 -335.147)" fill="#1f9510"/>
      <path id="Tracé_849" data-name="Tracé 849" d="M374.313,371.734s-5.09-7.065-9.563-6.006c0,0,4.212,7.2,10.11,8.087Z" transform="translate(-351.726 -319.485)" fill="#1f9510"/>
      <path id="Tracé_850" data-name="Tracé 850" d="M377.6,344.593s-4.04-7.991-7.078-7.953c0,0,2.1,8.01,6.878,9.324Z" transform="translate(-355.661 -299.724)" fill="#1f9510"/>
      <path id="Tracé_851" data-name="Tracé 851" d="M373.338,322.033s-4.454-8.08-7.578-7.975c0,0,2.392,6.964,7.466,8.707Z" transform="translate(-352.415 -284.326)" fill="#1f9510"/>
      <path id="Tracé_852" data-name="Tracé 852" d="M373.8,296.041s-3.362-6.7-5.958-7.371c0,0,1.867,8.249,5.688,9.194Z" transform="translate(-353.833 -267.015)" fill="#1f9510"/>
      <path id="Tracé_853" data-name="Tracé 853" d="M363.8,268.294,356.46,258s2.176,10.345,8.424,12.264Z" transform="translate(-346.073 -246.102)" fill="#1f9510"/>
      <path id="Tracé_854" data-name="Tracé 854" d="M344.779,241.767s-8.271-5.252-8.589-6.137c0,0,4.409,7.635,12.057,8.713Z" transform="translate(-332.252 -230.848)" fill="#1f9510"/>
      <path id="Tracé_855" data-name="Tracé 855" d="M335.759,229.035S326.17,220.5,323.81,220.6a15.116,15.116,0,0,1,12.152,7.953Z" transform="translate(-323.81 -220.597)" fill="#1f9510"/>
      <path id="Tracé_856" data-name="Tracé 856" d="M368.578,267.5l-.337.057c-2.259-13.536-5.09-21.479-8-22.364l.1-.318C363.415,245.809,366.262,253.638,368.578,267.5Z" transform="translate(-348.651 -237.155)" fill="#1f9510"/>
      <path id="Tracé_857" data-name="Tracé 857" d="M389.28,346.274l-.506.064c-.156-1.272-.286-2.564-.394-3.856-.916-11.242-2.065-21.553-3.35-29.267l.28-.375c1.272,7.727,2.663,18.343,3.582,29.585C388.994,343.726,389.127,345.021,389.28,346.274Z" transform="translate(-365.555 -283.496)" fill="#1f9510"/>
      <path id="Tracé_858" data-name="Tracé 858" d="M438.393,476a66.335,66.335,0,0,1-18.874-12.884,73.923,73.923,0,0,1-14.14-18.489c-4.635-8.589-7.67-19.253-8.949-29.674l.541.229c2.863,23.388,14.169,39.02,23,47.419a65.824,65.824,0,0,0,18.674,12.766Z" transform="translate(-373.328 -353.123)" fill="#1f9510"/>
    </g>
    <g id="Groupe_78" data-name="Groupe 78" transform="translate(233.346 252.467)">
      <path id="Tracé_823-2" data-name="Tracé 823" d="M504.835,584.494s-3.5-2.51-7.135-.954c0,0,1.018,2.157,5.535,2.128Z" transform="translate(-494.84 -467.734)" fill="#1f9510"/>
      <path id="Tracé_824-2" data-name="Tracé 824" d="M498.424,588.09s.935,4.209-1.909,6.938c0,0-1.591-1.782.213-5.927Z" transform="translate(-487.993 -471.184)" fill="#1f9510"/>
      <path id="Tracé_825-2" data-name="Tracé 825" d="M489.927,570s-.13-3.553-8.176-2.685a3.819,3.819,0,0,0,2.64,3.477C487.159,571.984,488.479,571.122,489.927,570Z" transform="translate(-474.857 -456.926)" fill="#1f9510"/>
      <path id="Tracé_826-2" data-name="Tracé 826" d="M477.991,576s3.34,1.215.038,8.605a3.806,3.806,0,0,1-2.494-3.585C475.268,578.02,476.483,577.044,477.991,576Z" transform="translate(-462.428 -462.94)" fill="#1f9510"/>
      <path id="Tracé_827-2" data-name="Tracé 827" d="M472.864,548.907s.681-5.812-7.52-5.529c0,0-.783,5.255,6.022,6.874Z" transform="translate(-452.581 -440.689)" fill="#1f9510"/>
      <path id="Tracé_828-2" data-name="Tracé 828" d="M456.7,529.466s-.868-6.652-9.117-4.994c0,0-.248,5.726,7.724,6.518Z" transform="translate(-430.759 -427.623)" fill="#1f9510"/>
      <path id="Tracé_829-2" data-name="Tracé 829" d="M444.151,508.778s-1.629-6.521-9.8-4.889c0,0,1.705,5.86,9.225,6.044Z" transform="translate(-414.003 -413.589)" fill="#1f9510"/>
      <path id="Tracé_830-2" data-name="Tracé 830" d="M431.23,487.978s-1.591-6.75-9.47-5.042c0,0,2.367,6.445,8.907,6.162Z" transform="translate(-397.077 -399.292)" fill="#1f9510"/>
      <path id="Tracé_831-2" data-name="Tracé 831" d="M421.855,465.074s-1.1-8.217-8.465-6.7c0,0,1.832,7.514,7.877,7.864Z" transform="translate(-385.039 -382.607)" fill="#1f9510"/>
      <path id="Tracé_832-2" data-name="Tracé 832" d="M414.187,442.12s-1.377-8.3-8.837-6.187c0,0,2.593,7.893,8.271,7.317Z" transform="translate(-374.814 -367.195)" fill="#1f9510"/>
      <path id="Tracé_833-2" data-name="Tracé 833" d="M408.167,416.135s-2.373-8.338-8.087-8.335c0,0,2.418,8.8,7.546,9.967Z" transform="translate(-367.117 -348.247)" fill="#1f9510"/>
      <path id="Tracé_834-2" data-name="Tracé 834" d="M403.665,392.026S401.12,382,396.45,382.587c0,0,1.734,7.654,7,10.975Z" transform="translate(-361.46 -331.038)" fill="#1f9510"/>
      <path id="Tracé_835-2" data-name="Tracé 835" d="M400.859,367.349s-2.424-8.367-7-8.869c0,0,1.556,8.2,6.811,11.01Z" transform="translate(-357.83 -314.617)" fill="#1f9510"/>
      <path id="Tracé_836-2" data-name="Tracé 836" d="M397.314,343.561s-3.1-8.4-6.124-8.7c0,0,1.174,8.2,5.771,10.046Z" transform="translate(-353.436 -298.511)" fill="#1f9510"/>
      <path id="Tracé_837-2" data-name="Tracé 837" d="M393.883,318.442s-1.759-9.063-4.753-9.922c0,0,.13,7.361,4.422,10.581Z" transform="translate(-349.349 -280.55)" fill="#1f9510"/>
      <path id="Tracé_838-2" data-name="Tracé 838" d="M388.766,292.277s-1.937-7.244-4.345-8.427c0,0,.162,8.456,3.709,10.154Z" transform="translate(-342.734 -263.728)" fill="#1f9510"/>
      <path id="Tracé_839-2" data-name="Tracé 839" d="M379.512,264.047l.929-12.607s-4.934,9.353-1.339,14.812Z" transform="translate(-332.3 -241.628)" fill="#1f9510"/>
      <path id="Tracé_840-2" data-name="Tracé 840" d="M356,231.542s3.646-9.089,4.454-9.572c0,0-6.68,5.726-6.362,13.447Z" transform="translate(-304.77 -221.533)" fill="#1f9510"/>
      <path id="Tracé_841-2" data-name="Tracé 841" d="M449.153,560.655s5.828-.534,5.341,7.654c0,0-5.274.636-6.725-6.191Z" transform="translate(-428.644 -452.471)" fill="#1f9510"/>
      <path id="Tracé_842-2" data-name="Tracé 842" d="M429.49,540.08s6.7.235,5.834,8.589c0,0-5.663.789-7.218-7.068Z" transform="translate(-403.267 -438.447)" fill="#1f9510"/>
      <path id="Tracé_843-2" data-name="Tracé 843" d="M403.972,520.591s6.194-2.621,9.8,4.889c0,0-5.71,2.163-10.387-3.722Z" transform="translate(-373.779 -424.855)" fill="#1f9510"/>
      <path id="Tracé_844-2" data-name="Tracé 844" d="M391.317,498.468s6.347-2.8,9.728,4.536c0,0-6.575,1.985-10.285-3.417Z" transform="translate(-357.03 -409.715)" fill="#1f9510"/>
      <path id="Tracé_845-2" data-name="Tracé 845" d="M380.115,475.434s6.213-5.5,10.775.477c0,0-6.305,4.476-11.1.786Z" transform="translate(-343.384 -392.792)" fill="#1f9510"/>
      <path id="Tracé_846-2" data-name="Tracé 846" d="M372.811,450.516s6.257-5.628,10.768.681c0,0-6.954,4.546-11.029.538Z" transform="translate(-333.771 -375.799)" fill="#1f9510"/>
      <path id="Tracé_847-2" data-name="Tracé 847" d="M369.533,421.174s4.928-7.132,10.332-5.293c0,0-5.115,7.559-10.345,7Z" transform="translate(-329.093 -353.551)" fill="#1f9510"/>
      <path id="Tracé_848-2" data-name="Tracé 848" d="M367.5,396.084s5.036-9.035,9.4-7.266c0,0-3.646,6.951-9.582,8.809Z" transform="translate(-325.43 -335.147)" fill="#1f9510"/>
      <path id="Tracé_849-2" data-name="Tracé 849" d="M365.3,371.734s5.09-7.065,9.563-6.006c0,0-4.212,7.2-10.11,8.087Z" transform="translate(-322.571 -319.485)" fill="#1f9510"/>
      <path id="Tracé_850-2" data-name="Tracé 850" d="M370.52,344.593s4.04-7.991,7.078-7.953c0,0-2.1,8.01-6.878,9.324Z" transform="translate(-327.144 -299.724)" fill="#1f9510"/>
      <path id="Tracé_851-2" data-name="Tracé 851" d="M365.76,322.033s4.454-8.08,7.578-7.975c0,0-2.392,6.964-7.466,8.707Z" transform="translate(-321.37 -284.326)" fill="#1f9510"/>
      <path id="Tracé_852-2" data-name="Tracé 852" d="M367.84,296.041s3.362-6.7,5.958-7.371c0,0-1.867,8.249-5.688,9.194Z" transform="translate(-322.492 -267.015)" fill="#1f9510"/>
      <path id="Tracé_853-2" data-name="Tracé 853" d="M357.548,268.294,364.884,258s-2.176,10.345-8.424,12.264Z" transform="translate(-309.957 -246.102)" fill="#1f9510"/>
      <path id="Tracé_854-2" data-name="Tracé 854" d="M339.658,241.767s8.271-5.252,8.589-6.137c0,0-4.409,7.635-12.057,8.713Z" transform="translate(-286.872 -230.848)" fill="#1f9510"/>
      <path id="Tracé_855-2" data-name="Tracé 855" d="M324.014,229.035s9.588-8.535,11.949-8.437a15.116,15.116,0,0,0-12.152,7.953Z" transform="translate(-270.649 -220.597)" fill="#1f9510"/>
      <path id="Tracé_856-2" data-name="Tracé 856" d="M360.24,267.5l.337.057c2.259-13.536,5.09-21.479,8-22.364l-.1-.318C365.4,245.809,362.556,253.638,360.24,267.5Z" transform="translate(-314.854 -237.155)" fill="#1f9510"/>
      <path id="Tracé_857-2" data-name="Tracé 857" d="M385.03,346.274l.506.064c.156-1.272.286-2.564.394-3.856.916-11.242,2.065-21.553,3.35-29.267l-.28-.375c-1.272,7.727-2.663,18.343-3.582,29.585C385.316,343.726,385.183,345.021,385.03,346.274Z" transform="translate(-343.442 -283.496)" fill="#1f9510"/>
      <path id="Tracé_858-2" data-name="Tracé 858" d="M396.678,476a66.335,66.335,0,0,0,18.874-12.884,73.924,73.924,0,0,0,14.14-18.489c4.635-8.589,7.67-19.253,8.949-29.674l-.541.229c-2.863,23.388-14.169,39.02-23,47.419a65.825,65.825,0,0,1-18.674,12.766Z" transform="translate(-396.43 -353.123)" fill="#1f9510"/>
    </g>
    <g id="Groupe_76" data-name="Groupe 76" transform="translate(129.342 236)">
      <g id="bookmark-24px" transform="translate(0 38.978)">
        <path id="Tracé_744" data-name="Tracé 744" d="M0,0H153.972V153.972H0Z" fill="none"/>
        <g transform="matrix(1, 0, 0, 1, -14.35, -40.98)" filter="url(#Tracé_745)">
          <g id="Tracé_745-2" data-name="Tracé 745" transform="translate(41.43 57.22)" fill="#e8f4e6" stroke-linejoin="round">
            <path d="M 96.81723022460938 121.5123596191406 L 94.02939605712891 120.3175582885742 L 49.90861129760742 101.4086685180664 L 5.787827968597412 120.3175582885742 L 2.999994516372681 121.5123596191406 L 2.999994516372681 118.4792709350586 L 2.999994516372681 15.83103942871094 C 2.999994516372681 13.83632278442383 3.394211292266846 11.89700603485107 4.171678066253662 10.06695556640625 C 4.920994758605957 8.303189277648926 5.991978168487549 6.717822551727295 7.354894638061523 5.35490608215332 C 8.717811584472656 3.991989374160767 10.30317783355713 2.921005964279175 12.06694507598877 2.17168927192688 C 13.89699459075928 1.394222617149353 15.83631134033203 1.000005960464478 17.83102798461914 1.000005960464478 L 81.98619842529297 1.000005960464478 C 83.98091125488281 1.000005960464478 85.92022705078125 1.394222617149353 87.75027465820313 2.17168927192688 C 89.51404571533203 2.921005964279175 91.09941101074219 3.991989374160767 92.46232604980469 5.35490608215332 C 93.82524108886719 6.717822551727295 94.89622497558594 8.303189277648926 95.64554595947266 10.06695556640625 C 96.42301177978516 11.89700603485107 96.81723022460938 13.83632278442383 96.81723022460938 15.83103942871094 L 96.81723022460938 118.4792709350586 L 96.81723022460938 121.5123596191406 Z" stroke="none"/>
            <path d="M 17.83103179931641 3 C 10.77395629882813 3 4.999992370605469 8.773963928222656 4.999992370605469 15.83102416992188 L 4.999992370605469 118.4792785644531 L 49.90861129760742 99.23274993896484 L 94.81721496582031 118.4792785644531 L 94.81721496582031 15.83102416992188 C 94.81721496582031 8.773963928222656 89.04324340820313 3 81.98619079589844 3 L 17.83103179931641 3 M 17.83103179931641 -1 L 81.98619079589844 -1 C 84.25112152099609 -1 86.45353698730469 -0.552215576171875 88.53228759765625 0.3309097290039063 C 90.53328704833984 1.180999755859375 92.33135986328125 2.395515441894531 93.87651824951172 3.940696716308594 C 95.42169952392578 5.485855102539063 96.63621520996094 7.283927917480469 97.48630523681641 9.284927368164063 C 98.36943054199219 11.36367797851563 98.81721496582031 13.56609344482422 98.81721496582031 15.83102416992188 L 98.81721496582031 118.4792785644531 C 98.81721496582031 119.8238372802734 98.14168548583984 121.0784606933594 97.01917266845703 121.8186416625977 C 96.35576629638672 122.2560882568359 95.58851623535156 122.4792938232422 94.81691741943359 122.4792938232422 C 94.28295135498047 122.4792938232422 93.74700164794922 122.3724822998047 93.24153900146484 122.1558609008789 L 49.90861129760742 103.5846176147461 L 6.575668334960938 122.1558609008789 C 6.070281982421875 122.3724517822266 5.5341796875 122.4792938232422 5.000282287597656 122.4792938232422 C 4.228607177734375 122.4792938232422 3.461502075195313 122.2561340332031 2.798027038574219 121.8186416625977 C 1.675521850585938 121.0784606933594 0.9999923706054688 119.8238372802734 0.9999923706054688 118.4792785644531 L 0.9999923706054688 15.83102416992188 C 0.9999923706054688 13.56609344482422 1.447776794433594 11.36365509033203 2.330902099609375 9.284927368164063 C 3.181015014648438 7.283927917480469 4.395500183105469 5.485855102539063 5.940681457519531 3.940696716308594 C 7.485862731933594 2.395515441894531 9.283920288085938 1.180999755859375 11.28491973876953 0.3309097290039063 C 13.36366271972656 -0.552215576171875 15.56610107421875 -1 17.83103179931641 -1 Z" stroke="none" fill="#fff"/>
          </g>
        </g>
        <path id="Tracé_746" data-name="Tracé 746" d="M23.365,0A5.515,5.515,0,0,1,28.88,5.515V82.727c0,3.046-28.1-13.987-28.1-13.987V0Z" transform="translate(77.483 32.444)" fill="#1f9510"/>
      </g>
      <g id="Groupe_29" data-name="Groupe 29" transform="translate(6.127 0)">
        <g transform="matrix(1, 0, 0, 1, -20.48, -2)" filter="url(#Ellipse_12)">
          <g id="Ellipse_12-2" data-name="Ellipse 12" transform="translate(20.48 2)" fill="#e8f4e6" stroke="#fff" stroke-width="4">
            <circle cx="70.79" cy="70.79" r="70.79" stroke="none"/>
            <circle cx="70.79" cy="70.79" r="68.79" fill="none"/>
          </g>
        </g>
        <path id="Tracé_750" data-name="Tracé 750" d="M11,0a44.894,44.894,0,0,1,0,89.788C11.1.443,11,89.953,11,0Z" transform="translate(61.737 23.487)" fill="#1f9510"/>
      </g>
    </g>
  </g>
</svg>
