<svg xmlns="http://www.w3.org/2000/svg" xmlns:xlink="http://www.w3.org/1999/xlink" width="183.668" height="194.951" viewBox="0 0 183.668 194.951">
<defs><style>.cls-1{fill:#007bff;}.cls-2,.cls-5{fill:none;}.cls-3{fill:#e7eff2;}.cls-4{fill:#fff;}.cls-5{stroke:#fff;stroke-width:4px;}</style></defs><title>qualité</title><g id="Groupe_77" data-name="Groupe 77"><path id="Tracé_823" data-name="Tracé 823" class="cls-1" d="M55.67,134.23s3.5-2.51,7.13-1c0,0-1,2.16-5.53,2.13Z" transform="translate(-0.35 -1)"/><path id="Tracé_824" data-name="Tracé 824" class="cls-1" d="M55.23,134.37s-.94,4.21,1.91,6.94c0,0,1.59-1.78-.22-5.93Z" transform="translate(-0.35 -1)"/><path id="Tracé_825" data-name="Tracé 825" class="cls-1" d="M50.59,130.54s.13-3.55,8.18-2.68a3.82,3.82,0,0,1-2.64,3.47C53.36,132.53,52,131.66,50.59,130.54Z" transform="translate(-0.35 -1)"/><path id="Tracé_826" data-name="Tracé 826" class="cls-1" d="M50.1,130.53s-3.34,1.21,0,8.6a3.79,3.79,0,0,0,2.49-3.58C52.82,132.55,51.6,131.57,50.1,130.53Z" transform="translate(-0.35 -1)"/><path id="Tracé_827" data-name="Tracé 827" class="cls-1" d="M45.38,125.69s-.68-5.82,7.52-5.53c0,0,.78,5.25-6,6.87Z" transform="translate(-0.35 -1)"/><path id="Tracé_828" data-name="Tracé 828" class="cls-1" d="M39.72,119.31s.87-6.65,9.12-5c0,0,.25,5.72-7.73,6.51Z" transform="translate(-0.35 -1)"/><path id="Tracé_829" data-name="Tracé 829" class="cls-1" d="M35.51,112.66s1.63-6.52,9.8-4.89c0,0-1.7,5.86-9.22,6Z" transform="translate(-0.35 -1)"/><path id="Tracé_830" data-name="Tracé 830" class="cls-1" d="M31.51,106.15s1.59-6.75,9.47-5c0,0-2.37,6.45-8.91,6.16Z" transform="translate(-0.35 -1)"/><path id="Tracé_831" data-name="Tracé 831" class="cls-1" d="M28.84,99.93s1.1-8.21,8.47-6.7c0,0-1.83,7.52-7.88,7.87Z" transform="translate(-0.35 -1)"/><path id="Tracé_832" data-name="Tracé 832" class="cls-1" d="M26.29,92.39s1.37-8.3,8.83-6.18c0,0-2.59,7.89-8.27,7.31Z" transform="translate(-0.35 -1)"/><path id="Tracé_833" data-name="Tracé 833" class="cls-1" d="M24.61,85.36S27,77,32.7,77c0,0-2.42,8.8-7.55,10Z" transform="translate(-0.35 -1)"/><path id="Tracé_834" data-name="Tracé 834" class="cls-1" d="M23.46,78.46S26,68.43,30.67,69c0,0-1.73,7.65-7,11Z" transform="translate(-0.35 -1)"/><path id="Tracé_835" data-name="Tracé 835" class="cls-1" d="M22.63,70.2s2.43-8.37,7-8.87c0,0-1.55,8.2-6.81,11Z" transform="translate(-0.35 -1)"/><path id="Tracé_836" data-name="Tracé 836" class="cls-1" d="M21.78,62.52s3.1-8.4,6.13-8.7c0,0-1.18,8.2-5.77,10Z" transform="translate(-0.35 -1)"/><path id="Tracé_837" data-name="Tracé 837" class="cls-1" d="M21.13,55.36s1.76-9.06,4.75-9.92c0,0-.13,7.36-4.42,10.58Z" transform="translate(-0.35 -1)"/><path id="Tracé_838" data-name="Tracé 838" class="cls-1" d="M19.63,46s1.94-7.25,4.34-8.43c0,0-.16,8.46-3.7,10.15Z" transform="translate(-0.35 -1)"/><path id="Tracé_839" data-name="Tracé 839" class="cls-1" d="M18.45,39.89l-.93-12.61s4.93,9.35,1.34,14.81Z" transform="translate(-0.35 -1)"/><path id="Tracé_840" data-name="Tracé 840" class="cls-1" d="M14.43,27.48S10.78,18.39,10,17.9c0,0,6.68,5.73,6.36,13.45Z" transform="translate(-0.35 -1)"/><path id="Tracé_841" data-name="Tracé 841" class="cls-1" d="M45.15,125.65s-5.83-.53-5.34,7.66c0,0,5.27.63,6.72-6.2Z" transform="translate(-0.35 -1)"/><path id="Tracé_842" data-name="Tracé 842" class="cls-1" d="M39.44,119.1s-6.7.24-5.84,8.59c0,0,5.67.79,7.22-7.07Z" transform="translate(-0.35 -1)"/><path id="Tracé_843" data-name="Tracé 843" class="cls-1" d="M35.47,113.2s-6.2-2.62-9.8,4.89c0,0,5.71,2.17,10.38-3.72Z" transform="translate(-0.35 -1)"/><path id="Tracé_844" data-name="Tracé 844" class="cls-1" d="M31.37,106.22s-6.34-2.8-9.72,4.54c0,0,6.57,2,10.28-3.42Z" transform="translate(-0.35 -1)"/><path id="Tracé_845" data-name="Tracé 845" class="cls-1" d="M28.93,100.11s-6.21-5.5-10.77.48c0,0,6.3,4.47,11.1.78Z" transform="translate(-0.35 -1)"/><path id="Tracé_846" data-name="Tracé 846" class="cls-1" d="M26.62,92.18s-6.26-5.62-10.77.69c0,0,7,4.54,11,.53Z" transform="translate(-0.35 -1)"/><path id="Tracé_847" data-name="Tracé 847" class="cls-1" d="M25.22,85.09S20.29,78,14.89,79.8c0,0,5.11,7.56,10.34,7Z" transform="translate(-0.35 -1)"/><path id="Tracé_848" data-name="Tracé 848" class="cls-1" d="M23.59,78.4s-5-9-9.4-7.26c0,0,3.64,7,9.58,8.81Z" transform="translate(-0.35 -1)"/><path id="Tracé_849" data-name="Tracé 849" class="cls-1" d="M22.93,69.72s-5.09-7.07-9.56-6c0,0,4.21,7.2,10.11,8.09Z" transform="translate(-0.35 -1)"/><path id="Tracé_850" data-name="Tracé 850" class="cls-1" d="M22.29,62.34s-4-8-7.08-8c0,0,2.1,8,6.88,9.33Z" transform="translate(-0.35 -1)"/><path id="Tracé_851" data-name="Tracé 851" class="cls-1" d="M21.27,55.17s-4.45-8.08-7.58-8c0,0,2.39,7,7.47,8.71Z" transform="translate(-0.35 -1)"/><path id="Tracé_852" data-name="Tracé 852" class="cls-1" d="M20.31,46.49s-3.36-6.7-5.95-7.37c0,0,1.86,8.25,5.68,9.2Z" transform="translate(-0.35 -1)"/><path id="Tracé_853" data-name="Tracé 853" class="cls-1" d="M18.07,39.66,10.73,29.37s2.18,10.34,8.43,12.26Z" transform="translate(-0.35 -1)"/><path id="Tracé_854" data-name="Tracé 854" class="cls-1" d="M12.87,28.39S4.6,23.13,4.29,22.25c0,0,4.4,7.63,12.05,8.71Z" transform="translate(-0.35 -1)"/><path id="Tracé_855" data-name="Tracé 855" class="cls-1" d="M12.3,25.91s-9.59-8.54-12-8.44a15.11,15.11,0,0,1,12.15,8Z" transform="translate(-0.35 -1)"/><path id="Tracé_856" data-name="Tracé 856" class="cls-1" d="M20.27,47.81l-.33.06c-2.26-13.54-5.09-21.48-8-22.36l.1-.32C15.11,26.12,18,34,20.27,47.81Z" transform="translate(-0.35 -1)"/><path id="Tracé_857" data-name="Tracé 857" class="cls-1" d="M24.07,80.25l-.5.06c-.16-1.27-.29-2.56-.4-3.86-.91-11.24-2.06-21.55-3.35-29.26l.28-.38c1.27,7.73,2.67,18.34,3.58,29.59C23.79,77.7,23.92,79,24.07,80.25Z" transform="translate(-0.35 -1)"/><path id="Tracé_858" data-name="Tracé 858" class="cls-1" d="M65.41,140.34a66.39,66.39,0,0,1-18.87-12.88A74.05,74.05,0,0,1,32.4,109c-4.64-8.59-7.67-19.25-8.95-29.67l.54.23c2.86,23.38,14.17,39,23,47.42a65.73,65.73,0,0,0,18.67,12.76Z" transform="translate(-0.35 -1)"/></g><g id="Groupe_78" data-name="Groupe 78"><path id="Tracé_823-2" data-name="Tracé 823-2" class="cls-1" d="M128.7,134.23s-3.5-2.51-7.14-1c0,0,1,2.16,5.54,2.13Z" transform="translate(-0.35 -1)"/><path id="Tracé_824-2" data-name="Tracé 824-2" class="cls-1" d="M129.13,134.37s.94,4.21-1.91,6.94c0,0-1.59-1.78.22-5.93Z" transform="translate(-0.35 -1)"/><path id="Tracé_825-2" data-name="Tracé 825-2" class="cls-1" d="M133.77,130.54s-.13-3.55-8.17-2.68a3.81,3.81,0,0,0,2.64,3.47C131,132.53,132.32,131.66,133.77,130.54Z" transform="translate(-0.35 -1)"/><path id="Tracé_826-2" data-name="Tracé 826-2" class="cls-1" d="M134.27,130.53s3.34,1.21,0,8.6a3.79,3.79,0,0,1-2.49-3.58C131.54,132.55,132.76,131.57,134.27,130.53Z" transform="translate(-0.35 -1)"/><path id="Tracé_827-2" data-name="Tracé 827-2" class="cls-1" d="M139,125.69s.68-5.82-7.52-5.53c0,0-.79,5.25,6,6.87Z" transform="translate(-0.35 -1)"/><path id="Tracé_828-2" data-name="Tracé 828-2" class="cls-1" d="M144.64,119.31s-.86-6.65-9.11-5c0,0-.25,5.72,7.72,6.51Z" transform="translate(-0.35 -1)"/><path id="Tracé_829-2" data-name="Tracé 829-2" class="cls-1" d="M148.85,112.66s-1.63-6.52-9.8-4.89c0,0,1.71,5.86,9.23,6Z" transform="translate(-0.35 -1)"/><path id="Tracé_830-2" data-name="Tracé 830-2" class="cls-1" d="M152.86,106.15s-1.6-6.75-9.47-5c0,0,2.36,6.45,8.9,6.16Z" transform="translate(-0.35 -1)"/><path id="Tracé_831-2" data-name="Tracé 831-2" class="cls-1" d="M155.52,99.93s-1.1-8.21-8.47-6.7c0,0,1.84,7.52,7.88,7.87Z" transform="translate(-0.35 -1)"/><path id="Tracé_832-2" data-name="Tracé 832-2" class="cls-1" d="M158.08,92.39s-1.38-8.3-8.84-6.18c0,0,2.59,7.89,8.27,7.31Z" transform="translate(-0.35 -1)"/><path id="Tracé_833-2" data-name="Tracé 833-2" class="cls-1" d="M159.75,85.36S157.38,77,151.67,77c0,0,2.41,8.8,7.54,10Z" transform="translate(-0.35 -1)"/><path id="Tracé_834-2" data-name="Tracé 834-2" class="cls-1" d="M160.91,78.46s-2.55-10-7.22-9.44c0,0,1.74,7.65,7,11Z" transform="translate(-0.35 -1)"/><path id="Tracé_835-2" data-name="Tracé 835-2" class="cls-1" d="M161.73,70.2s-2.42-8.37-7-8.87c0,0,1.56,8.2,6.81,11Z" transform="translate(-0.35 -1)"/><path id="Tracé_836-2" data-name="Tracé 836-2" class="cls-1" d="M162.58,62.52s-3.1-8.4-6.12-8.7c0,0,1.17,8.2,5.77,10Z" transform="translate(-0.35 -1)"/><path id="Tracé_837-2" data-name="Tracé 837-2" class="cls-1" d="M163.24,55.36s-1.76-9.06-4.76-9.92c0,0,.13,7.36,4.43,10.58Z" transform="translate(-0.35 -1)"/><path id="Tracé_838-2" data-name="Tracé 838-2" class="cls-1" d="M164.73,46s-1.93-7.25-4.34-8.43c0,0,.16,8.46,3.71,10.15Z" transform="translate(-0.35 -1)"/><path id="Tracé_839-2" data-name="Tracé 839-2" class="cls-1" d="M165.91,39.89l.93-12.61s-4.93,9.35-1.34,14.81Z" transform="translate(-0.35 -1)"/><path id="Tracé_840-2" data-name="Tracé 840-2" class="cls-1" d="M169.93,27.48s3.65-9.09,4.46-9.58c0,0-6.68,5.73-6.37,13.45Z" transform="translate(-0.35 -1)"/><path id="Tracé_841-2" data-name="Tracé 841-2" class="cls-1" d="M139.21,125.65s5.83-.53,5.34,7.66c0,0-5.27.63-6.72-6.2Z" transform="translate(-0.35 -1)"/><path id="Tracé_842-2" data-name="Tracé 842-2" class="cls-1" d="M144.93,119.1s6.7.24,5.83,8.59c0,0-5.66.79-7.22-7.07Z" transform="translate(-0.35 -1)"/><path id="Tracé_843-2" data-name="Tracé 843-2" class="cls-1" d="M148.9,113.2s6.19-2.62,9.8,4.89c0,0-5.71,2.17-10.39-3.72Z" transform="translate(-0.35 -1)"/><path id="Tracé_844-2" data-name="Tracé 844-2" class="cls-1" d="M153,106.22s6.35-2.8,9.73,4.54c0,0-6.58,2-10.29-3.42Z" transform="translate(-0.35 -1)"/><path id="Tracé_845-2" data-name="Tracé 845-2" class="cls-1" d="M155.43,100.11s6.22-5.5,10.78.48c0,0-6.31,4.47-11.1.78Z" transform="translate(-0.35 -1)"/><path id="Tracé_846-2" data-name="Tracé 846-2" class="cls-1" d="M157.74,92.18s6.26-5.62,10.77.69c0,0-6.95,4.54-11,.53Z" transform="translate(-0.35 -1)"/><path id="Tracé_847-2" data-name="Tracé 847-2" class="cls-1" d="M159.14,85.09s4.93-7.13,10.33-5.29c0,0-5.11,7.56-10.34,7Z" transform="translate(-0.35 -1)"/><path id="Tracé_848-2" data-name="Tracé 848-2" class="cls-1" d="M160.77,78.4s5-9,9.4-7.26c0,0-3.64,7-9.58,8.81Z" transform="translate(-0.35 -1)"/><path id="Tracé_849-2" data-name="Tracé 849-2" class="cls-1" d="M161.43,69.72s5.09-7.07,9.56-6c0,0-4.21,7.2-10.11,8.09Z" transform="translate(-0.35 -1)"/><path id="Tracé_850-2" data-name="Tracé 850-2" class="cls-1" d="M162.08,62.34s4-8,7.08-8c0,0-2.1,8-6.88,9.33Z" transform="translate(-0.35 -1)"/><path id="Tracé_851-2" data-name="Tracé 851-2" class="cls-1" d="M163.09,55.17s4.46-8.08,7.58-8c0,0-2.39,7-7.47,8.71Z" transform="translate(-0.35 -1)"/><path id="Tracé_852-2" data-name="Tracé 852-2" class="cls-1" d="M164.05,46.49s3.36-6.7,6-7.37c0,0-1.87,8.25-5.69,9.2Z" transform="translate(-0.35 -1)"/><path id="Tracé_853-2" data-name="Tracé 853-2" class="cls-1" d="M166.29,39.66l7.34-10.29s-2.18,10.34-8.42,12.26Z" transform="translate(-0.35 -1)"/><path id="Tracé_854-2" data-name="Tracé 854-2" class="cls-1" d="M171.49,28.39s8.27-5.26,8.59-6.14c0,0-4.41,7.63-12.06,8.71Z" transform="translate(-0.35 -1)"/><path id="Tracé_855-2" data-name="Tracé 855-2" class="cls-1" d="M172.07,25.91s9.59-8.54,12-8.44a15.11,15.11,0,0,0-12.16,8Z" transform="translate(-0.35 -1)"/><path id="Tracé_856-2" data-name="Tracé 856-2" class="cls-1" d="M164.09,47.81l.34.06c2.25-13.54,5.09-21.48,8-22.36l-.1-.32C169.25,26.12,166.4,34,164.09,47.81Z" transform="translate(-0.35 -1)"/><path id="Tracé_857-2" data-name="Tracé 857-2" class="cls-1" d="M160.29,80.25l.51.06c.15-1.27.28-2.56.39-3.86.92-11.24,2.07-21.55,3.35-29.26l-.28-.38c-1.27,7.73-2.66,18.34-3.58,29.59C160.58,77.7,160.44,79,160.29,80.25Z" transform="translate(-0.35 -1)"/><path id="Tracé_858-2" data-name="Tracé 858-2" class="cls-1" d="M119,140.34a66.25,66.25,0,0,0,18.87-12.88A73.82,73.82,0,0,0,152,109c4.64-8.59,7.67-19.25,8.95-29.67l-.54.23c-2.86,23.38-14.17,39-23,47.42a65.73,65.73,0,0,1-18.67,12.76Z" transform="translate(-0.35 -1)"/></g><path id="Tracé_744" data-name="Tracé 744" class="cls-2" d="M14.7,40h154V194H14.7Z" transform="translate(-0.35 -1)"/><path class="cls-3" d="M138.6,177.73l-2.79-1.19L91.69,157.63,47.57,176.54l-2.79,1.19V72.05A14.58,14.58,0,0,1,46,66.29a14.87,14.87,0,0,1,7.9-7.9,14.61,14.61,0,0,1,5.76-1.17h64.16a14.61,14.61,0,0,1,5.76,1.17,14.9,14.9,0,0,1,7.89,7.9,14.59,14.59,0,0,1,1.18,5.76V177.73Z" transform="translate(-0.35 -1)"/><path class="cls-4" d="M59.61,59.22A12.86,12.86,0,0,0,46.78,72.05V174.7l44.91-19.25L136.6,174.7V72.05a12.87,12.87,0,0,0-12.84-12.83H59.61m0-4h64.15A16.84,16.84,0,0,1,140.6,72.05V174.7a4,4,0,0,1-1.8,3.34,4.07,4.07,0,0,1-2.2.66,4,4,0,0,1-1.58-.33L91.69,159.8,48.35,178.37a3.92,3.92,0,0,1-1.57.33,4,4,0,0,1-2.2-.66,4,4,0,0,1-1.8-3.34V72.05A16.84,16.84,0,0,1,59.61,55.22Z" transform="translate(-0.35 -1)"/><path id="Tracé_746" data-name="Tracé 746" class="cls-1" d="M115.55,72.42a5.52,5.52,0,0,1,5.51,5.52v77.21c0,3-28.1-14-28.1-14V72.42Z" transform="translate(-0.35 -1)"/><circle class="cls-3" cx="91.27" cy="70.79" r="70.79"/><circle class="cls-5" cx="91.27" cy="70.79" r="68.79"/><path id="Tracé_750" data-name="Tracé 750" class="cls-1" d="M93.56,24.49a44.9,44.9,0,1,1,0,89.79C93.66,24.93,93.56,114.44,93.56,24.49Z" transform="translate(-0.35 -1)"/></svg>