<?xml version="1.0" encoding="utf-8"?>
<!-- Generator: Adobe Illustrator 24.0.1, SVG Export Plug-In . SVG Version: 6.00 Build 0)  -->
<svg xmlns="http://www.w3.org/2000/svg" xmlns:xlink="http://www.w3.org/1999/xlink" width="178.494" height="162.376" viewBox="0 0 178.494 162.376">

<style type="text/css">
	.st0{opacity:0.2;fill:#007BFF;}
	.st1{fill:url(#Tracé_978_1_);}
	.st2{fill:url(#Tracé_979_1_);}
	.st3{fill:url(#Tracé_981_1_);}
	.st4{opacity:0.65;fill:#FFFFFF;enable-background:new    ;}
	.st5{fill:#FFFFFF;}
	.st6{fill:url(#Tracé_982_1_);}
	.st7{fill:url(#Tracé_983_1_);}
	.st8{opacity:0.18;fill:#1F9510;enable-background:new    ;}
	.st9{fill:url(#Tracé_985_1_);}
	.st10{fill:#606161;}
	.st11{fill:#007BFF;}
	.st12{fill:url(#Tracé_992_1_);}
	.st13{fill:url(#Tracé_993_1_);}
	.st14{fill:url(#Tracé_994_1_);}
	.st15{opacity:0.5;fill:url(#Tracé_996_1_);enable-background:new    ;}
	.st16{fill:url(#Tracé_997_1_);}
	.st17{fill:url(#Tracé_998_1_);}
	.st18{fill:url(#Tracé_999_1_);}
	.st19{fill:url(#Tracé_1000_1_);}
	.st20{fill:#E08142;}
	.st21{fill:url(#Tracé_1002_1_);}
	.st22{fill:url(#Tracé_1005_1_);}
	.st23{fill:url(#Tracé_1006_1_);}
	.st24{fill:url(#Tracé_1007_1_);}
</style>
<g>
	<path id="Tracé_977" class="st0" d="M8.6,119.6c-1.9-2.9-3.4-6-4.4-9.2c-3.6-9.8-6.3-21-1.7-30.3c3.4-6.9,10.2-11.4,16.9-14.9
		c18.3-9.5,38.8-14.3,56.6-24.7c3.7-2.1,7.4-4.6,11.5-5.5c4.3-1,8.8-0.3,13.1,0.6c6.5,1.3,12.9,3,19.1,5.1c3.1,0.9,6,2.2,8.7,4
		c3.4,2.4,5.7,5.9,8.4,9.1c9.1,11,21.6,18.5,31.8,28.5c4.6,4.6,9,10,9.7,16.4c0.7,5.7-1.5,11.5-5.1,16s-8.4,7.8-13.5,10.5
		c-7.3,3.9-15.8,7.3-19,14.9c-1.3,3-1.5,6.4-2.8,9.4c-2.3,5.3-7.6,8.9-13.2,10.5c-5.6,1.6-11.5,1.5-17.3,1.4l-22.2-0.4
		c-7.5-0.1-15.7-0.5-21.4-5.5c-2.9-2.6-8.9-15.8-31.5-22.1C23.7,131,14.2,127.5,8.6,119.6z"/>
	
		<linearGradient id="Tracé_978_1_" gradientUnits="userSpaceOnUse" x1="-183.3519" y1="466.672" x2="-182.3519" y2="466.672" gradientTransform="matrix(6.616 0 0 -28.999 1295.6217 13674.6992)">
		<stop  offset="0" style="stop-color:#E5C6D6"/>
		<stop  offset="0.42" style="stop-color:#EAD4D0"/>
		<stop  offset="1" style="stop-color:#F0E9CB"/>
	</linearGradient>
	<path id="Tracé_978" class="st1" d="M82.6,127.2l0.3,28.7l3.6,0.3l2.8-28.5L82.6,127.2z"/>
	
		<linearGradient id="Tracé_979_1_" gradientUnits="userSpaceOnUse" x1="-183.3469" y1="466.672" x2="-182.3469" y2="466.672" gradientTransform="matrix(6.615 0 0 -28.999 1309.6439 13674.6992)">
		<stop  offset="0" style="stop-color:#E5C6D6"/>
		<stop  offset="0.42" style="stop-color:#EAD4D0"/>
		<stop  offset="1" style="stop-color:#F0E9CB"/>
	</linearGradient>
	<path id="Tracé_979" class="st2" d="M96.8,127.2l0.3,28.7l3.6,0.3l2.8-28.5L96.8,127.2z"/>
	<path id="Rectangle_55" class="st0" d="M40,0h105.4c16.4,0,29.7,13.3,29.7,29.7v46.8c0,16.4-13.3,29.7-29.7,29.7H40
		c-16.4,0-29.7-13.3-29.7-29.7V29.7C10.3,13.3,23.6,0,40,0z"/>
	<path id="Tracé_980" class="st0" d="M175,12v79c0,6-4.9,10.9-10.9,10.9h-143c-6,0-10.9-4.9-10.9-10.9V12c0-0.4,0-0.9,0.1-1.3
		c0.7-5.5,5.3-9.5,10.8-9.6h143c5.5,0,10.1,4.1,10.8,9.6C175,11.1,175,11.5,175,12z"/>
	<linearGradient id="Tracé_981_1_" gradientUnits="userSpaceOnUse" x1="92.7335" y1="1.12" x2="92.7335" y2="10.688">
		<stop  offset="0" style="stop-color:#0572D6"/>
		<stop  offset="0.986" style="stop-color:#0E6293"/>
	</linearGradient>
	<path id="Tracé_981" class="st3" d="M175.1,10.7H10.4c0.7-5.5,5.3-9.6,10.8-9.6h143C169.7,1.1,174.4,5.2,175.1,10.7z"/>
	<circle id="Ellipse_21" class="st4" cx="92.5" cy="5.7" r="3.4"/>
	<rect id="Rectangle_56" x="93.6" y="13" class="st5" width="76.9" height="43"/>
	<rect id="Rectangle_57" x="15" y="13" class="st5" width="76.9" height="85.5"/>
	<linearGradient id="Tracé_982_1_" gradientUnits="userSpaceOnUse" x1="66.2069" y1="60.1118" x2="36.8256" y2="111.0017">
		<stop  offset="0" style="stop-color:#007BFF"/>
		<stop  offset="0.986" style="stop-color:#0E6293"/>
	</linearGradient>
	<path id="Tracé_982" class="st6" d="M31.3,63.7c5.7-2.7,12.6-3,19.3-3.3c7.2-0.3,14.9-0.4,20.8,2.7c2.8,1.6,5.3,3.6,7.4,6
		c0.8,0.7,1.5,1.5,2,2.5c0.5,1.2,0.7,2.4,0.6,3.7l0,17c0.1,1.1-0.1,2.3-0.6,3.3c-1.6,2.9,3.9,2.8-0.1,2.8c-18.1,0-65.6,0.1-65.6,0.1
		c1-0.1,2.2-9.7,2.1-10.7c-0.1-3.4-1.1-6.3,0.6-9.4C20.6,72.7,24.5,66.8,31.3,63.7z"/>
	
		<linearGradient id="Tracé_983_1_" gradientUnits="userSpaceOnUse" x1="-210.088" y1="471.6368" x2="-207.355" y2="469.1308" gradientTransform="matrix(36.303 0 0 -49.6342 7696.2095 23467.375)">
		<stop  offset="0" style="stop-color:#010101;stop-opacity:0"/>
		<stop  offset="0.95" style="stop-color:#010101"/>
	</linearGradient>
	<path id="Tracé_983" class="st7" d="M73.4,80.8c-0.4,2.9-1.6,5.7-2.3,8.6s-0.5,6.2,1.5,8.4s7.8,7,8.4,7.7
		c1.1,1.4,13.4-0.9,16.8-0.6c1.9,0.2,3.8-6.3,5.8-10.3c0.7-1,1.4-2,2.1-2.9c1.6-2.5,1.6-5.7,1-8.6s-1.8-5.7-2.4-8.6
		c-0.6-3.6-0.3-7.4-2-10.6c-3-5.6-15.1-8.9-21.1-7.1C70.7,59.9,74.3,73.1,73.4,80.8z"/>
	<rect id="Rectangle_58" x="93.6" y="57.9" class="st5" width="76.9" height="43"/>
	<path id="Tracé_984" class="st8" d="M160.3,95.6c-1.4-1.7-3.2-3.1-4.4-4.9c-1.3-1.9-1.9-4.3-3.5-6.1c-2.4-2.7-6.4-3.2-10-2.6
		s-6.9,2-10.4,2.5c-4.3,0.6-9.3-0.1-12.6,2.8c-1.7,1.5-2.7,3.8-4.6,5c-1.7,1-3.7,1.5-5.7,1.6c-2,0-4,0.5-5.7,1.5
		c-1.7,1.1-2.7,3.4-1.8,5.1c1.1,2.1,4,2.2,6.3,2c10.4-0.9,20.8-1.6,31.2-1.8c5.2-0.1,10.4,0,15.6,0.4c1.2,0.1,6.6,1.3,7.4,0.4
		C163.5,100,161.2,96.6,160.3,95.6z"/>
	<linearGradient id="Tracé_985_1_" gradientUnits="userSpaceOnUse" x1="93.7507" y1="53.4097" x2="93.7507" y2="103.0439">
		<stop  offset="0" style="stop-color:#0572D6"/>
		<stop  offset="0.986" style="stop-color:#0E6293"/>
	</linearGradient>
	<path id="Tracé_985" class="st9" d="M78.2,78c-0.4,2.9-1.6,5.7-2.3,8.6s-0.5,6.2,1.5,8.4s7.8,7,8.4,7.7c1.1,1.4,13.4-0.9,16.8-0.6
		c1.9,0.2,3.8-6.3,5.8-10.3c0.7-1,1.4-2,2.1-2.9c1.6-2.5,1.6-5.7,1-8.6s-1.8-5.7-2.4-8.6c-0.6-3.6-0.3-7.4-2-10.6
		c-3-5.6-15.1-8.9-21.1-7.1C75.6,57.1,79.2,70.3,78.2,78z"/>
	<path id="Tracé_986" class="st10" d="M94.2,33.5c3.6,0.6,6.6,3.2,7.6,6.7c0.9,3,0.2,6.3,0.4,9.4c0.1,2.6,0.8,5.1,2.1,7.4
		c0.8,1.3,1.6,2.7,2.2,4.1c1.6,4.2,0.2,8.9-3.4,11.6c-1.8,1.1-3.7,2-5.7,2.8c-2.4,1.2-4.6,3-6.3,5.1c-2.8,0.1-4.8-2.8-5.3-5.5
		s0.1-5.6-0.2-8.3c-0.5-4.8-3.6-9.6-2-14.1c0.7-2,2.3-3.7,2.2-5.8c-0.1-3.6-3.8-5.7-1.5-9.5C86.2,34.4,91.1,32.9,94.2,33.5z"/>
	<path id="Tracé_988" class="st11" d="M83.8,154.1c-0.3,0-0.6,0.1-0.8,0.2c-0.4,0.3-0.5,0.8-0.4,1.3c0.1,0.5,0.3,0.9,0.3,1.4
		c0,0.4,0,0.9,0.3,1.1c0.2,0.2,0.5,0.3,0.8,0.3c0.5,0.1,1,0.1,1.6,0.1c0.2,0,0.4,0,0.6-0.1c0.4-0.2,0.4-0.8,0.4-1.3s0.5-2.6,0.2-2.9
		C86.4,153.6,84.4,154.1,83.8,154.1z"/>
	<path id="Tracé_989" class="st11" d="M98.1,154.1c-0.3,0-0.6,0.1-0.8,0.2c-0.4,0.3-0.5,0.8-0.4,1.3c0.1,0.5,0.3,0.9,0.3,1.4
		c0,0.4,0,0.9,0.3,1.1c0.2,0.2,0.5,0.3,0.8,0.3c0.5,0.1,1,0.1,1.6,0.1c0.2,0,0.4,0,0.6-0.1c0.4-0.2,0.4-0.8,0.4-1.3s0.5-2.6,0.2-2.9
		C100.6,153.6,98.7,154.1,98.1,154.1z"/>
	<path id="Tracé_990" class="st10" d="M84.4,157.7c-0.5-0.1-1.1-0.1-1.6,0.2c-0.1,0.1-0.2,0.2-0.3,0.2c-0.1,0-0.3,0.1-0.4,0.1
		c-0.6,0.1-1.1,0.5-1.2,1.1c-0.1,0.6-0.1,1.2,0.1,1.7c0.1,0.2,0.2,0.5,0.4,0.7c0.2,0.1,0.4,0.2,0.6,0.3c0.9,0.2,1.8,0.4,2.7,0.4
		c0.6,0.1,1.2,0,1.7-0.3c0.4-0.5,0.7-1.1,0.7-1.8c0.1-0.5,0.1-1,0-1.5C86.6,157.2,85.5,157.9,84.4,157.7z"/>
	<path id="Tracé_991" class="st10" d="M98.6,157.7c-0.5-0.1-1.1-0.1-1.6,0.2c-0.1,0.1-0.2,0.2-0.3,0.2c-0.1,0-0.3,0.1-0.4,0.1
		c-0.6,0.1-1.1,0.5-1.2,1.1c-0.1,0.6-0.1,1.2,0.1,1.7c0.1,0.2,0.2,0.5,0.4,0.7c0.2,0.1,0.4,0.2,0.6,0.3c0.9,0.2,1.8,0.4,2.7,0.4
		c0.6,0.1,1.2,0,1.7-0.3c0.4-0.5,0.7-1.1,0.7-1.8c0.1-0.5,0.1-1,0-1.5C100.8,157.2,99.7,157.9,98.6,157.7z"/>
	
		<linearGradient id="Tracé_992_1_" gradientUnits="userSpaceOnUse" x1="-203.981" y1="466.1254" x2="-202.896" y2="466.1254" gradientTransform="matrix(18.4852 0 0 -27.6053 3819.2776 12925.7051)">
		<stop  offset="0" style="stop-color:#E5C6D6"/>
		<stop  offset="0.42" style="stop-color:#EAD4D0"/>
		<stop  offset="1" style="stop-color:#F0E9CB"/>
	</linearGradient>
	<path id="Tracé_992" class="st12" d="M47.7,69.7c2,1.7,4.6,2.5,7.2,2.2c3.4-0.6,5.4-3.8,5.9-6.8s-0.3-6.2-0.1-9.3
		c0.1-1.9,0.6-3.9,0-5.8c-0.8-2.9-3.9-5.1-7.2-5.5c-3.2-0.4-6.5,0.8-8.7,3.2c-3.1,3.4-2.1,7.5-2.3,11.5
		C42.4,63.3,44.4,67.2,47.7,69.7z"/>
	
		<linearGradient id="Tracé_993_1_" gradientUnits="userSpaceOnUse" x1="-203.1902" y1="445.4044" x2="-203.2282" y2="448.7884" gradientTransform="matrix(17.557 0 0 -9.923 3619.6052 4484.5659)">
		<stop  offset="0" style="stop-color:#010101;stop-opacity:0"/>
		<stop  offset="0.95" style="stop-color:#010101"/>
	</linearGradient>
	<path id="Tracé_993" class="st13" d="M43.3,55.4c0,0,3.4,9.9,10,9.9s7.5-3.3,7.5-3.3l-0.3-5.3L43.3,55.4z"/>
	
		<linearGradient id="Tracé_994_1_" gradientUnits="userSpaceOnUse" x1="-208.9569" y1="469.0486" x2="-207.9569" y2="469.0486" gradientTransform="matrix(30.6684 0 0 -37.1538 6444.979 17469.4414)">
		<stop  offset="0" style="stop-color:#E5C6D6"/>
		<stop  offset="0.42" style="stop-color:#EAD4D0"/>
		<stop  offset="1" style="stop-color:#F0E9CB"/>
	</linearGradient>
	<path id="Tracé_994" class="st14" d="M67,43.5c-0.1,2.9-0.6,5.8-1.4,8.6c-0.9,2.8-2.6,5.3-5,7c-3.5,2.2-7.9,2.5-11.7,0.9
		c-3.8-1.7-6.8-4.7-8.6-8.4c-1.9-3.6-3.1-7.6-3.5-11.7c-0.3-3.1,0.3-6.3,1.7-9.1c1.7-2.9,4.4-5,7.5-5.8c3.2-0.9,6.4-1.2,9.7-1
		c2.7-0.1,5.3,0.4,7.8,1.5c2.7,1.2,4.3,4,3.9,6.9C66.7,36,67.2,39.8,67,43.5z"/>
	<path id="Tracé_995" class="st10" d="M40.9,42c-0.8-0.4-1.3-1.6-2.2-1.7c-0.6,0-1.1,0.3-1.4,0.9c-0.2,0.5-0.3,1.1-0.1,1.7
		c0.2,1.4,0.9,2.6,2,3.5c0.5,0.3,0.9,0.8,1.1,1.3c0.1,0.4,0.1,0.8,0,1.2L40,51.9c-1.5-0.6-2.6-1.8-3.1-3.3c-0.5-1.5-0.8-3-0.9-4.6
		c-0.1-1-0.3-2.1-0.4-3.1c-0.3-2.1-0.3-4.3-0.4-6.4L35,32.4c-0.2-2.7-0.1-5.4,0.4-8.1c0.1-0.7,0.4-1.3,0.8-1.9
		c0.5-0.6,1.2-1,1.9-1.3l5.7-2.8c1.5-0.8,3.1-1.5,4.8-2.1c1.3-0.3,2.6-0.6,3.9-0.8c2-0.4,4.1-0.5,6.2-0.1c2.6,0.7,4.7,2.6,7.3,3.2
		c1.3,0.1,2.6,0.3,3.8,0.7c2.6,0.9,3.9,3.9,4.1,6.6c0.3,1.7-0.1,3.5-1.1,5c-1,1.2-2.5,1.7-3.5,2.8c-1.2,1.2-1.7,3-3,4
		c-1.6,1-3.7,1.1-5.4,0.2c-1.7-0.9-3.3-1.9-4.8-3c-0.8-0.6-1.7-0.8-2.6-0.7c-1.3,0.3-2.1,1.7-3.2,2.4c-1.1,0.5-2.3,0.6-3.5,0.3
		c-1.4-0.3-3.1-0.6-4,0.8C41.8,38.9,41.2,40.4,40.9,42z"/>
	
		<linearGradient id="Tracé_996_1_" gradientUnits="userSpaceOnUse" x1="-142.9285" y1="399.1988" x2="-141.7205" y2="399.6917" gradientTransform="matrix(2.971 0 0 -4.0131 463.8085 1646.6453)">
		<stop  offset="0" style="stop-color:#010101;stop-opacity:0"/>
		<stop  offset="0.95" style="stop-color:#010101"/>
	</linearGradient>
	<path id="Tracé_996" class="st15" d="M39.5,43.5c-0.1-0.2-0.2-0.5-0.3-0.7c-0.1-0.2-0.4-0.4-0.6-0.4c-0.3,0.1-0.5,0.3-0.5,0.5
		c0,0.3,0,0.5,0.1,0.8c0.1,0.5,0.3,1,0.6,1.5c0.1,0.3,0.4,0.6,0.6,0.8c0.3,0.2,0.6,0.4,1,0.4c0.1,0,0.3,0,0.4,0
		c0.1-0.1,0.1-0.2,0.1-0.2c0.1-0.4,0.3-1.4-0.1-1.8c-0.2-0.2-0.4-0.1-0.6-0.2C39.9,44,39.7,43.8,39.5,43.5z"/>
	<linearGradient id="Tracé_997_1_" gradientUnits="userSpaceOnUse" x1="129.2828" y1="42.5649" x2="142.1493" y2="64.8503">
		<stop  offset="0" style="stop-color:#007BFF"/>
		<stop  offset="0.986" style="stop-color:#0E6293"/>
	</linearGradient>
	<path id="Tracé_997" class="st16" d="M115.9,52.4c2.9-4.7,8.1-7.4,13.5-7.3c1.9,0,3.8,0.1,5.7,0.1c5.4,0,13.5-1.9,18.2,0.9
		c1.9,1.1,3.5,6.3,4.5,8.3c0.3,0.4,0.3,0.9,0.1,1.3c-0.3,0.3-0.7,0.4-1.1,0.3c-9.6-0.1-19.1,0-28.7-0.1c-2.2,0-13.4,0-13.4,0
		C114.7,54.7,115.2,53.5,115.9,52.4z"/>
	
		<linearGradient id="Tracé_998_1_" gradientUnits="userSpaceOnUse" x1="-190.8613" y1="447.8174" x2="-189.8233" y2="447.8174" gradientTransform="matrix(8.8657 0 0 -10.5786 1832.2371 4780.769)">
		<stop  offset="0" style="stop-color:#E5C6D6"/>
		<stop  offset="0.42" style="stop-color:#EAD4D0"/>
		<stop  offset="1" style="stop-color:#F0E9CB"/>
	</linearGradient>
	<path id="Tracé_998" class="st17" d="M134.7,47.5c0.4,0.3,0.9,0.6,1.5,0.8c1.1,0.4,2.2,0.6,3.4,0.4c1.2-0.2,2.1-1,2.5-2.1
		c0.1-0.6,0.1-1.2,0-1.7l-0.2-2.1c0-1-0.3-2-0.8-3c-0.9-1.5-2.8-2.1-4.4-1.4c-1,0.5-1.9,1.4-2.3,2.4
		C133.3,43.2,132.4,45.7,134.7,47.5z"/>
	
		<linearGradient id="Tracé_999_1_" gradientUnits="userSpaceOnUse" x1="-187.8056" y1="427.2267" x2="-187.2906" y2="430.6807" gradientTransform="matrix(7.7728 0 0 -6.3 1596.2183 2737.2886)">
		<stop  offset="0" style="stop-color:#010101;stop-opacity:0"/>
		<stop  offset="0.95" style="stop-color:#010101"/>
	</linearGradient>
	<path id="Tracé_999" class="st18" d="M141.1,39.9c0,0-2.2,6.3-5.3,6.3s-2.3-3.1-2.3-3.1L141.1,39.9z"/>
	
		<linearGradient id="Tracé_1000_1_" gradientUnits="userSpaceOnUse" x1="-201.9099" y1="462.0216" x2="-200.9089" y2="462.0216" gradientTransform="matrix(15.3299 0 0 -20.2863 3224.1033 9406.2559)">
		<stop  offset="0" style="stop-color:#E5C6D6"/>
		<stop  offset="0.42" style="stop-color:#EAD4D0"/>
		<stop  offset="1" style="stop-color:#F0E9CB"/>
	</linearGradient>
	<path id="Tracé_1000" class="st19" d="M129,37.4c0.3,1.1,0.8,2.1,1.2,3.2c0.1,0.5,0.3,1,0.6,1.4c0.5,0.6,1.1,1.1,1.9,1.3
		c1.6,0.6,3.3,0.5,4.9-0.2c2.1-1,3.7-2.9,4.4-5.1c0.8-2.2,2.2-4.3,2.2-6.6c0-1-1.2-2.2-1.5-3.1c-0.4-1-1.1-1.9-1.9-2.6
		c-0.7-0.7-1.4-1.3-2.3-1.8c-2.1-1-4.6-0.4-6.6,0.8c-0.7,0.4-1.2,0.9-1.7,1.5c-1.1,1.5-1,3.4-1,5.2C129.2,33.4,128.5,35.3,129,37.4z
		"/>
	<path id="Tracé_1001" class="st20" d="M126.4,26.8c-0.5-1.1-0.9-2.4-1-3.6c-0.1-0.3-0.1-0.6,0-0.9c0.2-0.4,0.7-0.5,1.1-0.9
		c0.7-0.7,0.1-1.9,0.2-2.8c0.1-1.2,0.9-2.1,2-2.5c1.1-0.4,2.2-0.6,3.3-0.6c1.5-0.1,3.2-0.1,4.2,1c0.6,0.6,0.9,1.4,1.5,1.9
		c1.3,1.1,3.3,0.4,5,0.8c1.4,0.4,2.5,1.5,2.8,3c0.2,1.4-0.3,3.1,0.5,4.2c0.3,0.3,0.6,0.7,0.8,1.1c0.1,0.5,0.1,1-0.1,1.5
		c-0.6,1.9-1.5,3.7-2.6,5.3c-0.2,0.3-0.5,0.6-0.8,0.8c-0.3,0.2-0.9,2.2-1.1,1.9c-0.2-1.2-0.1-2.4,0.3-3.5c0.4-0.4,0.7-0.8,0.9-1.2
		c0.3-0.7-0.1-1.5-0.8-1.8c-0.6-0.2-1.3,0-1.6,0.5c0.4-2.3-0.9-5-3.1-5.5c-1.4-0.2-2.8,0.1-4,0.8C131.2,27.6,128.4,30.5,126.4,26.8z
		"/>
	
		<linearGradient id="Tracé_1002_1_" gradientUnits="userSpaceOnUse" x1="-71.7302" y1="344.9584" x2="-74.3292" y2="345.1514" gradientTransform="matrix(1.5056 0 0 -2.3696 250.5417 849.9653)">
		<stop  offset="0" style="stop-color:#010101;stop-opacity:0"/>
		<stop  offset="0.95" style="stop-color:#010101"/>
	</linearGradient>
	<path id="Tracé_1002" class="st21" d="M141.9,31.5c0-0.1,0.1-0.2,0.2-0.2c0.1,0,0.2,0,0.3,0.1c0.2,0.1,0.3,0.3,0.4,0.4
		c0,0.1,0,0.3,0,0.4c-0.1,0.3-0.2,0.6-0.3,0.9c-0.2,0.3-0.4,0.5-0.8,0.5c-0.1,0-0.4-0.3-0.4-0.5s0.1-0.2,0.2-0.3
		C141.8,32.5,141.6,32,141.9,31.5z"/>
	<path id="Tracé_1003" class="st10" d="M130.2,64.2c2.3-0.7,4.8-0.8,7.2-0.4c1.4,0.1,2.7,0.5,3.9,1.1c2.2,1.3,3.3,3.9,3.8,6.4
		s0.6,5.1,1.5,7.5c1.1,2.8,3.2,5.1,3.9,7.9c1.1,4.6-1.7,9.3-6.3,10.5c-0.7,0.2-1.4,0.3-2.1,0.3c-1.8,0-3.6-0.6-5.5-0.6
		c-3.8,0-7.4,2.6-11.2,1.8c-3.1-0.6-5.2-3.4-6.5-6.2c-0.9-1.7-1.2-3.7-0.7-5.6c0.8-2.5,3.5-4,4.7-6.4c1.5-3,0.4-6.5,1.7-9.5
		C125.7,68.2,127.1,65.3,130.2,64.2z"/>
	<path id="Tracé_1004" class="st5" d="M143.3,88.5c2,0.4,4.3,0.2,6,1.4c1,0.8,1.7,1.9,1.9,3.1c0.2,1.2,0.3,2.5,0.2,3.7l-0.1,3.7
		c0,0.1,0,0.3-0.1,0.4c-0.1,0.1-0.3,0.1-0.4,0.1l-31.6,0.1c-0.6-2-0.3-4.2,0.8-5.9c0.8-1.6,1.9-3,3.2-4.1c1.9-1.5,6.4-1.6,8.5-2.8
		c0.5-0.3,0.1-0.8,0.7-0.9s0.3-0.9,1-0.9c1.8-0.2,3.7-0.1,5.5,0.2C140.4,87,141.6,88.1,143.3,88.5z"/>
	
		<linearGradient id="Tracé_1005_1_" gradientUnits="userSpaceOnUse" x1="-190.0267" y1="454.558" x2="-189.0267" y2="454.558" gradientTransform="matrix(8.3162 0 0 -13.6867 1710.9391 6309.1333)">
		<stop  offset="0" style="stop-color:#E5C6D6"/>
		<stop  offset="0.42" style="stop-color:#EAD4D0"/>
		<stop  offset="1" style="stop-color:#F0E9CB"/>
	</linearGradient>
	<path id="Tracé_1005" class="st22" d="M130.9,89.5c-0.2,0.5-0.3,1-0.3,1.6c0,1.2,0.6,2.3,1.7,3c1.1,0.6,2.3,0.7,3.4,0.2
		c1.2-0.6,2.1-1.6,2.6-2.9c0.4-1.3,0.7-2.6,0.6-3.9c0-1.8-0.1-3.5-0.3-5.3c0.1-0.6-0.3-1.1-0.9-1.2c-0.1,0-0.2,0-0.2,0
		c-2.1-0.3-4.2,0.9-5.1,2.9c-0.2,0.6-0.4,1.3-0.4,2C131.7,87,131.3,88.3,130.9,89.5z"/>
	
		<linearGradient id="Tracé_1006_1_" gradientUnits="userSpaceOnUse" x1="-185.9356" y1="417.9808" x2="-184.2226" y2="421.1968" gradientTransform="matrix(7.2419 0 0 -5.3092 1479.9548 2308.6067)">
		<stop  offset="0" style="stop-color:#010101;stop-opacity:0"/>
		<stop  offset="0.95" style="stop-color:#010101"/>
	</linearGradient>
	<path id="Tracé_1006" class="st23" d="M131.7,86.9c0,0-0.2,1.6,0.5,2.2s3.6,2,5,0c0.9-1.3,1.4-2.8,1.7-4.3L131.7,86.9z"/>
	
		<linearGradient id="Tracé_1007_1_" gradientUnits="userSpaceOnUse" x1="-200.7364" y1="461.0924" x2="-199.7484" y2="461.0924" gradientTransform="matrix(14.6674 0 0 -19.1374 3079.2002 8902.3799)">
		<stop  offset="0" style="stop-color:#E5C6D6"/>
		<stop  offset="0.42" style="stop-color:#EAD4D0"/>
		<stop  offset="1" style="stop-color:#F0E9CB"/>
	</linearGradient>
	<path id="Tracé_1007" class="st24" d="M127.7,81.5c0.4,1.2,2.6,5.4,5.7,6.1c6.6,1.6,8.6-10,8.3-12.4c-0.4-2-1.5-3.9-3-5.3
		c-1.7-1.3-4-1.6-6-0.7C127.4,71.4,126.1,76.5,127.7,81.5z"/>
	<path id="Tracé_1008" class="st10" d="M125.6,75.1c0.1,0.5,0.5,0.9,1,1c0.6,0,1.1-0.2,1.6-0.4c0.6-0.2,1.3-0.1,2-0.4
		s1.1-1,0.8-1.5c-0.2,0.8,0.9,1.3,1.7,1.3c0.8-0.2,1.6-0.3,2.4-0.1l0.3-1.6c-0.1,0.7,0.3,1.3,1,1.6c0.6,0.2,1.3,0.2,2,0
		c0.3-0.1,0.6-0.3,0.5-0.6c0.7,0.8,2,0.5,2.9,0.1c0.2,0,0.3-0.1,0.4-0.3c0.1-0.2,0.1-0.3,0-0.5c-0.3-1.6-0.9-3.1-1.7-4.5
		c-0.8-1.4-2.1-2.5-3.7-2.8c-0.9-0.1-1.9-0.1-2.8,0.1c-2.4,0.4-4.6,1.6-6.2,3.5C126.6,71,125.1,73.3,125.6,75.1z"/>
	<path id="Tracé_987" class="st10" d="M81.2,97.7l24.3,0.6c0,0,1,6.3,0.5,10c-0.5,3.7-0.8,12.2-0.8,12.2l-3.8,35.2h-4.7l-4.3-41.9
		l-5.3,42.9h-5.1C82.1,156.6,80.9,104.2,81.2,97.7z"/>
</g>
</svg>
