<?xml version="1.0" encoding="utf-8"?>
<!-- Generator: Adobe Illustrator 24.0.1, SVG Export Plug-In . SVG Version: 6.00 Build 0)  -->
<svg version="1.1" id="Layer_1" xmlns="http://www.w3.org/2000/svg" xmlns:xlink="http://www.w3.org/1999/xlink" x="0px" y="0px"
	 viewBox="0 0 200 160" style="enable-background:new 0 0 200 160;" xml:space="preserve">
<style type="text/css">
	.st0{opacity:0.2;fill:#007BFF;}
	.st1{fill:url(#Tracé_978_1_);}
	.st2{fill:url(#Tracé_979_1_);}
	.st3{fill:url(#Tracé_981_1_);}
	.st4{opacity:0.65;fill:#FFFFFF;enable-background:new    ;}
	.st5{fill:#FFFFFF;}
	.st6{fill:url(#Tracé_982_1_);}
	.st7{fill:url(#Tracé_983_1_);}
	.st8{opacity:0.18;fill:#1F9510;enable-background:new    ;}
	.st9{fill:url(#Tracé_985_1_);}
	.st10{fill:#606161;}
	.st11{fill:#007BFF;}
	.st12{fill:url(#Tracé_992_1_);}
	.st13{fill:url(#Tracé_993_1_);}
	.st14{fill:url(#Tracé_994_1_);}
	.st15{opacity:0.5;fill:url(#Tracé_996_1_);enable-background:new    ;}
	.st16{fill:url(#Tracé_997_1_);}
	.st17{fill:url(#Tracé_998_1_);}
	.st18{fill:url(#Tracé_999_1_);}
	.st19{fill:url(#Tracé_1000_1_);}
	.st20{fill:#E08142;}
	.st21{fill:url(#Tracé_1002_1_);}
	.st22{fill:url(#Tracé_1005_1_);}
	.st23{fill:url(#Tracé_1006_1_);}
	.st24{fill:url(#Tracé_1007_1_);}
</style>
<g>
	<path id="Tracé_977" class="st0" d="M23.49,116.08c-1.8-2.73-3.21-5.69-4.22-8.8c-3.39-9.33-6.04-20-1.65-28.9
		c3.23-6.54,9.67-10.83,16.14-14.19c17.4-9.05,36.93-13.64,53.89-23.49c3.52-2.04,7.02-4.34,10.97-5.22
		c4.1-0.91,8.36-0.24,12.48,0.59c6.16,1.25,12.24,2.86,18.21,4.83c2.95,0.84,5.75,2.12,8.31,3.81c3.21,2.31,5.47,5.66,7.98,8.71
		c8.65,10.48,20.61,17.65,30.3,27.17c4.41,4.34,8.53,9.5,9.28,15.64c0.68,5.43-1.42,10.95-4.83,15.24s-8.04,7.43-12.86,10.01
		c-6.91,3.69-15.04,6.98-18.08,14.21c-1.2,2.87-1.44,6.05-2.65,8.91c-2.15,5.09-7.21,8.5-12.52,10.02
		c-5.31,1.53-10.94,1.44-16.47,1.37l-21.18-0.34c-7.16-0.11-14.99-0.48-20.34-5.22c-2.79-2.47-8.46-15.02-29.97-21.09
		C37.87,126.95,28.83,123.58,23.49,116.08z"/>
	
		<linearGradient id="Tracé_978_1_" gradientUnits="userSpaceOnUse" x1="-172.292" y1="465.7958" x2="-171.3396" y2="465.7958" gradientTransform="matrix(6.616 0 0 -28.999 1233.8456 13644.7002)">
		<stop  offset="0" style="stop-color:#E5C6D6"/>
		<stop  offset="0.42" style="stop-color:#EAD4D0"/>
		<stop  offset="1" style="stop-color:#F0E9CB"/>
	</linearGradient>
	<path id="Tracé_978" class="st1" d="M93.96,123.28l0.24,27.38l3.39,0.24l2.67-27.13L93.96,123.28z"/>
	
		<linearGradient id="Tracé_979_1_" gradientUnits="userSpaceOnUse" x1="-172.3894" y1="465.7958" x2="-171.437" y2="465.7958" gradientTransform="matrix(6.615 0 0 -28.999 1247.879 13644.7002)">
		<stop  offset="0" style="stop-color:#E5C6D6"/>
		<stop  offset="0.42" style="stop-color:#EAD4D0"/>
		<stop  offset="1" style="stop-color:#F0E9CB"/>
	</linearGradient>
	<path id="Tracé_979" class="st2" d="M107.52,123.28l0.24,27.38l3.39,0.24l2.67-27.13L107.52,123.28z"/>
	<path id="Rectangle_55" class="st0" d="M53.44,2.16h100.41c15.62,0,28.29,12.66,28.29,28.29v44.53c0,15.62-12.66,28.29-28.29,28.29
		H53.44c-15.62,0-28.29-12.66-28.29-28.29V30.44C25.16,14.82,37.82,2.16,53.44,2.16z"/>
	<path id="Tracé_980" class="st0" d="M181.99,13.57v75.26c0,5.74-4.65,10.4-10.39,10.41H35.4c-5.74-0.01-10.39-4.67-10.39-10.41
		V13.57c0-0.43,0.02-0.85,0.08-1.28c0.66-5.2,5.07-9.09,10.31-9.1h136.2c5.24,0.01,9.66,3.91,10.31,9.11
		C181.96,12.72,181.99,13.14,181.99,13.57z"/>
	<linearGradient id="Tracé_981_1_" gradientUnits="userSpaceOnUse" x1="103.6461" y1="3.2223" x2="103.6461" y2="12.3349">
		<stop  offset="0" style="stop-color:#0572D6"/>
		<stop  offset="0.986" style="stop-color:#0E6293"/>
	</linearGradient>
	<path id="Tracé_981" class="st3" d="M182.06,12.33H25.23c0.65-5.2,5.07-9.1,10.31-9.11h136.2C176.99,3.23,181.4,7.13,182.06,12.33
		z"/>
	<circle id="Ellipse_21" class="st4" cx="103.43" cy="7.59" r="3.26"/>
	<rect id="Rectangle_56" x="104.51" y="14.51" class="st5" width="73.27" height="40.99"/>
	<rect id="Rectangle_57" x="29.66" y="14.51" class="st5" width="73.27" height="81.38"/>
	<linearGradient id="Tracé_982_1_" gradientUnits="userSpaceOnUse" x1="78.3823" y1="59.4059" x2="50.3997" y2="107.8733">
		<stop  offset="0" style="stop-color:#007BFF"/>
		<stop  offset="0.986" style="stop-color:#0E6293"/>
	</linearGradient>
	<path id="Tracé_982" class="st6" d="M45.13,62.79c5.43-2.54,12.03-2.89,18.35-3.13c6.82-0.26,14.16-0.36,19.82,2.6
		c2.64,1.52,5.03,3.45,7.09,5.71c0.76,0.68,1.4,1.47,1.91,2.35c0.46,1.11,0.65,2.31,0.55,3.5l-0.04,16.2
		c0.09,1.07-0.1,2.15-0.55,3.13c-1.51,2.75,3.72,2.69-0.12,2.69c-17.21,0-62.48,0.08-62.48,0.08c1-0.09,2.05-9.24,2.03-10.17
		c-0.08-3.23-1.01-5.95,0.55-8.98C34.96,71.43,38.62,65.82,45.13,62.79z"/>
	
		<linearGradient id="Tracé_983_1_" gradientUnits="userSpaceOnUse" x1="-199.0598" y1="470.6289" x2="-196.4569" y2="468.2422" gradientTransform="matrix(36.303 0 0 -49.6342 7307.877 23416.7402)">
		<stop  offset="0" style="stop-color:#010101;stop-opacity:0"/>
		<stop  offset="0.95" style="stop-color:#010101"/>
	</linearGradient>
	<path id="Tracé_983" class="st7" d="M85.2,79.1c-0.36,2.79-1.55,5.39-2.15,8.15c-0.61,2.76-0.46,5.93,1.46,7.97
		c1.92,2.04,7.45,6.62,7.96,7.3c1.01,1.35,12.71-0.85,15.99-0.52c1.81,0.18,3.59-5.97,5.51-9.78c0.62-0.96,1.3-1.88,2.02-2.76
		c1.57-2.36,1.54-5.46,0.93-8.23s-1.76-5.41-2.26-8.2c-0.61-3.4-0.3-7.08-1.93-10.11c-2.87-5.33-14.42-8.49-20.14-6.73
		C82.68,59.24,86.13,71.77,85.2,79.1z"/>
	<rect id="Rectangle_58" x="104.51" y="57.34" class="st5" width="73.27" height="40.99"/>
	<path id="Tracé_984" class="st8" d="M168.04,93.16c-1.35-1.59-3.04-2.9-4.19-4.65c-1.23-1.86-1.8-4.13-3.29-5.79
		c-2.27-2.55-6.1-3.01-9.48-2.47s-6.56,1.89-9.94,2.36c-4.14,0.56-8.86-0.08-12.02,2.65c-1.64,1.44-2.58,3.57-4.37,4.81
		c-1.65,0.95-3.51,1.46-5.41,1.49c-1.9,0.03-3.77,0.52-5.44,1.44c-1.58,1.05-2.59,3.23-1.71,4.88c1.05,1.98,3.81,2.05,6.05,1.87
		c9.9-0.83,19.81-1.57,29.75-1.69c4.95-0.06,9.92,0.04,14.86,0.36c1.18,0.08,6.27,1.2,7.01,0.38
		C171.07,97.44,168.85,94.12,168.04,93.16z"/>
	<linearGradient id="Tracé_985_1_" gradientUnits="userSpaceOnUse" x1="104.6149" y1="53.0229" x2="104.6149" y2="100.2944">
		<stop  offset="0" style="stop-color:#0572D6"/>
		<stop  offset="0.986" style="stop-color:#0E6293"/>
	</linearGradient>
	<path id="Tracé_985" class="st9" d="M89.8,76.43c-0.36,2.79-1.55,5.39-2.15,8.15c-0.61,2.76-0.46,5.93,1.46,7.97
		c1.92,2.04,7.45,6.62,7.96,7.3c1.01,1.35,12.71-0.85,15.99-0.52c1.82,0.18,3.59-5.97,5.51-9.78c0.62-0.96,1.3-1.88,2.02-2.76
		c1.57-2.36,1.54-5.46,0.93-8.23s-1.76-5.41-2.26-8.2c-0.61-3.4-0.3-7.08-1.93-10.11c-2.87-5.33-14.42-8.49-20.14-6.73
		C87.28,56.57,90.73,69.1,89.8,76.43z"/>
	<path id="Tracé_986" class="st10" d="M105.04,34.02c3.44,0.61,6.25,3.09,7.28,6.43c0.85,2.87,0.23,5.98,0.4,8.98
		c0.14,2.45,0.81,4.85,1.96,7.02c0.78,1.27,1.49,2.58,2.13,3.93c1.5,4,0.19,8.52-3.23,11.08c-1.72,1.04-3.52,1.93-5.39,2.68
		c-2.33,1.17-4.38,2.82-6.01,4.85c-2.65,0.05-4.58-2.67-5.03-5.27c-0.44-2.61,0.1-5.3-0.18-7.94c-0.5-4.57-3.45-9.13-1.89-13.46
		c0.68-1.88,2.18-3.54,2.12-5.54c-0.11-3.45-3.65-5.47-1.44-9.09C97.44,34.95,102.08,33.54,105.04,34.02z"/>
	<path id="Tracé_988" class="st11" d="M95.18,148.91c-0.28-0.01-0.56,0.06-0.8,0.19c-0.34,0.29-0.49,0.76-0.39,1.2
		c0.06,0.44,0.25,0.85,0.3,1.29c0.04,0.38,0,0.83,0.29,1.08c0.21,0.16,0.46,0.25,0.72,0.24c0.5,0.05,1,0.09,1.5,0.1
		c0.19,0.02,0.38-0.01,0.55-0.09c0.39-0.21,0.4-0.76,0.38-1.2c-0.01-0.44,0.46-2.45,0.24-2.76
		C97.58,148.48,95.73,148.88,95.18,148.91z"/>
	<path id="Tracé_989" class="st11" d="M108.74,148.91c-0.28-0.01-0.56,0.06-0.8,0.19c-0.35,0.29-0.5,0.75-0.4,1.2
		c0.07,0.44,0.25,0.85,0.3,1.29c0.04,0.38,0,0.83,0.29,1.08c0.21,0.16,0.46,0.24,0.72,0.24c0.5,0.05,1,0.09,1.5,0.1
		c0.19,0.02,0.38-0.01,0.56-0.09c0.39-0.21,0.4-0.76,0.36-1.2s0.47-2.45,0.24-2.76C111.15,148.48,109.3,148.88,108.74,148.91z"/>
	<path id="Tracé_990" class="st10" d="M95.69,152.39c-0.51-0.14-1.05-0.07-1.51,0.19c-0.08,0.08-0.17,0.14-0.27,0.2
		c-0.12,0.04-0.25,0.06-0.38,0.06c-0.56,0.09-1.01,0.5-1.16,1.05c-0.14,0.54-0.11,1.11,0.1,1.63c0.06,0.24,0.19,0.45,0.36,0.62
		c0.17,0.13,0.38,0.22,0.59,0.26c0.86,0.21,1.73,0.33,2.61,0.38c0.54,0.1,1.1,0,1.58-0.29c0.43-0.46,0.65-1.07,0.62-1.69
		c0.07-0.48,0.05-0.96-0.04-1.44C97.81,151.88,96.78,152.55,95.69,152.39z"/>
	<path id="Tracé_991" class="st10" d="M109.23,152.39c-0.51-0.14-1.05-0.07-1.51,0.19c-0.08,0.08-0.17,0.14-0.27,0.2
		c-0.12,0.04-0.25,0.06-0.38,0.06c-0.56,0.09-1.01,0.5-1.16,1.05c-0.14,0.54-0.11,1.11,0.1,1.63c0.06,0.24,0.18,0.45,0.36,0.62
		c0.17,0.13,0.37,0.22,0.59,0.26c0.86,0.21,1.74,0.33,2.62,0.38c0.54,0.1,1.1,0,1.57-0.29c0.43-0.46,0.65-1.07,0.62-1.69
		c0.07-0.48,0.05-0.96-0.04-1.44C111.35,151.88,110.32,152.55,109.23,152.39z"/>
	
		<linearGradient id="Tracé_992_1_" gradientUnits="userSpaceOnUse" x1="-192.8722" y1="465.1114" x2="-191.8388" y2="465.1114" gradientTransform="matrix(18.4852 0 0 -27.6053 3626.9399 12897.0996)">
		<stop  offset="0" style="stop-color:#E5C6D6"/>
		<stop  offset="0.42" style="stop-color:#EAD4D0"/>
		<stop  offset="1" style="stop-color:#F0E9CB"/>
	</linearGradient>
	<path id="Tracé_992" class="st12" d="M60.75,68.56c1.91,1.59,4.39,2.34,6.86,2.08c3.27-0.57,5.18-3.59,5.58-6.51
		c0.41-2.92-0.27-5.91-0.1-8.86c0.1-1.85,0.54-3.71,0.03-5.53c-0.76-2.74-3.72-4.89-6.89-5.28c-3.09-0.36-6.16,0.77-8.29,3.03
		c-2.91,3.23-2.02,7.1-2.18,10.95C55.72,62.42,57.57,66.18,60.75,68.56z"/>
	
		<linearGradient id="Tracé_993_1_" gradientUnits="userSpaceOnUse" x1="-192.0853" y1="444.3973" x2="-192.1215" y2="447.6202" gradientTransform="matrix(17.557 0 0 -9.923 3437.4783 4473.6431)">
		<stop  offset="0" style="stop-color:#010101;stop-opacity:0"/>
		<stop  offset="0.95" style="stop-color:#010101"/>
	</linearGradient>
	<path id="Tracé_993" class="st13" d="M56.56,54.89c0,0,3.27,9.45,9.54,9.45s7.18-3.18,7.18-3.18l-0.27-5.09L56.56,54.89z"/>
	
		<linearGradient id="Tracé_994_1_" gradientUnits="userSpaceOnUse" x1="-197.8727" y1="468.0182" x2="-196.9203" y2="468.0182" gradientTransform="matrix(30.6684 0 0 -37.1538 6118.627 17431.2871)">
		<stop  offset="0" style="stop-color:#E5C6D6"/>
		<stop  offset="0.42" style="stop-color:#EAD4D0"/>
		<stop  offset="1" style="stop-color:#F0E9CB"/>
	</linearGradient>
	<path id="Tracé_994" class="st14" d="M79.14,43.58c-0.07,2.79-0.53,5.56-1.36,8.23c-0.84,2.68-2.52,5.02-4.79,6.68
		c-3.36,2.12-7.55,2.42-11.18,0.82c-3.58-1.63-6.48-4.46-8.2-8c-1.83-3.46-2.96-7.24-3.33-11.13c-0.29-2.98,0.26-5.98,1.57-8.67
		c1.57-2.72,4.15-4.72,7.18-5.57c3.01-0.82,6.13-1.14,9.24-0.94c2.53-0.08,5.06,0.4,7.38,1.41c2.57,1.11,4.09,3.8,3.7,6.58
		C78.83,36.42,79.33,40.1,79.14,43.58z"/>
	<path id="Tracé_995" class="st10" d="M54.33,42.2c-0.8-0.41-1.24-1.5-2.13-1.58c-0.57-0.01-1.08,0.33-1.3,0.85
		c-0.2,0.52-0.24,1.08-0.12,1.63c0.23,1.29,0.88,2.47,1.86,3.35c0.45,0.31,0.82,0.73,1.08,1.22c0.1,0.38,0.11,0.78,0.04,1.17
		l-0.36,2.78c-1.4-0.55-2.48-1.69-2.95-3.11c-0.46-1.41-0.75-2.87-0.87-4.34c-0.13-0.99-0.3-1.98-0.42-2.98
		c-0.25-2.01-0.33-4.05-0.4-6.08l-0.07-2.1c-0.21-2.58-0.08-5.17,0.38-7.71c0.11-0.66,0.37-1.28,0.76-1.82
		c0.5-0.53,1.1-0.95,1.78-1.24L57,19.51c1.46-0.79,3-1.44,4.58-1.96c1.22-0.32,2.46-0.56,3.71-0.72c1.94-0.43,3.95-0.46,5.9-0.1
		c2.45,0.63,4.46,2.49,6.93,3.03c1.23,0.12,2.46,0.33,3.66,0.62c2.46,0.89,3.71,3.68,3.95,6.29c0.29,1.65-0.1,3.35-1.08,4.71
		c-0.92,1.1-2.37,1.62-3.38,2.65c-1.12,1.14-1.6,2.84-2.87,3.8c-1.56,0.97-3.52,1.04-5.16,0.21c-1.59-0.85-3.13-1.79-4.6-2.83
		c-0.72-0.53-1.62-0.77-2.51-0.68c-1.25,0.26-1.95,1.6-3.06,2.24c-1.04,0.5-2.22,0.61-3.33,0.3c-1.33-0.27-2.91-0.54-3.82,0.72
		C55.14,39.16,54.6,40.65,54.33,42.2z"/>
	
		<linearGradient id="Tracé_996_1_" gradientUnits="userSpaceOnUse" x1="-131.0996" y1="397.9418" x2="-129.9491" y2="398.4113" gradientTransform="matrix(2.971 0 0 -4.0131 442.1271 1641.6322)">
		<stop  offset="0" style="stop-color:#010101;stop-opacity:0"/>
		<stop  offset="0.95" style="stop-color:#010101"/>
	</linearGradient>
	<path id="Tracé_996" class="st15" d="M52.97,43.55c-0.11-0.22-0.18-0.46-0.3-0.67c-0.12-0.22-0.35-0.36-0.6-0.36
		c-0.25,0.05-0.44,0.26-0.47,0.51c-0.03,0.24-0.01,0.49,0.07,0.72c0.14,0.48,0.32,0.95,0.55,1.39c0.14,0.3,0.34,0.56,0.58,0.78
		c0.29,0.2,0.62,0.34,0.97,0.39c0.13,0.04,0.26,0.03,0.38-0.03c0.07-0.06,0.11-0.14,0.13-0.23c0.12-0.42,0.28-1.3-0.07-1.67
		c-0.16-0.16-0.4-0.14-0.6-0.22C53.32,44.05,53.1,43.83,52.97,43.55z"/>
	<linearGradient id="Tracé_997_1_" gradientUnits="userSpaceOnUse" x1="138.4556" y1="42.6943" x2="150.7096" y2="63.9188">
		<stop  offset="0" style="stop-color:#007BFF"/>
		<stop  offset="0.986" style="stop-color:#0E6293"/>
	</linearGradient>
	<path id="Tracé_997" class="st16" d="M125.69,52.07c2.76-4.44,7.67-7.08,12.89-6.92c1.8,0.04,3.61,0.14,5.39,0.13
		c5.15-0.02,12.9-1.8,17.32,0.85c1.83,1.08,3.37,5.99,4.28,7.92c0.24,0.36,0.27,0.83,0.06,1.21c-0.27,0.27-0.66,0.38-1.03,0.31
		c-9.12-0.1-18.22,0.02-27.34-0.07c-2.06-0.02-12.81-0.05-12.81-0.05C124.58,54.24,125.01,53.08,125.69,52.07z"/>
	
		<linearGradient id="Tracé_998_1_" gradientUnits="userSpaceOnUse" x1="-180.1257" y1="446.7148" x2="-179.1371" y2="446.7148" gradientTransform="matrix(8.8657 0 0 -10.5786 1745.7147 4769.1904)">
		<stop  offset="0" style="stop-color:#E5C6D6"/>
		<stop  offset="0.42" style="stop-color:#EAD4D0"/>
		<stop  offset="1" style="stop-color:#F0E9CB"/>
	</linearGradient>
	<path id="Tracé_998" class="st17" d="M143.63,47.43c0.42,0.32,0.89,0.56,1.4,0.72c1.01,0.41,2.11,0.56,3.19,0.42
		c1.1-0.16,2.02-0.92,2.37-1.97c0.11-0.55,0.12-1.11,0.02-1.66l-0.22-1.98c-0.04-0.98-0.28-1.94-0.72-2.82
		c-0.9-1.4-2.68-1.97-4.23-1.35c-0.99,0.48-1.76,1.3-2.19,2.31C142.23,43.3,141.45,45.64,143.63,47.43z"/>
	
		<linearGradient id="Tracé_999_1_" gradientUnits="userSpaceOnUse" x1="-177.0845" y1="426.0716" x2="-176.594" y2="429.3612" gradientTransform="matrix(7.7728 0 0 -6.3 1521.7175 2729.9885)">
		<stop  offset="0" style="stop-color:#010101;stop-opacity:0"/>
		<stop  offset="0.95" style="stop-color:#010101"/>
	</linearGradient>
	<path id="Tracé_999" class="st18" d="M149.68,40.14c0,0-2.09,6-5.09,6s-2.23-2.91-2.23-2.91L149.68,40.14z"/>
	
		<linearGradient id="Tracé_1000_1_" gradientUnits="userSpaceOnUse" x1="-191.0277" y1="460.9447" x2="-190.0744" y2="460.9447" gradientTransform="matrix(15.3299 0 0 -20.2863 3066.4741 9384.9697)">
		<stop  offset="0" style="stop-color:#E5C6D6"/>
		<stop  offset="0.42" style="stop-color:#EAD4D0"/>
		<stop  offset="1" style="stop-color:#F0E9CB"/>
	</linearGradient>
	<path id="Tracé_1000" class="st19" d="M138.22,37.73c0.26,1.04,0.75,2,1.1,3.01c0.13,0.47,0.31,0.93,0.55,1.35
		c0.43,0.6,1.05,1.05,1.76,1.27c1.52,0.55,3.19,0.49,4.67-0.15c2-0.99,3.51-2.73,4.2-4.85c0.76-2.06,2.07-4.13,2.13-6.33
		c0.02-0.94-1.13-2.09-1.46-2.97c-0.42-0.94-1.04-1.78-1.82-2.46c-0.62-0.67-1.35-1.24-2.15-1.68c-1.98-0.98-4.42-0.42-6.29,0.75
		c-0.63,0.37-1.18,0.86-1.63,1.44c-1.08,1.48-0.91,3.26-0.93,4.97C138.34,34,137.74,35.79,138.22,37.73z"/>
	<path id="Tracé_1001" class="st20" d="M135.7,27.69c-0.52-1.08-0.85-2.24-0.97-3.43c-0.08-0.28-0.06-0.58,0.04-0.86
		c0.2-0.39,0.7-0.51,1-0.83c0.64-0.68,0.14-1.77,0.17-2.7c0.13-1.1,0.86-2.03,1.9-2.43c1.02-0.37,2.1-0.55,3.18-0.53
		c1.44-0.06,3.03-0.05,4.04,0.96c0.55,0.55,0.83,1.33,1.44,1.83c1.25,1.03,3.14,0.36,4.71,0.72c1.38,0.35,2.42,1.47,2.67,2.87
		c0.22,1.36-0.32,2.92,0.47,4.05c0.3,0.31,0.56,0.67,0.78,1.05c0.12,0.46,0.07,0.95-0.13,1.39c-0.6,1.79-1.42,3.49-2.44,5.07
		c-0.18,0.32-0.43,0.59-0.75,0.78c-0.33,0.16-0.88,2.1-1.08,1.8c-0.19-1.11-0.09-2.26,0.3-3.32c0.34-0.34,0.63-0.73,0.86-1.16
		c0.25-0.68-0.1-1.42-0.78-1.67c-0.56-0.2-1.19,0-1.53,0.5c0.36-2.19-0.82-4.78-2.99-5.24c-1.31-0.15-2.64,0.13-3.78,0.79
		C140.32,28.47,137.63,31.16,135.7,27.69z"/>
	
		<linearGradient id="Tracé_1002_1_" gradientUnits="userSpaceOnUse" x1="-62.3633" y1="343.2805" x2="-64.8386" y2="343.4643" gradientTransform="matrix(1.5056 0 0 -2.3696 244.9806 846.5957)">
		<stop  offset="0" style="stop-color:#010101;stop-opacity:0"/>
		<stop  offset="0.95" style="stop-color:#010101"/>
	</linearGradient>
	<path id="Tracé_1002" class="st21" d="M150.44,32.17c0.04-0.1,0.12-0.18,0.22-0.22c0.12-0.01,0.23,0.03,0.32,0.1
		c0.18,0.09,0.32,0.24,0.39,0.42c0.03,0.14,0.01,0.29-0.04,0.42c-0.07,0.29-0.18,0.56-0.33,0.82c-0.16,0.26-0.42,0.44-0.72,0.48
		c-0.13,0-0.34-0.32-0.33-0.44c0-0.12,0.13-0.19,0.19-0.31C150.34,33.06,150.22,32.59,150.44,32.17z"/>
	<path id="Tracé_1003" class="st10" d="M139.3,63.26c2.21-0.67,4.55-0.79,6.82-0.36c1.29,0.11,2.55,0.47,3.7,1.08
		c2.1,1.24,3.13,3.71,3.62,6.09c0.49,2.38,0.6,4.86,1.48,7.13c1.02,2.62,3.04,4.83,3.71,7.54c1.09,4.41-1.6,8.88-6.01,9.97
		c-0.67,0.17-1.35,0.25-2.04,0.24c-1.75,0-3.46-0.58-5.21-0.57c-3.62,0-7.08,2.48-10.62,1.74c-2.91-0.6-4.98-3.23-6.17-5.94
		c-0.86-1.65-1.1-3.55-0.66-5.35c0.78-2.4,3.32-3.8,4.45-6.05c1.44-2.83,0.36-6.18,1.58-9.05C135.06,67.1,136.39,64.31,139.3,63.26z
		"/>
	<path id="Tracé_1004" class="st5" d="M151.77,86.42c1.94,0.38,4.13,0.21,5.71,1.35c0.95,0.74,1.6,1.81,1.82,3
		c0.2,1.16,0.26,2.35,0.17,3.52l-0.13,3.48c0.01,0.13-0.02,0.26-0.1,0.36c-0.11,0.08-0.26,0.12-0.4,0.1l-30.05,0.1
		c-0.54-1.91-0.26-3.96,0.78-5.66c0.75-1.49,1.78-2.81,3.03-3.92c1.83-1.38,6.08-1.5,8.09-2.64c0.52-0.29,0.05-0.72,0.64-0.87
		c0.58-0.15,0.33-0.85,0.9-0.86c1.76-0.14,3.53-0.07,5.28,0.22C149.01,85.05,150.17,86.1,151.77,86.42z"/>
	
		<linearGradient id="Tracé_1005_1_" gradientUnits="userSpaceOnUse" x1="-179.2541" y1="453.6326" x2="-178.3017" y2="453.6326" gradientTransform="matrix(8.3162 0 0 -13.6867 1630.4606 6294.4463)">
		<stop  offset="0" style="stop-color:#E5C6D6"/>
		<stop  offset="0.42" style="stop-color:#EAD4D0"/>
		<stop  offset="1" style="stop-color:#F0E9CB"/>
	</linearGradient>
	<path id="Tracé_1005" class="st22" d="M140.04,87.43c-0.16,0.48-0.26,0.98-0.29,1.48c-0.01,1.16,0.6,2.24,1.59,2.83
		c1,0.57,2.22,0.63,3.27,0.16c1.14-0.57,2.02-1.56,2.44-2.76c0.42-1.19,0.62-2.45,0.61-3.71c0.05-1.68-0.05-3.36-0.29-5.03
		c0.08-0.57-0.32-1.09-0.89-1.17c-0.07-0.01-0.15-0.01-0.22-0.01c-2.04-0.29-4.01,0.83-4.81,2.72c-0.2,0.61-0.34,1.24-0.41,1.88
		C140.78,85.05,140.37,86.24,140.04,87.43z"/>
	
		<linearGradient id="Tracé_1006_1_" gradientUnits="userSpaceOnUse" x1="-175.2151" y1="417.1888" x2="-173.5836" y2="420.2517" gradientTransform="matrix(7.2419 0 0 -5.3092 1411.2935 2302.2976)">
		<stop  offset="0" style="stop-color:#010101;stop-opacity:0"/>
		<stop  offset="0.95" style="stop-color:#010101"/>
	</linearGradient>
	<path id="Tracé_1006" class="st23" d="M140.77,84.89c0,0-0.18,1.54,0.52,2.12s3.45,1.91,4.78,0.03c0.83-1.23,1.37-2.62,1.58-4.09
		L140.77,84.89z"/>
	
		<linearGradient id="Tracé_1007_1_" gradientUnits="userSpaceOnUse" x1="-189.8793" y1="460.1221" x2="-188.9384" y2="460.1221" gradientTransform="matrix(14.6674 0 0 -19.1374 2928.8591 8882.2422)">
		<stop  offset="0" style="stop-color:#E5C6D6"/>
		<stop  offset="0.42" style="stop-color:#EAD4D0"/>
		<stop  offset="1" style="stop-color:#F0E9CB"/>
	</linearGradient>
	<path id="Tracé_1007" class="st24" d="M136.96,79.82c0.36,1.12,2.48,5.1,5.4,5.82c6.29,1.56,8.21-9.52,7.9-11.85
		c-0.42-1.95-1.43-3.72-2.9-5.07c-1.64-1.27-3.84-1.52-5.72-0.65C136.69,70.19,135.38,75,136.96,79.82z"/>
	<path id="Tracé_1008" class="st10" d="M134.93,73.64c0.11,0.48,0.49,0.86,0.98,0.97c0.53-0.03,1.04-0.17,1.5-0.42
		c0.6-0.18,1.27-0.11,1.86-0.33c0.59-0.22,1.08-0.97,0.72-1.47c-0.17,0.77,0.84,1.28,1.63,1.2c0.76-0.23,1.55-0.27,2.33-0.14
		l0.3-1.53c-0.08,0.66,0.31,1.28,0.93,1.51c0.61,0.21,1.27,0.22,1.88,0.03c0.27-0.07,0.61-0.29,0.51-0.55
		c0.63,0.77,1.86,0.45,2.78,0.06c0.15-0.05,0.27-0.14,0.36-0.27c0.06-0.16,0.06-0.33,0-0.49c-0.32-1.51-0.86-2.96-1.6-4.31
		c-0.75-1.37-2.05-2.35-3.57-2.71c-0.88-0.11-1.77-0.07-2.63,0.14c-2.29,0.36-4.38,1.53-5.87,3.3
		C135.93,69.82,134.46,71.95,134.93,73.64z"/>
	<path id="Tracé_987" class="st10" d="M92.65,95.24l23.14,0.54c0,0,0.97,5.98,0.48,9.5c-0.48,3.52-0.72,11.64-0.72,11.64
		l-3.58,33.5h-4.5l-4.08-39.93l-5.04,40.85h-4.84C93.51,151.33,92.41,101.43,92.65,95.24z"/>
</g>
</svg>
