<svg xmlns="http://www.w3.org/2000/svg" xmlns:xlink="http://www.w3.org/1999/xlink" width="178.494" height="162.376" viewBox="0 0 178.494 162.376">
 <defs><style>.cls-1,.cls-12{fill:#007bff;}.cls-1{opacity:0.2;}.cls-2{fill:url(#linear-gradient);}.cls-3{fill:url(#linear-gradient-2);}.cls-4{fill:url(#linear-gradient-3);}.cls-5,.cls-6{fill:#fff;}.cls-5{opacity:0.65;}.cls-16,.cls-5,.cls-9{isolation:isolate;}.cls-7{fill:url(#linear-gradient-4);}.cls-8{fill:url(#linear-gradient-5);}.cls-9{fill:#1f9510;opacity:0.18;}.cls-10{fill:url(#linear-gradient-6);}.cls-11{fill:#606161;}.cls-13{fill:url(#linear-gradient-7);}.cls-14{fill:url(#linear-gradient-8);}.cls-15{fill:url(#linear-gradient-9);}.cls-16{opacity:0.5;fill:url(#linear-gradient-10);}.cls-17{fill:url(#linear-gradient-11);}.cls-18{fill:url(#linear-gradient-12);}.cls-19{fill:url(#linear-gradient-13);}.cls-20{fill:url(#linear-gradient-14);}.cls-21{fill:#e08142;}.cls-22{fill:url(#linear-gradient-15);}.cls-23{fill:url(#linear-gradient-16);}.cls-24{fill:url(#linear-gradient-17);}.cls-25{fill:url(#linear-gradient-18);}.cls-26{fill:none;}


</style><linearGradient id="linear-gradient" x1="-183.35" y1="466.67" x2="-182.35" y2="466.67" gradientTransform="matrix(6.62, 0, 0, -29, 1295.62, 13674.7)" gradientUnits="userSpaceOnUse"><stop offset="0" stop-color="#e5c6d6"/><stop offset="0.42" stop-color="#ead4d0"/><stop offset="1" stop-color="#f0e9cb"/></linearGradient><linearGradient id="linear-gradient-2" x1="-183.35" y1="466.67" x2="-182.35" y2="466.67" gradientTransform="matrix(6.61, 0, 0, -29, 1309.64, 13674.7)" xlink:href="#linear-gradient"/><linearGradient id="linear-gradient-3" x1="92.73" y1="1.12" x2="92.73" y2="10.69" gradientUnits="userSpaceOnUse"><stop offset="0" stop-color="#0572d6"/><stop offset="0.99" stop-color="#0e6293"/></linearGradient><linearGradient id="linear-gradient-4" x1="66.21" y1="60.11" x2="36.83" y2="111" gradientUnits="userSpaceOnUse"><stop offset="0" stop-color="#007bff"/><stop offset="0.99" stop-color="#0e6293"/></linearGradient><linearGradient id="linear-gradient-5" x1="-210.09" y1="471.64" x2="-207.35" y2="469.13" gradientTransform="matrix(36.3, 0, 0, -49.63, 7696.21, 23467.37)" gradientUnits="userSpaceOnUse"><stop offset="0" stop-color="#010101" stop-opacity="0"/><stop offset="0.95" stop-color="#010101"/></linearGradient><linearGradient id="linear-gradient-6" x1="93.75" y1="53.41" x2="93.75" y2="103.04" xlink:href="#linear-gradient-3"/><linearGradient id="linear-gradient-7" x1="-203.98" y1="466.13" x2="-202.9" y2="466.13" gradientTransform="matrix(18.49, 0, 0, -27.61, 3819.28, 12925.71)" xlink:href="#linear-gradient"/><linearGradient id="linear-gradient-8" x1="-203.19" y1="445.4" x2="-203.23" y2="448.79" gradientTransform="matrix(17.56, 0, 0, -9.92, 3619.61, 4484.57)" xlink:href="#linear-gradient-5"/><linearGradient id="linear-gradient-9" x1="-208.96" y1="469.05" x2="-207.96" y2="469.05" gradientTransform="matrix(30.67, 0, 0, -37.15, 6444.98, 17469.44)" xlink:href="#linear-gradient"/><linearGradient id="linear-gradient-10" x1="-142.93" y1="399.2" x2="-141.72" y2="399.69" gradientTransform="matrix(2.97, 0, 0, -4.01, 463.81, 1646.65)" xlink:href="#linear-gradient-5"/><linearGradient id="linear-gradient-11" x1="129.28" y1="42.56" x2="142.15" y2="64.85" xlink:href="#linear-gradient-4"/><linearGradient id="linear-gradient-12" x1="-190.86" y1="447.82" x2="-189.82" y2="447.82" gradientTransform="matrix(8.87, 0, 0, -10.58, 1832.24, 4780.77)" xlink:href="#linear-gradient"/><linearGradient id="linear-gradient-13" x1="-187.81" y1="427.23" x2="-187.29" y2="430.68" gradientTransform="matrix(7.77, 0, 0, -6.3, 1596.22, 2737.29)" xlink:href="#linear-gradient-5"/><linearGradient id="linear-gradient-14" x1="-201.91" y1="462.02" x2="-200.91" y2="462.02" gradientTransform="matrix(15.33, 0, 0, -20.29, 3224.1, 9406.26)" xlink:href="#linear-gradient"/><linearGradient id="linear-gradient-15" x1="-71.73" y1="344.96" x2="-74.33" y2="345.15" gradientTransform="matrix(1.51, 0, 0, -2.37, 250.54, 849.97)" xlink:href="#linear-gradient-5"/><linearGradient id="linear-gradient-16" x1="-190.03" y1="454.56" x2="-189.03" y2="454.56" gradientTransform="matrix(8.32, 0, 0, -13.69, 1710.94, 6309.13)" xlink:href="#linear-gradient"/><linearGradient id="linear-gradient-17" x1="-185.94" y1="417.98" x2="-184.22" y2="421.2" gradientTransform="matrix(7.24, 0, 0, -5.31, 1479.95, 2308.61)" xlink:href="#linear-gradient-5"/><linearGradient id="linear-gradient-18" x1="-200.74" y1="461.09" x2="-199.75" y2="461.09" gradientTransform="matrix(14.67, 0, 0, -19.14, 3079.2, 8902.38)" xlink:href="#linear-gradient"/></defs><title>suivi123</title><path id="Tracé_977" data-name="Tracé 977" class="cls-1" d="M8.57,119.62a38.2,38.2,0,0,1-4.42-9.25c-3.56-9.8-6.34-21-1.73-30.34,3.39-6.87,10.15-11.37,16.94-14.9C37.63,55.63,58.13,50.8,76,40.47c3.7-2.15,7.37-4.56,11.52-5.49s8.78-.25,13.1.62a166.11,166.11,0,0,1,19.12,5.07,31.55,31.55,0,0,1,8.73,4c3.37,2.42,5.74,5.94,8.38,9.14,9.08,11,21.64,18.54,31.82,28.53,4.63,4.55,9,10,9.74,16.42.72,5.7-1.49,11.5-5.07,16s-8.44,7.8-13.5,10.52c-7.26,3.87-15.79,7.33-19,14.91-1.26,3-1.51,6.36-2.78,9.36-2.26,5.34-7.57,8.92-13.15,10.52s-11.49,1.51-17.29,1.44l-22.24-.36c-7.52-.11-15.74-.5-21.37-5.48-2.92-2.59-8.88-15.77-31.46-22.14C23.67,131,14.18,127.49,8.57,119.62Z" transform="translate(0)"/><path id="Tracé_978" data-name="Tracé 978" class="cls-2" d="M82.56,127.18l.26,28.75,3.56.25,2.8-28.49Z" transform="translate(0)"/><path id="Tracé_979" data-name="Tracé 979" class="cls-3" d="M96.81,127.18l.25,28.75,3.56.25,2.8-28.49Z" transform="translate(0)"/><rect id="Rectangle_55" data-name="Rectangle 55" class="cls-1" x="10.32" width="164.83" height="106.16" rx="29.7"/><path id="Tracé_980" data-name="Tracé 980" class="cls-1" d="M175,12V91a10.93,10.93,0,0,1-10.91,10.93h-143A10.93,10.93,0,0,1,10.17,91V12a12,12,0,0,1,.08-1.34A10.93,10.93,0,0,1,21.08,1.08h143a10.93,10.93,0,0,1,10.83,9.57A11.87,11.87,0,0,1,175,12Z" transform="translate(0)"/><path id="Tracé_981" data-name="Tracé 981" class="cls-4" d="M175.07,10.69H10.4A10.94,10.94,0,0,1,21.23,1.12h143A10.94,10.94,0,0,1,175.07,10.69Z" transform="translate(0)"/><circle id="Ellipse_21" data-name="Ellipse 21" class="cls-5" cx="92.51" cy="5.7" r="3.42"/><rect id="Rectangle_56" data-name="Rectangle 56" class="cls-6" x="93.64" y="12.97" width="76.93" height="43.04"/><rect id="Rectangle_57" data-name="Rectangle 57" class="cls-6" x="15.05" y="12.97" width="76.93" height="85.45"/><path id="Tracé_982" data-name="Tracé 982" class="cls-7" d="M31.29,63.66c5.7-2.66,12.64-3,19.28-3.29,7.16-.27,14.87-.37,20.81,2.73a30.76,30.76,0,0,1,7.44,6,9.77,9.77,0,0,1,2,2.47,8,8,0,0,1,.58,3.68l0,17a6.39,6.39,0,0,1-.58,3.28c-1.59,2.88,3.91,2.82-.13,2.82-18.07,0-65.6.09-65.6.09,1-.09,2.16-9.7,2.13-10.68-.08-3.39-1.06-6.25.58-9.43C20.61,72.74,24.46,66.85,31.29,63.66Z" transform="translate(0)"/><path id="Tracé_983" data-name="Tracé 983" class="cls-8" d="M73.36,80.79c-.38,2.93-1.62,5.66-2.26,8.56s-.48,6.23,1.53,8.37,7.83,7,8.36,7.66c1.06,1.42,13.35-.89,16.79-.55,1.9.19,3.77-6.27,5.78-10.27a33.2,33.2,0,0,1,2.13-2.9c1.64-2.47,1.62-5.73,1-8.64s-1.85-5.68-2.38-8.61c-.64-3.56-.32-7.43-2-10.62-3-5.6-15.15-8.91-21.15-7.06C70.72,59.94,74.34,73.09,73.36,80.79Z" transform="translate(0)"/><rect id="Rectangle_58" data-name="Rectangle 58" class="cls-6" x="93.64" y="57.94" width="76.93" height="43.04"/><path id="Tracé_984" data-name="Tracé 984" class="cls-9" d="M160.35,95.55c-1.42-1.67-3.19-3-4.4-4.87s-1.89-4.34-3.45-6.08c-2.39-2.68-6.41-3.17-10-2.6s-6.89,2-10.44,2.48c-4.34.59-9.3-.08-12.62,2.78-1.73,1.5-2.71,3.75-4.59,5a11.93,11.93,0,0,1-5.69,1.56,12.24,12.24,0,0,0-5.7,1.5c-1.67,1.1-2.73,3.4-1.79,5.13,1.1,2.08,4,2.16,6.34,2,10.39-.87,20.8-1.65,31.24-1.77,5.2-.06,10.41,0,15.6.38,1.24.08,6.58,1.26,7.36.4C163.53,100.05,161.2,96.57,160.35,95.55Z" transform="translate(0)"/><path id="Tracé_985" data-name="Tracé 985" class="cls-10" d="M78.19,78c-.37,2.93-1.62,5.65-2.26,8.56s-.48,6.22,1.54,8.37,7.82,7,8.35,7.66c1.07,1.42,13.35-.9,16.79-.55,1.91.19,3.77-6.28,5.79-10.27a33.08,33.08,0,0,1,2.12-2.9c1.64-2.47,1.62-5.73,1-8.64s-1.85-5.68-2.37-8.61c-.65-3.57-.32-7.43-2-10.62-3-5.6-15.15-8.92-21.14-7.07C75.55,57.14,79.17,70.29,78.19,78Z" transform="translate(0)"/><path id="Tracé_986" data-name="Tracé 986" class="cls-11" d="M94.2,33.46a9.78,9.78,0,0,1,7.64,6.74c.89,3,.24,6.28.42,9.43A18,18,0,0,0,104.32,57a45.41,45.41,0,0,1,2.23,4.12,10.14,10.14,0,0,1-3.39,11.64,38.72,38.72,0,0,1-5.66,2.81,19.22,19.22,0,0,0-6.31,5.09c-2.78.06-4.81-2.8-5.28-5.54s.11-5.56-.19-8.33c-.53-4.8-3.62-9.58-2-14.13.71-2,2.29-3.72,2.23-5.81-.12-3.62-3.83-5.75-1.51-9.55C86.22,34.43,91.09,33,94.2,33.46Z" transform="translate(0)"/><path id="Tracé_988" data-name="Tracé 988" class="cls-12" d="M83.84,154.09a1.65,1.65,0,0,0-.84.2,1.26,1.26,0,0,0-.41,1.25c.07.46.26.9.31,1.36s0,.87.3,1.13a1.25,1.25,0,0,0,.76.26c.52.05,1.05.09,1.57.1a1.33,1.33,0,0,0,.59-.09c.41-.23.41-.8.4-1.26s.48-2.57.24-2.9C86.37,153.64,84.42,154.06,83.84,154.09Z" transform="translate(0)"/><path id="Tracé_989" data-name="Tracé 989" class="cls-12" d="M98.08,154.09a1.65,1.65,0,0,0-.84.2,1.26,1.26,0,0,0-.41,1.25c.07.46.26.9.31,1.36s0,.87.3,1.13a1.25,1.25,0,0,0,.76.26c.52.05,1,.09,1.57.1a1.27,1.27,0,0,0,.58-.09c.41-.23.42-.8.38-1.26s.49-2.57.25-2.9C100.61,153.64,98.67,154.06,98.08,154.09Z" transform="translate(0)"/><path id="Tracé_990" data-name="Tracé 990" class="cls-11" d="M84.38,157.75a2.08,2.08,0,0,0-1.58.2,1.86,1.86,0,0,1-.28.21,1.39,1.39,0,0,1-.4.06,1.5,1.5,0,0,0-1.22,1.1A2.71,2.71,0,0,0,81,161a1.37,1.37,0,0,0,.37.65A1.49,1.49,0,0,0,82,162a15,15,0,0,0,2.75.4,2.32,2.32,0,0,0,1.65-.3,2.39,2.39,0,0,0,.65-1.78,4.51,4.51,0,0,0,0-1.51C86.61,157.21,85.52,157.91,84.38,157.75Z" transform="translate(0)"/><path id="Tracé_991" data-name="Tracé 991" class="cls-11" d="M98.6,157.75A2.11,2.11,0,0,0,97,158a.74.74,0,0,1-.67.27,1.51,1.51,0,0,0-1.23,1.1,2.86,2.86,0,0,0,.1,1.71,1.47,1.47,0,0,0,.38.65,1.39,1.39,0,0,0,.62.27,15,15,0,0,0,2.74.4,2.36,2.36,0,0,0,1.66-.3,2.47,2.47,0,0,0,.65-1.78,4.51,4.51,0,0,0-.05-1.51C100.83,157.21,99.74,157.91,98.6,157.75Z" transform="translate(0)"/><path id="Tracé_992" data-name="Tracé 992" class="cls-13" d="M47.7,69.72a9.71,9.71,0,0,0,7.21,2.18c3.43-.6,5.43-3.77,5.86-6.83s-.28-6.21-.1-9.3c.11-1.94.56-3.9,0-5.81-.8-2.88-3.91-5.14-7.23-5.54a10.28,10.28,0,0,0-8.7,3.18c-3.06,3.4-2.13,7.46-2.29,11.5A13,13,0,0,0,47.7,69.72Z" transform="translate(0)"/><path id="Tracé_993" data-name="Tracé 993" class="cls-14" d="M43.29,55.37s3.44,9.92,10,9.92S60.85,62,60.85,62l-.28-5.34Z" transform="translate(0)"/><path id="Tracé_994" data-name="Tracé 994" class="cls-15" d="M67,43.5a32,32,0,0,1-1.43,8.63,13.74,13.74,0,0,1-5,7A12.54,12.54,0,0,1,48.8,60a17.83,17.83,0,0,1-8.61-8.4,31.37,31.37,0,0,1-3.5-11.69,17.06,17.06,0,0,1,1.65-9.11A12.59,12.59,0,0,1,45.88,25a29.4,29.4,0,0,1,9.7-1,18.1,18.1,0,0,1,7.75,1.49,6.55,6.55,0,0,1,3.89,6.9C66.67,36,67.2,39.84,67,43.5Z" transform="translate(0)"/><path id="Tracé_995" data-name="Tracé 995" class="cls-11" d="M41,42c-.84-.42-1.3-1.57-2.24-1.65a1.42,1.42,0,0,0-1.36.89A2.86,2.86,0,0,0,37.22,43a6.2,6.2,0,0,0,2,3.51,3.59,3.59,0,0,1,1.14,1.28,2.83,2.83,0,0,1,0,1.23L40,51.92a5.27,5.27,0,0,1-3.1-3.26A20.36,20.36,0,0,1,36,44.09c-.13-1-.31-2.08-.44-3.12-.26-2.12-.34-4.25-.42-6.39L35,32.37a31.42,31.42,0,0,1,.4-8.1,4.75,4.75,0,0,1,.8-1.91,5.53,5.53,0,0,1,1.87-1.3l5.68-2.84a29.14,29.14,0,0,1,4.81-2.06,28.56,28.56,0,0,1,3.9-.75,15.36,15.36,0,0,1,6.19-.1c2.57.66,4.68,2.61,7.28,3.18a26.32,26.32,0,0,1,3.84.65c2.58.93,3.9,3.87,4.15,6.6a6.6,6.6,0,0,1-1.13,5c-1,1.15-2.49,1.7-3.55,2.78s-1.68,3-3,4a5.57,5.57,0,0,1-5.42.22,46.08,46.08,0,0,1-4.83-3A3.77,3.77,0,0,0,53.35,34c-1.31.27-2.05,1.68-3.21,2.35a5,5,0,0,1-3.5.32c-1.4-.28-3.06-.56-4,.76A14.63,14.63,0,0,0,41,42Z" transform="translate(0)"/><path id="Tracé_996" data-name="Tracé 996" class="cls-16" d="M39.53,43.47c-.12-.23-.19-.48-.32-.7a.7.7,0,0,0-.63-.38.63.63,0,0,0-.5.54,1.73,1.73,0,0,0,.07.75,8.48,8.48,0,0,0,.58,1.47,2.44,2.44,0,0,0,.61.82,2.48,2.48,0,0,0,1,.41.51.51,0,0,0,.4,0,.45.45,0,0,0,.14-.24c.13-.45.29-1.37-.08-1.76-.17-.17-.41-.14-.62-.22A1.27,1.27,0,0,1,39.53,43.47Z" transform="translate(0)"/><path id="Tracé_997" data-name="Tracé 997" class="cls-17" d="M115.88,52.41a15.4,15.4,0,0,1,13.54-7.27c1.88,0,3.79.14,5.65.14,5.41,0,13.54-1.89,18.19.89,1.93,1.13,3.54,6.28,4.49,8.32a1.23,1.23,0,0,1,.07,1.27,1.2,1.2,0,0,1-1.08.32c-9.58-.1-19.14,0-28.71-.07-2.16,0-13.45,0-13.45,0A7.84,7.84,0,0,1,115.88,52.41Z" transform="translate(0)"/><path id="Tracé_998" data-name="Tracé 998" class="cls-18" d="M134.71,47.54a4.55,4.55,0,0,0,1.47.75,6.63,6.63,0,0,0,3.35.45,3.12,3.12,0,0,0,2.5-2.07,4.9,4.9,0,0,0,0-1.75l-.22-2.07a7.25,7.25,0,0,0-.76-3,3.66,3.66,0,0,0-4.43-1.42,4.74,4.74,0,0,0-2.3,2.43C133.25,43.2,132.43,45.66,134.71,47.54Z" transform="translate(0)"/><path id="Tracé_999" data-name="Tracé 999" class="cls-19" d="M141.07,39.89s-2.2,6.3-5.34,6.3-2.34-3.06-2.34-3.06Z" transform="translate(0)"/><path id="Tracé_1000" data-name="Tracé 1000" class="cls-20" d="M129,37.36c.26,1.09.79,2.1,1.15,3.16a6.06,6.06,0,0,0,.58,1.42,3.57,3.57,0,0,0,1.85,1.34,6.69,6.69,0,0,0,4.9-.16A8.67,8.67,0,0,0,141.93,38c.8-2.17,2.18-4.34,2.24-6.65,0-1-1.19-2.19-1.53-3.12a7.49,7.49,0,0,0-1.91-2.58,9,9,0,0,0-2.26-1.77c-2.08-1-4.65-.44-6.61.78a6,6,0,0,0-1.71,1.51c-1.14,1.55-1,3.42-1,5.22C129.16,33.44,128.53,35.31,129,37.36Z" transform="translate(0)"/><path id="Tracé_1001" data-name="Tracé 1001" class="cls-21" d="M126.39,26.81a10.77,10.77,0,0,1-1-3.6,1.46,1.46,0,0,1,0-.9c.21-.41.73-.54,1.06-.87.67-.71.14-1.86.18-2.84a3.12,3.12,0,0,1,2-2.55A9,9,0,0,1,132,15.5c1.51-.07,3.19-.06,4.24,1,.58.58.88,1.4,1.51,1.91,1.31,1.09,3.3.38,5,.76a3.75,3.75,0,0,1,2.8,3c.23,1.43-.34,3.07.49,4.25a5.17,5.17,0,0,1,.82,1.1,2.28,2.28,0,0,1-.13,1.46,23.32,23.32,0,0,1-2.57,5.32,2.27,2.27,0,0,1-.78.82c-.35.17-.93,2.2-1.14,1.89a6.8,6.8,0,0,1,.32-3.49,4.65,4.65,0,0,0,.9-1.21A1.37,1.37,0,0,0,141,31.1c.38-2.3-.86-5-3.14-5.5a6.47,6.47,0,0,0-4,.82C131.24,27.63,128.41,30.45,126.39,26.81Z" transform="translate(0)"/><path id="Tracé_1002" data-name="Tracé 1002" class="cls-22" d="M141.86,31.51a.39.39,0,0,1,.23-.22.44.44,0,0,1,.33.11.63.63,0,0,1,.37.89,3.35,3.35,0,0,1-.34.86,1.1,1.1,0,0,1-.76.51c-.13,0-.35-.34-.35-.46s.13-.2.2-.33C141.76,32.45,141.63,32,141.86,31.51Z" transform="translate(0)"/><path id="Tracé_1003" data-name="Tracé 1003" class="cls-11" d="M130.17,64.16a15,15,0,0,1,7.16-.37,10,10,0,0,1,3.89,1.13c2.2,1.3,3.28,3.89,3.8,6.39s.62,5.1,1.55,7.48c1.07,2.76,3.18,5.07,3.9,7.92A8.64,8.64,0,0,1,142,97.43c-1.84,0-3.63-.61-5.47-.6-3.8,0-7.43,2.6-11.15,1.83-3-.63-5.23-3.39-6.48-6.23a8.06,8.06,0,0,1-.69-5.62c.82-2.52,3.48-4,4.67-6.36,1.51-3,.38-6.49,1.66-9.5C125.72,68.19,127.12,65.27,130.17,64.16Z" transform="translate(0)"/><path id="Tracé_1004" data-name="Tracé 1004" class="cls-6" d="M143.26,88.47c2,.4,4.34.22,6,1.42A5.24,5.24,0,0,1,151.18,93a14.78,14.78,0,0,1,.17,3.7l-.13,3.65a.42.42,0,0,1-.53.49l-31.55.11A7.57,7.57,0,0,1,120,95a13.84,13.84,0,0,1,3.18-4.11c1.92-1.45,6.39-1.58,8.49-2.77.55-.31.06-.75.67-.91s.35-.89,1-.9a22.84,22.84,0,0,1,5.54.23C140.36,87,141.58,88.14,143.26,88.47Z" transform="translate(0)"/><path id="Tracé_1005" data-name="Tracé 1005" class="cls-23" d="M130.94,89.54a6.35,6.35,0,0,0-.3,1.55,3.38,3.38,0,0,0,1.67,3,3.78,3.78,0,0,0,3.43.18,5.14,5.14,0,0,0,2.56-2.9,11.48,11.48,0,0,0,.64-3.9,31,31,0,0,0-.31-5.27,1.09,1.09,0,0,0-.93-1.23.89.89,0,0,0-.23,0,4.74,4.74,0,0,0-5.05,2.86,10.21,10.21,0,0,0-.44,2C131.72,87,131.3,88.29,130.94,89.54Z" transform="translate(0)"/><path id="Tracé_1006" data-name="Tracé 1006" class="cls-24" d="M131.72,86.86s-.19,1.63.54,2.23,3.62,2,5,0a10.21,10.21,0,0,0,1.66-4.29Z" transform="translate(0)"/><path id="Tracé_1007" data-name="Tracé 1007" class="cls-25" d="M127.72,81.55c.37,1.18,2.6,5.35,5.67,6.12,6.61,1.64,8.62-10,8.3-12.45a10.16,10.16,0,0,0-3.05-5.31,5.81,5.81,0,0,0-6-.69C127.43,71.43,126.06,76.48,127.72,81.55Z" transform="translate(0)"/><path id="Tracé_1008" data-name="Tracé 1008" class="cls-11" d="M125.58,75.05a1.36,1.36,0,0,0,1,1,3.73,3.73,0,0,0,1.57-.44c.64-.19,1.34-.12,2-.35s1.13-1,.76-1.55c-.19.82.88,1.35,1.7,1.27a5.35,5.35,0,0,1,2.45-.15l.31-1.61a1.52,1.52,0,0,0,1,1.59,3.19,3.19,0,0,0,2,0c.28-.08.64-.3.53-.58.66.81,2,.47,2.92.06a.76.76,0,0,0,.38-.28.77.77,0,0,0,0-.52A17,17,0,0,0,140.47,69a5.78,5.78,0,0,0-3.75-2.84,7.77,7.77,0,0,0-2.76.14,10.19,10.19,0,0,0-6.17,3.47C126.63,71,125.09,73.29,125.58,75.05Z" transform="translate(0)"/><path id="Tracé_987" data-name="Tracé 987" class="cls-11" d="M81.19,97.73l24.29.56s1,6.28.51,10-.75,12.22-.75,12.22l-3.76,35.17H96.75l-4.28-41.92-5.3,42.89H82.09S80.94,104.24,81.19,97.73Z" transform="translate(0)"/><rect class="cls-26" width="178.5" height="162.38"/></svg>