<svg id="Calque_1" data-name="Calque 1" xmlns="http://www.w3.org/2000/svg" viewBox="0 0 337.9 196.7"><defs>
<style>.cls-1{fill:#18ef18;}.cls-2{fill:#1778f2;}.cls-3{fill:none;}</style>
</defs><title>logo</title>
<g id="vertical">
<path d="M61,135.6v32H54.9V149.8l-8.1,17.8H42.7l-8.1-17.8v17.8H28.5v-32h5.3l10.9,23.6,10.9-23.6Z"/>
<path d="M87.9,160.5a9.39,9.39,0,0,1-1.4,2.6,10.44,10.44,0,0,1-2.3,2.4,11.09,11.09,0,0,1-3,1.7A10.94,10.94,0,0,1,73,167a12.12,12.12,0,0,1-6.2-6.4,11.58,11.58,0,0,1,0-9.3,13.91,13.91,0,0,1,2.5-3.8,11.83,11.83,0,0,1,3.7-2.6,11.66,11.66,0,0,1,4.5-.9,10.36,10.36,0,0,1,4.3.9,14.14,14.14,0,0,1,3.6,2.4,11.66,11.66,0,0,1,2.4,3.8,13.33,13.33,0,0,1,.9,4.9v.8c0,.3-.1.5-.1.7s-.1.5-.1.8H72.2a6.57,6.57,0,0,0,1.7,2.9,5.78,5.78,0,0,0,3.6,1.2,6.45,6.45,0,0,0,2-.3,3.1,3.1,0,0,0,1.3-.6,9,9,0,0,0,1-.9ZM77.5,149.6a5,5,0,0,0-3.7,1.3,6.15,6.15,0,0,0-1.9,3.3H83.1a6,6,0,0,0-1.8-3.3A5.35,5.35,0,0,0,77.5,149.6Zm.8-14.7h5.6l-4.6,6.4H75Z"/>
<path d="M95.6,138.7h5.1v5.6h5.1v5.3h-5.1v9.6a3,3,0,0,0,2.8,3.3h1.2l.5-.1c.1,0,.3-.1.4-.1v5.1c-.3.1-.5.2-.8.3a6.93,6.93,0,0,1-2,.3,8.66,8.66,0,0,1-3.2-.6,8.52,8.52,0,0,1-2.5-1.7,8.69,8.69,0,0,1-1.6-2.6,10.3,10.3,0,0,1-.6-3.5v-9.9H91.3v-4.8h1.5a2.42,2.42,0,0,0,2.8-2.1v-4.1Z"/>
<path d="M123,144a8.42,8.42,0,0,1,3.5.7,6.9,6.9,0,0,1,2.8,2,12.3,12.3,0,0,1,1.9,3.1,11.41,11.41,0,0,1,.7,4.1v13.7H126v-13a4.82,4.82,0,1,0-9.6,0v13h-5.8v-32h5.8v10.9a10.1,10.1,0,0,1,1.6-1.3c.6-.3,1.3-.6,2-.9A13.86,13.86,0,0,1,123,144Z"/>
<path d="M159.3,155.9a11.79,11.79,0,0,1-.9,4.6,13.91,13.91,0,0,1-2.5,3.8,13.73,13.73,0,0,1-3.7,2.6,10.87,10.87,0,0,1-9,0,12.12,12.12,0,0,1-6.2-6.4,11.58,11.58,0,0,1,0-9.3,13.91,13.91,0,0,1,2.5-3.8,11.83,11.83,0,0,1,3.7-2.6,10.87,10.87,0,0,1,9,0,12.12,12.12,0,0,1,6.2,6.4A13.06,13.06,0,0,1,159.3,155.9Zm-17.5,0a6,6,0,0,0,1.7,4.6,5.85,5.85,0,0,0,8.3,0h0a7.24,7.24,0,0,0,0-9.2,5.85,5.85,0,0,0-8.3,0h0A6.16,6.16,0,0,0,141.8,155.9Z"/><path d="M173.3,167.9a10.23,10.23,0,0,1-4.2-.9,10.72,10.72,0,0,1-3.5-2.5,13.6,13.6,0,0,1-2.4-3.8,13.25,13.25,0,0,1,0-9.6,13.6,13.6,0,0,1,2.4-3.8,10.72,10.72,0,0,1,3.5-2.5,9.9,9.9,0,0,1,4.2-.9,6.9,6.9,0,0,1,2.5.4,10.84,10.84,0,0,1,1.9.8,9.06,9.06,0,0,1,1.6,1.1V135.5h5.8v32h-4.3l-1-2.3a8.32,8.32,0,0,1-1.8,1.3,9.49,9.49,0,0,1-2.1.9A5.75,5.75,0,0,1,173.3,167.9Zm6.6-12a6,6,0,0,0-1.7-4.6,5.85,5.85,0,0,0-8.3,0h0a7.24,7.24,0,0,0,0,9.2,5.85,5.85,0,0,0,8.3,0h0A6.88,6.88,0,0,0,179.9,155.9Z"/><path d="M211.6,160.5a9.39,9.39,0,0,1-1.4,2.6,10.44,10.44,0,0,1-2.3,2.4,11.09,11.09,0,0,1-3,1.7,10.94,10.94,0,0,1-8.2-.2,12.12,12.12,0,0,1-6.2-6.4,11.58,11.58,0,0,1,0-9.3,13.91,13.91,0,0,1,2.5-3.8,11.83,11.83,0,0,1,3.7-2.6,11.66,11.66,0,0,1,4.5-.9,10.7,10.7,0,0,1,4.3.9,12.59,12.59,0,0,1,3.6,2.4,11.66,11.66,0,0,1,2.4,3.8,13.33,13.33,0,0,1,.9,4.9,2.2,2.2,0,0,1-.1.8c0,.3-.1.5-.1.7s-.1.5-.1.8H195.8a6.57,6.57,0,0,0,1.7,2.9,6.05,6.05,0,0,0,5.5.9,8.43,8.43,0,0,0,1.4-.6,9,9,0,0,0,1-.9Zm-10.4-10.9a5,5,0,0,0-3.7,1.3,6.85,6.85,0,0,0-1.9,3.3h11.2a6.15,6.15,0,0,0-1.9-3.3A5,5,0,0,0,201.2,149.6Z"/>
<path d="M240.6,135.6a12.6,12.6,0,0,1,4.3.8,10.14,10.14,0,0,1,3.5,2.3,10.59,10.59,0,0,1,2.3,11.7,9.76,9.76,0,0,1-2.3,3.4,11.81,11.81,0,0,1-3.5,2.3,10.6,10.6,0,0,1-4.3.8h-5.9v10.7h-6.1v-32Zm0,15.5a3.66,3.66,0,0,0,1.8-.4,4.18,4.18,0,0,0,1.5-1.1,8.28,8.28,0,0,0,1.1-1.5,4.75,4.75,0,0,0,0-3.7,4.18,4.18,0,0,0-1.1-1.5,8.28,8.28,0,0,0-1.5-1.1,3.92,3.92,0,0,0-1.8-.4h-5.9V151Z"/><path d="M261.6,167.6h-5.8v-32h5.8Z"/><path d="M276.6,167.9a9.86,9.86,0,0,1-3.8-.7,7.55,7.55,0,0,1-3-2,10,10,0,0,1-1.9-3.1,11.41,11.41,0,0,1-.7-4.1V144.3H273v13a4.68,4.68,0,0,0,1.4,3.7,5,5,0,0,0,7,0,5.49,5.49,0,0,0,1.4-3.7v-13h5.8v23.4h-4.3l-1-2.3a12.74,12.74,0,0,1-1.9,1.3,9.49,9.49,0,0,1-2.1.9A12.41,12.41,0,0,1,276.6,167.9Z"/>
<path d="M298.4,160.3a3.09,3.09,0,0,0,1.1,2,4,4,0,0,0,4.9,0,2.43,2.43,0,0,0,.9-1.8,1.42,1.42,0,0,0-.9-1.3,8.26,8.26,0,0,0-2.2-.8l-2.9-.8a14.76,14.76,0,0,1-2.9-1.2,7,7,0,0,1-2.2-2,6.44,6.44,0,0,1-.3-6,7.64,7.64,0,0,1,1.7-2.3,10.14,10.14,0,0,1,2.6-1.6,10.3,10.3,0,0,1,3.5-.6,9.67,9.67,0,0,1,6.5,2,8.26,8.26,0,0,1,2.7,5.1h-5.6a3.27,3.27,0,0,0-1.1-1.5,3.49,3.49,0,0,0-2.2-.8,3.32,3.32,0,0,0-2.1.7,2,2,0,0,0-.7,1.6,1.42,1.42,0,0,0,.9,1.3,8.26,8.26,0,0,0,2.2.8c.9.3,1.8.5,2.9.8a10.76,10.76,0,0,1,2.9,1.3,7.35,7.35,0,0,1,2.2,2.1,6.65,6.65,0,0,1,.9,3.4,6.26,6.26,0,0,1-.6,2.7,7.64,7.64,0,0,1-1.7,2.3,9.19,9.19,0,0,1-2.7,1.6,11.33,11.33,0,0,1-3.6.6q-4.65,0-6.9-2.1a7.87,7.87,0,0,1-2.7-5.5Z"/><path class="cls-1" d="M168.2,59.3a25.42,25.42,0,0,0-30.8,18.5,21.19,21.19,0,0,0-.7,6.1,25.7,25.7,0,0,0,.8,6.2,25.36,25.36,0,1,1,12.3-49.2,25.6,25.6,0,0,1,18.4,18.4Z"/><path class="cls-2" d="M162.2,66.8a25.42,25.42,0,0,0,18.5,30.8,24.83,24.83,0,0,0,6.1.7,25.7,25.7,0,0,0,6.2-.8,25.41,25.41,0,1,1-30.8-30.7Z"/><path class="cls-2" d="M169.7,72.8a25.42,25.42,0,0,0,30.8-18.5,24.83,24.83,0,0,0,.7-6.1,25.7,25.7,0,0,0-.8-6.2,25.41,25.41,0,1,1-30.7,30.8Z"/><path class="cls-1" d="M175.7,65.3a25.42,25.42,0,0,0-18.5-30.8,24.83,24.83,0,0,0-6.1-.7,25.7,25.7,0,0,0-6.2.8,25.41,25.41,0,1,1,49.3,12.3,25.73,25.73,0,0,1-18.5,18.4Z"/><rect class="cls-3" width="337.9" height="196.7"/></g></svg>