<?xml version="1.0" encoding="UTF-8" standalone="no"?>
<svg
   xmlns:dc="http://purl.org/dc/elements/1.1/"
   xmlns:cc="http://creativecommons.org/ns#"
   xmlns:rdf="http://www.w3.org/1999/02/22-rdf-syntax-ns#"
   xmlns:svg="http://www.w3.org/2000/svg"
   xmlns="http://www.w3.org/2000/svg"
   xmlns:xlink="http://www.w3.org/1999/xlink"
   version="1.1"
   viewBox="0 0 337.87 196.72"
   data-name="Calque 1"
   id="Calque_1">
  <metadata
     id="metadata51">
    <rdf:RDF>
      <cc:Work
         rdf:about="">
        <dc:format>image/svg+xml</dc:format>
        <dc:type
           rdf:resource="http://purl.org/dc/dcmitype/StillImage" />
      </cc:Work>
    </rdf:RDF>
  </metadata>
  <defs
     id="defs12">
    <style
       id="style2">.cls-1{fill:url(#Dégradé_sans_nom);}.cls-2{fill:url(#Dégradé_sans_nom_2);}.cls-3{fill:url(#Dégradé_sans_nom_3);}.cls-4{fill:url(#Dégradé_sans_nom_4);}.cls-5{fill:none;}</style>
    <linearGradient
       gradientUnits="userSpaceOnUse"
       gradientTransform="matrix(1, 0, 0, -1, 0.93, 198)"
       y2="132.81"
       x2="167.26"
       y1="132.81"
       x1="117.3"
       id="Dégradé_sans_nom">
      <stop
         id="stop4"
         stop-color="#2bd84b"
         offset="0" />
      <stop
         id="stop6"
         stop-color="#28a745"
         offset="1" />
    </linearGradient>
    <linearGradient
       xlink:href="#Dégradé_sans_nom"
       y2="106.2"
       x2="192.06"
       y1="106.2"
       x1="142.09"
       id="Dégradé_sans_nom_2" />
    <linearGradient
       xlink:href="#Dégradé_sans_nom"
       y2="131"
       x2="218.71"
       y1="131"
       x1="168.75"
       id="Dégradé_sans_nom_3" />
    <linearGradient
       xlink:href="#Dégradé_sans_nom"
       y2="157.65"
       x2="193.92"
       y1="157.65"
       x1="143.95"
       id="Dégradé_sans_nom_4" />
  </defs>
  <title
     id="title14">vertical11</title>
  <path
     id="path16"
     d="M61,135.62v32H54.93V149.84L46.8,167.62H42.73L34.6,149.84v17.78H28.51v-32h5.33l10.92,23.62,10.92-23.62Z" />
  <path
     id="path18"
     d="M87.93,160.51a10.62,10.62,0,0,1-1.4,2.64,11.1,11.1,0,0,1-2.28,2.36,11.85,11.85,0,0,1-3,1.7,10,10,0,0,1-3.68.66,10.91,10.91,0,0,1-4.5-.94,12,12,0,0,1-3.7-2.56,12,12,0,0,1,3.7-19.43,11.21,11.21,0,0,1,8.82-.07,10.7,10.7,0,0,1,3.55,2.43,11.28,11.28,0,0,1,2.41,3.79,12.76,12.76,0,0,1,.89,4.85,5.21,5.21,0,0,1,0,.79,5.83,5.83,0,0,1-.1.73l-.1.76H72.19a5.42,5.42,0,0,0,1.72,2.9,5.24,5.24,0,0,0,3.61,1.17,6.43,6.43,0,0,0,2-.26,5.65,5.65,0,0,0,1.35-.61,4.55,4.55,0,0,0,1-.91ZM77.52,149.59a5.25,5.25,0,0,0-3.73,1.32,5.85,5.85,0,0,0-1.86,3.25H83.1a5.9,5.9,0,0,0-1.85-3.25A5.31,5.31,0,0,0,77.52,149.59Zm.76-14.73h5.59l-4.57,6.35H75Z" />
  <path
     id="path20"
     d="M95.55,138.67h5.08v5.59h5.08v5.33h-5.08v9.65a3.07,3.07,0,0,0,2.82,3.3,3.84,3.84,0,0,0,.48,0h.66l.46-.08a2.74,2.74,0,0,0,.4-.15v5.07a4.5,4.5,0,0,1-.81.26,7.08,7.08,0,0,1-2,.25,8.42,8.42,0,0,1-3.18-.58,7,7,0,0,1-2.48-1.7A8.2,8.2,0,0,1,95.37,163a9.72,9.72,0,0,1-.58-3.46v-9.9H91.23v-4.83h1.52a2.47,2.47,0,0,0,2.8-2.09h0a2.73,2.73,0,0,0,0-.7Z" />
  <path
     id="path22"
     d="M123,144a8.92,8.92,0,0,1,3.53.69,7.7,7.7,0,0,1,2.82,2,9.69,9.69,0,0,1,1.86,3.12,11.8,11.8,0,0,1,.68,4.12v13.71H126v-13a5.06,5.06,0,0,0-1.35-3.68,5,5,0,0,0-7,0,5.06,5.06,0,0,0-1.35,3.68v13h-5.84v-32h5.84v10.92a7.73,7.73,0,0,1,1.58-1.27,11.38,11.38,0,0,1,2-.86A9.69,9.69,0,0,1,123,144Z" />
  <path
     id="path24"
     d="M159.29,155.94a11.6,11.6,0,0,1-.94,4.64,12.61,12.61,0,0,1-2.54,3.79,11.9,11.9,0,0,1-3.71,2.56,11.19,11.19,0,0,1-9,0,11.9,11.9,0,0,1-3.71-2.56,12.61,12.61,0,0,1-2.54-3.79,12,12,0,0,1,0-9.29,12.57,12.57,0,0,1,2.54-3.78,11.93,11.93,0,0,1,3.71-2.57,11.19,11.19,0,0,1,9,0,12.1,12.1,0,0,1,3.71,2.57,12.57,12.57,0,0,1,2.54,3.78A11.61,11.61,0,0,1,159.29,155.94Zm-17.53,0a6.35,6.35,0,0,0,1.68,4.62,5.88,5.88,0,0,0,8.32,0h0a7.19,7.19,0,0,0,0-9.24,5.88,5.88,0,0,0-8.32,0h0A6.35,6.35,0,0,0,141.76,155.94Z" />
  <path
     id="path26"
     d="M173.25,167.87a10,10,0,0,1-4.16-.89,10.86,10.86,0,0,1-3.48-2.48,12.41,12.41,0,0,1-2.39-3.79,13.22,13.22,0,0,1,0-9.55,12.24,12.24,0,0,1,2.39-3.78,10.63,10.63,0,0,1,3.48-2.49,10.13,10.13,0,0,1,4.16-.89,8.11,8.11,0,0,1,2.54.38,17,17,0,0,1,1.93.79,9.61,9.61,0,0,1,1.63,1.12V135.62h5.84v32h-4.32l-1-2.29a11,11,0,0,1-1.77,1.27,9.39,9.39,0,0,1-2.09.89A8.89,8.89,0,0,1,173.25,167.87Zm6.6-11.93a6.3,6.3,0,0,0-1.67-4.62,5.88,5.88,0,0,0-8.32,0h0a7.19,7.19,0,0,0,0,9.24,5.88,5.88,0,0,0,8.32,0h0a6.3,6.3,0,0,0,1.67-4.62Z" />
  <path
     id="path28"
     d="M211.6,160.51a10.62,10.62,0,0,1-1.4,2.64,10.91,10.91,0,0,1-2.29,2.36,11.85,11.85,0,0,1-3,1.7,10,10,0,0,1-3.68.66,10.91,10.91,0,0,1-4.5-.94,11.9,11.9,0,0,1-3.71-2.56,12.61,12.61,0,0,1-2.54-3.79,12,12,0,0,1,0-9.29,12.57,12.57,0,0,1,2.54-3.78,11.93,11.93,0,0,1,3.71-2.57,11.19,11.19,0,0,1,8.81-.07,10.74,10.74,0,0,1,3.56,2.43,11.6,11.6,0,0,1,2.41,3.79,12.76,12.76,0,0,1,.89,4.85,7,7,0,0,1-.05.79,5.83,5.83,0,0,1-.1.73l-.1.76h-16.3a5.46,5.46,0,0,0,1.73,2.9,5.24,5.24,0,0,0,3.61,1.17,6.43,6.43,0,0,0,2-.26,6.08,6.08,0,0,0,1.35-.61,4.55,4.55,0,0,0,1-.91Zm-10.41-10.92a5.34,5.34,0,0,0-3.74,1.32,6,6,0,0,0-1.85,3.25h11.17a6,6,0,0,0-1.85-3.25A5.36,5.36,0,0,0,201.19,149.59Z" />
  <path
     id="path30"
     d="M240.55,135.62a10.76,10.76,0,0,1,4.26.84,11.37,11.37,0,0,1,3.48,2.29,10.52,10.52,0,0,1,.22,14.86l-.22.22a11.37,11.37,0,0,1-3.48,2.29,10.92,10.92,0,0,1-4.26.83H234.7v10.67h-6.09v-32Zm0,15.49a4.24,4.24,0,0,0,1.82-.4,5.28,5.28,0,0,0,1.53-1.07,5.33,5.33,0,0,0,1.06-1.52,4.27,4.27,0,0,0,0-3.66,5.2,5.2,0,0,0-1.06-1.52,5.28,5.28,0,0,0-1.53-1.07,4.25,4.25,0,0,0-1.82-.41H234.7v9.65Z" />
  <path
     id="path32"
     d="M261.62,167.62h-5.84v-32h5.84Z" />
  <path
     id="path34"
     d="M276.61,167.87a10.56,10.56,0,0,1-3.81-.68,8.32,8.32,0,0,1-3-2,9.06,9.06,0,0,1-1.93-3.13,11.74,11.74,0,0,1-.68-4.11V144.26H273v13a5.06,5.06,0,0,0,1.35,3.68,5,5,0,0,0,7,0,5.06,5.06,0,0,0,1.35-3.68v-13h5.84v23.36h-4.32l-1-2.29a12.4,12.4,0,0,1-1.88,1.27,9.8,9.8,0,0,1-2.08.89A8.69,8.69,0,0,1,276.61,167.87Z" />
  <path
     id="path36"
     d="M298.44,160.25a3.33,3.33,0,0,0,1.12,2,4.07,4.07,0,0,0,4.85,0,2.3,2.3,0,0,0,.89-1.75,1.4,1.4,0,0,0-.89-1.27,12.56,12.56,0,0,0-2.21-.84l-2.87-.79a11.09,11.09,0,0,1-2.87-1.19,7.29,7.29,0,0,1-2.21-2,5.59,5.59,0,0,1-.89-3.28,6.53,6.53,0,0,1,.59-2.72,6.7,6.7,0,0,1,1.7-2.25,8.78,8.78,0,0,1,2.64-1.55,11.1,11.1,0,0,1,9.93,1.41,8.06,8.06,0,0,1,2.71,5.08h-5.59a3.19,3.19,0,0,0-1.09-1.52,3.24,3.24,0,0,0-2.21-.76,3,3,0,0,0-2.06.66,2.1,2.1,0,0,0-.74,1.62,1.4,1.4,0,0,0,.89,1.27,12.56,12.56,0,0,0,2.21.84c.88.25,1.84.53,2.87.81a11.11,11.11,0,0,1,2.87,1.25,7.3,7.3,0,0,1,2.21,2.11,5.89,5.89,0,0,1,.89,3.37,6.25,6.25,0,0,1-.61,2.72,6.73,6.73,0,0,1-1.73,2.26,8.6,8.6,0,0,1-2.71,1.55,10.38,10.38,0,0,1-3.58.58c-3.05,0-5.37-.69-6.94-2.08a8.2,8.2,0,0,1-2.71-5.54Z" />
  <path
     id="path38"
     d="M168.19,59.34A25.39,25.39,0,0,0,136.68,84a24.72,24.72,0,0,0,.77,6.17,25.36,25.36,0,1,1,30.74-30.79Z"
     class="cls-1" />
  <path
     id="path40"
     d="M162.2,66.82a25.39,25.39,0,0,0,18.52,30.76,25,25,0,0,0,6.1.75,24.72,24.72,0,0,0,6.17-.77A25.36,25.36,0,1,1,162.2,66.82Z"
     class="cls-2" />
  <path
     id="path42"
     d="M169.68,72.81a25.39,25.39,0,0,0,30.76-18.52,25,25,0,0,0,.75-6.1,24.72,24.72,0,0,0-.77-6.17,25.36,25.36,0,1,1-30.74,30.79Z"
     class="cls-3" />
  <path
     id="path44"
     d="M175.67,65.33a25.39,25.39,0,0,0-18.52-30.76,25,25,0,0,0-6.1-.75,24.72,24.72,0,0,0-6.17.77,25.36,25.36,0,1,1,30.79,30.74Z"
     class="cls-4" />
  <rect
     id="rect46"
     height="196.72"
     width="337.87"
     class="cls-5" />
</svg>
