<?xml version="1.0" encoding="UTF-8" standalone="no"?>
<svg
   xmlns:dc="http://purl.org/dc/elements/1.1/"
   xmlns:cc="http://creativecommons.org/ns#"
   xmlns:rdf="http://www.w3.org/1999/02/22-rdf-syntax-ns#"
   xmlns:svg="http://www.w3.org/2000/svg"
   xmlns="http://www.w3.org/2000/svg"
   xml:space="preserve"
   style="enable-background:new 0 0 337.9 196.7;"
   viewBox="0 0 337.9 196.7"
   y="0px"
   x="0px"
   id="Calque_1"
   version="1.1"><metadata
     id="metadata69"><rdf:RDF><cc:Work
         rdf:about=""><dc:format>image/svg+xml</dc:format><dc:type
           rdf:resource="http://purl.org/dc/dcmitype/StillImage" /></cc:Work></rdf:RDF></metadata><defs
     id="defs67" /><style
     id="style2"
     type="text/css">
	.st0{fill:url(#SVGID_1_);}
	.st1{fill:url(#SVGID_2_);}
	.st2{fill:url(#SVGID_3_);}
	.st3{fill:url(#SVGID_4_);}
	.st4{fill:none;}
</style><path
     id="path4"
     d="M61,135.6v32h-6.1v-17.8l-8.1,17.8h-4.1l-8.1-17.8v17.8h-6.1v-32h5.3l10.9,23.6l10.9-23.6H61z" /><path
     id="path6"
     d="M87.9,160.5c-0.3,0.9-0.8,1.8-1.4,2.6c-0.6,0.9-1.4,1.7-2.3,2.4c-0.9,0.7-1.9,1.3-3,1.7c-1.2,0.4-2.4,0.7-3.7,0.7  c-1.5,0-3.1-0.3-4.5-0.9c-1.4-0.6-2.6-1.5-3.7-2.6c-1.1-1.1-1.9-2.4-2.5-3.8c-2.5-6,0.3-13,6.2-15.6c2.8-1.2,6-1.3,8.8-0.1  c1.3,0.6,2.5,1.4,3.6,2.4c1,1.1,1.9,2.4,2.4,3.8c0.6,1.5,0.9,3.2,0.9,4.9c0,0.3,0,0.5,0,0.8c0,0.2-0.1,0.5-0.1,0.7l-0.1,0.8H72.2  c0.3,1.1,0.9,2.1,1.7,2.9c1,0.8,2.3,1.2,3.6,1.2c0.7,0,1.4-0.1,2-0.3c0.5-0.1,0.9-0.3,1.3-0.6c0.4-0.3,0.7-0.6,1-0.9L87.9,160.5z   M77.5,149.6c-1.4-0.1-2.7,0.4-3.7,1.3c-1,0.9-1.6,2-1.9,3.3h11.2c-0.2-1.3-0.9-2.4-1.8-3.3C80.2,150,78.9,149.5,77.5,149.6z   M78.3,134.9h5.6l-4.6,6.4H75L78.3,134.9z" /><path
     id="path8"
     d="M95.6,138.7h5.1v5.6h5.1v5.3h-5.1v9.6c-0.1,1.7,1.1,3.2,2.8,3.3c0.2,0,0.3,0,0.5,0h0.7l0.5-0.1c0.1,0,0.3-0.1,0.4-0.1v5.1  c-0.3,0.1-0.5,0.2-0.8,0.3c-0.7,0.2-1.3,0.3-2,0.3c-1.1,0-2.2-0.2-3.2-0.6c-0.9-0.4-1.8-1-2.5-1.7c-0.7-0.8-1.2-1.6-1.6-2.6  c-0.4-1.1-0.6-2.3-0.6-3.5v-9.9h-3.6v-4.8h1.5c1.3,0.2,2.6-0.7,2.8-2.1c0,0,0,0,0,0c0-0.2,0-0.5,0-0.7V138.7z" /><path
     id="path10"
     d="M123,144c1.2,0,2.4,0.2,3.5,0.7c1.1,0.4,2,1.1,2.8,2c0.8,0.9,1.4,2,1.9,3.1c0.5,1.3,0.7,2.7,0.7,4.1v13.7H126v-13  c0.1-1.4-0.4-2.7-1.3-3.7c-1.9-1.9-5.1-1.9-7,0c-0.9,1-1.4,2.3-1.3,3.7v13h-5.8v-32h5.8v10.9c0.5-0.5,1-0.9,1.6-1.3  c0.6-0.3,1.3-0.6,2-0.9C120.9,144.1,121.9,144,123,144z" /><path
     id="path12"
     d="M159.3,155.9c0,1.6-0.3,3.2-0.9,4.6c-0.6,1.4-1.5,2.7-2.5,3.8c-1.1,1.1-2.3,2-3.7,2.6c-2.9,1.3-6.1,1.3-9,0  c-1.4-0.6-2.6-1.5-3.7-2.6c-1.1-1.1-1.9-2.4-2.5-3.8c-1.2-3-1.2-6.3,0-9.3c0.6-1.4,1.5-2.7,2.5-3.8c1.1-1.1,2.3-2,3.7-2.6  c2.9-1.3,6.1-1.3,9,0c1.4,0.6,2.6,1.5,3.7,2.6c1.1,1.1,1.9,2.4,2.5,3.8C159,152.8,159.3,154.3,159.3,155.9z M141.8,155.9  c-0.1,1.7,0.5,3.4,1.7,4.6c2.3,2.3,6,2.3,8.3,0c0,0,0,0,0,0l0,0c2.2-2.7,2.2-6.6,0-9.2c-2.3-2.3-6-2.3-8.3,0c0,0,0,0,0,0l0,0  C142.3,152.6,141.7,154.2,141.8,155.9z" /><path
     id="path14"
     d="M173.3,167.9c-1.4,0-2.9-0.3-4.2-0.9c-1.3-0.6-2.5-1.4-3.5-2.5c-1-1.1-1.8-2.4-2.4-3.8c-1.2-3.1-1.2-6.5,0-9.6  c0.6-1.4,1.4-2.7,2.4-3.8c1-1.1,2.2-1.9,3.5-2.5c1.3-0.6,2.7-0.9,4.2-0.9c0.9,0,1.7,0.1,2.5,0.4c0.7,0.2,1.3,0.5,1.9,0.8  c0.6,0.3,1.1,0.7,1.6,1.1v-10.7h5.8v32h-4.3l-1-2.3c-0.5,0.5-1.1,0.9-1.8,1.3c-0.7,0.4-1.4,0.7-2.1,0.9  C175.1,167.8,174.2,167.9,173.3,167.9z M179.9,155.9c0.1-1.7-0.5-3.4-1.7-4.6c-2.3-2.3-6-2.3-8.3,0c0,0,0,0,0,0l0,0  c-2.2,2.7-2.2,6.6,0,9.2c2.3,2.3,6,2.3,8.3,0c0,0,0,0,0,0l0,0C179.3,159.3,179.9,157.6,179.9,155.9L179.9,155.9z" /><path
     id="path16"
     d="M211.6,160.5c-0.3,0.9-0.8,1.8-1.4,2.6c-0.6,0.9-1.4,1.7-2.3,2.4c-0.9,0.7-1.9,1.3-3,1.7c-1.2,0.4-2.4,0.7-3.7,0.7  c-1.5,0-3.1-0.3-4.5-0.9c-1.4-0.6-2.6-1.5-3.7-2.6c-1.1-1.1-1.9-2.4-2.5-3.8c-1.2-3-1.2-6.3,0-9.3c0.6-1.4,1.5-2.7,2.5-3.8  c1.1-1.1,2.3-2,3.7-2.6c2.8-1.2,6-1.3,8.8-0.1c1.3,0.6,2.5,1.4,3.6,2.4c1,1.1,1.9,2.4,2.4,3.8c0.6,1.5,0.9,3.2,0.9,4.9  c0,0.3,0,0.5-0.1,0.8c0,0.2-0.1,0.5-0.1,0.7l-0.1,0.8h-16.3c0.3,1.1,0.9,2.1,1.7,2.9c1,0.8,2.3,1.2,3.6,1.2c0.7,0,1.4-0.1,2-0.3  c0.5-0.1,0.9-0.4,1.4-0.6c0.4-0.3,0.7-0.6,1-0.9L211.6,160.5z M201.2,149.6c-1.4-0.1-2.7,0.4-3.7,1.3c-0.9,0.9-1.6,2-1.9,3.3h11.2  c-0.3-1.3-0.9-2.4-1.9-3.3C203.9,150,202.6,149.5,201.2,149.6z" /><path
     id="path18"
     d="M240.5,135.6c1.5,0,2.9,0.3,4.3,0.8c1.3,0.5,2.5,1.3,3.5,2.3c4.2,4,4.3,10.7,0.2,14.9c-0.1,0.1-0.1,0.1-0.2,0.2  c-1,1-2.2,1.7-3.5,2.3c-1.4,0.6-2.8,0.8-4.3,0.8h-5.9v10.7h-6.1v-32L240.5,135.6z M240.5,151.1c0.6,0,1.3-0.1,1.8-0.4  c0.6-0.3,1.1-0.6,1.5-1.1c0.4-0.4,0.8-1,1.1-1.5c0.5-1.2,0.5-2.5,0-3.7c-0.3-0.6-0.6-1.1-1.1-1.5c-0.4-0.4-1-0.8-1.5-1.1  c-0.6-0.3-1.2-0.4-1.8-0.4h-5.9v9.6L240.5,151.1z" /><path
     id="path20"
     d="M261.6,167.6h-5.8v-32h5.8V167.6z" /><path
     id="path22"
     d="M276.6,167.9c-1.3,0-2.6-0.2-3.8-0.7c-1.1-0.4-2.2-1.1-3-2c-0.9-0.9-1.5-2-1.9-3.1c-0.5-1.3-0.7-2.7-0.7-4.1v-13.7h5.8v13  c-0.1,1.4,0.4,2.7,1.4,3.7c1.9,1.9,5.1,1.9,7,0c0.9-1,1.4-2.3,1.4-3.7v-13h5.8v23.4h-4.3l-1-2.3c-0.6,0.5-1.2,0.9-1.9,1.3  c-0.7,0.4-1.4,0.7-2.1,0.9C278.4,167.8,277.5,167.9,276.6,167.9z" /><path
     id="path24"
     d="M298.4,160.3c0.1,0.8,0.5,1.5,1.1,2c1.4,1.1,3.4,1.1,4.9,0c0.5-0.4,0.9-1.1,0.9-1.8c0-0.6-0.4-1.1-0.9-1.3  c-0.7-0.4-1.4-0.6-2.2-0.8l-2.9-0.8c-1-0.3-2-0.7-2.9-1.2c-0.9-0.5-1.6-1.2-2.2-2c-0.6-1-0.9-2.1-0.9-3.3c0-0.9,0.2-1.9,0.6-2.7  c0.4-0.9,1-1.6,1.7-2.3c0.8-0.7,1.7-1.2,2.6-1.6c3.3-1.1,7-0.6,9.9,1.4c1.5,1.3,2.5,3.1,2.7,5.1h-5.6c-0.2-0.6-0.6-1.1-1.1-1.5  c-0.6-0.5-1.4-0.8-2.2-0.8c-0.7,0-1.5,0.2-2.1,0.7c-0.5,0.4-0.7,1-0.7,1.6c0,0.6,0.4,1.1,0.9,1.3c0.7,0.3,1.4,0.6,2.2,0.8  c0.9,0.3,1.8,0.5,2.9,0.8c1,0.3,2,0.7,2.9,1.3c0.9,0.5,1.6,1.3,2.2,2.1c0.6,1,0.9,2.2,0.9,3.4c0,0.9-0.2,1.9-0.6,2.7  c-0.4,0.9-1,1.6-1.7,2.3c-0.8,0.7-1.7,1.2-2.7,1.6c-1.2,0.4-2.4,0.6-3.6,0.6c-3,0-5.4-0.7-6.9-2.1c-1.6-1.4-2.6-3.4-2.7-5.5  L298.4,160.3z" /><linearGradient
     gradientTransform="matrix(1 0 0 -1 0.93 198)"
     y2="132.815"
     x2="167.26"
     y1="132.815"
     x1="117.3001"
     gradientUnits="userSpaceOnUse"
     id="SVGID_1_"><stop
       id="stop26"
       style="stop-color:#2BD84B"
       offset="0" /><stop
       id="stop28"
       style="stop-color:#2BD04A"
       offset="0.272" /><stop
       id="stop30"
       style="stop-color:#29BC48"
       offset="0.6824" /><stop
       id="stop32"
       style="stop-color:#28A745"
       offset="1" /></linearGradient><path
     id="path35"
     d="M168.2,59.3c-13.6-3.4-27.4,4.9-30.8,18.5c-0.5,2-0.8,4.1-0.7,6.1c0,2.1,0.3,4.2,0.8,6.2  C123.9,86.8,115.6,73,119,59.4c3.4-13.6,17.2-21.9,30.8-18.5C158.8,43.2,165.9,50.3,168.2,59.3L168.2,59.3z"
     class="st0" /><linearGradient
     gradientTransform="matrix(1 0 0 -1 0.93 198)"
     y2="106.2"
     x2="192.06"
     y1="106.2"
     x1="142.09"
     gradientUnits="userSpaceOnUse"
     id="SVGID_2_"><stop
       id="stop37"
       style="stop-color:#2BD84B"
       offset="0" /><stop
       id="stop39"
       style="stop-color:#28A745"
       offset="1" /></linearGradient><path
     id="path42"
     d="M162.2,66.8c-3.4,13.6,4.9,27.4,18.5,30.8c2,0.5,4,0.8,6.1,0.8c2.1,0,4.2-0.3,6.2-0.8  c-3.4,13.6-17.2,21.9-30.8,18.5c-13.6-3.4-21.9-17.2-18.5-30.8C146,76.2,153.1,69.1,162.2,66.8L162.2,66.8z"
     class="st1" /><linearGradient
     gradientTransform="matrix(1 0 0 -1 0.93 198)"
     y2="130.995"
     x2="218.7099"
     y1="130.995"
     x1="168.75"
     gradientUnits="userSpaceOnUse"
     id="SVGID_3_"><stop
       id="stop44"
       style="stop-color:#2BD84B"
       offset="0" /><stop
       id="stop46"
       style="stop-color:#2ACB49"
       offset="0.3339" /><stop
       id="stop48"
       style="stop-color:#28AA45"
       offset="0.9437" /><stop
       id="stop50"
       style="stop-color:#28A745"
       offset="1" /></linearGradient><path
     id="path53"
     d="M169.7,72.8c13.6,3.4,27.4-4.9,30.8-18.5c0.5-2,0.8-4,0.8-6.1c0-2.1-0.3-4.2-0.8-6.2  c13.6,3.4,21.9,17.2,18.5,30.8s-17.2,21.9-30.8,18.5C179.1,89,172,81.9,169.7,72.8L169.7,72.8z"
     class="st2" /><linearGradient
     gradientTransform="matrix(1 0 0 -1 0.93 198)"
     y2="157.65"
     x2="193.92"
     y1="157.65"
     x1="143.95"
     gradientUnits="userSpaceOnUse"
     id="SVGID_4_"><stop
       id="stop55"
       style="stop-color:#2BD84B"
       offset="0" /><stop
       id="stop57"
       style="stop-color:#28A745"
       offset="1" /></linearGradient><path
     id="path60"
     d="M175.7,65.3c3.4-13.6-4.9-27.4-18.5-30.8c-2-0.5-4-0.8-6.1-0.8c-2.1,0-4.2,0.3-6.2,0.8  c3.4-13.6,17.2-21.9,30.8-18.5c13.6,3.4,21.9,17.2,18.5,30.8C191.8,56,184.7,63,175.7,65.3L175.7,65.3z"
     class="st3" /><rect
     id="rect62"
     height="196.7"
     width="337.9"
     class="st4" /></svg>