<?xml version="1.0" encoding="UTF-8" standalone="no"?>
<svg
   xmlns:dc="http://purl.org/dc/elements/1.1/"
   xmlns:cc="http://creativecommons.org/ns#"
   xmlns:rdf="http://www.w3.org/1999/02/22-rdf-syntax-ns#"
   xmlns:svg="http://www.w3.org/2000/svg"
   xmlns="http://www.w3.org/2000/svg"
   viewBox="0 0 376.90668 203.36"
   height="203.36"
   width="376.90668"
   xml:space="preserve"
   id="svg2"
   version="1.1"><metadata
     id="metadata8"><rdf:RDF><cc:Work
         rdf:about=""><dc:format>image/svg+xml</dc:format><dc:type
           rdf:resource="http://purl.org/dc/dcmitype/StillImage" /></cc:Work></rdf:RDF></metadata><defs
     id="defs6"><clipPath
       id="clipPath42"
       clipPathUnits="userSpaceOnUse"><path
         id="path40"
         d="m 1396.8,1085.51 c -136.09,33.8 -273.81,-49.12 -307.62,-185.213 -4.98,-20.082 -7.5,-40.695 -7.48,-61.387 -0.04,-20.808 2.55,-41.539 7.7,-61.699 -135.884,33.941 -218.521,171.617 -184.58,307.499 33.946,135.89 171.61,218.52 307.5,184.58 90.76,-22.67 161.66,-93.46 184.48,-184.18 z" /></clipPath><linearGradient
       id="linearGradient48"
       spreadMethod="pad"
       gradientTransform="matrix(499.6,0,0,499.6,897.201,1027.06)"
       gradientUnits="userSpaceOnUse"
       y2="0"
       x2="1"
       y1="0"
       x1="0"><stop
         id="stop44"
         offset="0"
         style="stop-opacity:1;stop-color:#53c04c" /><stop
         id="stop46"
         offset="1"
         style="stop-opacity:1;stop-color:#38b64b" /></linearGradient><clipPath
       id="clipPath58"
       clipPathUnits="userSpaceOnUse"><path
         id="path56"
         d="m 1336.9,1010.71 c -33.79,-136.081 49.12,-273.796 185.2,-307.605 19.95,-4.98 40.43,-7.5 61,-7.5 20.81,-0.039 41.54,2.547 61.7,7.708 -33.95,-135.891 -171.61,-218.524 -307.5,-184.583 -135.88,33.946 -218.52,171.622 -184.58,307.5 22.67,90.758 93.46,161.661 184.18,184.48 z" /></clipPath><linearGradient
       id="linearGradient64"
       spreadMethod="pad"
       gradientTransform="matrix(499.7,0,0,499.7,1145.1,760.911)"
       gradientUnits="userSpaceOnUse"
       y2="0"
       x2="1"
       y1="0"
       x1="0"><stop
         id="stop60"
         offset="0"
         style="stop-opacity:1;stop-color:#53c04c" /><stop
         id="stop62"
         offset="1"
         style="stop-opacity:1;stop-color:#38b64b" /></linearGradient><clipPath
       id="clipPath74"
       clipPathUnits="userSpaceOnUse"><path
         id="path72"
         d="m 1411.7,950.813 c 136.08,-33.797 273.79,49.121 307.6,185.197 4.99,19.95 7.51,40.44 7.5,61 0.04,20.81 -2.55,41.54 -7.7,61.7 135.88,-33.94 218.52,-171.62 184.58,-307.499 -33.95,-135.883 -171.62,-218.523 -307.5,-184.578 -90.76,22.668 -161.66,93.461 -184.48,184.18 z" /></clipPath><linearGradient
       id="linearGradient80"
       spreadMethod="pad"
       gradientTransform="matrix(499.6,0,0,499.6,1411.7,1008.86)"
       gradientUnits="userSpaceOnUse"
       y2="0"
       x2="1"
       y1="0"
       x1="0"><stop
         id="stop76"
         offset="0"
         style="stop-opacity:1;stop-color:#53c04c" /><stop
         id="stop78"
         offset="1"
         style="stop-opacity:1;stop-color:#38b64b" /></linearGradient><clipPath
       id="clipPath90"
       clipPathUnits="userSpaceOnUse"><path
         id="path88"
         d="m 1471.6,1025.61 c 33.79,136.09 -49.12,273.79 -185.2,307.6 -19.95,4.99 -40.43,7.51 -61,7.5 -20.81,0.04 -41.54,-2.55 -61.7,-7.7 33.95,135.89 171.62,218.53 307.5,184.58 135.88,-33.94 218.52,-171.62 184.58,-307.5 -22.67,-90.75 -93.46,-161.66 -184.18,-184.48 z" /></clipPath><linearGradient
       id="linearGradient96"
       spreadMethod="pad"
       gradientTransform="matrix(499.7,0,0,499.7,1163.7,1275.41)"
       gradientUnits="userSpaceOnUse"
       y2="0"
       x2="1"
       y1="0"
       x1="0"><stop
         id="stop92"
         offset="0"
         style="stop-opacity:1;stop-color:#53c04c" /><stop
         id="stop94"
         offset="1"
         style="stop-opacity:1;stop-color:#38b64b" /></linearGradient></defs><g
     transform="matrix(1.3333333,0,0,-1.3333333,0,203.36)"
     id="g10"><g
       transform="scale(0.1)"
       id="g12"><path
         id="path14"
         style="fill:#040606;fill-opacity:1;fill-rule:nonzero;stroke:none"
         d="M 324.902,322.719 V 2.71875 H 264.199 V 180.512 L 182.898,2.71875 H 142.203 L 60.8984,180.512 V 2.71875 H 0 V 322.719 H 53.3008 L 162.5,86.5117 271.699,322.719 h 53.203" /><path
         id="path16"
         style="fill:#040606;fill-opacity:1;fill-rule:nonzero;stroke:none"
         d="m 497.699,330.309 h 55.899 l -45.7,-63.5 h -42.996 z m -7.597,-147.297 c -13.676,0.609 -27.055,-4.121 -37.301,-13.203 -9.594,-8.5 -16.133,-19.918 -18.602,-32.5 h 111.699 c -2.476,12.55 -8.968,23.961 -18.496,32.5 -10.269,9.043 -23.632,13.773 -37.3,13.203 z M 594.199,73.8086 c -3.398,-9.418 -8.109,-18.2969 -14,-26.3984 -6.386,-8.9493 -14.07,-16.8985 -22.797,-23.6016 -9.121,-7.0977 -19.23,-12.8203 -30,-17.00001 -11.742,-4.5 -24.23,-6.730465 -36.8,-6.58984 -15.5,-0.109375 -30.84,3.10156 -45,9.39063 -13.84,6.12112 -26.395,14.81252 -37.004,25.60942 -10.785,10.9023 -19.403,23.7617 -25.399,37.8906 -25.008,60.4296 2.664,129.7816 62.403,156.4026 28.066,12.289 59.941,12.539 88.195,0.707 13.359,-5.617 25.437,-13.891 35.504,-24.309 10.492,-10.89 18.687,-23.781 24.097,-37.898 6.094,-15.434 9.118,-31.91 8.903,-48.5 0.199,-2.633 0.199,-5.274 0,-7.903 -0.172,-2.449 -0.504,-4.89 -1.004,-7.3 l -0.996,-7.5981 h -163.5 c 2.504,-11.25 8.531,-21.4101 17.195,-28.9921 10.152,-8.2891 23.031,-12.4571 36.106,-11.7071 6.757,-0.1914 13.511,0.6875 20,2.5977 4.746,1.4297 9.289,3.4804 13.496,6.1015 3.769,2.5196 7.14,5.5782 10,9.0977 h 60.601" /><path
         id="path18"
         style="fill:#040606;fill-opacity:1;fill-rule:nonzero;stroke:none"
         d="m 670.398,292.211 h 50.801 V 236.309 H 772 V 183.012 H 721.199 V 86.5117 c -1.32,-16.9023 11.301,-31.6719 28.199,-33 1.602,-0.1015 3.204,-0.1015 4.801,0 h 6.602 l 4.597,0.7969 c 1.375,0.4023 2.711,0.9023 4,1.5 V 5.10938 c -2.613,-1.1211 -5.32,-1.98829 -8.101,-2.59766 -6.512,-1.79297 -13.246,-2.632814 -20,-2.5000012 C 730.426,-0.128906 719.629,1.85156 709.5,5.80859 700.102,9.60938 691.641,15.4102 684.703,22.8086 677.738,30.4219 672.281,39.2813 668.598,48.9102 664.586,60 662.617,71.7188 662.801,83.5117 v 99.0003 h -35.598 v 48.297 h 15.199 c 13.496,-1.957 26.036,7.39 27.996,20.89 v 0.012 c 0.305,2.32 0.305,4.68 0,7 v 33.5" /><path
         id="path20"
         style="fill:#040606;fill-opacity:1;fill-rule:nonzero;stroke:none"
         d="m 944.902,238.91 c 12.11,0.121 24.121,-2.23 35.297,-6.898 10.797,-4.442 20.441,-11.282 28.201,-20 8.11,-9.141 14.42,-19.723 18.6,-31.203 4.7,-13.219 7,-27.168 6.8,-41.2 V 2.51172 H 974.902 V 132.512 c 0.625,13.578 -4.238,26.847 -13.5,36.797 -19.445,19.062 -50.558,19.062 -70,0 -9.265,-9.95 -14.129,-23.219 -13.504,-36.797 V 2.51172 H 819.5 V 322.512 h 58.398 V 213.309 c 4.688,4.91 10,9.179 15.801,12.703 6.379,3.5 13.074,6.379 20,8.597 10.098,3.121 20.637,4.582 31.203,4.301" /><path
         id="path22"
         style="fill:#040606;fill-opacity:1;fill-rule:nonzero;stroke:none"
         d="m 1132.5,119.512 c -0.83,-17.032 5.22,-33.6839 16.8,-46.2034 22.95,-22.9805 60.18,-23 83.16,-0.0469 0.01,0.0196 0.02,0.0274 0.04,0.0469 v 0 c 22.41,26.7224 22.41,65.6714 0,92.4024 -22.95,22.969 -60.18,22.988 -83.15,0.039 -0.02,-0.012 -0.03,-0.031 -0.05,-0.039 v 0 c -11.58,-12.52 -17.63,-29.172 -16.8,-46.199 z m 175.3,0 c 0.09,-15.953 -3.11,-31.7503 -9.4,-46.4026 -6.09,-14.0781 -14.7,-26.918 -25.4,-37.8906 -10.62,-10.8282 -23.22,-19.5196 -37.1,-25.60942 -28.68,-12.59766 -61.32,-12.59766 -90,0 -13.88,6.08982 -26.48,14.78122 -37.1,25.60942 -10.7,10.9726 -19.31,23.8125 -25.4,37.8906 -12.47,29.7106 -12.47,63.1916 0,92.9026 6.1,14.039 14.7,26.847 25.4,37.797 10.62,10.851 23.21,19.57 37.1,25.703 28.68,12.597 61.32,12.597 90,0 13.87,-6.16 26.45,-14.883 37.1,-25.703 10.7,-10.95 19.3,-23.758 25.4,-37.797 6.3,-14.692 9.5,-30.524 9.4,-46.5" /><path
         id="path24"
         style="fill:#040606;fill-opacity:1;fill-rule:nonzero;stroke:none"
         d="m 1513.4,119.512 c 0.91,17.019 -5.11,33.687 -16.7,46.199 -22.95,22.969 -60.18,22.988 -83.16,0.039 -0.01,-0.012 -0.02,-0.031 -0.04,-0.039 v 0 c -22.41,-26.731 -22.41,-65.68 0,-92.4024 22.95,-22.9805 60.18,-23 83.15,-0.0469 0.02,0.0196 0.03,0.0274 0.05,0.0469 v 0 c 11.59,12.5117 17.61,29.1714 16.7,46.2034 z m -66,-119.29325 c -14.35,-0.058594 -28.53,2.97266 -41.6,8.89063 -13.13,5.87892 -24.96,14.31252 -34.8,24.80082 -10.22,11.0586 -18.32,23.9101 -23.9,37.8984 -11.9,30.7224 -11.9,64.7814 0,95.5004 5.58,13.961 13.68,26.769 23.9,37.8 9.79,10.571 21.63,19.039 34.8,24.903 13.08,5.879 27.26,8.918 41.6,8.898 8.61,0.09 17.18,-1.191 25.4,-3.801 6.59,-2.238 13.03,-4.879 19.3,-7.898 5.8,-3.172 11.26,-6.922 16.3,-11.199 v 106.707 h 58.4 V 2.71875 h -43.2 l -10,22.89065 c -5.46,-4.8086 -11.4,-9.0703 -17.7,-12.6992 -6.58,-3.80082 -13.6,-6.78911 -20.9,-8.89848 -8.94,-2.71094 -18.26,-3.9921887 -27.6,-3.79297" /><path
         id="path26"
         style="fill:#040606;fill-opacity:1;fill-rule:nonzero;stroke:none"
         d="m 1726.8,183.012 c -13.7,0.558 -27.09,-4.16 -37.4,-13.203 -9.47,-8.59 -15.95,-19.977 -18.5,-32.5 h 111.7 c -2.55,12.523 -9.03,23.91 -18.5,32.5 -10.3,9 -23.64,13.722 -37.3,13.203 z M 1830.9,73.8086 c -3.4,-9.418 -8.11,-18.2969 -14,-26.3984 -6.4,-8.9805 -14.12,-16.9297 -22.9,-23.6016 -9.11,-7.0977 -19.22,-12.8203 -30,-17.00001 -11.74,-4.5 -24.23,-6.730465 -36.8,-6.58984 -15.5,-0.109375 -30.84,3.10156 -45,9.39063 -13.89,6.08982 -26.47,14.78122 -37.1,25.60942 -10.7,10.9726 -19.3,23.8125 -25.4,37.8906 -12.47,29.7106 -12.47,63.1916 0,92.9026 6.1,14.039 14.7,26.847 25.4,37.797 10.62,10.851 23.21,19.57 37.1,25.703 28.03,12.289 59.87,12.527 88.1,0.707 13.39,-5.617 25.5,-13.891 35.6,-24.309 10.42,-10.941 18.62,-23.82 24.1,-37.898 6.09,-15.434 9.12,-31.91 8.9,-48.5 -0.02,-2.641 -0.18,-5.282 -0.5,-7.903 -0.17,-2.449 -0.51,-4.89 -1,-7.3 l -1,-7.5981 h -163 c 2.56,-11.25 8.62,-21.4101 17.3,-28.9921 10.14,-8.2891 23.02,-12.4571 36.1,-11.7071 6.76,-0.1914 13.52,0.6875 20,2.5977 4.73,1.4804 9.27,3.5312 13.5,6.1015 3.77,2.5196 7.14,5.5782 10,9.0977 h 60.6" /><path
         id="path28"
         style="fill:#040606;fill-opacity:1;fill-rule:nonzero;stroke:none"
         d="m 2120.4,167.809 c 6.28,-0.039 12.5,1.332 18.2,4 5.69,2.632 10.88,6.261 15.3,10.703 4.4,4.41 7.98,9.547 10.6,15.207 5.49,11.57 5.49,25 0,36.59 -2.59,5.66 -6.19,10.812 -10.6,15.203 -4.42,4.449 -9.61,8.066 -15.3,10.707 -5.69,2.691 -11.91,4.09 -18.2,4.09 h -58.5 v -96.5 z m 0,154.91 c 14.62,0.109 29.12,-2.739 42.6,-8.41 12.91,-5.418 24.71,-13.188 34.8,-22.899 41.64,-40.43 42.61,-106.98 2.18,-148.621 -0.72,-0.738 -1.44,-1.461 -2.18,-2.168 -10.09,-9.723 -21.89,-17.492 -34.8,-22.902 -13.5,-5.598 -27.99,-8.418 -42.6,-8.309 h -58.5 V 2.71875 H 2001 V 322.719 h 119.4" /><path
         id="path30"
         style="fill:#040606;fill-opacity:1;fill-rule:nonzero;stroke:none"
         d="m 2331.1,2.71875 h -58.4 V 322.719 h 58.4 V 2.71875" /><path
         id="path32"
         style="fill:#040606;fill-opacity:1;fill-rule:nonzero;stroke:none"
         d="m 2481,0.21875 c -13.01,-0.109375 -25.93,2.19141 -38.1,6.79297 -11.34,4.39848 -21.58,11.21878 -30,19.99998 -8.5,9.0078 -15.07,19.6602 -19.3,31.2969 -4.7,13.1797 -7,27.1016 -6.8,41.1016 V 236.309 h 58.4 v -130 c -0.63,-13.5902 4.24,-26.8481 13.5,-36.7973 19.44,-19.0625 50.56,-19.0625 70,0 9.26,9.9492 14.13,23.2071 13.5,36.7973 v 130 h 58.4 V 2.71875 h -43.2 l -10,22.89065 c -5.86,-4.8008 -12.16,-9.0508 -18.8,-12.6992 -6.56,-3.76176 -13.55,-6.75004 -20.8,-8.89848 -8.68,-2.66016 -17.73,-3.9414075 -26.8,-3.79297" /><path
         id="path34"
         style="fill:#040606;fill-opacity:1;fill-rule:nonzero;stroke:none"
         d="m 2699.3,76.4102 c 1.27,-7.7813 5.24,-14.8516 11.2,-20 14.4,-10.6914 34.09,-10.6914 48.5,0 5.43,4.2187 8.7,10.6289 8.9,17.5 -0.13,5.6406 -3.65,10.6484 -8.9,12.6992 -7.07,3.539 -14.47,6.3515 -22.1,8.4023 l -28.7,7.8983 c -10.08,2.59 -19.75,6.59 -28.7,11.899 -8.67,5.07 -16.19,11.882 -22.1,20 -6.3,9.742 -9.41,21.211 -8.9,32.8 -0.01,9.379 2,18.661 5.9,27.2 3.98,8.64 9.77,16.312 17,22.5 7.82,6.671 16.76,11.921 26.4,15.5 33.45,11.382 70.33,6.14 99.3,-14.098 14.95,-13.051 24.59,-31.121 27.1,-50.801 h -55.9 c -2.04,6.051 -5.83,11.34 -10.9,15.199 -6.17,5.192 -14.05,7.903 -22.1,7.602 -7.44,0.437 -14.8,-1.91 -20.6,-6.602 -4.74,-4.031 -7.46,-9.968 -7.4,-16.199 0.14,-5.64 3.64,-10.64 8.9,-12.691 7.09,-3.5 14.49,-6.309 22.11,-8.41 8.79,-2.5 18.39,-5.297 28.69,-8.098 10.11,-2.789 19.77,-7 28.7,-12.5 8.78,-5.402 16.31,-12.59 22.1,-21.102 6.3,-10.0777 9.4,-21.8277 8.9,-33.6988 0.04,-9.4102 -2.05,-18.6993 -6.1,-27.1993 -4.09,-8.6796 -9.99,-16.3906 -17.29,-22.6015 -8.02,-6.7774 -17.2,-12.03127 -27.11,-15.50002 -11.5,-4.01954 -23.62,-5.980474 -35.8,-5.800786 -30.5,0 -53.7,6.902346 -69.4,20.800806 -15.9,14.2422 -25.61,34.1094 -27.1,55.4023 l 55.4,-0.1015" /><g
         id="g36"><g
           clip-path="url(#clipPath42)"
           id="g38"><path
             id="path50"
             style="fill:url(#linearGradient48);fill-opacity:1;fill-rule:nonzero;stroke:none"
             d="m 1396.8,1085.51 c -136.09,33.8 -273.81,-49.12 -307.62,-185.213 -4.98,-20.082 -7.5,-40.695 -7.48,-61.387 -0.04,-20.808 2.55,-41.539 7.7,-61.699 -135.884,33.941 -218.521,171.617 -184.58,307.499 33.946,135.89 171.61,218.52 307.5,184.58 90.76,-22.67 161.66,-93.46 184.48,-184.18 v 0.4" /></g></g><g
         id="g52"><g
           clip-path="url(#clipPath58)"
           id="g54"><path
             id="path66"
             style="fill:url(#linearGradient64);fill-opacity:1;fill-rule:nonzero;stroke:none"
             d="m 1336.9,1010.71 c -33.79,-136.081 49.12,-273.796 185.2,-307.605 19.95,-4.98 40.43,-7.5 61,-7.5 20.81,-0.039 41.54,2.547 61.7,7.708 -33.95,-135.891 -171.61,-218.524 -307.5,-184.583 -135.88,33.946 -218.52,171.622 -184.58,307.5 22.67,90.758 93.46,161.661 184.18,184.48 v 0" /></g></g><g
         id="g68"><g
           clip-path="url(#clipPath74)"
           id="g70"><path
             id="path82"
             style="fill:url(#linearGradient80);fill-opacity:1;fill-rule:nonzero;stroke:none"
             d="m 1411.7,950.813 c 136.08,-33.797 273.79,49.121 307.6,185.197 4.99,19.95 7.51,40.44 7.5,61 0.04,20.81 -2.55,41.54 -7.7,61.7 135.88,-33.94 218.52,-171.62 184.58,-307.499 -33.95,-135.883 -171.62,-218.523 -307.5,-184.578 -90.76,22.668 -161.66,93.461 -184.48,184.18 v 0" /></g></g><g
         id="g84"><g
           clip-path="url(#clipPath90)"
           id="g86"><path
             id="path98"
             style="fill:url(#linearGradient96);fill-opacity:1;fill-rule:nonzero;stroke:none"
             d="m 1471.6,1025.61 c 33.79,136.09 -49.12,273.79 -185.2,307.6 -19.95,4.99 -40.43,7.51 -61,7.5 -20.81,0.04 -41.54,-2.55 -61.7,-7.7 33.95,135.89 171.62,218.53 307.5,184.58 135.88,-33.94 218.52,-171.62 184.58,-307.5 -22.67,-90.75 -93.46,-161.66 -184.18,-184.48 v 0" /></g></g></g></g></svg>