<?xml version="1.0" standalone="no"?>
<!DOCTYPE svg PUBLIC "-//W3C//DTD SVG 20010904//EN"
 "http://www.w3.org/TR/2001/REC-SVG-20010904/DTD/svg10.dtd">
<svg version="1.0" xmlns="http://www.w3.org/2000/svg"
 width="1178.000000pt" height="636.000000pt" viewBox="0 0 1178.000000 636.000000"
 preserveAspectRatio="xMidYMid meet">
<metadata>
Created by potrace 1.16, written by Peter Selinger 2001-2019
</metadata>
<g transform="translate(0.000000,636.000000) scale(0.100000,-0.100000)"
fill="#000000" stroke="none">
<path d="M2001 1255 c-39 -75 -71 -138 -71 -141 0 -3 44 -3 97 -2 l97 3 93
130 c51 71 93 133 93 137 0 5 -54 8 -119 8 l-119 0 -71 -135z"/>
<path d="M0 680 l0 -670 130 0 130 0 2 353 3 354 160 -351 161 -351 90 -3 90
-3 164 361 165 360 3 -360 2 -360 130 0 130 0 0 670 0 670 -118 0 -118 0 -219
-476 c-121 -261 -222 -477 -226 -479 -3 -3 -105 210 -227 473 l-221 477 -115
3 -116 3 0 -671z"/>
<path d="M3410 680 l0 -670 125 0 125 0 0 283 c0 299 5 339 47 395 72 96 234
96 306 0 42 -56 47 -96 47 -395 l0 -283 125 0 125 0 0 328 c0 264 -3 339 -16
387 -39 153 -145 250 -298 275 -107 17 -235 -12 -309 -70 l-27 -21 0 220 0
221 -125 0 -125 0 0 -670z"/>
<path d="M6280 1134 l0 -215 -27 19 c-161 111 -403 77 -544 -76 -156 -168
-182 -436 -64 -639 130 -220 430 -289 634 -144 l28 21 18 -45 17 -45 94 0 94
0 0 670 0 670 -125 0 -125 0 0 -216z m-112 -400 c91 -45 138 -138 130 -255
-16 -211 -247 -310 -397 -168 -42 39 -73 124 -73 195 0 191 177 309 340 228z"/>
<path d="M8330 680 l0 -670 135 0 135 0 0 225 0 225 159 0 c179 0 243 13 330
69 270 173 271 578 2 750 -103 67 -132 71 -463 71 l-298 0 0 -670z m573 404
c73 -37 127 -113 127 -179 0 -65 -52 -140 -122 -176 -31 -16 -59 -19 -173 -19
l-135 0 0 195 0 195 135 0 c105 0 143 -4 168 -16z"/>
<path d="M9460 680 l0 -670 130 0 130 0 0 670 0 670 -130 0 -130 0 0 -670z"/>
<path d="M2790 1134 c0 -96 0 -96 -34 -130 -31 -31 -40 -34 -90 -34 l-56 0 0
-105 0 -105 74 0 75 0 3 -262 c3 -245 5 -266 25 -310 31 -67 95 -132 156 -158
62 -27 166 -37 225 -21 l42 12 0 109 0 110 -44 -6 c-54 -8 -111 17 -137 60
-17 28 -19 53 -19 249 l0 217 105 0 105 0 0 115 0 115 -105 0 -105 0 0 120 0
120 -110 0 -110 0 0 -96z"/>
<path d="M1965 999 c-143 -21 -291 -133 -360 -272 -185 -376 154 -815 550
-712 76 20 142 57 205 114 48 44 120 151 120 178 0 10 -29 13 -125 13 -122 0
-126 -1 -165 -29 -111 -80 -272 -55 -335 53 -14 23 -25 46 -25 49 0 4 153 7
340 7 l340 0 1 43 c4 143 -13 236 -58 320 -96 175 -284 266 -488 236z m182
-264 c50 -25 91 -72 112 -127 l11 -28 -225 0 c-149 0 -225 4 -225 10 0 21 39
85 67 112 66 63 172 76 260 33z"/>
<path d="M4885 999 c-228 -34 -415 -255 -415 -492 0 -319 287 -559 592 -496
172 36 323 179 373 353 13 45 16 85 13 166 -4 98 -8 114 -41 184 -97 205 -303
317 -522 285z m170 -258 c130 -59 182 -229 111 -368 -102 -203 -389 -154 -437
75 -26 129 42 260 156 300 47 16 126 13 170 -7z"/>
<path d="M7118 999 c-125 -18 -263 -112 -337 -228 -103 -161 -99 -388 10 -550
137 -205 396 -278 609 -171 100 50 206 165 225 243 l7 27 -127 0 c-121 0 -129
-1 -157 -25 -29 -25 -113 -55 -153 -55 -57 0 -124 31 -163 75 -22 25 -42 54
-45 65 -5 20 0 20 333 20 l338 0 7 62 c20 192 -85 402 -243 486 -93 49 -199
67 -304 51z m200 -272 c42 -27 84 -82 97 -124 l6 -23 -226 0 -226 0 6 23 c19
60 75 121 135 146 14 6 57 10 96 8 58 -2 78 -7 112 -30z"/>
<path d="M11327 999 c-164 -19 -281 -127 -294 -271 -7 -75 11 -137 53 -187 49
-56 104 -85 244 -126 183 -54 215 -76 188 -132 -22 -45 -62 -67 -123 -67 -64
0 -99 21 -130 77 l-20 37 -119 0 -119 0 7 -43 c10 -62 48 -136 91 -181 120
-122 389 -142 542 -41 88 59 133 139 133 239 0 77 -17 123 -63 173 -56 61
-103 86 -232 124 -144 42 -171 54 -191 83 -12 20 -13 29 -4 48 22 42 51 58
109 58 52 0 57 -2 98 -45 l43 -45 116 0 116 0 -7 37 c-18 95 -91 189 -181 230
-46 21 -150 45 -179 42 -5 -1 -41 -5 -78 -10z"/>
<path d="M9940 675 c0 -193 4 -334 11 -367 27 -127 114 -235 227 -279 45 -18
78 -23 157 -23 93 -1 105 1 170 32 38 18 78 40 87 49 17 15 19 13 38 -31 l21
-46 94 0 95 0 0 490 0 490 -124 0 -125 0 -3 -302 -3 -303 -27 -47 c-32 -53
-108 -98 -168 -98 -60 0 -136 45 -168 98 l-27 47 -3 303 -3 302 -125 0 -124 0
0 -315z"/>
</g>
</svg>
