<svg xmlns="http://www.w3.org/2000/svg" xmlns:xlink="http://www.w3.org/1999/xlink" width="257.833" height="165.328" viewBox="0 0 257.833 165.328">
  <defs>
    <linearGradient id="linear-gradient" x1="0.5" y1="1" x2="0.5" gradientUnits="objectBoundingBox">
      <stop offset="0" stop-color="gray" stop-opacity="0.251"/>
      <stop offset="0.54" stop-color="gray" stop-opacity="0.122"/>
      <stop offset="1" stop-color="gray" stop-opacity="0.102"/>
    </linearGradient>
  </defs>
  <g id="undraw_mind_map_cwng" transform="translate(0.035)">
    <ellipse id="Ellipse_13" data-name="Ellipse 13" cx="44.847" cy="10.044" rx="44.847" ry="10.044" transform="translate(152.125 145.24)" fill="#1f9510" opacity="0.1"/>
    <g id="Groupe_83" data-name="Groupe 83" transform="translate(145.965 6.258)" opacity="0.1">
      <path id="Tracé_859" data-name="Tracé 859" d="M673.12,122.89c0,36.462,22.875,65.965,51.154,65.965" transform="translate(-673.12 -122.89)" fill="#1f9510"/>
    </g>
    <path id="Tracé_860" data-name="Tracé 860" d="M194.626,162.284c-16.526.126-32.4-3.609-47.587-7.771s-30.242-8.843-46.433-10.754c-10.422-1.231-22.284-1.037-30.475,3.737-7.883,4.592-10.217,12.12-11.368,19.067-.867,5.227-1.289,10.712,1.761,15.468,2.107,3.3,5.746,6.01,8.315,9.154,8.937,10.939,3.394,25.016-5.468,36.324-4.155,5.3-9.016,10.394-12.169,16s-4.48,11.936-1.352,17.425c3.1,5.438,10.17,9.343,17.773,12.018,15.447,5.4,33.451,6.47,50.981,6.811,38.807.759,77.714-1.549,116.517-3.854,14.358-.855,28.782-1.714,42.857-4.006,7.816-1.273,15.865-3.139,21.429-7.15,7.066-5.092,8.568-13.34,3.5-19.231-8.5-9.878-31.066-11.6-37.139-22.314-3.343-5.9-.367-12.7,3.971-18.434,9.329-12.3,25.308-23.358,25.694-37.05.257-9.4-7.942-18.518-20.247-22.524-12.905-4.2-30.55-2.987-39.673,5.048C226.117,158.516,209.22,162.174,194.626,162.284Z" transform="translate(-48.1 -131.911)" fill="#1f9510" opacity="0.1"/>
    <path id="Tracé_861" data-name="Tracé 861" d="M404.941,103.385v121.09c0,3.6-3.476,6.54-7.764,6.54h-164.3c-4.289,0-7.762-2.929-7.762-6.54V103.385c0-3.609,3.473-7.285,7.762-7.285l164.284.4C401.437,96.5,404.941,99.777,404.941,103.385Z" transform="translate(-183.791 -96.1)" fill="#fff"/>
    <path id="Tracé_862" data-name="Tracé 862" d="M404.941,103.423v5.606H225.11v-5.606a7.323,7.323,0,0,1,7.32-7.323H397.606A7.325,7.325,0,0,1,404.941,103.423Z" transform="translate(-183.791 -96.1)" fill="#3f3d56"/>
    <circle id="Ellipse_14" data-name="Ellipse 14" cx="2.588" cy="2.588" r="2.588" transform="translate(47.442 3.875)" fill="#fa5959" opacity="0.8"/>
    <circle id="Ellipse_15" data-name="Ellipse 15" cx="2.588" cy="2.588" r="2.588" transform="translate(54.97 3.875)" fill="#fed253" opacity="0.8"/>
    <circle id="Ellipse_16" data-name="Ellipse 16" cx="2.588" cy="2.588" r="2.588" transform="translate(62.498 3.875)" fill="#8ccf4d" opacity="0.8"/>
    <rect id="Rectangle_10" data-name="Rectangle 10" width="16.353" height="7.76" rx="3.88" transform="translate(106.719 39.872)" fill="#1f9510" opacity="0.2"/>
    <rect id="Rectangle_11" data-name="Rectangle 11" width="16.353" height="7.76" rx="3.88" transform="translate(139.85 39.872)" fill="#1f9510" opacity="0.2"/>
    <path id="Tracé_863" data-name="Tracé 863" d="M491.81,202.84l16.369,21.375,16.862-21.475" transform="translate(-376.96 -155.384)" fill="none" stroke="#3f3d56" stroke-miterlimit="10" stroke-width="1"/>
    <rect id="Rectangle_12" data-name="Rectangle 12" width="25" height="11.864" rx="5.932" transform="translate(118.718 68.147)" opacity="0.1"/>
    <rect id="Rectangle_13" data-name="Rectangle 13" width="23.984" height="11.382" rx="5.691" transform="translate(119.228 68.39)" fill="#1f9510"/>
    <line id="Ligne_1" data-name="Ligne 1" x1="0.213" y1="7.556" transform="translate(114.75 32.316)" fill="none" stroke="#3f3d56" stroke-miterlimit="10" stroke-width="1"/>
    <path id="Tracé_864" data-name="Tracé 864" d="M610.526,139.93l-9.609,7.187L590.81,139.93" transform="translate(-452.835 -107.245)" fill="none" stroke="#3f3d56" stroke-miterlimit="10" stroke-width="1"/>
    <rect id="Rectangle_14" data-name="Rectangle 14" width="16.353" height="7.76" rx="3.88" transform="translate(106.628 24.923)" fill="#1f9510" opacity="0.2"/>
    <rect id="Rectangle_15" data-name="Rectangle 15" width="16.353" height="7.76" rx="3.88" transform="translate(149.513 24.923)" fill="#1f9510" opacity="0.2"/>
    <rect id="Rectangle_16" data-name="Rectangle 16" width="16.353" height="7.76" rx="3.88" transform="translate(129.799 24.923)" fill="#1f9510" opacity="0.2"/>
    <line id="Ligne_2" data-name="Ligne 2" x1="0.063" y2="20.672" transform="translate(131.156 79.77)" fill="none" stroke="#3f3d56" stroke-miterlimit="10" stroke-width="1"/>
    <path id="Tracé_865" data-name="Tracé 865" d="M609.53,558.59Z" transform="translate(-478.418 -450.562)" fill="none" stroke="#3f3d56" stroke-miterlimit="10" stroke-width="1"/>
    <path id="Tracé_866" data-name="Tracé 866" d="M462.42,469.635l23.124-7.155,23.218,7.1" transform="translate(-354.435 -354.454)" fill="none" stroke="#3f3d56" stroke-miterlimit="10" stroke-width="1"/>
    <rect id="Rectangle_17" data-name="Rectangle 17" width="16.353" height="7.76" rx="3.88" transform="translate(122.981 100.442)" fill="#1f9510" opacity="0.2"/>
    <rect id="Rectangle_18" data-name="Rectangle 18" width="16.353" height="7.76" rx="3.88" transform="translate(202.111 53.87) rotate(90)" fill="#1f9510" opacity="0.2"/>
    <rect id="Rectangle_19" data-name="Rectangle 19" width="16.353" height="7.76" rx="3.88" transform="translate(194.351 95.831) rotate(-90)" fill="#1f9510" opacity="0.2"/>
    <rect id="Rectangle_20" data-name="Rectangle 20" width="16.353" height="7.76" rx="3.88" transform="translate(146.152 115.075)" fill="#1f9510" opacity="0.2"/>
    <rect id="Rectangle_21" data-name="Rectangle 21" width="16.353" height="7.76" rx="3.88" transform="translate(116.163 122.837) rotate(180)" fill="#1f9510" opacity="0.2"/>
    <rect id="Rectangle_22" data-name="Rectangle 22" width="16.353" height="7.76" rx="3.88" transform="translate(139.74 122.837) rotate(180)" fill="#1f9510" opacity="0.2"/>
    <line id="Ligne_3" data-name="Ligne 3" x2="7.278" y2="12.728" transform="translate(187.071 74.851)" fill="none" stroke="#3f3d56" stroke-miterlimit="10" stroke-width="1"/>
    <line id="Ligne_4" data-name="Ligne 4" x2="7.64" transform="translate(171.68 74.694)" fill="none" stroke="#3f3d56" stroke-miterlimit="10" stroke-width="1"/>
    <line id="Ligne_5" data-name="Ligne 5" x2="20.854" y2="0.614" transform="translate(143.212 74.08)" fill="none" stroke="#3f3d56" stroke-miterlimit="10" stroke-width="1"/>
    <line id="Ligne_6" data-name="Ligne 6" x1="7.243" y2="12.749" transform="translate(187.106 62.046)" fill="none" stroke="#3f3d56" stroke-miterlimit="10" stroke-width="1"/>
    <rect id="Rectangle_23" data-name="Rectangle 23" width="16.353" height="7.76" rx="3.88" transform="translate(171.825 66.47) rotate(90)" fill="#1f9510" opacity="0.2"/>
    <rect id="Rectangle_24" data-name="Rectangle 24" width="16.353" height="7.76" rx="3.88" transform="translate(187.071 66.673) rotate(90)" fill="#1f9510" opacity="0.2"/>
    <rect id="Rectangle_25" data-name="Rectangle 25" width="16.353" height="7.76" rx="3.88" transform="translate(68.088 53.868) rotate(90)" fill="#1f9510" opacity="0.2"/>
    <rect id="Rectangle_26" data-name="Rectangle 26" width="16.353" height="7.76" rx="3.88" transform="translate(60.328 95.831) rotate(-90)" fill="#1f9510" opacity="0.2"/>
    <line id="Ligne_7" data-name="Ligne 7" x1="7.281" y2="12.728" transform="translate(68.088 74.851)" fill="none" stroke="#3f3d56" stroke-miterlimit="10" stroke-width="1"/>
    <line id="Ligne_8" data-name="Ligne 8" x1="7.638" transform="translate(83.118 74.694)" fill="none" stroke="#3f3d56" stroke-miterlimit="10" stroke-width="1"/>
    <line id="Ligne_9" data-name="Ligne 9" x1="20.854" y2="0.614" transform="translate(98.374 74.08)" fill="none" stroke="#3f3d56" stroke-miterlimit="10" stroke-width="1"/>
    <line id="Ligne_10" data-name="Ligne 10" x2="7.243" y2="12.749" transform="translate(68.088 62.046)" fill="none" stroke="#3f3d56" stroke-miterlimit="10" stroke-width="1"/>
    <rect id="Rectangle_27" data-name="Rectangle 27" width="16.353" height="7.76" rx="3.88" transform="translate(98.374 66.472) rotate(90)" fill="#1f9510" opacity="0.2"/>
    <rect id="Rectangle_28" data-name="Rectangle 28" width="16.353" height="7.76" rx="3.88" transform="translate(83.128 66.673) rotate(90)" fill="#1f9510" opacity="0.2"/>
    <path id="Tracé_867" data-name="Tracé 867" d="M156.12,598c0,11.735,7.362,21.232,16.46,21.232" transform="translate(-130.915 -480.766)" fill="#46455b"/>
    <path id="Tracé_868" data-name="Tracé 868" d="M226.59,618.441c0-11.868,8.217-21.471,18.371-21.471" transform="translate(-184.925 -479.977)" fill="#1f9510"/>
    <path id="Tracé_869" data-name="Tracé 869" d="M181.66,602.55c0,11.146,4.695,20.167,10.495,20.167" transform="translate(-150.49 -484.254)" fill="#1f9510"/>
    <path id="Tracé_870" data-name="Tracé 870" d="M226.59,598.874c0-15.164,9.5-27.434,21.232-27.434" transform="translate(-184.925 -460.41)" fill="#46455b"/>
    <ellipse id="Ellipse_17" data-name="Ellipse 17" cx="4.092" cy="0.691" rx="4.092" ry="0.691" transform="translate(36.858 141.136)" fill="#1f9510" opacity="0.1"/>
    <path id="Tracé_871" data-name="Tracé 871" d="M211.77,685.392a8.563,8.563,0,0,0,3.037-.572c.7-.5,3.59-1.1,3.765-.3s3.5,4,.871,4.018-6.124-.411-6.825-.839S211.77,685.392,211.77,685.392Z" transform="translate(-173.567 -546.779)" fill="#a8a8a8"/>
    <path id="Tracé_872" data-name="Tracé 872" d="M219.492,692.391c-2.635.021-6.122-.409-6.825-.839-.535-.325-.747-1.493-.82-2.032h-.077s.147,1.883.85,2.31,4.19.86,6.825.838c.761,0,1.023-.278,1.009-.677C220.349,692.237,220.06,692.386,219.492,692.391Z" transform="translate(-173.567 -550.909)" opacity="0.2"/>
    <path id="Tracé_873" data-name="Tracé 873" d="M831.826,574.7l-6.463-9.371a8.863,8.863,0,0,0-.544-2.864c-.423-.544-.091-1.747-.091-1.747s.453-.663.061-.722-.061-1.537-.061-1.537l-.03-2.352a8.258,8.258,0,0,0,.061-2.8.892.892,0,0,1,.03-.965s.362-1.3,0-1.635-.273-2.35-.182-3.945a6,6,0,0,0-.633-2.742c0-.241-2.387-2.593-2.387-2.8a5.991,5.991,0,0,0-2.415-1.327c-.906-.243-1.359-.42-1.329-.542s-1.42-.6-1.42-.6a2.849,2.849,0,0,1-1.752-.722c-.483-.633-1.962-.818-2-.822a.825.825,0,0,0-.028-.126l-.028-.136c.114-.192.22-.388.315-.591l.084-.185a2.569,2.569,0,0,0,1.486-.467,2.032,2.032,0,0,0,.724-1.446,3.176,3.176,0,0,0-.353-1.6,2.722,2.722,0,0,1-.521-1.694c.058-.255.21-.467.29-.726a1.912,1.912,0,0,0-.217-1.427c-.234-.437-.547-.822-.8-1.247a4.843,4.843,0,0,1-.638-1.761,2.775,2.775,0,0,0-.234-.96,1.777,1.777,0,0,0-.53-.535,5.291,5.291,0,0,0-3.247-.984,15.768,15.768,0,0,1-2.457.15,9.1,9.1,0,0,1-1.437-.376,3.71,3.71,0,0,0-3.062.156c-.881.579-1.233,1.719-1.831,2.611a20.747,20.747,0,0,0-1.705,2.287.076.076,0,0,1,.012-.049,2.887,2.887,0,0,0-.234.61,4.332,4.332,0,0,0,.133,2,1.409,1.409,0,0,0,.488.892,2.77,2.77,0,0,0,1.056.208c-.014.058-.028.115-.04.173a6.891,6.891,0,0,0,4.788,8.047v.182a4.6,4.6,0,0,1-.033.519h0s-3.037-.624-3.852-.2-2.418.755-2.658,1-.846.061-1.39,1.476-.6,2.864-1.3,3.525-1.056,1.117-1.086,1.6.089.6-.182.754-.663.783-.544,1.023a.857.857,0,0,1-.332.9,1.007,1.007,0,0,0-.423.9s-.182.663-.605.813-.7,1.147-.7,1.147l-1.369,1.574-2.717-3a1.145,1.145,0,0,0-1.614-.082l-1.31,1.215a2.625,2.625,0,0,0-1.334.794,3.5,3.5,0,0,0-.7,1.028l-.729.659a1.122,1.122,0,0,0-.376.8,1.133,1.133,0,0,0,.189,1.243l1.738,1.925v.016a3.036,3.036,0,0,0-1.682.684c-2.6,2.289-2.628,4.4-2.235,5.372a39.4,39.4,0,0,0,3.684,4.672,14.723,14.723,0,0,0,4.672,3.81h0l-.019.021c-.056.058-.11.121-.163.189l-.044.058-.042.058-.049.072-.037.058-.054.086a.46.46,0,0,1-.033.058c-.021.037-.042.077-.061.117l-.021.04c-.026.051-.049.107-.075.164a.27.27,0,0,0-.023.061c-.007.019-.033.079-.047.122l-.028.077c-.014.037-.026.077-.04.117s-.016.056-.026.086l-.035.131-.021.082c-.019.07-.033.143-.049.217l-.014.086a1.333,1.333,0,0,1-.026.154c-.007.054-.012.072-.016.11a.623.623,0,0,1-.019.149c-.019.051,0,.077-.012.114a.849.849,0,0,0,0,.173v.105a2.505,2.505,0,0,1-.012.292,16.72,16.72,0,0,0,.145,4.036,1.956,1.956,0,0,0,1.6,1.2,2.083,2.083,0,0,0,.516-.028c1.57-.271,5.256-.9,6.554-.661a11.2,11.2,0,0,0,3.254-.264l.273-.054.187.6.6-.164.507.292.32.185c.6,2.02,3.015,1.331,3.015,1.331l.575.332,5.839.15a11.806,11.806,0,0,0,2.065.993,2.078,2.078,0,0,0,.292.063,13.427,13.427,0,0,0,1.623.03c.448,0,.794-.03.794-.03s-.061-1.581-.145-3.354a48.357,48.357,0,0,0,5.4-.441c3.1-.547,4.394-3.387,4.872-4.9a14.159,14.159,0,0,1,.3,1.869,13.7,13.7,0,0,0,.483,1.635,5.522,5.522,0,0,0,.666,1.205c2.3-.782.906-1.957.423-2.469s.332-.934.332-.934.635-.423.575-.815-.091-.813,1.962-.783S831.826,574.7,831.826,574.7Zm-31.893-19.24a13.941,13.941,0,0,0,.572,2.516,3.355,3.355,0,0,1,.068.993c-1.217-.1-2.485-.149-2.485-.149a.29.29,0,0,1,.065.156l-.192-.044c-.089-.021-.182-.042-.278-.068l2.242-3.408Zm-4.438,7.066,2.1.334.178.028a7.085,7.085,0,0,0-.11,1c0,.03.047.068.114.112a2.723,2.723,0,0,0-.04.5,5.764,5.764,0,0,0,2.149.827c-.016.061-.033.117-.047.173h0c-1-.526-2.569-.771-2.752-1.168s-5.515-2.249-5.515-2.249-.2-.105-.533-.266l1.4.266.388-.04a21.014,21.014,0,0,0,2.658.49Z" transform="translate(-608.499 -423.158)" fill="url(#linear-gradient)"/>
    <path id="Tracé_874" data-name="Tracé 874" d="M850.035,713.359s-.838,5.057-5.09,5.807-18.439.6-18.439.6-8.112-1.168-11.046-8.021-4.819-9.577-2.305-9.7,16.075,4.581,16.853,4.641S850.783,696.266,850.035,713.359Z" transform="translate(-633.582 -560.505)" fill="#65617d"/>
    <path id="Tracé_875" data-name="Tracé 875" d="M850.035,713.359s-.838,5.057-5.09,5.807-18.439.6-18.439.6-8.112-1.168-11.046-8.021-4.819-9.577-2.305-9.7,16.075,4.581,16.853,4.641S850.783,696.266,850.035,713.359Z" transform="translate(-633.582 -560.505)" opacity="0.05"/>
    <path id="Tracé_876" data-name="Tracé 876" d="M811.5,749.452a1.943,1.943,0,0,0,1.588,1.2,2.047,2.047,0,0,0,.512-.028c1.558-.271,5.209-.9,6.5-.659a11.174,11.174,0,0,0,3.228-.262c.677-.128,1.168-.247,1.168-.247s-1.2-3.971-1.348-4.1-5.386-3.27-5.386-3.27l-4.155-.29h0a2.193,2.193,0,0,0-1.4.827,4.439,4.439,0,0,0-.839,2.826A16.043,16.043,0,0,0,811.5,749.452Z" transform="translate(-633.093 -590.97)" fill="#3f3d56"/>
    <path id="Tracé_877" data-name="Tracé 877" d="M811.5,749.482a1.943,1.943,0,0,0,1.588,1.2,17.308,17.308,0,0,1-1.126-1.635l.021-2.9a5.113,5.113,0,0,1,1.635-4.309H813.6s-2.184.149-2.245,3.653A16.492,16.492,0,0,0,811.5,749.482Z" transform="translate(-633.09 -591.001)" opacity="0.05"/>
    <path id="Tracé_878" data-name="Tracé 878" d="M881.091,717.614l3.861-3.022,6.073-5.987s-.656-.033-1.647-.075c-.234.156-.934.649-.962,1.25-.028.733-1.635.051-2.481.467s-4.928,5.671-5.648,5.634-1.287-.364-1.586.145l-.021.033Z" transform="translate(-684.7 -565.479)" opacity="0.1"/>
    <path id="Tracé_879" data-name="Tracé 879" d="M815,742.615c.138.065.278.131.418.192a26.46,26.46,0,0,1,6.825,4.37,28.428,28.428,0,0,0,3.887,2.523c.677-.128,1.168-.247,1.168-.247s-1.2-3.971-1.348-4.1-5.386-3.27-5.386-3.27l-4.162-.29h0A2.193,2.193,0,0,0,815,742.615Z" transform="translate(-635.894 -590.97)" opacity="0.1"/>
    <path id="Tracé_880" data-name="Tracé 880" d="M779.5,688.725a40.032,40.032,0,0,0,3.653,4.639,14.3,14.3,0,0,0,5,3.952,26.5,26.5,0,0,1,6.825,4.37,31.311,31.311,0,0,0,4.158,2.684l.369.215.817.467.432.25s1-.806,2-1.616,1.964-1.6,1.981-1.635c.028-.089.418-1.107.327-1.168-.047-.03-.252-.446-.628-.934a4.262,4.262,0,0,0-1.525-1.261,4.327,4.327,0,0,1-1.976-2.06s-.131-.093-.329-.22a3.99,3.99,0,0,0-1.348-.6c-.659-.082-1.885-1.43-1.885-1.43a3.7,3.7,0,0,1-1.168-1.226c-.329-.687-4.957-3.845-5.386-4.141l11.254,7.229,2.693,1.731,3.863-3.022,6.073-5.987s-.818-.04-2-.091c-2.955-.129-8.2-.329-8.862-.18a5.011,5.011,0,0,1-1.635.107,5.779,5.779,0,0,1-2.483-.453c-.988-.521-2.546-.766-2.726-1.151s-5.477-2.245-5.477-2.245-7.213-3.831-9.789-1.556S779.112,687.767,779.5,688.725Z" transform="translate(-608.548 -545.659)" fill="#65617d"/>
    <path id="Tracé_881" data-name="Tracé 881" d="M879.67,585.442l.934,3.081,1.2,6.947,4.4.3,1.275-2.1,1.271-2.1s.792-2.8,1.362-5.522c.5-2.4.831-4.732.285-4.985-.486-.234-.806-1.035-1.014-1.9-.026-.107-.051-.217-.072-.325a17.267,17.267,0,0,1-.292-2.233s-9.219-.479-7.942,3.324a6.029,6.029,0,0,1,.348,2.02,5.038,5.038,0,0,1-.033.514A4.31,4.31,0,0,1,879.67,585.442Z" transform="translate(-685.459 -464.347)" fill="#ee8e9e"/>
    <path id="Tracé_882" data-name="Tracé 882" d="M871.46,604.165l.332,5.237.747,4.461.839,2.065.747,11.3s7.218.834,8.974-.014a.776.776,0,0,0,.318-.25c2.119-3.2,1.425-12.473,1.425-12.473l.808-5.987-.54-3.107-1.3-.14-1-.105s-.234.278-.554.7c-.887,1.168-2.52,3.476-2.41,4.438.149,1.317-.18,2.663-.7,2.873s-.934.57-1.016.21a1.694,1.694,0,0,1-.091-.958,7.913,7.913,0,0,0-.39-2.067,8.627,8.627,0,0,1-.747-2.6,3.046,3.046,0,0,0-.33-1.885c-.24-.21-.567-.418-.3-1.376s-1.18-2.815-1.18-2.815Z" transform="translate(-679.167 -483.579)" fill="#e3e8f4"/>
    <path id="Tracé_883" data-name="Tracé 883" d="M912.242,606.226l.3,8.951,1.728.958a.8.8,0,0,0,.318-.248c2.119-3.2,1.425-12.475,1.425-12.475l.808-5.987-.54-3.107-1.3-.14c.5-2.4.832-4.732.285-4.985-.486-.234-.806-1.035-1.014-1.9h0l-.934,6.332s.077.572.105,1.168a3.325,3.325,0,0,1-.075,1.114,3.719,3.719,0,0,0-.061,1.5,12.029,12.029,0,0,0-.934,4.412C912.176,604.07,912.242,606.226,912.242,606.226Z" transform="translate(-710.413 -472.558)" opacity="0.1"/>
    <path id="Tracé_884" data-name="Tracé 884" d="M914.825,586.68s1.509.187,1.988.817a2.806,2.806,0,0,0,1.735.717s1.437.467,1.4.6.418.3,1.315.54a5.907,5.907,0,0,1,2.4,1.317c0,.21,2.376,2.544,2.376,2.784a5.95,5.95,0,0,1,.628,2.723c-.091,1.586-.18,3.592.18,3.922s0,1.616,0,1.616a.883.883,0,0,0-.03.958,8.225,8.225,0,0,1-.058,2.784l.028,2.336s-.329,1.467.061,1.528-.061.719-.061.719-.329,1.2.091,1.736a8.769,8.769,0,0,1,.54,2.843l6.4,9.311s.091,1.705-1.946,1.677-2.006.388-1.946.778-.568.808-.568.808-.808.418-.329.934,1.855,1.677-.42,2.455a5.546,5.546,0,0,1-.659-1.2,13.529,13.529,0,0,1-.479-1.616s-.21-2.275-.628-2.569-.36-1.736-.36-1.736.6-1.168-.233-1.647S913.26,614.6,913.26,614.6l-.3-8.962s-.21-6.615,1.046-8.832a3.718,3.718,0,0,1,.061-1.5,7.731,7.731,0,0,0-.03-2.275Z" transform="translate(-710.96 -472.091)" fill="#3f3d56"/>
    <path id="Tracé_885" data-name="Tracé 885" d="M851.551,600.922s-3.011-.621-3.819-.2-2.394.747-2.635.988-.836.058-1.376,1.467-.6,2.843-1.287,3.5-1.049,1.107-1.079,1.586.091.6-.178.75-.659.778-.539,1.016,6.225,5.508,6.225,5.508a14.487,14.487,0,0,0,.57,2.516c.269.509-.3,7.512-.9,7.993s4.041.434,4.041.434.208-4.6.388-4.835a47.512,47.512,0,0,0-.119-5.139,29.207,29.207,0,0,1,.36-5.3,24.122,24.122,0,0,0,.346-4.789,9.912,9.912,0,0,1,.761-2.726C852.73,603.181,851.551,600.922,851.551,600.922Z" transform="translate(-655.527 -482.74)" opacity="0.1"/>
    <path id="Tracé_886" data-name="Tracé 886" d="M851.151,600.535s-3.009-.619-3.817-.2-2.387.745-2.625.979-.839.061-1.378,1.467-.6,2.845-1.287,3.5-1.046,1.107-1.077,1.586.089.6-.18.747-.659.778-.54,1.018,6.232,5.517,6.232,5.517a14.245,14.245,0,0,0,.57,2.513c.271.509-.3,7.514-.9,7.993s4.041.434,4.041.434.21-4.594.39-4.835a47.5,47.5,0,0,0-.122-5.139,29.433,29.433,0,0,1,.36-5.3,24.138,24.138,0,0,0,.332-4.8,9.877,9.877,0,0,1,.761-2.724C852.331,602.784,851.151,600.535,851.151,600.535Z" transform="translate(-655.228 -482.444)" fill="#3f3d56"/>
    <path id="Tracé_887" data-name="Tracé 887" d="M885.286,579.85a6.033,6.033,0,0,1,.348,2.02,6.858,6.858,0,0,0,7.876-3.111,17.258,17.258,0,0,1-.292-2.233S884,576.048,885.286,579.85Z" transform="translate(-689.668 -464.294)" opacity="0.1"/>
    <path id="Tracé_888" data-name="Tracé 888" d="M866.21,548.069a6.856,6.856,0,1,0,.15-1.425,6.856,6.856,0,0,0-.15,1.425Z" transform="translate(-675.143 -437.243)" fill="#ee8e9e"/>
    <path id="Tracé_889" data-name="Tracé 889" d="M827.665,638.49,826.03,639a.848.848,0,0,1-.329.9,1,1,0,0,0-.418.9s-.18.659-.6.808-.689,1.138-.689,1.138l-1.378,1.586s-.507.418-.418.628-.54.269-.54.269l.313,5.33,2.845.537,1.766-.18,1.437-.537,1.257-.75.57-1.467,2.513-3.831Z" transform="translate(-640.999 -511.799)" fill="#3f3d56"/>
    <path id="Tracé_890" data-name="Tracé 890" d="M799.33,658.4s-3.653-5.27-6.377-2.425,1.107,7.454,2.006,7.3,5.178-.39,5.178-.39Z" transform="translate(-618.26 -524.553)" fill="#ee8e9e"/>
    <rect id="Rectangle_29" data-name="Rectangle 29" width="19.114" height="14.842" rx="1.54" transform="translate(173.091 123.111) rotate(27.04)" fill="#3f3d56"/>
    <rect id="Rectangle_30" data-name="Rectangle 30" width="16.066" height="12.106" transform="translate(173.85 125.002) rotate(27.04)" fill="#1f9510"/>
    <circle id="Ellipse_18" data-name="Ellipse 18" cx="0.264" cy="0.264" r="0.264" transform="translate(170.293 129.84)" fill="#e6e8ec"/>
    <circle id="Ellipse_19" data-name="Ellipse 19" cx="0.434" cy="0.434" r="0.434" transform="translate(185.611 137.604)" fill="#e6e8ec"/>
    <path id="Tracé_891" data-name="Tracé 891" d="M813.28,667.77c-.028,3.952,8.143,4.788,8.143,4.788l2.088.332.934.149.39-3.863s-.427-.063-.962-.187c-.792-.185-1.817-.5-2.032-.951C821.483,667.291,813.31,663.817,813.28,667.77Z" transform="translate(-634.576 -532.817)" fill="#ee8e9e"/>
    <path id="Tracé_892" data-name="Tracé 892" d="M866.85,546.7a.8.8,0,0,1,.5.234c.233.245.233.68.544.829a.6.6,0,0,0,.357.042c.8-.112,1.257-1.011,2.021-1.259a2.025,2.025,0,0,1,1.338.117.975.975,0,0,1,.444.283c.257.332.077.82.2,1.219.163.556.827.778,1.4.85a2.454,2.454,0,0,1,1.607.547,1.465,1.465,0,0,1,.285,1.168.913.913,0,0,0,0,.427c.159.451.934.383,1.138.028.149-.257.105-.467.453-.542a1.477,1.477,0,0,1,.734.126,5.39,5.39,0,0,0,1.894.29,6.856,6.856,0,1,0-12.91-4.34Z" transform="translate(-675.633 -437.299)" opacity="0.1"/>
    <path id="Tracé_893" data-name="Tracé 893" d="M870.01,538.9a.933.933,0,0,1,0-.43,1.464,1.464,0,0,0-.285-1.168,2.491,2.491,0,0,0-1.607-.547c-.575-.079-1.238-.294-1.4-.85-.119-.4.061-.888-.2-1.217a.967.967,0,0,0-.444-.285,2.024,2.024,0,0,0-1.338-.117c-.764.248-1.224,1.147-2.02,1.259a.6.6,0,0,1-.358-.042c-.3-.15-.313-.584-.544-.829-.364-.385-1.054-.135-1.5-.423a1.387,1.387,0,0,1-.483-.885,4.314,4.314,0,0,1-.131-1.985c.259-1.114,1.254-1.869,1.89-2.829.593-.885.934-2.006,1.815-2.6a3.618,3.618,0,0,1,3.036-.154,8.861,8.861,0,0,0,1.423.371,15.557,15.557,0,0,0,2.436-.147,5.247,5.247,0,0,1,3.216.976,1.787,1.787,0,0,1,.526.533,2.685,2.685,0,0,1,.234.953,4.863,4.863,0,0,0,.633,1.752c.25.42.568.8.794,1.238a1.911,1.911,0,0,1,.215,1.418c-.077.245-.234.467-.287.722a2.7,2.7,0,0,0,.516,1.682,3.165,3.165,0,0,1,.35,1.6,2.011,2.011,0,0,1-.719,1.434,2.569,2.569,0,0,1-1.516.467,5.374,5.374,0,0,1-1.932-.3,1.476,1.476,0,0,0-.733-.126c-.348.07-.3.285-.453.542C870.944,539.278,870.169,539.346,870.01,538.9Z" transform="translate(-670.101 -425.235)" fill="#3f3d56"/>
    <path id="Tracé_894" data-name="Tracé 894" d="M879.383,718.33l3.863-3.022,6.073-5.987s-.818-.04-2-.091a1.315,1.315,0,0,0-.425.818c-.028.731-1.635.051-2.481.467s-4.935,5.669-5.655,5.636-1.287-.364-1.586.145l-.021.033a.859.859,0,0,1-.467.271Z" transform="translate(-683.167 -566.015)" opacity="0.1"/>
    <path id="Tracé_895" data-name="Tracé 895" d="M854.93,711.335l1.941,6.195.3.972.934-.252,2.037-.561,9.072-2.492a7.852,7.852,0,0,0,3.27-.871,9.914,9.914,0,0,1,5.638-1.229c1.2.112,2.532-.4,3.639-2.45,0,0,2.513-7.423-3.833-9.549s-6.648,1.13-6.648,1.13l-.086.054c-.234.157-.934.649-.962,1.25-.028.733-1.635.051-2.481.467s-4.952,5.671-5.671,5.634-1.287-.364-1.586.145l-.021.033c-.222.306-.89.376-1.329.39h-.416l-.056.016-.467.138Z" transform="translate(-666.498 -559.23)" fill="#65617d"/>
    <path id="Tracé_896" data-name="Tracé 896" d="M857.08,682.981l.934.15.39-3.863s-.428-.063-.962-.187A19.9,19.9,0,0,1,857.08,682.981Z" transform="translate(-668.145 -542.908)" opacity="0.1"/>
    <path id="Tracé_897" data-name="Tracé 897" d="M882.022,618.228s2.784-.808,2.1,7.1a22.031,22.031,0,0,1-5.84,12.9s-5.926,2.6-8.591,2.186a46.268,46.268,0,0,0-4.609-.509,6.776,6.776,0,0,0-2.7-.719c-1.495-.058-4.639-.988-4.7-1.287s.78-4.7.42-5.029c0,0,4.19.173,4.609.467s1.018.086,1.467,0a5.1,5.1,0,0,1,4.55-.234,2.76,2.76,0,0,0,1.287-.149,1.289,1.289,0,0,1,.934-.061,2.687,2.687,0,0,0,.652-.329c.089-.119.808,0,.808,0a.318.318,0,0,0,.448-.21,1.948,1.948,0,0,1,.418-.659s.808-4.55,2.336-6.255a.978.978,0,0,0,.329-.869C875.83,624.088,878.429,617.27,882.022,618.228Z" transform="translate(-668.61 -496.199)" opacity="0.1"/>
    <path id="Tracé_898" data-name="Tracé 898" d="M881.681,615.628s2.784-.808,2.1,7.1a22.032,22.032,0,0,1-5.84,12.9s-5.928,2.6-8.591,2.186-4.62-.509-4.62-.509a6.772,6.772,0,0,0-2.693-.719c-1.5-.058-4.639-.988-4.7-1.287s.778-4.7.418-5.029c0,0,4.19.173,4.611.467s1.018.084,1.467,0a5.1,5.1,0,0,1,4.55-.234,2.76,2.76,0,0,0,1.287-.149,1.29,1.29,0,0,1,.934-.061,2.638,2.638,0,0,0,.649-.329c.089-.119.808,0,.808,0a.318.318,0,0,0,.448-.21,2.006,2.006,0,0,1,.42-.659s.808-4.55,2.336-6.255a.972.972,0,0,0,.329-.869C875.477,621.488,878.089,614.67,881.681,615.628Z" transform="translate(-668.342 -494.206)" fill="#3f3d56"/>
    <path id="Tracé_899" data-name="Tracé 899" d="M869,742.62l3.952,4.784c.016-.014.026-.023.026-.028.03-.089.418-1.107.329-1.168a5.55,5.55,0,0,0-2.156-2.186,4.085,4.085,0,0,1-1.691-1.542Z" transform="translate(-677.281 -591.499)" opacity="0.1"/>
    <path id="Tracé_900" data-name="Tracé 900" d="M868.95,761.188l.432.25s1-.806,2-1.616,1.964-1.6,1.981-1.635c.028-.089.418-1.107.327-1.168-.047-.03-.252-.446-.628-.934-2.682-.752-.974,1.11-.748,1.194a2.73,2.73,0,0,0-3.443,2.8A4.2,4.2,0,0,0,868.95,761.188Z" transform="translate(-677.177 -601.788)" opacity="0.1"/>
    <path id="Tracé_901" data-name="Tracé 901" d="M873.189,762.717l.57.329,5.776.15a11.678,11.678,0,0,0,2.046.983,1.8,1.8,0,0,0,.29.065,13.654,13.654,0,0,0,1.609.03c.444,0,.785-.03.785-.03s-.273-7.288-.467-8.054c-.1-.367-.584-.285-1.06-.1a7.022,7.022,0,0,0-1.035.523,17.838,17.838,0,0,0-2.845.451c-.39.217-1.5-.121-2.184,0s-1.915-.81-1.915-.81c-3.354-1.107-1.467.958-1.229,1.046a2.728,2.728,0,0,0-3.441,2.8A2.309,2.309,0,0,0,873.189,762.717Z" transform="translate(-678.111 -601.804)" fill="#3f3d56"/>
    <path id="Tracé_902" data-name="Tracé 902" d="M919.131,759.9a9.752,9.752,0,0,0,1.939,4.373c.444,0,.785-.03.785-.03s-.273-7.288-.467-8.054c-.1-.367-.584-.285-1.061-.1A8.3,8.3,0,0,0,919.131,759.9Z" transform="translate(-715.7 -601.806)" fill="#565387"/>
    <path id="Tracé_903" data-name="Tracé 903" d="M919.131,759.9a9.752,9.752,0,0,0,1.939,4.373c.444,0,.785-.03.785-.03s-.273-7.288-.467-8.054c-.1-.367-.584-.285-1.061-.1A8.3,8.3,0,0,0,919.131,759.9Z" transform="translate(-715.7 -601.806)" opacity="0.1"/>
    <path id="Tracé_904" data-name="Tracé 904" d="M914.591,760.1c.4,1.455.392,3.088,1.028,4.076a1.788,1.788,0,0,0,.29.065,13.681,13.681,0,0,0,1.609.03c.444,0,.785-.03.785-.03s-.273-7.288-.467-8.054c-.1-.367-.584-.285-1.06-.1a6.992,6.992,0,0,0-1.035.523S914.082,758.234,914.591,760.1Z" transform="translate(-712.149 -601.806)" opacity="0.05"/>
    <path id="Tracé_905" data-name="Tracé 905" d="M829.58,710.55a11.969,11.969,0,0,1,5.3,4.242Z" transform="translate(-647.069 -567.027)" opacity="0.1"/>
    <g id="Groupe_84" data-name="Groupe 84" transform="translate(189.525 105.548)" opacity="0.1">
      <path id="Tracé_906" data-name="Tracé 906" d="M929.027,556.77a.1.1,0,0,1-.016.065,2.551,2.551,0,0,1-.1.25A1.88,1.88,0,0,1,929.027,556.77Z" transform="translate(-912.722 -554.714)"/>
      <path id="Tracé_907" data-name="Tracé 907" d="M859.676,548.575a2.8,2.8,0,0,1,.234-.6c-.016.051-.03.1-.044.156A4.3,4.3,0,0,0,860,550.11a1.388,1.388,0,0,0,.483.888c.446.285,1.135.037,1.5.423.234.234.234.68.544.829a.6.6,0,0,0,.357.042c.794-.112,1.257-1.011,2.02-1.259a2.025,2.025,0,0,1,1.339.117.974.974,0,0,1,.444.285c.255.329.077.818.194,1.217.166.556.829.775,1.4.85a2.47,2.47,0,0,1,1.607.547,1.464,1.464,0,0,1,.285,1.168.882.882,0,0,0,0,.427c.159.448.934.383,1.137.028.15-.257.1-.467.453-.544a1.5,1.5,0,0,1,.733.128,5.435,5.435,0,0,0,1.934.29,2.569,2.569,0,0,0,1.516-.467,1.762,1.762,0,0,0,.467-.565,1.918,1.918,0,0,1-.647,1.014,2.57,2.57,0,0,1-1.516.467,5.374,5.374,0,0,1-1.939-.308,1.476,1.476,0,0,0-.733-.126c-.348.07-.3.285-.453.542-.2.355-.979.423-1.138-.026a.937.937,0,0,1,0-.43,1.464,1.464,0,0,0-.285-1.168,2.491,2.491,0,0,0-1.607-.547c-.575-.079-1.238-.294-1.4-.85-.119-.4.061-.888-.2-1.217a.981.981,0,0,0-.444-.285,2.026,2.026,0,0,0-1.338-.117c-.764.248-1.226,1.147-2.021,1.259a.6.6,0,0,1-.357-.042c-.3-.149-.313-.584-.544-.829-.364-.385-1.053-.135-1.5-.423a1.387,1.387,0,0,1-.484-.885A4.191,4.191,0,0,1,859.676,548.575Z" transform="translate(-859.607 -547.97)"/>
    </g>
    <path id="Tracé_908" data-name="Tracé 908" d="M923.509,648.406c-.549.74-1.168,1.425-1.661,2.207a4.153,4.153,0,0,0-.726,2.614,6.878,6.878,0,0,0,1.049-1.869,27.447,27.447,0,0,1,2.014-3.036c.128-.192.955-1.3.537-1.355C924.375,646.927,923.7,648.154,923.509,648.406Z" transform="translate(-717.214 -518.295)" opacity="0.1"/>
  </g>
</svg>
