<svg xmlns="http://www.w3.org/2000/svg" xmlns:xlink="http://www.w3.org/1999/xlink" width="178.494" height="162.376" viewBox="0 0 178.494 162.376">
  <defs>
    <linearGradient id="linear-gradient" y1="0.5" x2="1" y2="0.5" gradientUnits="objectBoundingBox">
      <stop offset="0" stop-color="#e5c6d6"/>
      <stop offset="0.42" stop-color="#ead4d0"/>
      <stop offset="1" stop-color="#f0e9cb"/>
    </linearGradient>
    <linearGradient id="linear-gradient-3" x1="-0.038" y1="0.037" x2="2.695" y2="2.543" gradientUnits="objectBoundingBox">
      <stop offset="0" stop-color="#010101" stop-opacity="0"/>
      <stop offset="0.95" stop-color="#010101"/>
    </linearGradient>
    <linearGradient id="linear-gradient-4" x1="0.334" y1="0.74" x2="1.419" y2="0.74" xlink:href="#linear-gradient"/>
    <linearGradient id="linear-gradient-5" x1="0.507" y1="0.952" x2="0.469" y2="-2.432" xlink:href="#linear-gradient-3"/>
    <linearGradient id="linear-gradient-6" y1="0.5" x2="1" y2="0.5" xlink:href="#linear-gradient"/>
    <linearGradient id="linear-gradient-7" x1="0.369" y1="0.556" x2="1.577" y2="0.063" xlink:href="#linear-gradient-3"/>
    <linearGradient id="linear-gradient-8" x1="0.775" y1="-0.087" x2="1.813" y2="-0.087" xlink:href="#linear-gradient"/>
    <linearGradient id="linear-gradient-9" x1="0.405" y1="0.932" x2="0.92" y2="-2.522" xlink:href="#linear-gradient-3"/>
    <linearGradient id="linear-gradient-10" y1="0.5" x2="1.001" y2="0.5" xlink:href="#linear-gradient"/>
    <linearGradient id="linear-gradient-11" x1="0.801" y1="0.531" x2="-1.798" y2="0.338" xlink:href="#linear-gradient-3"/>
    <linearGradient id="linear-gradient-12" y1="0.499" x2="1" y2="0.499" xlink:href="#linear-gradient"/>
    <linearGradient id="linear-gradient-13" x1="0.238" y1="0.876" x2="1.951" y2="-2.34" xlink:href="#linear-gradient-3"/>
    <linearGradient id="linear-gradient-14" x1="0.537" y1="0.327" x2="1.525" y2="0.327" xlink:href="#linear-gradient"/>
  </defs>
  <g id="group_video_call" transform="translate(0.001)">
    <path id="Tracé_977" data-name="Tracé 977" d="M21.562,179.792a38.082,38.082,0,0,1-4.426-9.244c-3.559-9.8-6.341-21-1.73-30.349,3.393-6.865,10.156-11.37,16.946-14.9,18.269-9.5,38.771-14.326,56.584-24.66,3.7-2.145,7.374-4.558,11.521-5.485,4.3-.958,8.78-.253,13.1.622a166.724,166.724,0,0,1,19.122,5.067,31.689,31.689,0,0,1,8.728,4c3.367,2.424,5.745,5.942,8.384,9.142,9.082,11,21.636,18.537,31.815,28.528,4.63,4.554,8.958,9.975,9.745,16.426.716,5.7-1.489,11.5-5.071,16s-8.437,7.8-13.5,10.511c-7.257,3.876-15.789,7.333-18.982,14.918-1.263,3.016-1.508,6.356-2.782,9.353-2.262,5.346-7.57,8.92-13.15,10.526s-11.483,1.508-17.289,1.436l-22.243-.354c-7.517-.117-15.736-.5-21.361-5.482-2.926-2.59-8.882-15.77-31.468-22.141C36.657,191.208,27.172,187.668,21.562,179.792Z" transform="translate(-12.99 -60.174)" fill="#1f9510" opacity="0.24" style="isolation: isolate"/>
    <path id="Tracé_978" data-name="Tracé 978" d="M219,337.35l.253,28.746,3.563.253,2.8-28.49Z" transform="translate(-136.438 -210.169)" fill="url(#linear-gradient)"/>
    <path id="Tracé_979" data-name="Tracé 979" d="M256.78,337.35l.256,28.746,3.559.253,2.8-28.49Z" transform="translate(-159.975 -210.169)" fill="url(#linear-gradient)"/>
    <rect id="Rectangle_55" data-name="Rectangle 55" width="164.828" height="106.16" rx="29.7" transform="translate(10.321)" fill="#1f9510" opacity="0.24" style="isolation: isolate"/>
    <path id="Tracé_980" data-name="Tracé 980" d="M205.191,17V96.026a10.933,10.933,0,0,1-10.907,10.933H51.277A10.933,10.933,0,0,1,40.37,96.026V17a11.068,11.068,0,0,1,.079-1.342A10.933,10.933,0,0,1,51.277,6.1H194.284a10.933,10.933,0,0,1,10.827,9.568A11.065,11.065,0,0,1,205.191,17Z" transform="translate(-30.048 -4.98)" fill="#1f9510" opacity="0.24" style="isolation: isolate"/>
    <path id="Tracé_981" data-name="Tracé 981" d="M205.243,15.668H40.58A10.933,10.933,0,0,1,51.407,6.1H194.415A10.933,10.933,0,0,1,205.243,15.668Z" transform="translate(-30.179 -4.98)" fill="#1f9510"/>
    <circle id="Ellipse_21" data-name="Ellipse 21" cx="3.423" cy="3.423" r="3.423" transform="translate(89.081 2.281)" fill="#fff" opacity="0.65" style="isolation: isolate"/>
    <rect id="Rectangle_56" data-name="Rectangle 56" width="76.931" height="43.038" transform="translate(93.642 12.973)" fill="#fff"/>
    <rect id="Rectangle_57" data-name="Rectangle 57" width="76.931" height="85.451" transform="translate(15.045 12.973)" fill="#fff"/>
    <path id="Tracé_982" data-name="Tracé 982" d="M69.18,166.352c5.7-2.662,12.633-3.035,19.272-3.291,7.163-.275,14.869-.377,20.814,2.726a31.008,31.008,0,0,1,7.442,5.991,10.1,10.1,0,0,1,2.009,2.466,7.941,7.941,0,0,1,.581,3.68l-.041,17.01a6.419,6.419,0,0,1-.581,3.284c-1.587,2.884,3.91,2.82-.128,2.82-18.07,0-65.6.087-65.6.087,1.048-.09,2.153-9.7,2.13-10.677-.079-3.393-1.059-6.251.581-9.425C58.5,175.43,62.345,169.538,69.18,166.352Z" transform="translate(-37.886 -102.688)" fill="#1f9510"/>
    <path id="Tracé_983" data-name="Tracé 983" d="M203.292,176.813c-.377,2.929-1.625,5.655-2.262,8.558s-.479,6.228,1.534,8.369,7.827,6.952,8.358,7.661c1.063,1.421,13.35-.894,16.788-.55,1.9.192,3.77-6.273,5.783-10.266a32.181,32.181,0,0,1,2.123-2.9c1.644-2.473,1.621-5.73.973-8.641s-1.847-5.678-2.375-8.611c-.645-3.566-.32-7.431-2.028-10.62-3.016-5.6-15.144-8.916-21.142-7.065C200.649,155.957,204.272,169.111,203.292,176.813Z" transform="translate(-129.932 -96.021)" fill="url(#linear-gradient-3)"/>
    <rect id="Rectangle_58" data-name="Rectangle 58" width="76.931" height="43.038" transform="translate(93.642 57.945)" fill="#fff"/>
    <path id="Tracé_984" data-name="Tracé 984" d="M340.835,233.844c-1.418-1.674-3.189-3.05-4.4-4.878-1.289-1.949-1.885-4.339-3.45-6.081-2.383-2.673-6.409-3.163-9.953-2.594s-6.892,1.987-10.439,2.473c-4.347.592-9.3-.079-12.626,2.782-1.727,1.508-2.711,3.751-4.588,5.048a11.817,11.817,0,0,1-5.685,1.561,12.289,12.289,0,0,0-5.708,1.508c-1.663,1.1-2.722,3.393-1.791,5.127,1.1,2.077,4,2.156,6.349,1.96,10.39-.871,20.8-1.648,31.235-1.772,5.2-.06,10.413.038,15.6.377,1.244.079,6.582,1.263,7.359.4C344.021,238.338,341.687,234.854,340.835,233.844Z" transform="translate(-180.49 -138.289)" fill="#1f9510" opacity="0.18" style="isolation: isolate"/>
    <path id="Tracé_985" data-name="Tracé 985" d="M216.112,169.383c-.377,2.929-1.625,5.655-2.262,8.558s-.479,6.224,1.534,8.369,7.827,6.952,8.358,7.661c1.063,1.421,13.35-.894,16.784-.55,1.908.192,3.77-6.273,5.787-10.266a32.189,32.189,0,0,1,2.123-2.9c1.644-2.473,1.621-5.73.973-8.641s-1.847-5.678-2.375-8.611c-.645-3.57-.32-7.431-2.028-10.62-3.016-5.6-15.144-8.916-21.142-7.065C213.469,148.531,217.092,161.684,216.112,169.383Z" transform="translate(-137.919 -91.393)" fill="#1f9510"/>
    <path id="Tracé_986" data-name="Tracé 986" d="M244.779,91.707a9.8,9.8,0,0,1,7.642,6.748c.89,3.016.241,6.281.418,9.425a17.938,17.938,0,0,0,2.055,7.367,43.6,43.6,0,0,1,2.232,4.124,10.115,10.115,0,0,1-3.393,11.638,38.726,38.726,0,0,1-5.655,2.812,19.193,19.193,0,0,0-6.311,5.093c-2.778.057-4.811-2.8-5.278-5.538s.109-5.565-.192-8.332c-.524-4.8-3.623-9.587-1.987-14.13.713-1.975,2.292-3.721,2.224-5.817-.117-3.619-3.83-5.745-1.508-9.546C236.8,92.687,241.669,91.2,244.779,91.707Z" transform="translate(-150.579 -58.252)" fill="#606161"/>
    <path id="Tracé_988" data-name="Tracé 988" d="M233.251,411.532a1.664,1.664,0,0,0-.844.2,1.274,1.274,0,0,0-.411,1.255c.068.46.264.893.317,1.357.045.4,0,.867.3,1.131a1.222,1.222,0,0,0,.754.256c.524.057,1.048.09,1.576.1a1.165,1.165,0,0,0,.581-.091c.411-.222.415-.8.4-1.259s.486-2.571.249-2.9C235.776,411.084,233.831,411.506,233.251,411.532Z" transform="translate(-149.41 -257.445)" fill="#1f9510"/>
    <path id="Tracé_989" data-name="Tracé 989" d="M271.03,411.532a1.64,1.64,0,0,0-.841.2,1.267,1.267,0,0,0-.415,1.255c.072.46.264.893.317,1.357.045.4,0,.867.3,1.131a1.226,1.226,0,0,0,.754.256c.52.057,1.048.09,1.572.1a1.18,1.18,0,0,0,.584-.091c.407-.222.415-.8.377-1.259s.49-2.571.249-2.9C273.556,411.084,271.615,411.506,271.03,411.532Z" transform="translate(-172.947 -257.445)" fill="#1f9510"/>
    <path id="Tracé_990" data-name="Tracé 990" d="M230.913,421.463a2.119,2.119,0,0,0-1.587.2,1.336,1.336,0,0,1-.279.207,1.172,1.172,0,0,1-.4.06,1.531,1.531,0,0,0-1.221,1.1,2.778,2.778,0,0,0,.1,1.712,1.433,1.433,0,0,0,.377.656,1.508,1.508,0,0,0,.618.271,15.3,15.3,0,0,0,2.745.4,2.349,2.349,0,0,0,1.655-.305,2.43,2.43,0,0,0,.652-1.779,4.584,4.584,0,0,0-.045-1.508C233.138,420.92,232.052,421.629,230.913,421.463Z" transform="translate(-146.53 -263.715)" fill="#606161"/>
    <path id="Tracé_991" data-name="Tracé 991" d="M268.626,421.463a2.119,2.119,0,0,0-1.587.2,1.337,1.337,0,0,1-.279.207,1.172,1.172,0,0,1-.4.06,1.531,1.531,0,0,0-1.221,1.1,2.8,2.8,0,0,0,.1,1.712,1.407,1.407,0,0,0,.377.656,1.485,1.485,0,0,0,.615.271,15.29,15.29,0,0,0,2.748.4,2.339,2.339,0,0,0,1.651-.305,2.43,2.43,0,0,0,.652-1.779,4.584,4.584,0,0,0-.045-1.508C270.85,420.92,269.764,421.629,268.626,421.463Z" transform="translate(-170.026 -263.715)" fill="#606161"/>
    <path id="Tracé_992" data-name="Tracé 992" d="M130.861,146.13a9.7,9.7,0,0,0,7.208,2.183c3.434-.6,5.436-3.77,5.862-6.835s-.279-6.209-.1-9.3c.109-1.938.562-3.9.03-5.806-.8-2.877-3.909-5.139-7.231-5.542a10.288,10.288,0,0,0-8.7,3.186c-3.054,3.393-2.126,7.453-2.285,11.495A12.98,12.98,0,0,0,130.861,146.13Z" transform="translate(-83.164 -76.411)" fill="url(#linear-gradient-4)"/>
    <path id="Tracé_993" data-name="Tracé 993" d="M127.83,150s3.434,9.923,10.017,9.923,7.54-3.34,7.54-3.34l-.283-5.342Z" transform="translate(-84.536 -94.63)" fill="url(#linear-gradient-5)"/>
    <path id="Tracé_994" data-name="Tracé 994" d="M140.5,86.2a31.956,31.956,0,0,1-1.429,8.637,13.767,13.767,0,0,1-5.029,7.012,12.531,12.531,0,0,1-11.74.863,17.8,17.8,0,0,1-8.614-8.4,31.329,31.329,0,0,1-3.5-11.687,17.064,17.064,0,0,1,1.651-9.108,12.629,12.629,0,0,1,7.54-5.847,29.609,29.609,0,0,1,9.7-.984,18.02,18.02,0,0,1,7.751,1.485,6.55,6.55,0,0,1,3.887,6.907C140.173,78.685,140.7,82.546,140.5,86.2Z" transform="translate(-73.501 -42.704)" fill="url(#linear-gradient-6)"/>
    <path id="Tracé_995" data-name="Tracé 995" d="M111.666,70.01c-.844-.426-1.3-1.572-2.239-1.659a1.451,1.451,0,0,0-1.365.893,2.926,2.926,0,0,0-.128,1.708,6.149,6.149,0,0,0,1.957,3.517,3.577,3.577,0,0,1,1.131,1.278,2.752,2.752,0,0,1,.038,1.229l-.377,2.914a5.314,5.314,0,0,1-3.1-3.269,19.939,19.939,0,0,1-.912-4.562c-.139-1.041-.313-2.081-.445-3.125-.264-2.115-.343-4.253-.422-6.386l-.075-2.209a31.134,31.134,0,0,1,.4-8.1,4.633,4.633,0,0,1,.8-1.911,5.474,5.474,0,0,1,1.866-1.3l5.681-2.843a29.484,29.484,0,0,1,4.807-2.058,28.969,28.969,0,0,1,3.9-.754,15.522,15.522,0,0,1,6.194-.1c2.571.664,4.682,2.613,7.276,3.178a28.422,28.422,0,0,1,3.845.652c2.582.931,3.894,3.868,4.147,6.6a6.566,6.566,0,0,1-1.131,4.95c-.969,1.154-2.492,1.7-3.544,2.778-1.172,1.2-1.685,2.978-3.016,3.992a5.523,5.523,0,0,1-5.414.219,44.717,44.717,0,0,1-4.833-2.975,3.8,3.8,0,0,0-2.639-.713c-1.316.275-2.051,1.685-3.216,2.356a5.032,5.032,0,0,1-3.5.32c-1.4-.287-3.054-.562-4.011.754A14.5,14.5,0,0,0,111.666,70.01Z" transform="translate(-70.717 -27.966)" fill="#606161"/>
    <path id="Tracé_996" data-name="Tracé 996" d="M115.421,116.648c-.117-.23-.185-.483-.32-.7a.7.7,0,0,0-.633-.377.63.63,0,0,0-.494.539,1.61,1.61,0,0,0,.072.754,8.123,8.123,0,0,0,.573,1.463,2.439,2.439,0,0,0,.611.818,2.4,2.4,0,0,0,1.014.411.486.486,0,0,0,.4-.034.468.468,0,0,0,.136-.245c.128-.445.29-1.369-.075-1.753-.17-.173-.415-.143-.626-.226A1.252,1.252,0,0,1,115.421,116.648Z" transform="translate(-75.893 -73.18)" opacity="0.5" fill="url(#linear-gradient-7)"/>
    <path id="Tracé_997" data-name="Tracé 997" d="M318.217,129.312a15.394,15.394,0,0,1,13.538-7.265c1.885.038,3.789.143,5.655.136,5.406-.026,13.542-1.885,18.19.89,1.926,1.131,3.536,6.285,4.49,8.317a1.246,1.246,0,0,1,.068,1.274,1.216,1.216,0,0,1-1.082.324c-9.576-.1-19.133.026-28.709-.075-2.164-.023-13.448-.049-13.448-.049A7.823,7.823,0,0,1,318.217,129.312Z" transform="translate(-202.339 -76.905)" fill="#1f9510"/>
    <path id="Tracé_998" data-name="Tracé 998" d="M367.908,113.814a4.679,4.679,0,0,0,1.47.754,6.617,6.617,0,0,0,3.352.441,3.085,3.085,0,0,0,2.492-2.07,4.826,4.826,0,0,0,.026-1.742l-.226-2.077a7.234,7.234,0,0,0-.754-2.956,3.661,3.661,0,0,0-4.437-1.418,4.754,4.754,0,0,0-2.3,2.428C366.446,109.478,365.62,111.936,367.908,113.814Z" transform="translate(-233.196 -66.274)" fill="url(#linear-gradient-8)"/>
    <path id="Tracé_999" data-name="Tracé 999" d="M374.325,108.93s-2.194,6.3-5.342,6.3-2.337-3.054-2.337-3.054Z" transform="translate(-233.259 -69.043)" fill="url(#linear-gradient-9)"/>
    <path id="Tracé_1000" data-name="Tracé 1000" d="M354.935,79.127c.268,1.09.792,2.1,1.154,3.163a6.077,6.077,0,0,0,.577,1.421,3.593,3.593,0,0,0,1.851,1.335,6.665,6.665,0,0,0,4.9-.155,8.7,8.7,0,0,0,4.415-5.093c.8-2.168,2.175-4.339,2.236-6.647.026-.992-1.188-2.19-1.534-3.118a7.423,7.423,0,0,0-1.908-2.586,9.077,9.077,0,0,0-2.262-1.768c-2.077-1.025-4.641-.441-6.605.784a6.066,6.066,0,0,0-1.715,1.508c-1.131,1.549-.954,3.419-.973,5.221C355.056,75.21,354.43,77.084,354.935,79.127Z" transform="translate(-225.9 -41.77)" fill="url(#linear-gradient-10)"/>
    <path id="Tracé_1001" data-name="Tracé 1001" d="M346.465,55.506a10.845,10.845,0,0,1-1.018-3.6,1.467,1.467,0,0,1,.045-.9c.207-.411.731-.539,1.052-.875.675-.709.143-1.859.181-2.839a3.129,3.129,0,0,1,1.991-2.549,9.18,9.18,0,0,1,3.344-.554c1.508-.064,3.186-.053,4.241,1.01.577.581.875,1.4,1.508,1.919,1.312,1.082,3.3.377,4.95.754a3.77,3.77,0,0,1,2.8,3.016c.234,1.429-.339,3.061.494,4.249a5.319,5.319,0,0,1,.814,1.1,2.205,2.205,0,0,1-.132,1.459,23.4,23.4,0,0,1-2.567,5.319,2.194,2.194,0,0,1-.784.822c-.343.17-.927,2.2-1.131,1.885a6.743,6.743,0,0,1,.32-3.487,4.991,4.991,0,0,0,.9-1.214,1.369,1.369,0,0,0-2.424-1.229c.377-2.3-.863-5.018-3.14-5.5a6.458,6.458,0,0,0-3.966.826C351.321,56.327,348.493,59.144,346.465,55.506Z" transform="translate(-220.08 -28.693)" fill="#e08142"/>
    <path id="Tracé_1002" data-name="Tracé 1002" d="M388.42,86.344a.4.4,0,0,1,.226-.226.456.456,0,0,1,.336.109.841.841,0,0,1,.411.445.822.822,0,0,1-.045.445,3.156,3.156,0,0,1-.343.86,1.067,1.067,0,0,1-.754.509c-.136,0-.354-.336-.351-.46s.132-.2.2-.328C388.315,87.282,388.19,86.781,388.42,86.344Z" transform="translate(-246.559 -54.83)" fill="url(#linear-gradient-11)"/>
    <path id="Tracé_1003" data-name="Tracé 1003" d="M338.086,172.287a15.057,15.057,0,0,1,7.163-.377,10.117,10.117,0,0,1,3.887,1.131c2.2,1.3,3.284,3.891,3.8,6.39s.626,5.1,1.549,7.487c1.071,2.756,3.189,5.067,3.9,7.917a8.645,8.645,0,0,1-8.456,10.722c-1.836,0-3.631-.607-5.467-.6-3.8,0-7.431,2.6-11.152,1.832-3.054-.63-5.233-3.393-6.477-6.236a8.052,8.052,0,0,1-.694-5.621c.822-2.515,3.483-3.989,4.671-6.356,1.508-2.971.377-6.492,1.663-9.5C333.638,176.313,335.037,173.391,338.086,172.287Z" transform="translate(-207.92 -108.125)" fill="#606161"/>
    <path id="Tracé_1004" data-name="Tracé 1004" d="M352.666,234.213c2.04.4,4.335.219,6,1.414a5.191,5.191,0,0,1,1.911,3.148,14.8,14.8,0,0,1,.177,3.7l-.132,3.657a.524.524,0,0,1-.109.377.592.592,0,0,1-.418.109l-31.555.109a7.54,7.54,0,0,1,.814-5.945,13.844,13.844,0,0,1,3.182-4.113c1.919-1.451,6.383-1.576,8.49-2.771.547-.309.053-.754.667-.909s.347-.893.95-.9a22.479,22.479,0,0,1,5.542.234C349.763,232.777,350.981,233.877,352.666,234.213Z" transform="translate(-209.403 -145.738)" fill="#fff"/>
    <path id="Tracé_1005" data-name="Tracé 1005" d="M359.809,226.38a6.305,6.305,0,0,0-.309,1.553,3.427,3.427,0,0,0,1.67,2.971,3.8,3.8,0,0,0,3.434.173,5.15,5.15,0,0,0,2.564-2.9,11.434,11.434,0,0,0,.637-3.894,31.045,31.045,0,0,0-.309-5.278,1.09,1.09,0,0,0-1.161-1.237,4.746,4.746,0,0,0-5.052,2.858,9.716,9.716,0,0,0-.434,1.975C360.589,223.877,360.163,225.125,359.809,226.38Z" transform="translate(-228.866 -136.839)" fill="url(#linear-gradient-12)"/>
    <path id="Tracé_1006" data-name="Tracé 1006" d="M362.334,230.176s-.189,1.621.543,2.224,3.623,2.006,5.022.034a10.265,10.265,0,0,0,1.655-4.294Z" transform="translate(-230.618 -143.311)" fill="url(#linear-gradient-13)"/>
    <path id="Tracé_1007" data-name="Tracé 1007" d="M350.661,198.2c.377,1.18,2.6,5.353,5.674,6.115,6.609,1.64,8.618-10,8.294-12.441a10.158,10.158,0,0,0-3.042-5.319,5.821,5.821,0,0,0-6.009-.682C350.374,188.084,349,193.132,350.661,198.2Z" transform="translate(-222.945 -116.65)" fill="url(#linear-gradient-14)"/>
    <path id="Tracé_1008" data-name="Tracé 1008" d="M345.928,187.441a1.357,1.357,0,0,0,1.029,1.014,3.756,3.756,0,0,0,1.58-.437c.633-.192,1.335-.117,1.957-.351s1.131-1.014.754-1.546c-.181.811.882,1.346,1.708,1.263a5.381,5.381,0,0,1,2.447-.147l.313-1.61a1.508,1.508,0,0,0,.973,1.587,3.14,3.14,0,0,0,1.979.03c.287-.072.645-.3.535-.577.664.811,1.953.471,2.918.06a.72.72,0,0,0,.377-.283.709.709,0,0,0,0-.513,16.952,16.952,0,0,0-1.678-4.524,5.788,5.788,0,0,0-3.744-2.843,7.675,7.675,0,0,0-2.763.147,10.126,10.126,0,0,0-6.168,3.465C346.983,183.429,345.441,185.673,345.928,187.441Z" transform="translate(-220.353 -112.387)" fill="#606161"/>
    <path id="Tracé_987" data-name="Tracé 987" d="M228.46,262.21l24.294.562s1.018,6.277.509,9.975-.754,12.219-.754,12.219l-3.759,35.172h-4.73l-4.283-41.922-5.293,42.89h-5.078S228.207,268.713,228.46,262.21Z" transform="translate(-147.171 -164.537)" fill="#606161"/>
  </g>
</svg>
